<svg width="600" height="510" viewBox="0 0 600 510" fill="none" xmlns="http://www.w3.org/2000/svg">
<path d="M381.324 25.0782C382.492 25.4925 393.061 31.3904 404.811 38.1854C416.561 44.9771 428.014 51.5959 430.255 52.8909C432.5 54.186 448.132 63.2155 464.997 72.9561C481.862 82.6935 505.202 96.1627 516.864 102.886C528.526 109.606 538.73 115.589 539.536 116.176C540.342 116.763 541.669 117.957 542.485 118.828C543.3 119.699 544.468 121.147 545.078 122.044C545.691 122.941 546.745 124.778 547.42 126.122C548.096 127.469 549.032 130.036 549.498 131.831C550.268 134.78 550.337 135.517 550.2 139.497C550.118 141.917 549.518 148.379 548.862 153.85C548.21 159.32 547.088 168.862 546.37 175.053C545.649 181.245 544.7 189.39 544.259 193.158C543.819 196.926 541.695 215.275 539.539 233.934C537.386 252.594 535.413 269.475 535.158 271.449C534.904 273.422 534.392 275.846 534.02 276.831C533.648 277.816 532.79 279.359 532.111 280.256C531.126 281.564 530.304 282.178 527.949 283.355C526.337 284.164 523.036 285.622 520.616 286.598C516.793 288.138 515.908 288.372 513.928 288.392C512.672 288.402 511.276 288.314 510.829 288.193L510.014 287.974C511.267 290.591 511.319 291.367 511.319 299.34V307.984C509.971 310.512 509.019 311.775 508.331 312.417C507.642 313.063 506.638 313.885 506.099 314.247C505.561 314.609 493.084 321.851 478.371 330.343C463.659 338.831 449.42 347.048 446.729 348.597C444.038 350.15 431.707 357.268 419.327 364.419C406.948 371.569 396.085 377.757 395.188 378.168C394.291 378.579 392.382 379.238 390.947 379.633C388.729 380.246 387.502 380.354 382.792 380.354C378.081 380.354 376.855 380.246 374.637 379.633C373.201 379.238 371.293 378.573 370.396 378.159C369.499 377.741 361.5 373.177 352.617 368.01C343.735 362.846 324.211 351.497 309.231 342.791C294.252 334.084 273.479 322.014 263.073 315.97C252.666 309.925 237.4 301.055 229.147 296.263C218.538 290.101 213.684 287.103 212.582 286.024C211.721 285.185 210.693 283.838 210.298 283.029C209.623 281.662 209.568 281.026 209.457 273.732C209.362 267.426 209.437 265.554 209.842 264.109C210.191 262.846 210.807 261.79 211.913 260.55C212.781 259.581 214.076 258.42 214.793 257.97C215.511 257.519 222.189 253.634 229.636 249.332C237.083 245.032 253.231 235.709 265.519 228.614C277.807 221.519 294.986 211.602 303.686 206.575C312.386 201.548 320.9 196.655 322.606 195.706C324.312 194.753 326.586 193.68 327.662 193.321C328.739 192.962 330.758 192.45 332.148 192.179C333.537 191.912 336.108 191.69 337.856 191.687C339.605 191.684 342.286 191.899 343.81 192.16C345.333 192.421 346.856 192.754 347.192 192.897C347.61 193.073 347.31 192.431 346.25 190.875C345.392 189.619 344.273 187.675 343.761 186.552C343.249 185.43 342.459 183.228 342.006 181.659C341.552 180.09 341.096 177.63 340.991 176.195C340.884 174.76 340.959 172.264 341.154 170.65C341.353 169.035 341.878 164.559 342.322 160.7C342.769 156.841 344.319 143.486 345.77 131.015C347.219 118.544 349.649 97.6274 351.169 84.5301C352.689 71.4327 354.297 57.559 354.744 53.7032C355.194 49.8474 355.798 44.7813 356.088 42.4489C356.375 40.1165 356.865 37.4742 357.174 36.5772C357.484 35.6801 358.111 34.3589 358.564 33.6413C359.021 32.9236 359.814 31.9417 360.329 31.4622C360.841 30.9826 361.996 30.2291 362.893 29.7854C363.79 29.3451 366.873 27.9913 369.743 26.7811C373.958 24.9999 375.371 24.553 377.083 24.4487C378.711 24.3508 379.696 24.4976 381.324 25.0782Z" fill="url(#paint0_linear_1_173)"/>
<path d="M380.434 26.2718C380.929 26.4219 382.032 26.9112 382.88 27.3581C383.728 27.805 387.212 29.7819 390.621 31.7554C394.03 33.7257 401.592 38.0904 407.421 41.4569C413.254 44.8234 422.28 50.0395 427.483 53.0472C432.686 56.0548 441.716 61.2677 447.545 64.6342C453.378 67.9974 460.495 72.1077 463.366 73.7648C466.237 75.4187 481.357 84.1481 496.966 93.1613C512.575 102.171 527.656 110.888 530.474 112.532C533.296 114.176 535.573 115.539 535.53 115.565C535.491 115.592 533.478 116.436 531.055 117.441C528.399 118.54 526.52 119.15 526.325 118.978C526.145 118.818 518.365 114.29 509.036 108.917C499.706 103.545 475.707 89.71 455.7 78.1784C435.694 66.6436 410.889 52.3263 400.571 46.3631C390.256 40.4 379.465 34.1792 376.594 32.5383C373.723 30.9008 370.934 29.4687 370.396 29.3578C369.858 29.2501 369.271 29.0838 369.091 28.9892C368.912 28.8946 370.158 28.2226 371.864 27.4984C374.327 26.448 375.433 26.1577 377.247 26.0859C378.502 26.037 379.938 26.1218 380.434 26.2718ZM368.765 30.5321C369.483 30.6789 370.585 31.0149 371.212 31.2759C371.838 31.5401 379.475 35.8624 388.175 40.8861C396.875 45.9064 407.372 51.9674 411.499 54.352C415.625 56.7366 429.424 64.6994 442.162 72.0457C454.901 79.3952 468.187 87.0677 471.684 89.0934C475.185 91.1225 484.139 96.3027 491.583 100.599C499.031 104.898 510.259 111.387 516.538 115.017C522.818 118.648 528.471 122.06 529.097 122.599C529.727 123.137 530.901 124.36 531.707 125.316C532.516 126.272 533.651 127.837 534.232 128.79C534.813 129.746 535.71 131.553 536.225 132.809C536.741 134.065 537.403 136.156 537.696 137.457C537.99 138.759 538.231 141.108 538.231 142.677C538.231 144.291 535.68 167.508 532.36 196.094C529.13 223.903 525.751 253.044 524.85 260.846C523.95 268.649 523.056 275.989 522.864 277.157C522.671 278.325 522.241 280.011 521.908 280.908C521.575 281.806 520.671 283.26 519.898 284.144C519.128 285.028 517.908 286.014 517.191 286.34C516.362 286.715 515.113 286.93 513.766 286.927C512.301 286.927 511.091 286.699 509.851 286.183C508.866 285.775 496.095 278.488 481.471 269.993C466.85 261.499 450.04 251.732 444.12 248.287C438.199 244.843 428.804 239.382 423.242 236.149C417.68 232.916 406.743 226.559 398.94 222.021C391.137 217.48 377.703 209.664 369.091 204.65C360.479 199.633 352.918 195.272 352.291 194.952C351.665 194.636 350.556 193.735 349.835 192.952C349.111 192.169 348.064 190.868 347.512 190.059C346.958 189.25 345.953 187.492 345.278 186.144C344.603 184.8 343.702 182.305 343.275 180.599C342.773 178.602 342.499 176.573 342.502 174.89C342.502 173.455 343.464 164.06 344.635 154.013C345.803 143.965 347.193 132 347.718 127.426C348.243 122.853 349.783 109.566 351.14 97.9044C352.497 86.2424 353.968 73.618 354.409 69.8503C354.852 66.0826 355.805 57.8621 356.526 51.5825C357.247 45.303 358.003 39.4312 358.209 38.5341C358.411 37.637 358.907 36.2441 359.305 35.4351C359.706 34.6294 360.528 33.4713 361.138 32.8646C361.745 32.2578 362.756 31.501 363.383 31.1846C364.009 30.8681 365.187 30.5321 365.992 30.4375C366.801 30.3397 368.047 30.3854 368.765 30.5321ZM548.527 143.492C548.425 144.076 547.095 155.415 545.568 168.692C544.041 181.969 542.283 197.16 541.663 202.455C541.043 207.749 538.92 226.024 536.943 243.068C534.734 262.106 533.139 274.688 532.803 275.689C532.5 276.586 531.929 277.836 531.528 278.462C531.13 279.088 530.383 280.002 529.871 280.484C529.355 280.97 527.395 282.037 525.512 282.856C523.627 283.678 522.048 284.343 522.006 284.34C521.96 284.337 522.289 283.636 522.736 282.784C523.183 281.933 523.77 280.282 524.044 279.114C524.315 277.946 525.568 268.039 526.827 257.095C528.086 246.151 529.411 234.626 529.773 231.488C530.138 228.349 530.637 224.017 530.888 221.864C531.14 219.711 533.191 201.949 535.449 182.393C537.706 162.837 539.68 146.617 539.833 146.347C539.986 146.076 541.999 145.084 544.309 144.138C546.618 143.192 548.553 142.422 548.608 142.426C548.664 142.429 548.624 142.908 548.527 143.492ZM341.853 193.324C343.021 193.481 344.929 193.859 346.093 194.166C347.261 194.472 348.801 195.014 349.519 195.373C350.236 195.732 351.264 196.355 351.802 196.762C352.34 197.167 354.911 198.736 357.511 200.253C360.114 201.767 370.096 207.527 379.693 213.05C389.294 218.576 399.863 224.67 403.18 226.594C406.501 228.516 420.887 236.818 435.149 245.038C449.414 253.256 469.45 264.82 479.677 270.731C489.903 276.638 499.996 282.487 502.104 283.72C504.211 284.953 506.462 286.441 507.104 287.025C507.747 287.609 508.631 288.819 509.068 289.716C509.502 290.613 509.858 291.898 509.854 292.57C509.854 293.242 509.659 294.27 509.42 294.854C509.186 295.438 508.416 296.56 507.708 297.349C507.003 298.136 505.914 299.108 505.284 299.506C504.658 299.9 498.564 303.45 491.746 307.39C484.929 311.328 473.113 318.155 465.486 322.562C457.863 326.966 447.806 332.769 443.141 335.457C438.476 338.145 427.467 344.503 418.675 349.582C409.884 354.661 400.929 359.825 398.776 361.052C396.623 362.282 394.128 363.564 393.231 363.903C392.334 364.242 390.354 364.774 388.827 365.084C386.664 365.521 385.053 365.606 381.487 365.472C378.232 365.351 376.242 365.107 374.555 364.614C373.254 364.239 371.274 363.469 370.151 362.908C369.029 362.347 366.426 360.898 364.361 359.688C362.3 358.478 350.628 351.69 338.428 344.608C326.227 337.522 305.311 325.371 291.943 317.607C278.578 309.84 259.935 299.01 250.514 293.536C241.096 288.065 229.353 281.238 224.417 278.371C219.485 275.5 214.859 272.688 214.141 272.117C213.424 271.546 212.432 270.28 211.936 269.305C211.398 268.248 211.036 267.009 211.036 266.229C211.036 265.449 211.398 264.21 211.936 263.153C212.432 262.177 213.424 260.902 214.141 260.321C214.859 259.741 219.632 256.854 224.743 253.908C229.858 250.962 246.446 241.388 261.605 232.633C276.767 223.88 297.243 212.058 307.111 206.366C316.979 200.674 325.568 195.758 326.195 195.441C326.824 195.122 328.658 194.528 330.272 194.117C331.887 193.709 334.676 193.298 336.47 193.203C338.264 193.112 340.688 193.164 341.853 193.324ZM212.889 272.812C214.063 273.967 218.914 276.955 231.114 284.043C240.261 289.354 260.953 301.378 277.1 310.76C293.247 320.145 308.149 328.799 310.21 329.997C312.275 331.194 315.43 333.021 317.224 334.061C319.018 335.102 329.075 340.954 339.569 347.067C350.067 353.177 361.295 359.695 364.524 361.554C368.08 363.596 371.362 365.234 372.843 365.7C374.19 366.128 376.757 366.656 378.551 366.878C380.509 367.123 383.053 367.201 384.913 367.074C386.619 366.959 389.186 366.581 390.621 366.235C392.057 365.889 393.893 365.325 394.699 364.979C395.508 364.634 409.453 356.681 425.689 347.309C441.928 337.933 459.69 327.684 465.16 324.533C470.634 321.381 476.284 318.109 477.719 317.265C479.155 316.42 486.276 312.3 493.541 308.111C502.283 303.071 507.274 299.995 508.295 299.02L509.838 297.545C509.838 306.464 509.734 307.563 509.248 308.636C508.921 309.354 508.008 310.574 507.215 311.347C506.279 312.261 501.265 315.356 492.888 320.197C485.803 324.294 465.323 336.123 447.382 346.483C429.44 356.844 412.852 366.424 410.52 367.768C408.188 369.116 403.859 371.618 400.897 373.33C397.938 375.04 394.709 376.769 393.72 377.17C392.735 377.568 390.752 378.139 389.316 378.439C387.773 378.762 385.177 378.984 382.955 378.987C380.894 378.99 378.323 378.833 377.247 378.641C376.17 378.449 374.262 377.943 373.006 377.519C371.75 377.095 367.861 375.089 364.361 373.066C360.864 371.04 350.295 364.901 340.874 359.421C331.456 353.944 321.474 348.144 318.692 346.535C315.912 344.924 301.892 336.785 287.539 328.444C273.185 320.106 258.359 311.484 254.591 309.285C250.824 307.087 240.476 301.072 231.594 295.921C222.714 290.767 214.823 286.049 214.06 285.443C213.244 284.79 212.337 283.629 211.855 282.621C211.068 280.983 211.039 280.7 211.16 276.074L211.287 271.24L212.889 272.812Z" fill="white"/>
<path d="M387.684 57.3208C393.605 60.7363 400.433 64.6834 402.853 66.0861C405.273 67.4921 412.32 71.5665 418.511 75.1417C424.703 78.717 437.03 85.8382 445.913 90.9662C454.795 96.091 470.503 105.156 480.817 111.113C491.135 117.066 504.184 124.605 509.817 127.864C518.625 132.956 520.214 133.993 521.15 135.256C521.747 136.065 522.543 137.533 522.918 138.518C523.293 139.506 523.675 140.974 523.766 141.78C523.857 142.589 523.398 147.799 522.748 153.36C522.099 158.922 521.274 165.968 520.918 169.019C520.563 172.069 519.023 185.28 517.5 198.377C515.976 211.475 513.703 231.074 512.447 241.927C511.194 252.783 510.078 262.103 509.967 262.641C509.86 263.179 509.514 263.988 509.204 264.435C508.894 264.885 508.105 265.508 507.452 265.821C506.797 266.135 505.785 266.396 505.202 266.399C504.435 266.405 502.204 265.296 497.128 262.383C493.272 260.168 483.287 254.417 474.945 249.599C466.604 244.784 442.383 230.796 421.121 218.518C399.862 206.242 377.715 193.458 371.912 190.111C366.105 186.764 360.922 183.584 360.393 183.046C359.862 182.507 358.948 181.114 358.358 179.947C357.767 178.779 357.184 177.092 357.056 176.195C356.883 174.985 358.469 160.413 363.196 119.761C366.696 89.6189 369.86 62.4978 370.222 59.4934C370.721 55.3668 371.044 53.7913 371.537 53.0508C371.896 52.5125 372.63 51.8536 373.168 51.5828C373.706 51.3153 374.77 51.0967 375.533 51.1C376.733 51.1033 378.361 51.9384 387.684 57.3208ZM340.677 207.28C341.199 207.381 342.299 207.596 343.124 207.756C343.949 207.916 346.092 208.898 347.887 209.938C349.681 210.982 364.729 219.728 381.323 229.377C397.921 239.027 413.699 248.2 416.391 249.759C419.082 251.318 429.945 257.627 440.53 263.779C451.116 269.932 464.843 277.898 471.031 281.483C477.222 285.071 482.726 288.431 483.264 288.95C484.086 289.746 484.259 290.196 484.353 291.765C484.445 293.305 484.331 293.823 483.701 294.724C483.104 295.575 477.673 298.85 458.798 309.733C445.521 317.386 434 323.845 433.191 324.086C432.385 324.327 430.401 324.523 428.787 324.523C427.172 324.523 425.264 324.37 424.546 324.181C423.828 323.995 421.48 322.83 419.327 321.594C417.174 320.357 406.823 314.355 396.329 308.255C385.835 302.155 370.346 293.151 361.914 288.245C353.481 283.339 345.776 278.863 344.788 278.299C343.802 277.735 339.252 275.092 334.675 272.43C330.102 269.769 322.905 265.583 318.691 263.13C314.476 260.677 307.283 256.492 302.706 253.83C298.133 251.168 293.582 248.529 292.594 247.965C291.609 247.404 289.368 246.109 287.619 245.088C285.535 243.871 284.214 242.866 283.786 242.171C283.431 241.587 283.137 240.56 283.134 239.888C283.134 239.216 283.392 238.133 283.705 237.484C284.132 236.596 284.928 235.915 286.885 234.753C288.321 233.905 299.255 227.583 311.188 220.707C323.121 213.83 333.468 208.03 334.186 207.815C334.903 207.599 336.443 207.348 337.611 207.257C338.779 207.166 340.159 207.175 340.677 207.28ZM306.458 268.242C306.817 268.34 309.312 269.707 312.003 271.276C314.695 272.845 321.447 276.772 327.009 280.002C332.571 283.231 346.298 291.197 357.51 297.699C368.725 304.203 378.227 309.873 378.632 310.303C379.036 310.731 379.366 311.488 379.369 311.98C379.369 312.473 379.17 313.171 378.925 313.53C378.681 313.889 377.321 314.854 375.905 315.679C374.489 316.501 367.241 320.684 359.796 324.976L346.262 332.776L341.036 332.773C325.362 323.639 309.361 314.339 295.367 306.216C281.372 298.09 269.593 291.093 269.188 290.662C268.728 290.17 268.461 289.485 268.471 288.819C268.48 288.085 268.754 287.524 269.368 286.996C269.851 286.578 275.461 283.228 281.829 279.558C288.2 275.885 295.246 271.834 297.487 270.552C301.271 268.385 301.718 268.213 303.685 268.141C304.853 268.095 306.099 268.141 306.458 268.242ZM501.085 307.792C501.691 308.284 501.851 308.718 501.835 309.831C501.822 310.688 501.499 311.801 501.019 312.655C500.55 313.487 499.627 314.44 498.759 314.981C497.953 315.487 495.898 316.71 494.192 317.705C492.489 318.697 490.728 319.604 490.277 319.721C489.713 319.868 489.188 319.724 488.565 319.258C487.847 318.72 487.668 318.325 487.668 317.281C487.668 316.564 487.87 315.5 488.118 314.916C488.363 314.332 488.989 313.465 489.504 312.988C490.02 312.509 492.349 311.008 494.681 309.651C497.014 308.297 499.235 307.185 499.617 307.178C499.998 307.172 500.657 307.449 501.085 307.792ZM484.569 316.599C484.928 316.74 485.404 317.353 485.629 317.963C485.942 318.814 485.952 319.382 485.671 320.38C485.472 321.098 484.973 322.125 484.562 322.664C484.154 323.202 481.858 324.794 479.464 326.203C477.069 327.615 474.668 328.845 474.13 328.943C473.383 329.077 472.965 328.933 472.368 328.336C471.696 327.671 471.602 327.315 471.716 325.88C471.814 324.611 472.094 323.897 472.864 322.944C473.536 322.109 475.353 320.843 478.247 319.193C480.648 317.823 482.905 316.622 483.264 316.524C483.623 316.43 484.21 316.462 484.569 316.599ZM468.748 326.415C469.182 326.85 469.4 327.502 469.4 328.372C469.4 329.09 469.243 330.082 469.054 330.574C468.865 331.067 468.167 332.023 467.505 332.695C466.842 333.367 465.896 333.993 465.404 334.081C464.911 334.172 464.213 334.097 463.854 333.918C463.496 333.738 463.055 333.115 462.876 332.531C462.657 331.827 462.657 331.086 462.872 330.33C463.049 329.703 463.489 328.712 463.851 328.128C464.21 327.544 464.983 326.774 465.567 326.415C466.151 326.059 466.957 325.766 467.361 325.763C467.766 325.763 468.389 326.056 468.748 326.415Z" fill="url(#paint1_linear_1_173)"/>
<path fill-rule="evenodd" clip-rule="evenodd" d="M374.963 52.558C374.425 52.6624 373.649 53.0734 373.238 53.4714C372.83 53.8661 372.432 54.4142 372.354 54.6817C372.279 54.9491 371.333 62.8043 370.25 72.1339C369.17 81.4635 367.105 99.2257 365.66 111.605C364.215 123.985 362.156 141.672 361.086 150.914C360.013 160.155 358.992 168.888 358.813 170.323C358.633 171.759 358.49 173.703 358.49 174.646C358.49 175.588 358.777 177.128 359.129 178.071C359.478 179.013 360.212 180.406 360.76 181.17C361.305 181.933 362.045 182.703 362.404 182.882C362.763 183.062 363.135 183.173 363.226 183.127C363.321 183.081 364.052 177.539 364.848 170.813C365.644 164.083 366.466 157.552 366.678 156.296C366.886 155.04 367.346 153.132 367.699 152.055C368.048 150.979 368.798 149.221 369.366 148.151C369.933 147.077 371.277 145.267 372.354 144.125C373.616 142.785 375.006 141.708 376.268 141.092C377.345 140.566 379.035 139.92 380.02 139.656C381.005 139.392 382.584 139.177 383.526 139.173C385.206 139.17 385.242 139.151 385.405 138.11C385.497 137.526 385.859 134.629 386.211 131.667C386.56 128.705 387.001 126.138 387.186 125.959C387.41 125.741 387.658 125.773 387.93 126.053C388.256 126.389 388.191 127.704 387.604 132.659C387.2 136.061 386.926 138.955 386.994 139.089C387.063 139.222 387.725 139.444 388.462 139.578C389.202 139.712 390.798 140.273 392.008 140.824C393.218 141.375 395.091 142.455 396.167 143.222C397.244 143.992 399.129 145.707 400.359 147.035C401.589 148.359 403.226 150.398 403.999 151.566C404.773 152.734 406.041 154.861 408.23 158.906L408.837 153.85C409.176 151.015 409.607 148.692 409.816 148.562C410.024 148.431 410.36 148.506 410.566 148.725C410.843 149.022 410.749 150.708 409.424 161.842L410.243 164.125C410.693 165.381 411.499 168.242 412.034 170.486C412.569 172.727 413.384 175.813 413.848 177.337C414.311 178.86 415.303 181.577 416.053 183.372C416.806 185.166 418.261 188.102 419.292 189.896C420.323 191.69 421.967 194.257 422.946 195.605C423.924 196.949 425.513 198.932 426.479 200.008C427.444 201.085 428.305 201.891 428.393 201.803C428.478 201.714 429.232 195.693 430.067 188.428C430.902 181.163 431.652 174.959 431.737 174.646C431.822 174.323 432.135 174.114 432.458 174.169C432.924 174.244 433.016 174.554 432.951 175.882C432.905 176.772 432.2 183.297 429.897 203.27L430.648 204.034C431.059 204.455 432.572 205.577 434.007 206.526C435.443 207.475 437.351 208.62 438.248 209.067C439.145 209.514 441.125 210.284 442.652 210.773C444.922 211.504 446.077 211.674 452.598 211.752L453.58 203.27C454.529 195.047 454.582 194.786 455.293 194.707C455.811 194.649 456.02 194.796 456.01 195.197C456.001 195.51 455.58 199.291 455.077 203.597C454.572 207.903 454.216 211.501 454.288 211.589C454.356 211.677 455.4 211.488 456.607 211.168C457.814 210.845 459.644 210.222 460.675 209.782C461.706 209.341 463.468 208.575 464.59 208.082C466.459 207.26 466.955 207.188 470.543 207.208C473.733 207.227 474.807 207.364 478.209 208.653L478.369 207.593C478.46 207.009 478.829 203.962 479.188 200.824C479.55 197.682 479.99 194.968 480.169 194.789C480.385 194.572 480.628 194.602 480.9 194.88C481.226 195.216 481.187 196.322 480.708 200.426C480.378 203.248 480.042 206.435 479.804 209.468L482 210.773C483.278 211.533 485.634 213.507 487.65 215.503C489.672 217.51 491.975 220.214 493.205 222.028C494.363 223.734 496.076 226.67 497.015 228.552C497.951 230.434 499.184 233.37 499.755 235.076C500.323 236.782 501.067 239.607 501.406 241.356C501.745 243.104 502.11 245.968 502.221 247.717C502.362 249.967 502.218 252.662 501.735 256.932C501.357 260.25 501.086 262.977 501.129 262.99C501.171 263.003 501.905 263.407 502.756 263.887C503.608 264.366 504.782 264.768 505.366 264.771C505.95 264.777 506.831 264.484 507.323 264.119C507.816 263.756 508.292 263.199 508.377 262.885C508.462 262.572 509.418 254.681 510.501 245.352C511.584 236.022 512.614 227.214 512.794 225.779C512.973 224.344 515.185 205.407 517.707 183.698C520.515 159.535 522.247 143.466 522.172 142.269C522.097 141.075 521.706 139.549 521.171 138.355C520.688 137.278 519.817 135.944 519.233 135.386C518.646 134.832 512.738 131.25 506.1 127.427C499.462 123.607 488.892 117.513 482.613 113.889C476.333 110.265 465.983 104.288 459.615 100.609C453.247 96.9324 437.025 87.5669 423.569 79.7999C410.113 72.0295 394.406 62.9641 388.664 59.6466C382.923 56.3323 377.71 53.3377 377.084 52.9919C376.327 52.5809 375.613 52.4341 374.963 52.558ZM383.155 140.638C382.238 140.756 380.9 141.007 380.183 141.193C379.465 141.379 378.072 141.917 377.087 142.39C376.102 142.863 374.559 143.982 373.659 144.879C372.758 145.776 371.607 147.244 371.098 148.141C370.589 149.038 369.881 150.506 369.525 151.403C369.17 152.3 368.677 153.987 368.433 155.154C368.188 156.322 367.317 163 366.502 169.997C365.683 176.994 365.014 183.088 365.011 183.535C365.007 184.256 365.82 184.817 371.943 188.333C375.756 190.525 378.953 192.238 379.041 192.137C379.129 192.039 380.538 180.485 382.169 166.461C383.804 152.437 385.066 140.844 384.978 140.694C384.893 140.547 384.071 140.521 383.155 140.638ZM387.115 140.808C386.802 140.804 386.547 140.912 386.55 141.046C386.554 141.18 385.197 152.988 383.533 167.283C381.869 181.581 380.584 193.334 380.672 193.403C380.76 193.471 385.715 196.342 391.682 199.787C397.648 203.228 402.587 206.007 402.662 205.962C402.734 205.916 403.611 198.906 404.609 190.385C405.608 181.861 406.749 171.954 407.868 161.842L406.485 158.906C405.722 157.291 404.169 154.577 403.031 152.871C401.892 151.165 399.883 148.699 398.565 147.387C397.247 146.076 395.286 144.429 394.21 143.724C393.133 143.019 391.225 142.077 389.969 141.63C388.713 141.18 387.428 140.811 387.115 140.808ZM409.144 166.034C409.003 166.187 407.836 175.435 406.547 186.585C405.255 197.735 404.277 206.934 404.371 207.022C404.463 207.11 409.408 209.997 415.358 213.435C424.339 218.622 426.218 219.591 426.4 219.144C426.524 218.847 426.997 215.298 428.282 203.923L426.061 201.639C424.838 200.384 422.969 198.182 421.908 196.746C420.845 195.311 419.246 192.887 418.353 191.364C417.462 189.84 416.043 187.048 415.205 185.166C414.366 183.284 413.234 180.348 412.69 178.642C412.142 176.936 411.173 173.416 410.533 170.813C409.894 168.209 409.379 166.007 409.385 165.919C409.392 165.831 409.284 165.88 409.144 166.034ZM429.839 205.404C429.698 205.397 429.522 205.942 429.447 206.614C429.372 207.286 429 210.698 428.618 214.199C428.24 217.699 428.051 220.654 428.194 220.768C428.341 220.883 433.306 223.776 439.227 227.195C445.148 230.613 450.015 233.38 450.044 233.347C450.073 233.311 450.55 229.393 451.098 224.637C451.649 219.881 452.174 215.477 452.425 213.709L449.251 213.471C447.506 213.337 444.903 212.939 443.468 212.581C442.032 212.225 439.243 211.122 437.27 210.134C435.296 209.142 432.872 207.678 431.887 206.875C430.902 206.073 429.979 205.41 429.839 205.404ZM469.401 208.532C468.416 208.62 467.095 208.842 466.465 209.031C465.836 209.221 464.078 209.941 462.551 210.633C461.024 211.328 458.463 212.228 453.936 213.383L452.735 223.822C452.076 229.563 451.554 234.28 451.58 234.303C451.603 234.326 456.578 237.226 462.632 240.746C469.695 244.853 473.691 246.999 473.782 246.738C473.861 246.513 474.836 238.403 475.952 228.715C477.067 219.026 477.886 210.842 477.769 210.529C477.648 210.202 476.823 209.729 475.844 209.423C474.901 209.129 473.472 208.774 472.663 208.633C471.854 208.493 470.386 208.447 469.401 208.532ZM338.917 208.682C337.749 208.676 336.174 208.813 335.41 208.986C334.608 209.172 326.378 213.719 315.838 219.806C305.836 225.58 294.951 231.856 291.646 233.752C288.126 235.771 285.428 237.532 285.128 238.012C284.848 238.459 284.642 239.343 284.675 239.969C284.711 240.684 285.014 241.378 285.484 241.822C285.895 242.217 292.031 245.896 299.119 250.007C306.208 254.114 323.823 264.344 338.265 272.743C352.706 281.14 371.349 291.977 379.693 296.821C388.038 301.669 399.781 308.496 405.79 311.99C411.799 315.487 418.261 319.238 420.144 320.331C422.026 321.427 424.303 322.507 425.2 322.739C426.097 322.967 427.565 323.156 428.462 323.156C429.359 323.159 430.902 323.006 431.887 322.817C433.322 322.543 437.129 320.481 450.97 312.482C460.479 306.986 471.195 300.804 474.784 298.742C478.372 296.681 481.641 294.688 482.052 294.313C482.459 293.937 482.877 293.19 482.981 292.652C483.096 292.068 482.972 291.279 482.675 290.695C482.283 289.918 480.019 288.464 471.796 283.698C466.084 280.387 457.592 275.461 452.928 272.747C448.263 270.033 436.741 263.329 427.32 257.849C417.902 252.365 405.131 244.947 398.94 241.359C392.748 237.771 379.247 229.925 368.929 223.929C358.614 217.93 348.779 212.225 347.072 211.25C345.366 210.274 343.314 209.299 342.505 209.087C341.696 208.872 340.085 208.692 338.917 208.682ZM479.726 211.263C479.553 211.263 479.36 211.739 479.299 212.323C479.24 212.907 478.457 219.77 477.56 227.573C476.663 235.376 475.743 243.114 475.518 244.764C475.293 246.415 475.185 247.841 475.273 247.929C475.364 248.02 480.796 251.188 487.343 254.965C493.893 258.746 499.325 261.838 499.413 261.838C499.504 261.835 499.853 259.594 500.192 256.854C500.652 253.115 500.757 250.822 500.607 247.635C500.499 245.303 500.124 242.145 499.778 240.622C499.432 239.098 498.832 236.896 498.444 235.728C498.056 234.561 496.93 231.922 495.945 229.857C494.957 227.792 493.316 224.859 492.295 223.332C491.277 221.809 489.121 219.183 487.506 217.497C485.891 215.81 483.552 213.719 482.306 212.848C481.063 211.974 479.902 211.263 479.726 211.263ZM492.073 313.037C491.893 313.027 491.381 313.291 490.931 313.627C490.484 313.963 489.858 314.847 489.545 315.594C489.232 316.345 489.049 317.248 489.137 317.607C489.228 317.966 489.483 318.256 489.708 318.253C489.933 318.25 491.329 317.552 492.813 316.704C494.301 315.855 495.534 315.076 495.557 314.971C495.58 314.867 494.882 314.394 494.001 313.918C493.12 313.445 492.252 313.047 492.073 313.037ZM476.333 322.181C476.288 322.177 475.811 322.393 475.273 322.663C474.696 322.951 474.02 323.724 473.626 324.539C473.257 325.303 473.003 326.219 473.058 326.578C473.117 326.937 473.417 327.266 473.73 327.312C474.04 327.358 475.469 326.731 476.904 325.926C478.339 325.12 479.54 324.386 479.569 324.295C479.599 324.206 478.901 323.694 478.02 323.159C477.136 322.624 476.379 322.184 476.333 322.181ZM464.427 330.303C464.277 330.453 464.198 330.998 464.25 331.514C464.316 332.156 464.547 332.482 464.997 332.551C465.356 332.606 465.911 332.385 466.234 332.062C466.792 331.494 466.772 331.442 465.758 330.75C465.174 330.356 464.577 330.153 464.427 330.303Z" fill="white"/>
<path d="M404.158 83.1078C404.608 83.2905 410.845 86.8299 418.022 90.976C425.198 95.1189 436.648 101.728 443.466 105.665C450.284 109.599 456.279 113.207 456.788 113.68C457.297 114.153 458.028 115.129 458.406 115.846C458.922 116.815 459.101 117.755 459.111 119.49C459.121 121.369 458.99 122.012 458.439 122.752C458.064 123.261 457.229 123.822 456.576 124.002C455.621 124.266 455.161 124.214 454.159 123.721C453.481 123.388 445.293 118.701 435.963 113.305C426.633 107.913 415.33 101.385 410.845 98.7986C406.36 96.215 402.344 93.7814 401.923 93.3933C401.502 93.0051 400.804 92.0982 400.37 91.3805C399.884 90.5813 399.499 89.3189 399.375 88.1184C399.229 86.6798 399.31 85.8578 399.688 85.0194C400.008 84.3148 400.651 83.6591 401.365 83.3068C402.005 82.9937 402.709 82.7457 402.934 82.7555C403.159 82.7686 403.707 82.9252 404.158 83.1078ZM380.344 95.4223C380.791 95.556 383.068 96.7826 385.4 98.1429C387.733 99.5032 403.955 108.869 421.447 118.955C438.941 129.042 453.592 137.605 454.003 137.986C454.417 138.368 455.115 139.415 455.555 140.312C456.129 141.477 456.358 142.481 456.355 143.819C456.355 144.85 456.129 146.135 455.862 146.673C455.585 147.228 454.877 147.864 454.231 148.141C453.262 148.555 452.903 148.565 451.866 148.203C451.194 147.968 438.605 140.824 423.893 132.33C409.181 123.832 393.106 114.548 388.173 111.697C383.241 108.846 378.785 106.119 378.276 105.636C377.767 105.15 377.036 104.168 376.658 103.45C376.143 102.478 375.963 101.542 375.953 99.787C375.94 97.5916 376.009 97.3632 376.919 96.4629C377.457 95.9312 378.266 95.4255 378.713 95.3375C379.163 95.2461 379.897 95.2853 380.344 95.4223ZM483.916 129.668C485.172 130.004 487.08 130.725 488.157 131.266C489.233 131.808 490.995 132.91 492.071 133.723C493.148 134.532 494.639 135.758 495.382 136.446C496.129 137.138 497.526 138.655 498.491 139.823C499.453 140.991 500.928 143.046 501.766 144.39C502.605 145.737 503.867 148.086 504.575 149.609C505.28 151.132 506.229 153.556 506.682 154.992C507.136 156.427 507.772 158.922 508.091 160.537C508.489 162.537 508.672 164.928 508.666 168.04C508.656 171.573 508.503 173.197 507.977 175.217C507.609 176.652 506.943 178.635 506.503 179.62C506.062 180.606 505.09 182.224 504.343 183.209C503.593 184.194 502.363 185.499 501.603 186.105C500.846 186.712 499.418 187.583 498.432 188.037C497.01 188.696 495.963 188.898 493.376 189.019C490.659 189.146 489.706 189.048 487.667 188.448C486.323 188.05 484.412 187.277 483.427 186.732C482.442 186.184 480.677 185.036 479.512 184.181C478.348 183.323 476.648 181.835 475.738 180.876C474.828 179.917 473.213 177.957 472.143 176.521C471.076 175.086 469.452 172.444 468.532 170.65C467.609 168.855 466.395 166.066 465.831 164.452C465.267 162.837 464.497 160.048 464.125 158.254C463.632 155.889 463.446 153.778 463.446 150.588C463.446 147.642 463.626 145.372 463.994 143.737C464.294 142.393 464.973 140.263 465.501 139.007C466.03 137.751 467.123 135.879 467.928 134.848C468.737 133.817 470.098 132.467 470.949 131.847C471.801 131.227 473.308 130.405 474.293 130.02C475.454 129.563 477.066 129.27 478.86 129.185C480.892 129.087 482.243 129.214 483.916 129.668Z" fill="url(#paint2_linear_1_173)"/>
<path fill-rule="evenodd" clip-rule="evenodd" d="M379.45 96.7789C379.045 96.7691 378.422 97.0562 378.063 97.415C377.584 97.8946 377.411 98.5013 377.411 99.6985C377.411 100.628 377.685 101.927 378.05 102.716C378.399 103.479 378.951 104.344 379.274 104.634C379.593 104.928 387.491 109.566 396.82 114.942C406.15 120.315 422.444 129.723 433.03 135.846C443.615 141.969 452.57 146.989 452.929 146.999C453.287 147.012 453.832 146.758 454.139 146.438C454.445 146.118 454.791 145.342 454.912 144.716C455.036 144.047 454.941 142.974 454.68 142.125C454.436 141.326 453.721 140.132 453.092 139.467C452.394 138.726 448.469 136.26 442.979 133.109C438.044 130.277 429.898 125.587 424.875 122.687C419.851 119.787 409.944 114.065 402.855 109.971C395.767 105.877 387.768 101.238 385.077 99.6626C382.386 98.087 379.854 96.7887 379.45 96.7789ZM489.79 133.872L489.389 137.255C489.167 139.115 488.789 142.399 488.114 148.467L490.175 150.506C491.624 151.938 492.566 153.249 493.346 154.91C493.956 156.211 494.618 158.045 494.814 158.987C495.013 159.93 495.176 161.545 495.176 162.576C495.179 163.606 494.961 165.185 494.687 166.082C494.416 166.979 493.754 168.265 492.237 170.16L495.907 177.836C497.926 182.057 499.723 185.505 499.903 185.495C500.082 185.485 500.97 184.712 501.876 183.773C502.809 182.807 504.049 181.003 504.728 179.62C505.39 178.273 506.186 176.221 506.499 175.053C506.926 173.455 507.066 171.644 507.066 167.713C507.066 164.572 506.894 161.714 506.633 160.537C506.394 159.46 505.703 157.037 505.099 155.154C504.496 153.272 503.367 150.48 502.591 148.956C501.818 147.433 500.454 145.097 499.564 143.766C498.673 142.439 496.99 140.328 495.825 139.075C494.661 137.826 492.824 136.143 491.748 135.337L489.79 133.872ZM465.047 147.997C464.897 147.987 464.848 149.7 464.943 151.811C465.038 153.918 465.347 156.743 465.634 158.09C465.918 159.434 466.538 161.711 467.011 163.146C467.481 164.582 468.44 167.002 469.145 168.529C469.846 170.052 471.252 172.548 472.27 174.074C473.287 175.598 475.222 178.002 476.572 179.415C477.923 180.827 479.906 182.608 480.983 183.371C482.059 184.138 483.857 185.218 484.979 185.779C486.101 186.337 487.934 187.015 489.056 187.279C490.179 187.547 491.754 187.766 492.563 187.766C493.372 187.766 494.84 187.547 495.825 187.279C496.81 187.012 497.737 186.686 497.884 186.552C498.03 186.415 496.487 182.827 490.769 170.842L489.301 171.034C488.3 171.165 487.262 171.034 486.039 170.626C484.741 170.193 483.671 169.481 482.17 168.053C480.601 166.565 479.792 165.443 478.856 163.473C478.174 162.037 477.456 160.09 477.261 159.15C477.065 158.208 476.899 156.811 476.882 154.665L471.105 151.341C467.924 149.514 465.201 148.01 465.047 147.997ZM483.266 148.715C482.548 148.78 481.521 149.132 480.983 149.498C480.444 149.863 479.753 150.662 479.446 151.272C479.143 151.882 478.745 153.115 478.565 154.013C478.353 155.073 478.347 156.355 478.549 157.682C478.722 158.801 479.185 160.563 479.577 161.597C479.971 162.628 480.963 164.353 481.785 165.43C482.686 166.614 483.984 167.815 485.064 168.47C486.629 169.416 487.086 169.54 488.701 169.449C490.123 169.367 490.753 169.155 491.438 168.529C491.927 168.079 492.583 167.126 492.899 166.409C493.212 165.691 493.565 164.441 493.682 163.636C493.809 162.771 493.705 161.225 493.434 159.884C493.18 158.628 492.599 156.792 492.142 155.807C491.689 154.818 490.534 153.145 489.575 152.081C488.538 150.933 487.174 149.84 486.202 149.377C485.086 148.845 484.157 148.637 483.266 148.715Z" fill="white"/>
<path d="M285.089 20.3059C285.783 20.5623 288.79 22.2088 291.769 23.9601C294.748 25.7113 297.565 27.4048 298.027 27.7262C298.489 28.0439 299.171 28.9575 299.543 29.7518C300.182 31.1131 300.233 32.951 300.468 62.0687C300.692 90.031 300.659 93.1616 300.125 95.2883C299.796 96.581 298.922 98.8522 298.178 100.343C297.269 102.16 296.052 103.824 294.477 105.399C292.845 107.031 290.863 108.464 287.978 110.1L283.825 112.451C284.006 123.767 283.908 126.735 283.688 127.064C283.381 127.526 282.19 127.172 275.632 124.67L267.938 121.734C241.633 136.835 228.551 144.356 221.9 148.191C215.249 152.025 209.114 155.34 208.269 155.557C207.207 155.827 206.315 155.838 205.38 155.586C204.636 155.383 201.751 153.899 198.971 152.282C196.191 150.668 193.306 148.963 192.562 148.497C191.818 148.028 190.843 146.956 190.395 146.111L189.583 144.576C189.406 86.3082 189.467 81.8163 189.944 79.9423C190.247 78.7508 191.02 76.7323 191.663 75.4541C192.309 74.1686 193.88 72.031 195.18 70.6625C197.267 68.4671 198.621 67.5644 207.456 62.4804C212.916 59.339 229.002 50.0664 243.204 41.8734C257.405 33.6804 271.054 25.798 273.535 24.35C276.015 22.9057 278.698 21.3964 279.492 20.9956C280.287 20.5984 281.587 20.1723 282.381 20.0532C283.222 19.9268 284.353 20.0315 285.089 20.3059Z" fill="url(#paint3_linear_1_173)"/>
<path d="M296.196 28.5643C296.644 28.8207 297.373 29.6007 297.821 30.2939L298.63 31.5577C298.793 82.734 298.699 93.9203 298.449 95.1083C298.244 96.1012 297.55 97.9319 296.908 99.1813C296.265 100.427 295.171 102.157 294.478 103.023C293.784 103.893 292.401 105.19 291.408 105.908C290.415 106.627 287.978 108.151 285.992 109.288L282.381 111.361C282.24 122.132 282.161 125.262 282.11 125.266C282.06 125.269 278.933 124.118 275.16 122.706C271.386 121.298 268.057 120.128 267.757 120.11C267.458 120.088 265.103 121.298 262.522 122.796C259.94 124.295 247.187 131.661 234.177 139.171C221.167 146.678 209.876 153.116 209.082 153.474C208.287 153.835 207.11 154.134 206.464 154.138C205.745 154.142 204.907 153.817 204.297 153.293C203.752 152.827 203.106 151.813 202.86 151.036C202.528 149.975 202.412 142.063 202.391 118.759L202.365 87.8866C203.784 83.9689 204.864 81.8565 205.68 80.665C206.496 79.4734 207.839 77.9604 208.666 77.3033C209.49 76.6497 216.339 72.4937 223.886 68.0704C231.433 63.6471 243.944 56.3641 251.689 51.8831C259.434 47.4056 267.317 42.8524 269.202 41.7655C271.09 40.6787 277.059 37.2448 282.472 34.1395C289.545 30.0773 292.741 28.4344 293.846 28.2935C294.784 28.1744 295.694 28.2791 296.196 28.5643Z" fill="white"/>
<path d="M265.228 61.6499C265.727 61.8051 266.77 62.3287 267.55 62.8125C268.334 63.2964 269.518 64.423 270.182 65.3185C270.847 66.2103 271.753 67.9977 272.19 69.2904C272.873 71.2908 272.992 72.4137 272.992 76.8731C272.992 80.0001 272.797 82.9104 272.511 84.0948C272.248 85.1852 271.537 87.6225 270.93 89.511C270.327 91.3959 268.944 94.7286 267.857 96.9132C266.77 99.0977 264.929 102.268 263.77 103.954C262.611 105.641 260.473 108.313 259.021 109.887C257.57 111.465 255.244 113.66 253.854 114.769C252.464 115.877 250.272 117.372 248.98 118.094C247.687 118.82 245.416 119.773 243.925 120.217C241.848 120.839 240.577 120.994 238.487 120.885C236.233 120.77 235.446 120.557 233.991 119.661C233.023 119.066 231.727 117.928 231.11 117.134C230.492 116.339 229.604 114.715 229.138 113.523C228.456 111.786 228.254 110.461 228.124 106.843C228.001 103.532 228.12 101.463 228.571 99.0797C228.907 97.2923 229.59 94.53 230.088 92.9413C230.583 91.3525 231.857 88.2653 232.912 86.0807C233.969 83.8962 235.854 80.5634 237.1 78.6785C238.494 76.5698 240.906 73.6956 243.361 71.2258C245.564 69.0087 248.568 66.4126 250.063 65.4412C251.554 64.4699 253.908 63.2061 255.299 62.632C257.31 61.8051 258.491 61.5704 261.076 61.4802C262.863 61.4188 264.734 61.4946 265.228 61.6499Z" fill="url(#paint4_linear_1_173)"/>
<path d="M264.868 63.4909C265.963 63.8917 267.382 64.7475 268.032 65.3974C268.678 66.051 269.602 67.4737 270.086 68.5678C270.57 69.6618 271.133 71.9294 271.343 73.6229C271.603 75.728 271.61 77.714 271.357 79.9419C271.158 81.7292 270.671 84.4518 270.277 85.99C269.884 87.5282 269.18 89.803 268.71 91.0452C268.241 92.2873 267.183 94.6415 266.363 96.2809C265.54 97.9202 264.135 100.397 263.244 101.787C262.352 103.178 260.705 105.413 259.593 106.752C258.477 108.092 256.73 109.98 255.711 110.944C254.69 111.909 252.881 113.429 251.689 114.324C250.497 115.216 248.425 116.498 247.085 117.173C245.746 117.845 243.55 118.654 242.211 118.968C240.647 119.332 239.188 119.448 238.148 119.293C237.256 119.155 235.953 118.758 235.26 118.412C234.566 118.061 233.378 117.061 232.624 116.191C231.721 115.151 230.981 113.736 230.464 112.078C229.858 110.125 229.685 108.652 229.688 105.579C229.692 103.279 229.948 100.39 230.298 98.7182C230.631 97.1294 231.331 94.5296 231.858 92.9408C232.382 91.3521 233.512 88.5898 234.364 86.8024C235.216 85.0151 236.762 82.2528 237.798 80.664C238.834 79.0753 240.842 76.4033 242.254 74.7242C243.669 73.0452 245.803 70.8642 246.995 69.8785C248.186 68.8891 250.216 67.3906 251.508 66.5457C252.801 65.7044 254.953 64.5959 256.293 64.0831C257.632 63.5704 259.665 63.0649 260.806 62.9601C262.352 62.8193 263.388 62.9529 264.868 63.4909Z" fill="white"/>
<path d="M251.688 89.3682L248.196 96.3838C244.039 94.2582 242.447 93.4591 241.972 93.2355C241.497 93.0119 240.908 92.9628 240.657 93.1274C240.407 93.2919 240.227 93.6041 240.252 93.8256C240.276 94.0471 242.126 95.1604 244.364 96.3044C246.731 97.5144 248.617 98.2544 248.877 98.0789C249.126 97.9114 251.062 94.3543 253.188 90.1717C255.502 85.6188 256.933 82.3897 256.754 82.1181C256.592 81.8706 256.171 81.8227 255.82 82.0106C255.468 82.1984 253.608 85.5106 251.688 89.3682Z" fill="url(#paint5_linear_1_173)"/>
<path d="M132.248 168.302C134.432 168.876 137.44 169.786 138.928 170.317C140.419 170.851 143.423 172.13 145.608 173.162C147.792 174.191 151.042 176.033 152.829 177.253C154.617 178.474 156.975 180.341 158.065 181.399C159.156 182.46 160.64 184.053 161.362 184.941C162.08 185.829 162.933 187.082 163.258 187.728C163.741 188.696 163.843 190.213 163.85 196.394C163.857 203.569 163.893 203.963 164.731 205.692C165.207 206.685 165.875 208.556 166.211 209.845C166.738 211.863 166.832 214.409 166.868 228.079L166.912 243.967L164.85 250.105C166.406 254.612 166.5 255.818 166.843 267.618C167.099 276.465 167.096 281.498 166.839 283.867C166.608 285.975 166.096 288.2 165.511 289.644C164.987 290.937 164.034 292.879 163.388 293.963C162.745 295.046 160.755 297.404 158.968 299.198C157.181 300.993 154.335 303.387 152.649 304.513C150.963 305.644 147.713 307.456 145.427 308.547C143.142 309.637 139.812 311.02 138.025 311.623C136.238 312.226 133.15 313.129 131.165 313.631C129.179 314.133 125.279 314.902 122.499 315.339C118.281 316.007 115.948 316.14 108.416 316.144C101.657 316.148 98.3024 315.992 95.0562 315.516C92.6731 315.165 89.0189 314.494 86.9319 314.028C84.8448 313.559 81.5156 312.656 79.5297 312.024C77.5437 311.392 73.969 309.944 71.5859 308.807C69.2027 307.669 66.361 306.164 65.2669 305.463C64.1729 304.759 62.0208 303.188 60.4826 301.971C58.9444 300.751 56.6804 298.494 55.4563 296.956C54.2322 295.418 52.6218 292.858 51.878 291.269C51.1342 289.68 50.347 287.405 50.1303 286.214C49.8884 284.892 49.7368 278.692 49.744 270.326C49.7476 259.956 49.8667 256.164 50.235 254.8C50.5059 253.807 50.9753 252.424 51.2858 251.73C51.8202 250.532 51.7986 250.329 50.885 247.758L49.9209 245.05C49.7043 214.199 49.7657 211.907 50.2929 209.845C50.6251 208.556 51.4375 206.44 52.0946 205.151C52.7554 203.862 53.7159 202.237 54.2322 201.54C54.7486 200.843 56.3482 199.088 57.7817 197.637C59.2188 196.181 61.7753 194.051 63.4615 192.896C65.1478 191.744 68.1556 189.985 70.1415 188.992C72.1275 187.999 75.2978 186.609 77.1827 185.905C79.0675 185.197 82.2378 184.197 84.2238 183.681C86.2097 183.164 89.7014 182.428 91.9871 182.041C94.2727 181.651 98.4974 181.157 101.375 180.937C104.672 180.684 108.683 180.64 112.208 180.821C115.288 180.98 117.96 181.117 118.151 181.124C118.342 181.131 120.375 178.051 122.668 174.278C125.64 169.393 127.045 167.392 127.557 167.335C127.951 167.291 130.063 167.725 132.248 168.302Z" fill="url(#paint6_linear_1_173)"/>
<path d="M131.886 169.924C133.673 170.397 136.598 171.303 138.386 171.942C140.173 172.578 143.018 173.744 144.705 174.527C146.391 175.311 149.399 177.019 151.385 178.326C153.37 179.63 156.147 181.854 157.552 183.266C158.96 184.677 160.422 186.284 160.802 186.837C161.184 187.386 161.415 187.909 161.314 187.992C161.217 188.079 149.839 190.43 136.039 193.217C122.238 196.008 110.741 198.287 110.492 198.29C110.243 198.29 112.341 194.513 115.15 189.895C117.959 185.277 121.927 178.738 123.968 175.362C126.008 171.985 127.892 169.187 128.156 169.147C128.42 169.104 130.099 169.454 131.886 169.924ZM115.908 182.645C116.652 182.71 117.262 182.847 117.262 182.944C117.262 183.042 115.074 186.739 112.398 191.159L107.535 199.193C107.517 211.925 107.636 215.691 107.784 215.774C107.932 215.857 120.079 213.503 134.775 210.538C149.471 207.574 161.737 205.14 162.036 205.136C162.347 205.129 162.943 205.934 163.434 207.032C163.903 208.083 164.528 210.08 164.82 211.47C165.142 213.012 165.272 214.842 165.145 216.164C165.033 217.355 164.615 219.385 164.221 220.677C163.824 221.97 162.885 224.064 162.138 225.339C161.387 226.61 159.617 228.885 158.202 230.394C156.786 231.9 154.349 234.052 152.786 235.171C151.222 236.291 148.557 237.948 146.871 238.854C145.185 239.757 142.256 241.097 140.372 241.826C138.487 242.555 135.641 243.545 134.053 244.021C132.464 244.502 129.214 245.285 126.831 245.762C124.448 246.238 120.873 246.834 118.887 247.08C116.901 247.325 111.947 247.524 107.874 247.52C102.985 247.513 98.9409 247.304 95.9584 246.899C93.4777 246.563 89.6575 245.888 87.4729 245.401C85.2884 244.913 82.2841 244.122 80.7929 243.646C79.3052 243.169 76.7849 242.259 75.1961 241.624C73.6074 240.985 71.495 240.057 70.502 239.555C69.509 239.053 67.3137 237.746 65.6274 236.652C63.9412 235.554 61.6772 233.911 60.6011 232.994C59.5251 232.08 57.68 230.112 56.5028 228.621C55.3221 227.134 53.8669 224.859 53.2639 223.566C52.6609 222.273 51.9316 220.082 51.6427 218.691C51.3177 217.132 51.195 215.265 51.3177 213.817C51.4297 212.528 51.8521 210.415 52.2565 209.123C52.6609 207.834 53.6684 205.638 54.4989 204.248C55.3293 202.858 57.3225 200.421 58.9293 198.832C60.5361 197.243 63.1468 195.077 64.7319 194.022C66.3171 192.964 69.4007 191.227 71.5853 190.166C73.7698 189.101 77.5467 187.57 79.9804 186.761C82.4141 185.952 86.4763 184.876 89.0075 184.363C91.5387 183.854 95.8067 183.208 98.486 182.923C101.165 182.641 105.877 182.435 108.957 182.468C112.037 182.5 115.164 182.58 115.908 182.645ZM165.279 233.135C165.275 240.671 165.149 243.418 164.716 245.231C164.409 246.524 163.604 248.632 162.925 249.925C162.25 251.218 160.827 253.326 159.769 254.619C158.714 255.912 156.476 258.064 154.797 259.407C153.118 260.75 150.37 262.617 148.687 263.56C147.008 264.502 144.246 265.889 142.549 266.64C140.855 267.394 137.764 268.557 135.677 269.225C133.59 269.893 130.261 270.788 128.275 271.218C126.289 271.644 123.04 272.226 121.054 272.511C119.068 272.796 114.764 273.135 111.485 273.262C107.856 273.403 103.552 273.323 100.472 273.063C97.6916 272.825 93.6294 272.323 91.4448 271.944C89.2603 271.565 85.4436 270.669 82.9594 269.958C80.4787 269.243 76.9004 268.012 75.0156 267.221C73.1307 266.434 70.0398 264.914 68.155 263.848C66.2701 262.783 63.5151 260.963 62.0347 259.801C60.5578 258.638 58.3985 256.551 57.2431 255.161C56.084 253.771 54.5891 251.579 53.9175 250.286C53.2459 248.993 52.419 247.044 52.076 245.953C51.5777 244.364 51.4188 242.097 51.278 234.579C51.1805 229.416 51.1625 224.866 51.2383 224.469C51.3466 223.898 51.556 224.09 52.2276 225.371C52.697 226.267 53.7658 227.892 54.6072 228.982C55.4449 230.073 57.4164 232.163 58.9835 233.626C60.5542 235.088 62.811 236.926 64.0025 237.713C65.1941 238.5 68.2814 240.172 70.8631 241.432C73.4449 242.693 77.3445 244.292 79.5291 244.985C81.7136 245.682 85.3678 246.661 87.6535 247.166C89.9391 247.672 94.1638 248.354 97.0416 248.683C101.053 249.145 104.173 249.239 110.402 249.095C115.164 248.986 120.097 248.661 122.317 248.318C124.404 247.99 127.813 247.322 129.9 246.831C131.987 246.34 134.991 245.516 136.58 245C138.169 244.484 140.852 243.476 142.538 242.761C144.224 242.05 146.907 240.75 148.496 239.876C150.085 239.002 152.197 237.706 153.19 236.998C154.183 236.287 155.97 234.872 157.162 233.846C158.353 232.824 160.159 230.947 161.173 229.672C162.188 228.401 163.528 226.462 164.149 225.371L165.279 223.386V233.135ZM164.347 254.258C164.647 255.349 164.994 256.973 165.124 257.869C165.254 258.764 165.178 260.671 164.961 262.112C164.745 263.552 164.124 265.827 163.582 267.167C163.04 268.506 161.69 270.825 160.578 272.312C159.466 273.803 157.595 275.901 156.414 276.977C155.237 278.053 152.977 279.79 151.388 280.83C149.799 281.874 146.629 283.621 144.347 284.715C142.061 285.809 138.447 287.286 136.313 287.994C134.175 288.702 130.034 289.76 127.105 290.345C124.173 290.93 119.83 291.598 117.446 291.836C114.764 292.1 110.149 292.193 105.35 292.074C100.981 291.966 95.9259 291.627 93.7955 291.294C91.7084 290.969 87.9712 290.207 85.4905 289.597C83.0063 288.987 79.3521 287.875 77.3662 287.131C75.3802 286.384 72.3725 285.08 70.6862 284.235C68.9963 283.387 66.2557 281.78 64.5947 280.664C62.9337 279.545 60.4567 277.533 59.0882 276.194C57.7197 274.854 55.7807 272.496 54.7733 270.958C53.7695 269.42 52.5923 267.022 52.1554 265.632C51.5813 263.787 51.3719 262.224 51.3827 259.855C51.3935 257.894 51.6427 255.782 52.0146 254.529C52.354 253.388 52.7512 252.456 52.9029 252.456C53.0509 252.46 53.5095 252.987 53.9247 253.63C54.3977 254.363 54.7588 255.674 54.8888 257.147C55.0008 258.439 55.5604 260.714 56.1273 262.202C56.6942 263.693 57.9039 265.964 58.8174 267.257C59.7309 268.55 61.5147 270.579 62.7821 271.771C64.0495 272.966 66.4687 274.861 68.1586 275.992C69.8449 277.122 72.6071 278.696 74.297 279.491C75.9833 280.285 79.316 281.588 81.6992 282.383C84.0823 283.181 88.0615 284.239 90.5457 284.737C93.0264 285.235 96.7636 285.81 98.8506 286.019C100.934 286.228 105.242 286.398 108.419 286.398C111.597 286.394 116.266 286.153 118.8 285.853C121.332 285.557 124.986 284.968 126.925 284.553C128.86 284.134 132.395 283.156 134.778 282.372C137.161 281.588 140.736 280.155 142.722 279.184C144.708 278.209 147.777 276.389 149.543 275.132C151.309 273.879 153.966 271.554 155.45 269.965C157.422 267.853 158.574 266.203 159.736 263.827C160.968 261.31 161.444 259.801 161.845 257.147C162.213 254.688 162.564 253.511 163.084 252.994C163.802 252.272 163.802 252.272 164.347 254.258ZM165.196 277.006C165.088 286.124 165.077 286.239 164.077 288.742C163.521 290.132 162.365 292.323 161.513 293.616C160.657 294.909 158.841 297.046 157.476 298.368C156.115 299.693 153.699 301.694 152.11 302.82C150.522 303.947 147.434 305.741 145.25 306.81C143.065 307.875 139.328 309.395 136.945 310.186C134.562 310.973 130.741 312.031 128.459 312.537C126.174 313.046 122.195 313.707 119.613 314.01C116.977 314.317 111.904 314.559 108.058 314.559C104.057 314.559 99.3128 314.328 96.6841 314.003C94.1999 313.696 90.5457 313.115 88.5598 312.71C86.5738 312.309 82.7536 311.251 80.0743 310.363C77.3915 309.475 73.4123 307.879 71.2278 306.817C69.0433 305.752 65.808 303.853 64.0423 302.589C62.2766 301.329 59.6768 299.061 58.2649 297.548C56.8531 296.035 55.1741 293.923 54.535 292.854C53.8923 291.785 53.0256 289.933 52.6068 288.742C52.1879 287.55 51.6932 285.192 51.5055 283.506C51.3177 281.82 51.213 277.761 51.2672 274.493L51.3683 268.553C53.607 272.363 55.3221 274.63 56.6292 276.049C57.9363 277.468 60.2112 279.541 61.6844 280.653C63.1576 281.765 65.6671 283.419 67.2559 284.329C68.8447 285.243 71.4444 286.546 73.0332 287.225C74.622 287.907 77.4637 288.973 79.3521 289.59C81.237 290.211 84.4867 291.11 86.5738 291.59C88.6572 292.071 92.315 292.76 94.6982 293.118C97.9443 293.605 101.201 293.771 107.697 293.775C112.691 293.779 117.815 293.587 119.793 293.324C121.678 293.071 125.253 292.461 127.737 291.962C130.218 291.464 134.443 290.323 137.125 289.428C139.805 288.532 143.625 287.016 145.611 286.055C147.597 285.098 150.684 283.329 152.471 282.13C154.259 280.931 156.7 279.003 157.898 277.844C159.097 276.689 160.751 274.847 161.578 273.757C162.405 272.666 163.582 270.875 164.192 269.785L165.308 267.799L165.196 277.006Z" fill="white"/>
<path d="M102.399 187.945C102.432 188.274 102.334 188.61 102.186 188.689C102.038 188.772 99.8862 189.101 97.402 189.426C94.9213 189.747 91.0217 190.43 88.736 190.942C86.4504 191.455 82.9587 192.437 80.9727 193.13C78.9868 193.824 75.8995 195.12 74.1122 196.019C72.3248 196.915 69.725 198.384 68.3349 199.283C66.9447 200.182 64.6554 202.075 63.2472 203.486C61.3949 205.346 60.3008 206.844 59.2753 208.924C58.1306 211.25 57.8382 212.279 57.7262 214.34C57.6324 216.106 57.784 217.496 58.2281 218.872C58.5784 219.966 59.2897 221.58 59.8097 222.465C60.326 223.35 61.4851 224.884 62.377 225.873C63.2688 226.863 65.2223 228.578 66.71 229.683C68.2012 230.791 70.8805 232.456 72.6678 233.384C74.4552 234.312 77.38 235.63 79.1673 236.316C80.9547 237.002 84.45 238.067 86.9306 238.681C89.4148 239.295 93.3109 240.078 95.5966 240.425C98.6405 240.884 101.966 241.05 108.054 241.043C114.156 241.039 117.507 240.866 120.692 240.389C123.075 240.032 127.137 239.205 129.719 238.547C132.301 237.89 135.713 236.836 137.302 236.208C138.89 235.576 141.49 234.406 143.079 233.604C144.668 232.806 147.17 231.315 148.64 230.297C150.109 229.275 152.384 227.293 153.695 225.888C155.052 224.436 156.565 222.338 157.212 221.013C157.833 219.739 158.443 218.081 158.566 217.337C158.736 216.298 158.952 215.983 159.508 215.983C160.082 215.983 160.23 216.222 160.223 217.157C160.216 217.803 159.808 219.305 159.317 220.497C158.822 221.689 157.974 223.313 157.436 224.108C156.894 224.902 155.352 226.65 154.009 227.989C152.666 229.329 150.142 231.355 148.405 232.485C146.668 233.619 143.783 235.226 141.996 236.052C140.208 236.883 136.959 238.136 134.774 238.836C132.589 239.537 129.257 240.443 127.372 240.848C125.487 241.252 121.992 241.844 119.609 242.162C116.857 242.527 112.636 242.736 108.054 242.732C103.855 242.732 99.0955 242.509 96.6798 242.198C94.3942 241.909 90.9025 241.317 88.9166 240.891C86.9306 240.461 83.5184 239.533 81.3338 238.833C79.1493 238.132 75.979 236.919 74.2927 236.139C72.6065 235.356 69.6781 233.691 67.7932 232.434C65.9084 231.178 63.4024 229.195 62.2289 228.029C61.0554 226.866 59.5533 225.101 58.8925 224.108C58.2317 223.115 57.3652 221.45 56.9643 220.407C56.5635 219.363 56.1411 217.659 56.0219 216.615C55.9028 215.572 55.9822 213.745 56.2025 212.553C56.4191 211.362 57.0763 209.412 57.6612 208.22C58.2462 207.029 59.4847 205.162 60.4163 204.068C61.3442 202.977 63.0992 201.233 64.316 200.197C65.5329 199.161 67.9124 197.492 69.5986 196.489C71.2849 195.485 74.3722 193.943 76.4592 193.062C78.5463 192.184 82.2835 190.906 84.7641 190.227C87.2484 189.545 90.8231 188.718 92.7079 188.386C94.5928 188.054 97.5356 187.689 99.2399 187.566C101.955 187.378 102.349 187.425 102.399 187.945ZM159.642 238.45C159.747 238.724 159.801 241.133 159.761 243.805C159.7 247.849 159.598 248.661 159.147 248.661C158.692 248.661 158.605 247.842 158.605 243.455C158.605 239.811 158.732 238.204 159.028 238.1C159.259 238.017 159.537 238.176 159.642 238.45ZM63.3519 242.216C64.1065 242.483 65.2548 243.231 65.9012 243.877C66.5475 244.523 67.508 245.863 68.0352 246.856C68.6346 247.983 69.0642 249.477 69.1834 250.828C69.3639 252.89 69.317 253.052 68.2229 254.168C67.248 255.161 66.8905 255.309 65.8975 255.128C65.2512 255.009 64.0994 254.482 63.3339 253.955C62.5684 253.428 61.4634 252.265 60.8785 251.37C60.2935 250.478 59.5605 248.853 59.25 247.759C58.9286 246.629 58.7878 245.307 58.9214 244.689C59.0478 244.094 59.3619 243.281 59.6219 242.884C59.8783 242.487 60.5138 242.064 61.0338 241.945C61.5537 241.826 62.5936 241.949 63.3519 242.216ZM153.178 244.014C153.348 244.155 153.464 246.517 153.431 249.264C153.381 253.431 153.276 254.302 152.796 254.529C152.438 254.699 152.099 254.598 151.893 254.258C151.712 253.958 151.604 251.525 151.655 248.846C151.73 244.776 151.839 243.96 152.305 243.87C152.615 243.808 153.005 243.877 153.178 244.014ZM146.668 248.546C146.794 249.008 146.852 251.333 146.795 253.717C146.697 257.775 146.643 258.05 145.968 258.05C145.282 258.05 145.245 257.808 145.245 252.998C145.245 248.593 145.321 247.936 145.841 247.831C146.217 247.755 146.524 248.022 146.668 248.546ZM157.158 284.701C157.244 284.957 157.28 287.193 157.237 289.666C157.176 293.385 157.067 294.158 156.62 294.158C156.186 294.158 156.02 293.324 155.782 290.005C155.619 287.72 155.576 285.488 155.692 285.04C155.803 284.593 156.147 284.228 156.446 284.228C156.75 284.228 157.071 284.441 157.158 284.701ZM63.8502 286.405C64.5615 286.799 65.6484 287.81 66.2658 288.655C66.8869 289.496 67.6488 290.919 67.9593 291.811C68.2735 292.706 68.5335 294.006 68.5371 294.699C68.5371 295.411 68.2193 296.397 67.804 296.956C67.2877 297.657 66.7497 297.949 65.9878 297.949C65.392 297.949 64.4568 297.725 63.9116 297.451C63.3664 297.176 62.3084 296.285 61.5645 295.465C60.8207 294.645 59.9939 293.45 59.7266 292.804C59.4594 292.157 59.1272 290.98 58.9864 290.186C58.8492 289.392 58.9034 288.214 59.1092 287.568C59.3186 286.922 59.8133 286.232 60.2105 286.033C60.6077 285.835 61.2973 285.676 61.7451 285.68C62.1928 285.687 63.1389 286.012 63.8502 286.405ZM151.019 290.117C151.106 290.374 151.142 292.609 151.099 295.082C151.037 298.801 150.929 299.574 150.481 299.574C150.03 299.574 149.921 298.74 149.842 294.609C149.759 290.334 149.824 289.644 150.304 289.644C150.611 289.644 150.932 289.857 151.019 290.117ZM145.065 298.13C145.065 302.762 145.029 303.004 144.343 303.004C143.657 303.004 143.621 302.762 143.621 298.13C143.621 293.497 143.657 293.255 144.343 293.255C145.029 293.255 145.065 293.497 145.065 298.13Z" fill="url(#paint7_linear_1_173)"/>
<path d="M253.906 330.577L247.603 334.221C240.664 332.547 237.087 331.809 235.179 331.498C233.268 331.191 228.828 330.746 225.313 330.508C220.442 330.179 217.483 330.176 212.889 330.497C209.572 330.731 204.803 331.268 202.293 331.692C199.779 332.116 195.752 333.029 193.34 333.716C190.928 334.403 187.64 335.481 186.032 336.11C184.424 336.738 181.669 337.97 179.911 338.843L176.714 340.432L176.718 352.308C172.041 355.407 169.238 357.789 167.469 359.605C165.701 361.421 164.009 363.15 163.706 363.453C163.402 363.756 155.561 368.419 146.276 373.816C136.991 379.213 125.119 386.094 119.893 389.108C114.668 392.119 109.816 395.039 109.114 395.594C108.412 396.146 107.546 397.074 107.196 397.659C106.647 398.558 106.527 399.99 106.362 407.302C106.242 412.67 106.311 416.506 106.549 417.533C106.805 418.64 107.375 419.612 108.295 420.504C109.048 421.235 114.511 424.629 120.442 428.046C126.372 431.466 137.47 437.872 145.107 442.282C152.743 446.693 165.076 453.811 172.512 458.101C179.948 462.391 191.703 469.183 198.639 473.199C205.574 477.211 212.151 480.833 213.255 481.242C214.848 481.83 216.134 481.984 219.467 481.98C222.602 481.976 224.133 481.808 225.496 481.315C226.501 480.95 243.602 471.197 263.498 459.643C283.395 448.085 306.251 434.806 314.29 430.125C324.01 424.469 329.344 421.151 330.214 420.215C331.336 419.009 331.555 418.48 331.771 416.437C331.91 415.129 332.008 410.857 331.986 406.936C331.954 400.966 331.84 399.574 331.299 398.349C330.941 397.546 330.258 396.526 329.779 396.084C329.297 395.645 319.698 389.963 308.443 383.455C297.189 376.951 285.985 370.491 283.548 369.095L279.116 366.559C278.805 348.398 278.75 347.784 277.855 345.183C277.336 343.677 276.382 341.54 275.736 340.432C275.089 339.329 273.763 337.436 272.787 336.23C271.811 335.024 269.816 333.033 268.351 331.805C266.889 330.574 264.744 328.973 263.59 328.243C262.435 327.512 261.2 326.916 260.849 326.923C260.498 326.927 257.374 328.571 253.906 330.577Z" fill="url(#paint8_linear_1_173)"/>
<path fill-rule="evenodd" clip-rule="evenodd" d="M330.079 404.379C330.138 404.379 330.189 407.298 330.196 410.865C330.204 417.015 330.163 417.417 329.374 418.597C328.735 419.558 325.881 421.396 317.031 426.559C310.698 430.253 304.285 433.98 302.78 434.843C301.271 435.705 297.492 437.89 294.375 439.699C291.259 441.508 278.433 448.958 265.874 456.259C253.311 463.556 239.871 471.394 236.002 473.678C232.132 475.958 228.88 477.701 228.774 477.551C228.668 477.402 228.588 474.318 228.599 470.7C228.606 467.083 228.734 463.947 228.884 463.735C229.03 463.524 230.301 462.69 231.708 461.883C233.115 461.075 253.669 449.141 277.384 435.365C301.099 421.586 322.391 409.217 324.704 407.876C327.017 406.531 329.148 405.197 329.44 404.905C329.736 404.616 330.025 404.379 330.079 404.379ZM108.033 404.372L109.944 405.621C110.996 406.308 122.05 412.75 134.51 419.934C146.97 427.118 158.645 433.849 160.454 434.894C162.263 435.935 171.964 441.526 182.013 447.314C192.062 453.098 202.563 459.168 210.42 463.757L210.284 470.609C210.211 474.38 210.065 477.504 209.959 477.551C209.857 477.603 201.39 472.801 191.141 466.889C180.895 460.973 166.264 452.525 158.627 448.118C150.99 443.711 141.533 438.245 137.616 435.972C133.695 433.699 125.802 429.139 120.077 425.835C112.111 421.242 109.465 419.54 108.829 418.593C108.04 417.413 108 417.022 108.014 410.861L108.033 404.372ZM161.532 366.892C161.55 366.925 161.192 368.054 160.739 369.406C160.282 370.754 159.811 372.804 159.694 373.959C159.577 375.113 159.372 376.246 159.237 376.473C159.102 376.699 151.677 381.121 142.732 386.299C133.79 391.476 126.087 396.059 125.616 396.482C125.145 396.906 124.527 397.707 124.246 398.258C123.964 398.81 123.727 399.797 123.723 400.451C123.716 401.105 124.092 402.216 124.553 402.917C125.254 403.981 132.475 408.289 167.59 428.591C190.797 442.008 210.935 453.57 212.342 454.282C214.403 455.324 215.473 455.62 217.823 455.795C219.727 455.938 221.576 455.839 223.121 455.514C224.747 455.17 226.709 454.308 229.333 452.784C231.445 451.56 238.845 447.263 245.776 443.232C252.712 439.202 269.564 429.409 283.231 421.476C296.897 413.543 309.142 406.41 310.439 405.625C311.74 404.839 313.183 403.622 313.647 402.917C314.115 402.216 314.491 401.105 314.484 400.451C314.48 399.797 314.243 398.81 313.961 398.258C313.68 397.707 313.062 396.906 312.591 396.479C312.12 396.051 304.369 391.447 278.999 376.791L279.014 372.68C279.021 370.418 279.072 368.565 279.12 368.558C279.171 368.551 284.721 371.726 291.452 375.614C298.187 379.502 309.109 385.798 315.726 389.602C322.34 393.409 328.219 396.976 328.789 397.527C329.356 398.079 329.922 398.901 330.043 399.354C330.167 399.808 330.167 400.63 330.043 401.182C329.922 401.733 329.37 402.614 328.815 403.136C328.263 403.659 322.139 407.379 315.204 411.406C308.272 415.429 290.842 425.554 276.471 433.907C262.103 442.257 245.002 452.192 238.468 455.985C231.938 459.778 225.854 463.129 224.948 463.436C224.046 463.743 222.237 464.09 220.929 464.203C219.624 464.316 217.487 464.214 216.178 463.98C214.563 463.684 212.7 462.935 210.332 461.631C208.425 460.575 203.492 457.761 199.37 455.379C195.252 452.996 186.043 447.676 178.907 443.554C171.774 439.432 157.469 431.174 147.117 425.207C136.768 419.236 124.352 412.082 119.528 409.305C114.705 406.527 110.221 403.75 109.564 403.129C108.826 402.431 108.292 401.518 108.168 400.725C108.011 399.745 108.164 399.172 108.815 398.288C109.282 397.648 110.32 396.72 111.124 396.223C111.928 395.726 118.096 392.119 124.827 388.206C131.561 384.292 142.564 377.883 149.283 373.959C156 370.038 161.51 366.859 161.532 366.892ZM159.248 378.808C159.387 378.804 159.559 383.938 159.628 390.219C159.749 400.977 159.804 401.766 160.575 403.831C161.024 405.037 162.076 407.174 162.909 408.581C163.765 410.024 165.789 412.498 167.557 414.263C169.279 415.98 172.085 418.312 173.791 419.445C175.501 420.577 178.542 422.32 180.551 423.321C182.561 424.319 185.934 425.737 188.042 426.471C190.154 427.202 193.523 428.218 195.533 428.726C197.543 429.234 201.325 429.979 203.937 430.381C206.828 430.827 211.552 431.192 215.996 431.317C220.457 431.441 225.156 431.353 228.054 431.086C230.667 430.849 235.271 430.162 238.286 429.559C241.3 428.96 245.988 427.725 248.7 426.818C251.415 425.909 255.277 424.374 257.287 423.402C259.296 422.434 262.421 420.654 264.229 419.448C266.038 418.242 268.76 416.043 270.281 414.563C271.797 413.083 273.704 410.883 274.519 409.677C275.334 408.471 276.255 406.991 276.562 406.389C276.872 405.786 277.501 404.225 277.958 402.917C278.725 400.721 278.802 399.72 279.211 378.943L292.366 386.547C299.601 390.727 306.982 395.013 308.769 396.066C311.115 397.451 312.182 398.317 312.606 399.186C313.154 400.301 313.15 400.473 312.562 401.562C312.12 402.376 310.786 403.418 308.177 404.978C306.112 406.21 288.639 416.386 269.345 427.586C250.052 438.789 232.212 449.145 229.698 450.599C227.188 452.053 224.473 453.46 223.669 453.727C222.865 453.99 220.892 454.198 219.284 454.187C217.662 454.176 215.714 453.928 214.9 453.628C214.096 453.329 206.945 449.338 199.004 444.76C191.068 440.178 172.896 429.691 158.627 421.454C144.358 413.218 131.532 405.811 130.125 405C128.718 404.185 127.114 403.096 126.555 402.577C125.821 401.898 125.543 401.287 125.543 400.359C125.543 399.439 125.828 398.806 126.555 398.105C127.114 397.571 134.638 393.011 143.28 387.976C151.922 382.94 159.109 378.815 159.248 378.808ZM177.668 353.953C177.749 353.953 181.121 355.886 192.522 362.54L191.287 363.435C190.607 363.928 189.109 365.284 187.951 366.45C186.796 367.615 185.32 369.596 184.669 370.853C183.566 372.979 183.486 373.389 183.482 376.791C183.475 380.13 183.573 380.649 184.611 382.82C185.236 384.128 186.471 386.003 187.352 386.985C188.236 387.972 189.942 389.481 191.148 390.34C192.354 391.199 194.904 392.646 196.812 393.555C198.723 394.465 201.847 395.616 203.755 396.113C205.666 396.61 208.461 397.231 209.967 397.491C211.53 397.765 215.459 397.966 219.102 397.959C223.658 397.955 226.549 397.761 229.15 397.29C231.16 396.928 234.12 396.219 235.728 395.715C237.335 395.214 239.846 394.242 243.949 392.32L251.166 396.559C255.138 398.89 258.427 400.864 258.474 400.944C258.525 401.024 257.458 401.646 256.099 402.325C254.743 403.001 252.072 404.141 250.161 404.854C248.254 405.57 244.717 406.648 242.305 407.251C239.893 407.857 236.276 408.607 234.266 408.917C232.256 409.228 228.146 409.663 225.131 409.882C222.116 410.101 217.596 410.174 215.082 410.043C212.572 409.911 208.625 409.564 206.312 409.272C204.003 408.976 200.302 408.333 198.091 407.839C195.88 407.346 192.263 406.348 190.052 405.621C187.841 404.89 184.308 403.484 182.196 402.49C180.087 401.496 176.799 399.647 174.888 398.375C172.75 396.954 170.225 394.816 168.31 392.814C166.348 390.756 164.715 388.622 163.867 387.011C163.132 385.612 162.241 383.478 161.886 382.272C161.503 380.967 161.232 378.822 161.221 376.973C161.21 374.759 161.437 373.133 162.007 371.31C162.445 369.903 163.428 367.685 164.188 366.38C164.948 365.076 166.969 362.598 168.676 360.874C170.386 359.149 173.075 356.883 174.654 355.846C176.232 354.804 177.588 353.953 177.668 353.953ZM200.484 371.485L202.578 373.195C203.729 374.134 205.49 375.285 206.495 375.746C207.5 376.206 209.638 376.944 211.245 377.383C213.606 378.029 215.159 378.183 219.284 378.183C223.289 378.183 224.996 378.022 227.141 377.441C228.65 377.032 231.032 376.115 232.439 375.406C233.846 374.697 235.655 373.52 236.459 372.797C237.262 372.07 237.942 371.521 237.971 371.576C237.997 371.631 237.916 376.528 237.555 393.234L235.728 393.844C234.723 394.18 232.176 394.827 230.064 395.28C226.804 395.982 225.135 396.106 218.919 396.106C213.485 396.106 210.865 395.949 208.688 395.496C207.08 395.156 204.569 394.509 200.448 393.234L200.484 371.485ZM245.078 367.911L250.819 371.229C253.976 373.053 257.257 374.927 259.665 376.243V387.753C259.665 394.085 259.581 399.263 259.483 399.263C259.38 399.263 256.052 397.389 244.867 390.925L244.746 386.781C244.684 384.504 244.731 379.323 244.856 375.274L245.078 367.911ZM198.325 381.362C198.496 381.362 198.639 383.828 198.639 386.843C198.639 389.858 198.559 392.324 198.456 392.324C198.358 392.324 197.411 391.893 196.355 391.367C195.299 390.841 193.41 389.689 192.153 388.809C190.896 387.928 189.862 387.084 189.855 386.934C189.844 386.781 190.79 385.926 191.956 385.034C193.118 384.139 194.959 382.944 196.041 382.385C197.122 381.822 198.153 381.362 198.325 381.362ZM277.106 379.078C277.183 393.753 277.095 398.339 276.704 400.272C276.43 401.627 275.707 403.805 275.097 405.113C274.486 406.418 273.017 408.72 271.83 410.229C270.646 411.734 268.34 414.037 266.711 415.345C265.077 416.649 263.236 418.005 261.489 418.999L261.485 376.429L264.5 374.419C266.159 373.312 268.768 371.174 270.302 369.669C271.841 368.16 273.942 365.613 274.976 364.005C276.014 362.397 276.894 360.917 276.935 360.716C276.978 360.515 277.055 368.777 277.106 379.078ZM239.93 381.362C240.131 381.362 240.876 381.647 242.868 382.641L242.853 390.862L241.392 391.593C240.588 391.995 239.849 392.324 239.747 392.324C239.649 392.324 239.564 389.858 239.564 386.843C239.564 383.43 239.703 381.362 239.93 381.362ZM220.381 346.078C226.596 346.191 228.262 346.349 231.526 347.127C233.638 347.628 236.433 348.442 237.737 348.936C239.046 349.429 240.811 350.182 243.219 351.399L243.054 365.741C242.959 373.626 242.795 380.163 242.685 380.266C242.572 380.364 241.823 380.119 239.543 378.987L239.546 371.679C239.55 365.16 239.469 364.202 238.826 362.817C238.428 361.962 237.39 360.563 236.521 359.712C235.651 358.856 233.842 357.621 232.501 356.971C231.16 356.317 228.624 355.429 226.867 354.998C224.557 354.428 222.452 354.205 219.284 354.183C216.266 354.161 213.99 354.358 211.976 354.819C210.368 355.184 207.902 356.028 206.495 356.697C205.088 357.366 203.199 358.553 202.293 359.335C201.39 360.121 200.239 361.575 199.735 362.565C198.873 364.268 198.811 364.787 198.456 379.206L195.35 380.631V351.399L197.999 350.145C199.457 349.458 202.129 348.464 203.937 347.938C205.746 347.408 208.541 346.747 210.149 346.462C212.232 346.093 215.177 345.983 220.381 346.078ZM178.501 342.651L184.275 345.994C187.454 347.828 190.794 349.769 193.341 351.263L193.432 356.079C193.483 358.729 193.388 360.855 193.224 360.808C193.063 360.757 189.69 358.824 178.538 352.312L178.501 342.651ZM218.736 332.094C221.85 332.061 226.618 332.273 229.333 332.565C232.044 332.858 235.169 333.267 236.276 333.475C237.379 333.687 239.806 334.188 241.666 334.586C243.525 334.988 245.049 335.441 245.057 335.591C245.06 335.741 244.651 336.07 243.219 336.779V342.991C243.219 346.407 243.178 349.202 243.127 349.206C243.076 349.206 241.72 348.654 240.113 347.982C238.505 347.31 235.874 346.407 234.266 345.976C232.658 345.545 229.698 344.945 227.689 344.642C225.679 344.339 221.897 344.09 219.284 344.09C216.672 344.094 212.806 344.343 210.697 344.649C208.585 344.953 205.381 345.621 203.572 346.129C201.763 346.641 198.968 347.679 194.437 349.816L187.311 345.662C183.391 343.374 180.058 341.386 179.905 341.244C179.747 341.098 181.147 340.257 183.01 339.377C184.874 338.492 188.331 337.137 190.691 336.362C193.052 335.587 196.998 334.55 199.461 334.056C201.924 333.563 205.333 332.989 207.043 332.781C208.75 332.569 210.807 332.343 211.611 332.277C212.415 332.207 215.619 332.123 218.736 332.094ZM260.849 328.762C260.999 328.751 262.388 329.602 263.937 330.658C265.483 331.714 267.84 333.643 269.173 334.952C270.507 336.256 272.411 338.558 273.405 340.067C274.399 341.573 275.612 344.039 276.105 345.548C276.814 347.719 276.993 349.009 276.971 351.76C276.949 354.336 276.734 355.846 276.127 357.607C275.681 358.911 274.844 360.804 274.271 361.809C273.693 362.814 272.345 364.703 271.267 366.011C270.189 367.316 267.979 369.453 266.352 370.761C264.726 372.066 262.76 373.495 260.575 374.737L245.733 366.194L247.125 365.12C247.892 364.528 249.379 363.172 250.435 362.105C251.491 361.038 252.887 359.138 253.541 357.881C254.659 355.729 254.729 355.378 254.729 351.76C254.729 348.263 254.638 347.744 253.695 345.914C253.125 344.807 252.054 343.173 251.32 342.282C250.581 341.386 249.156 340.009 248.152 339.22C247.147 338.43 246.324 337.626 246.324 337.44C246.324 337.25 249.529 335.226 253.45 332.938C257.367 330.654 260.7 328.773 260.849 328.762Z" fill="white"/>
<path d="M453.844 403.253C453.341 403.682 453.216 405.169 453.29 409.95L453.382 416.092C458.043 418.776 459.396 419.713 459.391 419.903C459.391 420.092 458.814 420.54 458.116 420.891C457.419 421.247 448.117 426.614 437.448 432.817C426.779 439.019 413.232 446.885 407.344 450.298L396.633 456.506C396.407 465.812 396.448 468.796 396.573 469.142C396.698 469.489 399.714 471.447 403.27 473.488C406.826 475.534 414.724 480.088 420.821 483.608C426.918 487.132 432.164 490.005 432.483 490C432.802 489.995 441.425 485.137 451.65 479.202C461.876 473.267 478.554 463.595 488.715 457.706L507.19 447.005C519.72 454.335 523.821 456.524 524.394 456.598L525.433 456.736C525.447 409.562 525.322 403.728 524.865 403.266C524.403 402.805 516.935 402.684 489.385 402.689C462.92 402.698 454.334 402.832 453.844 403.253Z" fill="url(#paint9_linear_1_173)"/>
<path fill-rule="evenodd" clip-rule="evenodd" d="M458.692 405.013L523.122 405.009L523.127 419.673C523.127 427.737 523.284 436.055 523.474 438.152C523.737 441.08 523.681 441.963 523.238 441.963C522.919 441.958 519.234 439.981 515.04 437.57C510.846 435.159 507.211 433.183 506.957 433.183C506.703 433.183 504.26 434.503 501.53 436.115C498.801 437.727 485.651 445.39 472.317 453.14C458.979 460.894 444.587 469.236 440.333 471.684C436.079 474.131 432.417 476.085 432.2 476.02C431.983 475.956 424.616 471.748 415.827 466.668C403.957 459.804 399.989 457.301 400.405 456.932C400.71 456.655 406.363 453.306 412.968 449.482C419.572 445.658 433.184 437.764 443.22 431.936C453.256 426.111 463.851 419.969 466.775 418.292C469.699 416.62 472.336 414.971 472.636 414.629C472.941 414.292 473.043 413.789 472.867 413.507C472.691 413.23 469.431 411.207 465.62 409.009L458.692 405.013ZM505.696 436.42C505.895 436.42 505.997 438.411 505.803 445.288L470.47 465.823C451.035 477.115 434.772 486.551 434.329 486.787C433.585 487.188 433.521 486.86 433.498 478.214L443.557 472.367C449.086 469.148 465.251 459.744 479.476 451.472C493.702 443.2 505.502 436.425 505.696 436.42ZM508.458 436.416C508.648 436.416 512.125 438.337 523.575 444.96L523.58 449.463C523.58 451.939 523.418 453.916 523.21 453.851C523.007 453.786 519.631 451.879 515.705 449.611C511.784 447.348 508.523 445.477 508.463 445.454C508.398 445.436 508.297 443.394 508.232 440.919C508.167 438.443 508.269 436.416 508.458 436.416Z" fill="white"/>
<defs>
<linearGradient id="paint0_linear_1_173" x1="282.033" y1="101.54" x2="482.073" y2="283.017" gradientUnits="userSpaceOnUse">
<stop stop-color="#00B7FF"/>
<stop offset="1" stop-color="#0EB05C"/>
</linearGradient>
<linearGradient id="paint1_linear_1_173" x1="322.862" y1="112.421" x2="480.726" y2="247.336" gradientUnits="userSpaceOnUse">
<stop stop-color="#00B7FF"/>
<stop offset="1" stop-color="#0EB05C"/>
</linearGradient>
<linearGradient id="paint2_linear_1_173" x1="404.226" y1="105.79" x2="463.423" y2="175.8" gradientUnits="userSpaceOnUse">
<stop stop-color="#00B7FF"/>
<stop offset="1" stop-color="#0EB05C"/>
</linearGradient>
<linearGradient id="paint3_linear_1_173" x1="213.162" y1="49.4163" x2="287.41" y2="106.981" gradientUnits="userSpaceOnUse">
<stop stop-color="#00B7FF"/>
<stop offset="1" stop-color="#0EB05C"/>
</linearGradient>
<linearGradient id="paint4_linear_1_173" x1="237.647" y1="74.3415" x2="269.426" y2="97.0842" gradientUnits="userSpaceOnUse">
<stop stop-color="#00B7FF"/>
<stop offset="1" stop-color="#0EB05C"/>
</linearGradient>
<linearGradient id="paint5_linear_1_173" x1="253.965" y1="85.7216" x2="255.088" y2="95.366" gradientUnits="userSpaceOnUse">
<stop stop-color="#00B7FF"/>
<stop offset="1" stop-color="#0EB05C"/>
</linearGradient>
<linearGradient id="paint6_linear_1_173" x1="74.7316" y1="199.574" x2="155.302" y2="259.737" gradientUnits="userSpaceOnUse">
<stop stop-color="#00B7FF"/>
<stop offset="1" stop-color="#0EB05C"/>
</linearGradient>
<linearGradient id="paint7_linear_1_173" x1="78.1779" y1="212.499" x2="142.627" y2="267.595" gradientUnits="userSpaceOnUse">
<stop stop-color="#00B7FF"/>
<stop offset="1" stop-color="#0EB05C"/>
</linearGradient>
<linearGradient id="paint8_linear_1_173" x1="283.909" y1="360.519" x2="200.684" y2="475.28" gradientUnits="userSpaceOnUse">
<stop stop-color="#00B7FF"/>
<stop offset="1" stop-color="#0EB05C"/>
</linearGradient>
<linearGradient id="paint9_linear_1_173" x1="497.96" y1="421.606" x2="451.315" y2="486.879" gradientUnits="userSpaceOnUse">
<stop stop-color="#00B7FF"/>
<stop offset="1" stop-color="#0EB05C"/>
</linearGradient>
</defs>
</svg>
