<svg width="600" height="516" viewBox="0 0 600 516" fill="none" xmlns="http://www.w3.org/2000/svg">
<path d="M425.45 400.468C426.871 400.819 429.097 401.642 430.397 402.299C431.697 402.955 433.334 403.913 434.04 404.435C434.742 404.952 435.857 406.293 436.513 407.403C437.597 409.247 437.719 409.926 437.863 415.049C437.948 418.143 437.804 421.48 437.543 422.47C437.283 423.459 436.383 425.078 435.547 426.068C434.706 427.057 432.826 428.514 431.368 429.301C429.907 430.093 427.397 431.087 425.787 431.519C423.867 432.027 421.164 432.297 417.917 432.301C414.566 432.306 412.025 432.049 410.046 431.51C408.436 431.073 405.926 430.075 404.465 429.292C403.008 428.505 401.132 427.057 400.3 426.068C399.378 424.97 398.6 423.392 398.299 422.02C398.024 420.783 397.885 417.446 397.984 414.599C398.11 411.024 398.389 409.009 398.883 408.078C399.275 407.336 400.278 406.045 401.11 405.209C401.946 404.377 403.84 403.117 405.324 402.416C406.808 401.714 409.237 400.828 410.721 400.446C412.389 400.019 415.223 399.767 418.141 399.794C420.736 399.816 424.029 400.118 425.45 400.468Z" fill="url(#paint0_linear_1_535)"/>
<path d="M432.971 406.369C433.785 407.061 434.729 408.186 435.066 408.865C435.408 409.544 435.687 410.758 435.696 411.563C435.701 412.368 435.246 413.722 434.684 414.576C434.122 415.426 432.849 416.749 431.86 417.509C430.87 418.273 428.541 419.398 426.688 420.009C423.85 420.945 422.46 421.12 417.918 421.116C414.104 421.111 411.761 420.877 409.935 420.329C408.514 419.897 407.349 419.393 407.349 419.209C407.349 419.024 412.462 415.899 418.705 412.269C424.952 408.635 430.38 405.541 430.771 405.388C431.203 405.217 432.067 405.6 432.971 406.369ZM421.741 401.853C422.357 401.952 423.674 402.213 424.664 402.442C425.653 402.667 427.07 403.072 427.812 403.337C429.13 403.814 428.883 403.985 417.131 410.785C410.515 414.612 404.848 417.756 404.538 417.77C404.228 417.779 403.216 416.969 402.289 415.971C401.363 414.968 400.477 413.592 400.324 412.912C400.171 412.233 400.171 411.068 400.319 410.326C400.472 409.584 401.205 408.217 401.947 407.291C402.748 406.292 404.448 405.051 406.112 404.25C407.659 403.508 410.492 402.595 412.408 402.227C414.324 401.858 416.955 401.583 418.255 401.619C419.555 401.651 421.12 401.759 421.741 401.853Z" fill="white"/>
<path d="M374.967 372.319C376.083 372.503 378.106 372.971 379.465 373.358C380.823 373.745 383.242 374.932 384.839 376.003C386.917 377.392 388.037 378.521 388.783 379.969C389.732 381.813 389.827 382.569 389.818 388.402C389.809 393.727 389.669 395.094 388.972 396.497C388.513 397.424 387.353 398.85 386.386 399.659C385.424 400.473 383.521 401.66 382.163 402.304C380.805 402.942 378.273 403.765 376.541 404.129C374.418 404.57 371.778 404.723 368.446 404.588C364.951 404.449 362.64 404.098 360.575 403.392C358.965 402.848 356.591 401.705 355.291 400.855C353.991 400.005 352.372 398.463 351.693 397.433C350.515 395.643 350.447 395.256 350.308 389.225C350.227 385.744 350.362 382.182 350.614 381.318C350.888 380.388 352.003 378.872 353.352 377.608C354.603 376.434 356.69 374.982 357.989 374.379C359.289 373.776 361.92 372.967 363.836 372.58C365.752 372.193 368.585 371.896 370.132 371.928C371.68 371.955 373.852 372.13 374.967 372.319Z" fill="url(#paint1_linear_1_535)"/>
<path d="M385.092 378.727C385.987 379.532 387.035 381.003 387.422 381.992C388.096 383.715 388.083 383.89 387.058 386.036C386.441 387.331 385.223 388.865 384.188 389.656C383.199 390.412 381.274 391.455 379.916 391.977C378.557 392.498 375.823 393.146 373.844 393.42C371.249 393.78 369.185 393.785 366.423 393.438C364.323 393.169 361.813 392.611 360.855 392.197L359.11 391.437C376.408 381.331 381.89 378.138 382.448 377.828C383.361 377.324 383.644 377.419 385.092 378.727ZM375.319 374.482C375.886 374.617 377.402 375.008 378.692 375.359C380.123 375.75 380.865 376.155 380.59 376.393C380.343 376.614 374.878 379.838 368.447 383.562C362.016 387.29 356.601 390.331 356.416 390.326C356.232 390.317 355.319 389.44 354.393 388.37C353.466 387.304 352.553 385.784 352.369 384.997C352.135 383.998 352.274 382.991 352.841 381.655C353.291 380.603 354.352 379.209 355.202 378.556C356.057 377.904 357.613 376.946 358.665 376.42C359.718 375.898 361.84 375.17 363.388 374.801C364.935 374.437 368.02 374.158 370.246 374.189C372.472 374.221 374.757 374.351 375.319 374.482Z" fill="white"/>
<path d="M329.654 345.15C331.075 345.5 333.378 346.346 334.772 347.025C336.162 347.704 337.984 348.918 338.82 349.724C339.652 350.529 340.682 351.842 341.109 352.647C341.685 353.74 341.928 355.534 342.054 359.73C342.153 362.964 342.013 366.166 341.73 367.264C341.406 368.523 340.543 369.868 339.211 371.199C338.096 372.31 335.924 373.83 334.377 374.576C332.829 375.323 329.843 376.245 327.743 376.632C325.157 377.108 322.755 377.248 320.322 377.059C318.343 376.906 315.51 376.47 314.026 376.088C312.542 375.71 310.131 374.756 308.669 373.974C307.212 373.187 305.341 371.738 304.518 370.749C303.695 369.76 302.796 368.141 302.526 367.151C302.238 366.112 302.099 362.982 302.197 359.73C302.314 355.696 302.566 353.726 303.083 352.759C303.479 352.017 304.482 350.735 305.314 349.908C306.151 349.08 307.995 347.817 309.416 347.097C310.837 346.377 313.266 345.487 314.813 345.118C316.436 344.736 319.621 344.466 322.346 344.484C324.941 344.502 328.233 344.799 329.654 345.15Z" fill="url(#paint2_linear_1_535)"/>
<path d="M337.212 351.073C338.008 351.752 338.935 352.868 339.272 353.547C339.614 354.226 339.893 355.44 339.902 356.245C339.906 357.05 339.452 358.404 338.89 359.258C338.328 360.108 337.055 361.431 336.065 362.191C335.076 362.955 332.751 364.08 330.893 364.691C328.046 365.631 326.684 365.798 322.123 365.789C318.04 365.775 316.038 365.559 313.911 364.889C312.364 364.403 311.249 363.868 311.437 363.702C311.626 363.54 317.041 360.347 323.473 356.609C329.904 352.877 335.301 349.823 335.467 349.827C335.629 349.832 336.416 350.394 337.212 351.073ZM325.946 346.504C326.567 346.616 327.88 346.895 328.869 347.124C329.859 347.349 331.276 347.754 332.018 348.024C333.335 348.505 333.102 348.671 321.336 355.472C314.721 359.299 309.054 362.438 308.743 362.452C308.433 362.461 307.421 361.651 306.495 360.653C305.568 359.65 304.682 358.273 304.529 357.594C304.376 356.915 304.385 355.75 304.556 355.008C304.723 354.266 305.303 353.061 305.847 352.332C306.387 351.599 307.745 350.43 308.856 349.728C309.971 349.027 312.193 348.046 313.803 347.552C315.458 347.039 318.48 346.571 320.774 346.472C323 346.378 325.33 346.391 325.946 346.504Z" fill="white"/>
<path d="M279.171 316.969C280.287 317.171 282.311 317.657 283.669 318.053C285.027 318.444 287.051 319.344 288.166 320.045C289.282 320.747 290.766 321.921 291.472 322.649C292.178 323.378 293.037 324.633 293.383 325.438C293.824 326.463 294.013 328.82 294.017 333.308C294.026 339.668 294.017 339.735 292.668 341.853C291.881 343.095 290.325 344.637 288.953 345.537C287.654 346.387 285.279 347.52 283.669 348.064C281.649 348.743 279.216 349.112 275.798 349.261C272.259 349.413 269.893 349.27 267.478 348.757C265.621 348.361 263.093 347.538 261.856 346.926C260.619 346.319 258.82 345.154 257.858 344.345C256.891 343.531 255.731 342.105 255.272 341.179C254.575 339.78 254.435 338.426 254.435 333.196C254.435 328.923 254.633 326.427 255.043 325.438C255.38 324.633 256.594 323.117 257.741 322.065C258.892 321.012 260.592 319.771 261.519 319.299C262.445 318.831 264.42 318.12 265.904 317.72C267.388 317.32 270.527 316.902 272.875 316.794C275.223 316.686 278.06 316.767 279.171 316.969Z" fill="url(#paint3_linear_1_535)"/>
<path d="M288.981 323.094C289.768 323.701 290.722 324.807 291.091 325.55C291.464 326.292 291.765 327.609 291.765 328.473C291.765 329.336 291.482 330.605 291.131 331.284C290.78 331.963 289.921 333.056 289.22 333.708C288.518 334.36 287.083 335.323 286.031 335.844C284.979 336.366 282.856 337.126 281.309 337.535C279.743 337.949 276.703 338.286 274.45 338.3C271.806 338.313 269.251 338.021 267.083 337.445C265.257 336.964 263.688 336.415 263.598 336.231C263.508 336.047 268.136 333.186 273.888 329.876C279.64 326.566 285.064 323.436 285.945 322.923L287.547 321.988L288.981 323.094ZM279.397 319.082C279.892 319.208 281.408 319.608 282.77 319.977C284.295 320.391 285.073 320.8 284.794 321.048C284.547 321.268 279.082 324.502 272.651 328.235C266.22 331.967 260.854 335.017 260.733 335.012C260.607 335.012 259.752 334.248 258.826 333.317C257.899 332.381 256.937 330.861 256.69 329.935C256.316 328.549 256.397 327.888 257.135 326.224C257.724 324.893 258.767 323.67 260.171 322.653C261.344 321.803 263.62 320.661 265.23 320.117C267.421 319.375 269.453 319.091 273.326 318.992C276.168 318.916 278.902 318.956 279.397 319.082Z" fill="white"/>
<path d="M276.924 304.915C278.534 305.163 281.061 305.779 282.546 306.278C284.03 306.777 288.23 308.891 291.878 310.973C296.951 313.865 298.511 314.967 298.511 315.655C298.511 316.15 298.26 316.555 297.949 316.559C297.639 316.564 294.351 314.832 290.641 312.718C286.931 310.6 282.478 308.423 280.747 307.879C278.102 307.043 276.591 306.89 271.302 306.912C265.757 306.935 264.632 307.07 261.857 308.064C260.072 308.702 250.051 314.225 238.695 320.827C227.69 327.227 217.823 332.93 216.77 333.506C215.718 334.077 214.868 334.697 214.877 334.882C214.886 335.066 223.517 340.175 234.054 346.238C244.587 352.3 259.204 360.711 266.526 364.934C273.852 369.157 283.184 374.54 287.268 376.897C291.351 379.258 301.974 385.397 310.879 390.538C319.784 395.683 344.781 410.11 366.423 422.6C388.069 435.089 409.112 447.237 413.196 449.589L420.617 453.866C424.449 451.739 434.671 445.816 445.803 439.335C456.934 432.854 466.329 427.318 466.68 427.034C467.03 426.751 467.894 425.708 468.605 424.718C469.567 423.369 469.886 422.411 469.882 420.895C469.877 419.492 469.518 418.318 468.712 417.073C468.074 416.083 466.81 414.747 465.897 414.104C464.989 413.461 458.17 409.431 450.75 405.15C443.329 400.868 431.591 394.095 424.665 390.097C417.739 386.099 405.847 379.249 398.242 374.878C389.782 370.011 384.412 366.665 384.412 366.251C384.412 365.878 384.664 365.464 384.975 365.329C385.285 365.19 390.394 367.889 396.331 371.325C402.267 374.761 417.14 383.351 429.387 390.412C441.633 397.473 454.986 405.177 459.07 407.529C463.154 409.886 467.3 412.503 468.29 413.344C469.279 414.185 470.543 415.773 471.096 416.875C472.009 418.696 472.099 419.51 472.095 426.067C472.095 432.076 471.955 433.56 471.272 435.062C470.817 436.052 469.558 437.675 468.47 438.669C467.381 439.668 459.911 444.3 451.874 448.968C443.833 453.637 430.579 461.336 422.416 466.086C414.253 470.83 400.288 478.948 391.384 484.12C382.366 489.36 373.799 494.019 372.045 494.644C369.18 495.656 368.226 495.76 361.476 495.76C354.666 495.764 353.794 495.67 350.907 494.626C349.175 494.001 338.35 488.06 326.845 481.417C315.341 474.775 282.357 455.732 253.537 439.101C224.717 422.465 193.757 404.601 184.726 399.402C175.695 394.199 167.249 389.215 165.949 388.329C164.51 387.344 163.107 385.883 162.351 384.579C161.178 382.55 161.106 382.096 160.957 375.696C160.867 371.729 161.007 368.163 161.295 367.039C161.596 365.874 162.536 364.318 163.701 363.063C164.753 361.929 166.525 360.436 167.636 359.748C168.747 359.056 176.644 354.441 185.176 349.498C193.708 344.551 213.038 333.321 228.126 324.547C243.215 315.772 256.42 308.158 257.472 307.627C258.525 307.097 260.85 306.256 262.644 305.761C264.439 305.266 267.726 304.771 269.953 304.664C272.179 304.551 275.314 304.668 276.924 304.915Z" fill="url(#paint4_linear_1_535)"/>
<path d="M214.634 337.396C215.623 337.981 223.817 342.721 232.848 347.924C241.879 353.128 257.058 361.885 266.579 367.385C276.1 372.881 299.176 386.193 317.85 396.969C336.523 407.745 357.98 420.126 365.523 424.489C373.065 428.851 387.992 437.464 398.691 443.634C409.391 449.805 418.143 455.004 418.143 455.188C418.143 455.373 416.069 456.708 413.533 458.152C410.996 459.6 401.129 465.308 391.608 470.844C379.802 477.703 373.29 481.22 371.144 481.894C369.413 482.438 366.274 483.028 364.173 483.198C361.785 483.392 359.001 483.302 356.753 482.956C354.774 482.65 352.143 482.047 350.906 481.62C349.669 481.188 343.899 478.107 338.088 474.77C332.278 471.438 313.555 460.621 296.487 450.736C279.419 440.851 258.574 428.784 250.163 423.927C241.753 419.065 219.792 406.414 201.366 395.809C176.338 381.399 167.321 375.993 165.724 374.423C164.186 372.912 163.511 371.851 163.313 370.637C163.16 369.71 163.16 368.293 163.313 367.488C163.48 366.611 164.352 365.262 165.504 364.115C166.556 363.063 170.248 360.567 173.711 358.565C177.17 356.564 187.087 350.812 195.744 345.779C204.402 340.751 211.787 336.564 212.16 336.483C212.533 336.398 213.644 336.807 214.634 337.396Z" fill="white"/>
<path d="M366.197 434.793C367.929 435.225 370.407 436.12 371.707 436.781C373.007 437.446 374.725 438.562 375.53 439.263C376.335 439.969 377.347 441.283 377.778 442.187C378.417 443.522 378.565 445.069 378.565 450.354C378.565 455.814 378.431 457.15 377.729 458.562C377.266 459.488 376.204 460.829 375.368 461.544C374.527 462.254 372.831 463.338 371.594 463.959C370.358 464.575 367.826 465.465 365.973 465.929C364.021 466.423 361.079 466.774 359.002 466.765C357.023 466.761 353.987 466.45 352.255 466.077C350.524 465.708 347.992 464.89 346.634 464.265C345.275 463.639 343.377 462.376 342.42 461.463C341.462 460.545 340.306 458.989 339.842 458C339.163 456.538 339.006 455.09 338.997 450.242C338.988 445.479 339.145 443.954 339.775 442.641C340.207 441.737 341.471 440.181 342.586 439.178C343.701 438.175 345.622 436.893 346.858 436.331C348.095 435.764 350.677 434.995 352.593 434.622C354.509 434.244 357.648 433.952 359.564 433.97C361.48 433.988 364.466 434.357 366.197 434.793Z" fill="url(#paint5_linear_1_535)"/>
<path d="M374.39 441.247C375.366 442.299 376.324 443.765 376.509 444.507C376.693 445.25 376.635 446.567 376.378 447.431C376.117 448.308 375.056 449.792 373.977 450.777C372.915 451.748 371.031 452.99 369.794 453.529C368.557 454.069 366.484 454.739 365.184 455.018C363.884 455.297 360.952 455.526 358.663 455.531C356.311 455.531 353.329 455.225 351.804 454.825C350.32 454.433 348.84 453.975 348.521 453.808C348.161 453.619 352.623 450.75 359.99 446.423C366.619 442.533 372.169 439.344 372.326 439.34C372.479 439.34 373.41 440.194 374.39 441.247ZM366.646 437.015C368.13 437.428 369.295 437.968 369.236 438.216C369.178 438.458 363.817 441.737 357.318 445.497L345.508 452.333C343.763 451.083 342.809 450.03 342.261 449.189C341.662 448.267 341.258 446.936 341.249 445.857C341.244 444.827 341.622 443.433 342.135 442.596C342.629 441.791 343.997 440.487 345.17 439.695C346.344 438.904 348.773 437.788 350.567 437.222C353.212 436.381 354.781 436.196 358.888 436.223C362.144 436.246 364.91 436.529 366.646 437.015Z" fill="white"/>
<path d="M314.701 406.508C316.311 406.688 319.041 407.304 320.772 407.88C322.504 408.46 324.824 409.549 325.931 410.304C327.037 411.06 328.553 412.553 329.304 413.623C330.644 415.539 330.671 415.679 330.806 421.944C330.914 426.792 330.784 428.748 330.271 430.115C329.898 431.105 328.724 432.71 327.658 433.686C326.592 434.662 324.708 435.917 323.471 436.479C322.234 437.041 319.909 437.833 318.299 438.242C316.045 438.818 314.031 438.944 309.529 438.782C304.847 438.62 303.142 438.373 300.984 437.541C299.499 436.969 297.314 435.877 296.122 435.108C294.934 434.343 293.36 432.8 292.627 431.689C291.296 429.666 291.296 429.661 291.305 422.807C291.31 417.783 291.485 415.616 291.953 414.712C292.303 414.033 293.365 412.728 294.314 411.815C295.263 410.898 297.35 409.535 298.96 408.784C300.57 408.033 302.998 407.228 304.357 406.999C305.715 406.769 307.946 406.49 309.304 406.378C310.662 406.27 313.091 406.328 314.701 406.508Z" fill="url(#paint6_linear_1_535)"/>
<path d="M326.236 413.344C327.005 414.158 327.86 415.278 328.139 415.835C328.418 416.393 328.642 417.455 328.642 418.197C328.642 418.939 328.359 420.103 328.008 420.783C327.658 421.462 326.799 422.564 326.097 423.225C325.395 423.886 323.704 424.979 322.346 425.644C320.988 426.314 318.253 427.164 316.275 427.533C314.089 427.934 311.35 428.109 309.303 427.974C307.451 427.848 304.658 427.367 303.106 426.908C301.554 426.445 300.286 425.968 300.291 425.842C300.295 425.716 305.503 422.582 311.863 418.871C318.222 415.161 323.74 412.067 324.132 411.995C324.523 411.923 325.472 412.53 326.236 413.344ZM315.6 408.613C316.221 408.716 317.763 409.098 319.031 409.463C320.3 409.827 321.361 410.322 321.393 410.564C321.42 410.803 316.185 414.036 309.753 417.747C303.322 421.457 297.857 424.493 297.61 424.493C297.363 424.493 296.603 424.016 295.924 423.432C295.244 422.851 294.314 421.583 293.855 420.621C293.288 419.433 293.108 418.363 293.288 417.297C293.437 416.434 294.134 415.012 294.844 414.149C295.555 413.285 297.124 412.026 298.334 411.36C299.544 410.69 302.153 409.728 304.131 409.215C306.416 408.631 308.962 408.316 311.102 408.361C312.96 408.397 314.984 408.509 315.6 408.613Z" fill="white"/>
<path d="M269.951 379.375C271.683 379.749 274.21 380.616 275.573 381.305C276.936 381.993 278.73 383.135 279.571 383.846C280.408 384.561 281.469 385.901 281.932 386.827C282.634 388.24 282.769 389.575 282.769 395.035C282.769 400.495 282.634 401.831 281.932 403.243C281.469 404.17 280.408 405.519 279.571 406.238C278.73 406.958 276.832 408.118 275.348 408.82C273.864 409.522 271.233 410.394 269.501 410.763C267.77 411.132 264.833 411.437 262.98 411.437C261.123 411.437 258.19 411.132 256.459 410.763C254.727 410.394 252.096 409.517 250.612 408.811C249.128 408.105 247.257 406.895 246.452 406.117C245.647 405.339 244.59 403.846 244.1 402.793C243.358 401.197 243.209 399.915 243.209 395.035C243.209 390.335 243.371 388.833 244.032 387.39C244.482 386.4 245.741 384.795 246.83 383.819C247.923 382.843 249.825 381.583 251.062 381.017C252.299 380.45 254.727 379.681 256.459 379.312C258.19 378.939 261.226 378.647 263.205 378.665C265.184 378.678 268.22 378.997 269.951 379.375Z" fill="url(#paint7_linear_1_535)"/>
<path d="M278.241 385.676C279.275 386.621 280.327 388.096 280.584 388.964C280.84 389.828 280.935 391.042 280.791 391.663C280.647 392.279 279.765 393.668 278.839 394.748C277.795 395.962 276.113 397.19 274.449 397.964C272.965 398.652 270.689 399.439 269.39 399.709C268.09 399.983 265.158 400.208 262.868 400.212C260.516 400.212 257.534 399.906 256.01 399.506C254.526 399.115 253.006 398.638 252.637 398.449C252.16 398.202 255.151 396.259 262.756 391.874C268.693 388.451 274.184 385.272 274.958 384.809L276.365 383.963L278.241 385.676ZM270.177 381.48C271.288 381.8 272.605 382.272 273.1 382.528C273.905 382.951 273.644 383.207 270.627 384.948C268.769 386.018 263.305 389.171 258.483 391.959L249.713 397.028C247.658 395.485 246.7 394.429 246.255 393.686C245.81 392.944 245.445 391.528 245.445 390.538C245.445 389.531 245.837 388.101 246.34 387.278C246.835 386.473 247.991 385.258 248.908 384.579C249.83 383.9 251.904 382.857 253.518 382.263C255.947 381.368 257.476 381.152 262.306 381.04C266.134 380.95 268.85 381.098 270.177 381.48Z" fill="white"/>
<path d="M218.006 351.001C218.627 351.109 220.345 351.415 221.829 351.685C223.313 351.955 225.742 352.728 227.226 353.398C228.71 354.068 230.698 355.314 231.647 356.164C232.592 357.014 233.756 358.516 234.224 359.506C234.939 360.999 235.083 362.335 235.083 367.376C235.083 372.769 234.971 373.673 234.08 375.44C233.527 376.538 232.362 378.013 231.499 378.719C230.635 379.425 228.913 380.495 227.676 381.098C226.439 381.696 224.213 382.506 222.729 382.888C221.159 383.297 218.056 383.599 215.308 383.608C212.51 383.621 209.484 383.351 207.887 382.946C206.403 382.573 204.226 381.849 203.052 381.341C201.879 380.833 199.981 379.56 198.843 378.507C197.7 377.455 196.486 376.038 196.144 375.359C195.695 374.469 195.519 372.229 195.519 367.376C195.519 362.524 195.695 360.284 196.144 359.393C196.486 358.714 197.651 357.338 198.73 356.34C199.81 355.341 201.604 354.082 202.715 353.547C203.826 353.011 205.85 352.283 207.213 351.928C208.575 351.572 211.305 351.172 213.284 351.046C215.263 350.916 217.39 350.898 218.006 351.001Z" fill="url(#paint8_linear_1_535)"/>
<path d="M230.442 358.026C231.211 358.84 232.065 359.96 232.344 360.518C232.623 361.076 232.848 362.137 232.848 362.879C232.848 363.621 232.565 364.786 232.214 365.465C231.863 366.144 231.004 367.246 230.302 367.912C229.601 368.577 227.91 369.639 226.552 370.268C225.189 370.893 222.558 371.734 220.705 372.135C218.312 372.652 216.221 372.787 213.509 372.598C211.404 372.45 208.517 371.973 207.087 371.541C205.656 371.105 204.492 370.651 204.492 370.525C204.492 370.399 209.695 367.264 216.055 363.554C222.414 359.843 227.937 356.749 228.333 356.677C228.724 356.605 229.677 357.212 230.442 358.026ZM222.504 353.929C224.357 354.419 225.926 354.914 225.989 355.026C226.052 355.139 225.648 355.517 225.09 355.863C224.532 356.209 219.171 359.344 213.172 362.834C207.172 366.32 202.063 369.175 201.816 369.175C201.568 369.175 200.808 368.699 200.129 368.114C199.45 367.534 198.519 366.266 198.06 365.303C197.494 364.116 197.314 363.045 197.494 361.98C197.642 361.116 198.339 359.695 199.05 358.831C199.76 357.968 201.33 356.709 202.54 356.043C203.75 355.373 206.358 354.41 208.337 353.898C210.595 353.317 213.275 352.985 215.533 353.003C217.593 353.021 220.57 353.416 222.504 353.929Z" fill="white"/>
<path d="M271.088 21.0555C269.818 21.5077 267.256 22.7685 265.395 23.8544L262.012 25.8315C252.994 20.7651 252.453 20.5472 250.79 20.5571C249.753 20.5604 248.407 20.8245 247.654 21.1677C246.928 21.4978 238.386 26.353 228.676 31.9574C218.965 37.5618 210.796 42.1464 210.522 42.1464C210.248 42.1497 207.878 40.8921 205.248 39.354L200.472 36.5584C195.211 36.5683 194.564 36.7037 192.699 37.5816C191.517 38.1394 184.688 41.9846 177.516 46.1236C170.344 50.2625 162.845 54.6292 160.848 55.8273C158.851 57.0255 156.27 58.8969 155.115 59.9894C153.957 61.0786 152.286 62.9401 151.399 64.1184C150.514 65.2968 149.134 67.5247 148.332 69.0693C147.534 70.614 146.553 72.8419 146.157 74.0202C145.758 75.1986 145.253 77.1327 145.032 78.311L144.632 80.4564C133.922 86.6384 125.911 91.2626 119.921 94.7183C113.93 98.174 98.929 106.835 86.5847 113.964C74.2405 121.097 62.7478 127.761 61.0447 128.777C58.9125 130.051 57.2853 131.345 55.8165 132.936C54.3742 134.494 53.2058 136.213 52.2189 138.217C51.4168 139.851 50.562 142.151 50.3177 143.333C49.9547 145.105 49.9217 159.103 50.123 223.702C50.2979 279.591 50.4729 302.28 50.7369 303.164C50.9382 303.844 51.5852 304.914 52.176 305.541C52.7668 306.168 55.031 307.713 57.2094 308.973L61.1701 311.267C61.487 320.143 61.7642 323.315 61.9887 324.041C62.2164 324.767 62.7544 326.067 63.1868 326.929C63.6225 327.79 64.4608 328.978 65.0516 329.569C65.6424 330.16 70.359 333.107 75.531 336.121C80.7031 339.134 85.5285 341.798 86.2547 342.042C86.9808 342.286 88.6146 342.475 89.8853 342.458C91.2551 342.441 93.0671 342.151 94.3411 341.738C95.5195 341.359 98.3052 340.006 100.53 338.732L104.573 336.418C117.769 344.181 118.416 344.488 120.251 344.613C121.73 344.719 122.607 344.587 123.716 344.105C124.535 343.745 128.915 341.303 133.453 338.672C137.992 336.042 150.54 328.79 161.343 322.559C172.146 316.327 184.619 309.125 189.068 306.554C193.518 303.983 204.581 297.593 213.658 292.358C222.734 287.12 234.395 280.39 239.568 277.403C244.74 274.416 251.869 270.297 255.41 268.254C258.952 266.208 270.907 259.306 281.98 252.913C293.054 246.519 304.464 239.931 307.339 238.271C310.214 236.611 313.333 234.578 314.27 233.746C315.207 232.918 316.716 231.135 317.617 229.785C318.521 228.439 319.709 226.217 320.257 224.858L321.257 222.382C321.106 88.9984 320.97 63.5375 320.729 62.6332C320.541 61.907 320.043 60.7947 319.627 60.1577C319.049 59.2732 317.201 58.0321 311.771 54.8768L304.669 50.751C304.381 41.1298 304.22 39.8062 303.612 38.0437C303.203 36.8654 302.454 35.3042 301.949 34.5781C301.444 33.8519 300.678 32.941 300.252 32.5515C299.823 32.1653 295.315 29.4291 290.232 26.4685C285.149 23.5112 280.469 20.9037 279.835 20.6694C279.201 20.4383 277.491 20.2469 276.039 20.2403C274.049 20.237 272.828 20.4383 271.088 21.0555Z" fill="url(#paint9_linear_1_535)"/>
<path d="M95.8454 158.084C95.182 158.958 93.9608 161.008 93.1356 162.642C91.9144 165.064 91.7197 165.678 92.0827 165.979C92.327 166.18 97.499 169.21 103.582 172.715C111.437 177.244 114.679 178.953 114.778 178.62C114.854 178.366 115.55 176.89 116.326 175.349C117.098 173.804 118.26 171.913 118.907 171.141L120.085 169.738C102.839 159.635 97.6574 156.654 97.4429 156.598C97.2284 156.545 96.5088 157.212 95.8454 158.084ZM55.6309 135.471C54.7991 136.62 53.6637 138.561 53.1059 139.785C52.5481 141.01 52.0927 142.161 52.0927 142.343C52.0927 142.525 54.6539 144.181 57.7862 146.023C60.9185 147.865 63.6646 149.426 63.8923 149.489C64.1299 149.555 64.8132 148.584 65.4997 147.211C66.1565 145.894 67.3447 143.891 68.1402 142.756C68.9356 141.62 69.5858 140.617 69.5858 140.528C69.5858 140.435 67.0246 138.887 63.8923 137.085C60.76 135.28 57.9611 133.709 57.6707 133.596C57.2845 133.445 56.7267 133.956 55.6309 135.471ZM313.015 59.455C312.477 59.6003 302.747 65.1156 291.396 71.7135C280.045 78.3114 266.08 86.4011 260.36 89.6951C254.641 92.9891 245.432 98.2932 239.897 101.485C234.362 104.677 227.526 108.617 224.714 110.245C221.902 111.869 209.944 118.77 198.144 125.576C186.345 132.385 173.198 139.967 168.934 142.426C164.67 144.888 156.573 149.558 150.946 152.809C145.318 156.057 137.001 160.853 132.462 163.464C127.924 166.074 123.481 168.814 122.593 169.55C121.702 170.289 120.339 171.784 119.564 172.874C118.785 173.963 117.695 175.857 117.138 177.082C116.349 178.818 116.048 180.092 115.781 182.858C115.55 185.257 115.504 210.827 115.639 261.825C115.755 306.049 115.966 337.96 116.147 338.976C116.349 340.112 116.794 341.105 117.445 341.864C118.128 342.66 118.818 343.082 119.672 343.224C120.352 343.336 121.504 343.247 122.23 343.023C122.957 342.798 125.112 341.719 127.016 340.627C128.921 339.537 132.34 337.56 134.608 336.24C136.878 334.916 148.761 328.055 161.012 320.985C173.268 313.918 208.32 293.689 238.907 276.027C269.493 258.366 298.014 241.906 302.278 239.447C306.542 236.988 310.629 234.572 311.355 234.077C312.081 233.585 313.253 232.608 313.959 231.908C314.665 231.208 315.867 229.67 316.626 228.489C317.385 227.307 318.329 225.525 318.722 224.528C319.118 223.528 319.59 221.894 319.775 220.897C319.996 219.693 320.052 202.879 319.94 170.893C319.844 144.389 319.692 109.261 319.603 92.834C319.451 65.2443 319.395 62.8778 318.864 61.8282C318.547 61.2076 317.916 60.4188 317.461 60.0821C317.009 59.7455 316.042 59.4088 315.315 59.3329C314.589 59.2537 313.553 59.3098 313.015 59.455Z" fill="white"/>
<path d="M247.489 125.566C221.986 140.3 187.451 160.245 170.75 169.89L140.385 187.423C140.223 222.957 140.259 249.055 140.365 268.343C140.51 295.936 140.639 303.452 140.962 303.597C141.19 303.699 145.164 301.597 149.791 298.93C154.419 296.26 166.75 289.147 177.186 283.117C187.626 277.09 198.614 270.743 201.611 269.013C204.608 267.287 215.671 260.897 226.2 254.818C236.729 248.741 256.483 237.341 270.098 229.492C283.713 221.64 294.965 215.121 295.104 215.002C295.242 214.887 295.242 188.726 295.104 156.869C294.883 105.776 294.793 98.9401 294.358 98.8642C294.084 98.8147 272.993 110.832 247.489 125.566Z" fill="url(#paint10_linear_1_535)"/>
<path d="M287.591 104.178C284.686 105.861 279.861 108.654 276.864 110.383C273.867 112.113 258.942 120.73 243.693 129.533C228.444 138.339 204.307 152.274 190.058 160.503C175.809 168.731 159.098 178.375 152.926 181.934C144.454 186.818 141.724 188.545 141.787 188.974C141.833 189.284 141.869 214.715 141.869 245.487C141.869 298.616 141.899 301.422 142.447 301.247C142.764 301.148 153.346 295.111 165.964 287.83C178.582 280.552 194.101 271.591 200.455 267.921C206.809 264.25 223.444 254.646 237.422 246.576C251.4 238.509 269.777 227.908 278.26 223.019L293.68 214.131C293.694 163.741 293.598 138.303 293.479 125.097C293.36 111.891 293.175 101.092 293.066 101.102C292.961 101.112 290.495 102.498 287.591 104.178Z" fill="white"/>
<path d="M217.123 173.983L211.677 177.181L211.512 192.512C209.848 192.489 207.314 192.304 204.802 192.083C202.293 191.865 200.112 191.763 199.96 191.852C199.805 191.941 198.402 195.357 196.841 199.443C195.28 203.526 194.118 206.979 194.256 207.111C194.398 207.246 196.854 207.543 199.719 207.771C204.109 208.124 204.888 208.266 204.719 208.685C204.607 208.959 202.785 211.309 200.67 213.91C198.554 216.511 196.194 219.442 195.422 220.429L194.019 222.218C195.712 224.647 197.049 226.578 198.082 228.076C199.115 229.575 200.181 230.799 200.455 230.799C200.729 230.799 203.29 227.865 206.149 224.28L211.347 217.762C211.499 230.354 211.591 231.486 212.007 231.624C212.281 231.713 215.063 230.314 218.196 228.515L223.889 225.238L224.054 210.005C229.553 210.388 232.184 210.497 233.444 210.5H235.742C239.95 199.757 241.184 196.341 241.198 195.978C241.221 195.417 240.94 195.281 239.323 195.077C238.277 194.941 236.012 194.743 234.286 194.638C232.56 194.529 230.966 194.377 230.738 194.301C230.494 194.219 232.547 191.403 235.771 187.396C238.768 183.677 241.217 180.445 241.214 180.217C241.214 179.99 239.95 178.023 238.409 175.844C236.656 173.372 235.385 171.883 235.025 171.883C234.676 171.883 232.451 174.372 229.335 178.257L224.219 184.63C223.939 173.983 223.827 170.857 223.79 170.811C223.754 170.765 223.463 170.741 223.147 170.755C222.83 170.771 220.12 172.223 217.123 173.983Z" fill="url(#paint11_linear_1_535)"/>
<path fill-rule="evenodd" clip-rule="evenodd" d="M292.87 31.4622C293.597 31.4457 295.009 31.6767 296.006 31.9705C297.376 32.3731 298.234 32.921 299.508 34.2017C300.643 35.3437 301.442 36.5451 301.957 37.8785C302.604 39.5585 302.736 40.6015 302.828 44.7273C302.888 47.4041 302.825 49.5957 302.69 49.599C302.554 49.599 302.145 49.3943 301.782 49.1435C301.419 48.8893 299.115 47.513 296.666 46.0838C294.217 44.6547 291.801 43.3014 291.303 43.0737C290.804 42.8492 289.616 42.6677 288.662 42.671C287.708 42.6743 286.335 42.9483 285.609 43.275C284.883 43.6051 277.902 47.5625 270.096 52.0744C262.29 56.5863 252.266 62.3756 247.817 64.9435C243.368 67.508 236.239 71.6206 231.974 74.0795C227.71 76.5385 209.811 86.866 192.202 97.0286C174.593 107.194 149.047 121.938 135.432 129.794C121.817 137.649 108.746 145.207 106.387 146.59C102.941 148.614 101.472 149.726 98.9173 152.244C97.1449 153.99 94.9764 156.548 94.0225 158.02C93.0818 159.473 91.7253 161.885 91.0124 163.384C90.3027 164.882 89.3092 167.407 87.9032 171.883L87.9626 247.632C88.0022 300.23 88.1276 323.81 88.3752 324.783C88.5699 325.556 89.2399 326.744 89.8604 327.424C90.5371 328.163 93.3294 329.992 96.7818 331.962C99.9669 333.777 102.574 335.375 102.581 335.51C102.588 335.645 101.218 336.563 99.5378 337.543C97.8578 338.527 95.6662 339.669 94.6694 340.078C93.27 340.656 92.1742 340.831 89.8836 340.851C87.4543 340.87 86.6721 340.745 85.5928 340.171C84.8666 339.781 83.6685 338.817 82.9292 338.025C82.1932 337.233 81.2294 335.692 79.9983 332.622L79.7837 303.082C79.6682 286.833 79.5527 250.483 79.5296 222.3C79.4933 179.646 79.5626 170.655 79.9487 168.665C80.2029 167.348 80.797 165.12 81.269 163.714C81.741 162.308 82.7411 159.931 83.4903 158.433C84.2395 156.934 85.7611 154.373 86.8734 152.743C87.9824 151.109 90.0816 148.584 91.5338 147.132C92.9861 145.676 94.9929 143.95 95.9897 143.296C96.9864 142.64 104.489 138.24 112.658 133.52C120.827 128.8 138.947 118.331 152.925 110.257C166.903 102.184 190.519 88.5494 205.405 79.9546C220.29 71.3631 239.526 60.2533 248.147 55.2661C256.772 50.2789 266.202 44.8329 269.106 43.1628C272.011 41.4927 276.763 38.7499 279.668 37.0699C282.573 35.3866 285.655 33.6571 286.517 33.2214C287.378 32.789 288.863 32.218 289.817 31.9606C290.771 31.6998 292.144 31.4754 292.87 31.4622ZM276.697 21.6627C278.064 21.7419 279.249 22.0753 280.52 22.7321C281.533 23.2569 284.685 25.0227 287.523 26.6565C290.365 28.2903 292.692 29.7393 292.695 29.8746C292.702 30.0099 292.26 30.1221 291.715 30.1221C291.171 30.1221 289.613 30.4951 288.25 30.9473C286.484 31.5348 278.143 36.1787 259.122 47.1598C244.464 55.6226 229.499 64.2635 225.868 66.3627C222.238 68.4586 216.518 71.7625 213.161 73.7C209.804 75.6374 201.262 80.5685 194.182 84.6579C187.103 88.7441 169.798 98.7317 155.731 106.854C141.66 114.977 124.728 124.75 118.104 128.572C111.479 132.398 103.753 136.86 100.941 138.494C98.1284 140.128 95.0061 142.088 94.0093 142.851C93.0125 143.613 91.0784 145.409 89.7119 146.838C88.3455 148.267 86.3321 150.776 85.2363 152.409C84.1372 154.043 82.6717 156.568 81.9786 158.02C81.2822 159.473 80.2854 161.925 79.7606 163.466C79.2358 165.008 78.5823 167.536 78.3051 169.077C77.8628 171.556 77.8298 181.032 78.0113 250.107C78.1235 293.13 78.3447 329.447 78.4998 330.807C78.6549 332.17 78.9949 333.876 79.2556 334.602C79.5131 335.329 79.8596 336.2 80.0214 336.54C80.2029 336.926 77.8298 335.715 73.7106 333.322C69.2053 330.701 66.71 329.038 65.8519 328.08C65.1621 327.311 64.2874 325.866 63.9111 324.866C63.4755 323.717 63.1388 321.78 62.987 319.585C62.8582 317.677 62.7295 301.045 62.7064 282.618C62.68 264.191 62.5612 229.808 62.4391 206.209C62.2674 172.632 62.3103 162.691 62.6338 160.496C62.8615 158.954 63.5316 156.205 64.129 154.39C64.7231 152.574 65.7628 149.977 66.4427 148.614C67.1193 147.254 68.4594 144.95 69.4165 143.498C70.3737 142.045 72.2517 139.686 73.5885 138.25C74.9252 136.817 76.8396 135.022 77.8364 134.263C78.8331 133.5 86.4839 128.935 94.8344 124.113C103.185 119.291 117.741 110.881 144.343 95.5037L144.674 98.9231L154.08 104.386L163.659 98.9396L163.652 84.252L166.045 82.9449C167.362 82.2287 174.676 78.027 196.163 65.5805L196.493 69.0692L201.114 71.7163C203.655 73.1719 205.847 74.3601 205.982 74.3568C206.117 74.3535 208.309 73.162 215.471 69.0692L215.458 61.8904C215.445 56.4114 215.544 54.6225 215.871 54.3419C216.105 54.1373 227.806 47.3249 241.876 39.1988C255.943 31.0694 268.274 24.0028 269.271 23.4945C270.268 22.9829 271.905 22.336 272.902 22.0555C273.955 21.7584 275.549 21.5934 276.697 21.6627ZM206.395 43.0308C206.939 43.011 207.943 43.1463 208.623 43.3278C209.303 43.5061 210.464 44.2124 211.2 44.8923C212.026 45.6515 212.818 46.8331 213.25 47.9454C213.897 49.6089 213.97 50.5264 214.227 67.914L210.722 69.9769C208.798 71.1123 207.071 72.0398 206.89 72.0398C206.679 72.0398 206.563 69.1583 206.57 64.0358C206.58 56.2068 206.563 56.0054 205.811 54.8766C205.391 54.2429 204.682 53.5366 204.236 53.3122C203.791 53.091 202.979 52.9029 202.434 52.8996C201.889 52.8963 200.777 53.2494 199.959 53.6851C199.14 54.1175 191.493 58.5007 182.96 63.4219C170.431 70.6469 167.17 72.6735 166.015 73.9376C165.226 74.7991 164.111 76.4659 162.497 79.7797L162.295 97.9495L158.767 100.006C156.823 101.135 155.123 102.065 154.988 102.069C154.853 102.072 154.796 98.1013 154.862 93.2461C154.965 85.7075 155.08 84.0539 155.648 81.9416C156.011 80.5817 156.82 78.3538 157.44 76.9907C158.064 75.6308 159.242 73.4755 160.058 72.2048C160.873 70.9341 162.573 68.7986 163.833 67.4585C165.094 66.1185 166.722 64.6167 167.448 64.115C168.174 63.6166 175.897 59.0915 184.611 54.0548C193.324 49.0214 201.011 44.6217 201.691 44.2784C202.371 43.9351 203.487 43.5226 204.167 43.3575C204.847 43.1958 205.85 43.0473 206.395 43.0308ZM197.648 38.0568C199.602 38.0403 200.028 38.1723 202.434 39.542C203.886 40.3705 205.223 41.189 205.405 41.364C205.618 41.5752 205.48 41.6808 204.992 41.6808C204.583 41.6775 203.47 41.9647 202.517 42.3212C201.563 42.6776 197.071 45.1036 192.532 47.711C187.994 50.3185 180.492 54.6423 175.864 57.3224C171.237 60.0025 166.646 62.8146 165.665 63.5704C164.685 64.3262 163.111 65.8346 162.163 66.9238C161.219 68.013 159.846 69.7953 159.114 70.8845C158.384 71.9737 157.265 73.9046 156.632 75.1753C155.998 76.4461 155.06 78.7499 154.549 80.2913C153.628 83.0704 153.618 83.1859 153.519 92.586C153.463 97.8042 153.344 102.075 153.255 102.075C153.166 102.075 151.512 101.148 146.08 97.9495L146.225 87.8826C146.367 77.9214 146.38 77.7894 147.281 75.1753C147.786 73.7231 148.888 71.2146 149.737 69.6039C150.582 67.9899 152.278 65.4749 153.506 64.0127C154.73 62.5505 156.694 60.6032 157.866 59.6823C159.041 58.7647 163.457 56.0186 167.685 53.5795C171.91 51.1437 179.231 46.9222 183.951 44.1992C188.67 41.4762 193.199 38.9842 194.017 38.6608C194.876 38.3208 196.407 38.0667 197.648 38.0568ZM196.245 57.5303C196.292 57.5237 196.328 58.9298 196.328 63.7883L188.489 68.3035C184.178 70.7888 178.792 73.8848 176.524 75.1885C174.253 76.4923 170.58 78.6211 168.355 79.915C166.131 81.2121 164.164 82.2716 163.982 82.2716C163.764 82.2716 163.767 81.7963 163.995 80.8689C164.18 80.0965 164.695 78.7235 165.134 77.8158C165.573 76.9081 166.57 75.545 167.349 74.7891C168.233 73.931 173.445 70.7096 181.145 66.2637C187.951 62.3294 194.116 58.7581 194.843 58.3291C195.569 57.8967 196.199 57.5369 196.245 57.5303ZM251.283 21.9994C251.827 22.0621 254.019 23.0985 256.151 24.3032C258.283 25.5079 260.026 26.6037 260.023 26.739C260.02 26.8743 256.491 29.0131 252.184 31.4886C247.877 33.964 241.53 37.6211 238.08 39.6147C234.631 41.6082 228.172 45.3412 223.723 47.9124C219.274 50.4802 215.6 52.5761 215.554 52.5728C215.508 52.5695 215.471 52.0084 215.475 51.3285C215.478 50.6486 215.263 49.3481 214.999 48.4405C214.739 47.5328 213.989 45.9749 213.339 44.9748C212.689 43.9781 212.197 43.1463 212.247 43.1298C212.296 43.1133 220.284 38.5189 229.994 32.921C239.704 27.3232 248.246 22.5506 248.972 22.3162C249.699 22.0786 250.738 21.9366 251.283 21.9994ZM202.351 54.5499C202.85 54.5466 203.556 54.6951 203.919 54.8766C204.282 55.0582 204.731 55.6886 204.916 56.2794C205.101 56.8768 205.249 60.6791 205.24 72.3698L197.995 68.2441L197.889 56.5401L199.668 55.5467C200.645 54.9988 201.853 54.5499 202.351 54.5499Z" fill="white"/>
<path d="M377.805 22.5007C378.21 22.7733 393.626 31.7057 412.061 42.3435C430.497 52.9813 459.504 69.7227 476.522 79.5465C493.54 89.3739 516.996 102.918 528.643 109.648C540.294 116.374 549.86 121.91 549.908 121.943C549.955 121.98 549.996 148.446 550 180.761C550.007 213.076 549.885 246.275 549.731 254.54L549.455 269.565C541.605 274.107 539.159 275.426 538.957 275.426C538.754 275.426 535.067 273.385 530.761 270.887C526.455 268.394 518.046 263.524 512.067 260.069C506.089 256.614 494.737 250.061 486.836 245.508C478.935 240.952 458.466 229.143 441.345 219.26C424.224 209.377 402.595 196.894 393.276 191.52C383.957 186.142 373.846 180.296 370.807 178.525L365.282 175.302C365.517 48.0566 365.665 28.3169 365.97 27.9596C366.199 27.6907 368.501 26.2394 371.083 24.7366C373.665 23.2337 376.07 22.0034 376.424 21.9998C376.778 21.9998 377.4 22.2244 377.805 22.5007Z" fill="url(#paint12_linear_1_535)"/>
<path d="M377.804 35.975C383.274 39.1612 400.763 49.2796 416.664 58.4588C432.57 67.6417 451.959 78.8394 459.761 83.3443C467.562 87.8491 482.481 96.4611 492.912 102.484C503.344 108.502 516.77 116.252 522.748 119.707C528.723 123.159 534.767 126.665 536.174 127.498L538.734 129.008C538.333 171.828 538.219 204.191 538.219 228.554C538.219 252.916 538.093 272.851 537.942 272.858C537.791 272.862 534.601 271.101 530.852 268.946C527.102 266.788 520.144 262.777 515.381 260.032C510.618 257.288 502.003 252.308 496.227 248.967C490.452 245.623 467.165 232.174 444.475 219.08C421.784 205.985 395.057 190.555 385.079 184.794L366.941 174.315C366.938 120.93 367.048 88.4864 367.181 67.7706C367.313 47.0548 367.52 30.122 367.641 30.1441C367.759 30.1625 372.334 32.7851 377.804 35.975Z" fill="white"/>
<path d="M409.799 150.254C409.909 150.726 410.767 158.734 411.699 168.053C412.635 177.372 413.512 185.306 413.652 185.686C413.843 186.209 414.167 185.737 415.007 183.708C415.615 182.242 416.237 180.978 416.388 180.901C416.539 180.823 418.031 181.512 419.704 182.429C421.376 183.347 422.868 184.094 423.019 184.087C423.17 184.08 423.295 183.829 423.295 183.523C423.295 183.221 423.586 182.474 423.94 181.866C424.293 181.258 425.081 180.496 425.689 180.168C426.481 179.741 427.476 179.608 429.203 179.704C431.093 179.81 432.246 180.153 434.544 181.288C436.843 182.422 438.202 183.461 440.825 186.076C443.233 188.478 444.504 190.091 445.348 191.811C445.992 193.13 446.722 195.163 446.972 196.335L447.422 198.464C453.882 202.14 454.074 202.202 454.494 201.536C454.741 201.152 455.238 200.541 455.599 200.184C456 199.786 456.803 199.532 457.643 199.539C458.402 199.543 459.813 199.941 460.774 200.423C461.736 200.902 463.146 201.981 463.905 202.817C464.664 203.65 465.603 204.957 465.986 205.716C466.373 206.475 466.826 207.735 466.999 208.516C467.294 209.845 467.566 210.081 471.279 212.199C473.46 213.444 475.239 214.671 475.239 214.925C475.235 215.179 475.357 215.385 475.508 215.389C475.659 215.389 476.506 210.954 477.387 205.536C478.267 200.114 479.14 194.725 479.32 193.561C479.597 191.8 479.777 191.443 480.389 191.443C480.856 191.443 481.184 191.745 481.291 192.272C481.383 192.728 481.976 198.821 482.606 205.808C483.236 212.8 483.95 220.457 484.19 222.833C484.429 225.205 484.731 227.029 484.86 226.885C484.989 226.738 485.486 225.563 485.965 224.27C486.444 222.981 486.96 221.861 487.111 221.784C487.262 221.71 489.336 222.756 491.715 224.108C494.095 225.463 496.415 226.789 496.872 227.055C497.657 227.515 497.741 227.449 498.438 225.883C498.876 224.892 499.657 223.931 500.371 223.489C501.193 222.984 502.206 222.756 503.594 222.763C504.828 222.767 506.412 223.091 507.646 223.596C508.759 224.049 510.751 225.18 512.066 226.108C513.381 227.036 515.341 228.775 516.416 229.972C517.488 231.165 518.999 233.39 519.765 234.908C520.535 236.429 521.275 238.499 521.415 239.512L521.665 241.354C527.787 244.864 529.773 246.109 530.027 246.382C530.403 246.783 530.384 246.967 529.935 247.339C529.471 247.722 528.616 247.358 524.866 245.185C522.384 243.748 520.269 242.488 520.17 242.385C520.067 242.282 519.864 241.262 519.717 240.12C519.57 238.974 518.932 236.963 518.302 235.644C517.492 233.943 516.288 232.377 514.151 230.244C511.786 227.88 510.519 226.94 508.199 225.843C506.125 224.856 504.736 224.439 503.51 224.428C502.132 224.414 501.576 224.601 500.843 225.331C500.283 225.887 499.797 226.911 499.624 227.909C499.425 229.058 499.141 229.596 498.703 229.659C498.353 229.71 496.04 228.572 493.557 227.136C491.074 225.695 488.835 224.329 488.577 224.097C488.319 223.865 488.054 223.758 487.988 223.857C487.921 223.96 487.137 225.913 486.245 228.196C485.354 230.484 484.418 232.348 484.164 232.34C483.91 232.333 483.597 232.123 483.464 231.869C483.332 231.615 482.588 224.531 481.814 216.122C481.037 207.716 480.355 200.504 480.3 200.099C480.241 199.694 479.39 204.169 478.407 210.044C477.423 215.919 476.433 220.844 476.2 220.988C475.972 221.135 475.604 221.051 475.379 220.804C475.158 220.561 474.694 219.282 474.348 217.964L473.722 215.57L465.655 210.965C465.051 207.967 464.572 206.6 464.196 205.993C463.82 205.385 462.796 204.213 461.916 203.388C461.036 202.563 459.691 201.694 458.932 201.455C457.986 201.156 457.319 201.134 456.814 201.388C456.391 201.602 455.96 202.32 455.801 203.09C455.65 203.827 455.4 204.49 455.249 204.563C455.098 204.641 452.888 203.503 450.339 202.033C447.201 200.224 445.661 199.123 445.573 198.626C445.499 198.22 445.333 197.226 445.2 196.416C445.072 195.605 444.548 194.113 444.044 193.1C443.536 192.087 442.512 190.437 441.771 189.435C441.031 188.433 439.344 186.724 438.029 185.638C436.71 184.551 434.555 183.144 433.24 182.507C431.457 181.649 430.316 181.346 428.769 181.332C427.181 181.317 426.503 181.486 425.899 182.05C425.464 182.455 425.019 183.369 424.908 184.076C424.794 184.787 424.636 185.656 424.551 186.01C424.47 186.363 424.234 186.654 424.032 186.654C423.829 186.654 422.212 185.811 420.44 184.783C418.669 183.752 417.173 183.048 417.114 183.218C417.059 183.387 416.285 185.181 415.394 187.207C414.193 189.936 413.6 190.89 413.103 190.89C412.554 190.89 412.377 190.478 412.16 188.68C412.016 187.465 411.397 181.663 410.786 175.788C410.174 169.913 409.548 163.736 409.394 162.064C409.239 160.391 409.029 159.021 408.929 159.025C408.83 159.025 408.163 163.688 407.456 169.386C406.749 175.085 406.056 179.932 405.924 180.16C405.784 180.396 405.426 180.459 405.095 180.3C404.771 180.149 404.251 179.07 403.938 177.906C403.625 176.742 403.316 175.622 403.25 175.42C403.183 175.217 401.699 174.263 399.953 173.302C397.15 171.758 396.774 171.431 396.778 170.539C396.781 169.983 396.325 168.628 395.765 167.526C395.205 166.425 393.993 164.848 393.068 164.027C392.144 163.202 390.733 162.299 389.938 162.023C388.832 161.64 388.287 161.618 387.657 161.931C387.164 162.174 386.755 162.793 386.645 163.449C386.545 164.056 386.295 164.638 386.092 164.738C385.889 164.841 383.315 163.555 380.368 161.883C377.425 160.211 375.02 158.638 375.027 158.384C375.034 158.13 375.288 157.842 375.594 157.739C375.9 157.64 378.136 158.715 380.567 160.133L384.987 162.712C385.764 161.143 386.261 160.561 386.593 160.41C386.924 160.259 387.82 160.137 388.578 160.141C389.337 160.145 390.704 160.494 391.617 160.914C392.531 161.338 394.107 162.535 395.128 163.577C396.174 164.649 397.245 166.196 397.588 167.132C397.923 168.046 398.284 169.206 398.395 169.71C398.542 170.392 399.268 170.989 401.183 172.013C402.609 172.771 404.064 173.714 404.417 174.105C405.036 174.786 405.121 174.337 406.48 163.331C407.261 157.014 408.016 151.348 408.16 150.741C408.307 150.133 408.686 149.584 409.01 149.518C409.371 149.448 409.673 149.728 409.799 150.254ZM496.975 114.042C497.487 114.208 498.647 114.727 499.554 115.195C500.46 115.667 502.095 116.893 503.189 117.925C504.287 118.956 505.989 121.045 506.979 122.562C507.967 124.083 508.773 125.49 508.77 125.693C508.766 125.896 508.884 126.275 509.035 126.537C509.241 126.898 509.687 126.794 510.961 126.08C511.96 125.52 513.205 125.148 514.092 125.148C514.903 125.144 516.144 125.303 516.855 125.491C517.566 125.682 519.212 126.551 520.516 127.424C521.82 128.294 523.688 130.003 524.664 131.218C525.64 132.434 526.999 134.508 527.684 135.823C528.366 137.141 529.18 139.13 529.485 140.243C529.791 141.359 530.145 143.016 530.274 143.926C530.399 144.84 530.351 146.663 530.159 147.978C529.972 149.297 529.482 151.286 529.073 152.398C528.638 153.581 527.57 155.268 526.513 156.45C525.353 157.747 523.85 158.907 522.343 159.666C521.047 160.321 519.072 161.091 517.96 161.378C516.847 161.662 514.413 162.038 512.549 162.211L509.167 162.528C506.991 160.229 505.23 158.155 503.849 156.439C502.467 154.722 499.959 151.249 498.268 148.715C496.577 146.184 494.286 142.287 493.174 140.059C492.065 137.83 490.647 134.515 490.025 132.692C489.402 130.868 488.702 128.135 488.466 126.614C488.231 125.096 488.109 122.691 488.198 121.273C488.312 119.446 488.617 118.23 489.255 117.1C489.748 116.219 490.647 115.188 491.255 114.805C491.863 114.418 493.189 114.024 494.202 113.924C495.214 113.825 496.463 113.88 496.975 114.042Z" fill="url(#paint13_linear_1_535)"/>
<path d="M512.07 138.309C512.53 141.702 513.027 144.729 513.175 145.032C513.34 145.381 513.624 144.729 513.948 143.238C514.232 141.948 514.666 140.748 514.921 140.567C515.197 140.372 515.455 140.394 515.565 140.619C515.668 140.829 516.14 142.111 516.611 143.473C517.433 145.849 517.565 146.008 519.739 147.242C521.157 148.048 522.008 148.774 522.008 149.175C522.011 149.529 521.886 149.824 521.735 149.831C521.584 149.838 520.251 149.131 518.773 148.266C516.49 146.925 516.048 146.501 515.827 145.448C515.683 144.763 515.48 144.151 515.381 144.089C515.282 144.026 514.865 145.308 514.46 146.936C514.055 148.568 513.517 150.048 513.263 150.229C513.009 150.409 512.725 150.431 512.633 150.28C512.537 150.129 512.084 147.411 511.62 144.243C511.156 141.072 510.692 138.394 510.593 138.283C510.493 138.177 509.911 141.411 509.303 145.47C508.696 149.529 508.032 152.929 507.83 153.032C507.627 153.131 507.336 153.073 507.185 152.899C507.034 152.726 506.312 149.433 505.583 145.584C504.854 141.735 504.18 138.335 504.084 138.033C503.948 137.591 503.833 137.628 503.517 138.217C503.296 138.622 503.06 138.994 502.986 139.046C502.916 139.097 501.656 138.449 500.187 137.609C498.717 136.77 497.431 136.025 497.332 135.955C497.233 135.885 497.273 135.58 497.424 135.274C497.656 134.806 498.087 134.928 500.095 136.007L502.489 137.296C503.343 135.296 503.76 134.633 503.962 134.534C504.165 134.434 504.467 134.556 504.633 134.81C504.798 135.064 505.491 138.169 506.169 141.716C506.85 145.26 507.458 147.997 507.517 147.794C507.579 147.592 508.132 144.07 508.743 139.967C509.355 135.863 509.856 132.423 509.856 132.324C509.856 132.224 510.165 132.139 510.545 132.139C511.156 132.139 511.326 132.832 512.07 138.309Z" fill="white"/>
<path d="M393.29 97.92C393.419 98.141 394.005 106.639 394.591 116.798C395.176 126.957 395.699 135.602 395.755 136.007C395.828 136.548 396.222 136.129 397.235 134.441C397.994 133.174 398.782 132.055 398.985 131.955C399.188 131.856 400.388 132.357 401.655 133.075C403.884 134.338 404.046 134.372 406.72 134.154C408.934 133.974 409.958 134.081 411.877 134.685C413.328 135.141 415.071 136.066 416.297 137.031C417.413 137.908 419.115 139.694 420.084 140.998C421.053 142.306 422.257 143.912 422.754 144.571C423.255 145.23 424.784 146.427 426.15 147.23C428.453 148.586 428.699 148.652 429.466 148.151C429.922 147.853 430.751 147.61 431.307 147.606C431.864 147.606 432.692 147.853 433.149 148.159C433.606 148.464 434.475 149.709 435.083 150.925C435.941 152.645 436.516 153.297 437.661 153.872C438.644 154.363 439.38 155.1 439.871 156.082C440.277 156.892 440.678 157.515 440.766 157.463C440.851 157.412 441.105 154.387 441.33 150.741C441.551 147.094 441.975 140.213 442.266 135.454C442.56 130.692 442.969 126.633 443.175 126.43C443.428 126.184 443.708 126.222 444.015 126.544C444.347 126.89 444.656 131.392 445.12 142.567C445.474 151.113 445.868 159.518 445.997 161.239L446.233 164.37C447.154 161.788 447.548 160.833 447.699 160.587C447.901 160.255 448.609 160.476 450.369 161.423L452.763 162.712C453.692 161.143 454.314 160.399 454.745 160.049C455.172 159.699 455.817 159.408 456.171 159.404C456.524 159.401 457.195 159.854 457.655 160.41C458.116 160.966 458.97 162.664 459.552 164.185C460.134 165.703 460.959 167.283 461.383 167.692C461.81 168.101 463.689 169.302 465.563 170.363C468.481 172.013 469.103 172.237 469.892 171.921C470.4 171.718 471.475 171.552 472.286 171.552C473.096 171.552 474.422 171.884 475.233 172.289C476.043 172.694 477.244 173.497 477.903 174.076C478.562 174.654 479.885 176.271 480.842 177.667C482.301 179.796 483.049 180.477 485.436 181.866C487.053 182.805 488.534 183.962 488.85 184.533C489.16 185.089 489.499 185.546 489.598 185.55C489.701 185.553 489.904 184.268 490.047 182.699C490.195 181.126 490.821 174.451 491.436 167.869C492.051 161.283 492.633 155.691 492.733 155.437C492.832 155.183 493.164 154.977 493.466 154.977C493.771 154.977 494.096 155.349 494.188 155.806C494.283 156.262 494.534 161.607 494.748 167.685C494.961 173.762 495.26 181.744 495.407 185.424C495.554 189.104 495.76 192.066 495.86 192.007C495.963 191.951 496.169 191.303 496.32 190.566C496.471 189.833 496.762 189.148 496.965 189.049C497.168 188.949 498.7 189.612 500.372 190.526C503.389 192.172 503.422 192.18 504.792 191.631C505.551 191.325 507.043 191.075 508.107 191.078C509.397 191.081 510.686 191.388 511.975 191.999C513.04 192.504 514.712 193.705 515.688 194.666C516.668 195.627 518.381 197.826 519.489 199.547C521.478 202.626 521.582 202.718 525.906 205.271C528.322 206.693 530.3 208.1 530.3 208.394C530.3 208.689 530.054 208.98 529.748 209.043C529.446 209.102 527.457 208.148 525.328 206.917C523.202 205.687 521.07 204.313 520.594 203.864C520.119 203.414 518.999 201.926 518.108 200.56C517.217 199.193 515.784 197.307 514.922 196.372C514.06 195.44 512.693 194.29 511.883 193.823C511.073 193.355 509.831 192.869 509.12 192.743C508.354 192.607 507.083 192.743 505.989 193.079C504.977 193.392 503.735 193.646 503.227 193.642C502.722 193.642 501.477 193.148 500.464 192.548C499.451 191.948 498.457 191.45 498.254 191.443C498.052 191.436 497.389 193.112 496.781 195.167C496.173 197.222 495.51 198.983 495.307 199.083C495.105 199.182 494.755 199.035 494.527 198.758C494.261 198.434 493.967 193.753 493.694 185.55C493.458 178.558 493.278 172.179 493.285 171.368C493.296 170.558 493.219 169.98 493.116 170.079C493.016 170.178 492.541 174.492 492.059 179.656C491.58 184.82 491.079 189.255 490.946 189.509C490.814 189.763 490.497 189.973 490.243 189.981C489.989 189.984 489.403 189.196 488.939 188.231C488.478 187.262 487.731 186.01 487.281 185.45C486.835 184.89 485.399 183.815 484.091 183.056C482.647 182.223 481.229 181.03 480.481 180.024C479.807 179.111 478.721 177.682 478.073 176.842C477.421 176.006 476.393 174.963 475.785 174.532C475.177 174.098 474.102 173.615 473.391 173.464C472.684 173.309 471.273 173.343 470.26 173.538C468.426 173.895 468.4 173.884 464.182 171.519C460.79 169.615 459.821 168.889 459.316 167.862C458.97 167.158 458.141 165.371 457.475 163.898C456.808 162.421 456.138 161.22 455.986 161.228C455.835 161.235 455.253 161.909 454.697 162.727C454.008 163.743 453.419 164.211 452.856 164.2C452.399 164.193 451.323 163.843 450.461 163.423C449.599 163.003 448.793 162.797 448.664 162.963C448.539 163.128 447.916 164.882 447.282 166.856C446.505 169.291 445.956 170.447 445.581 170.447C445.279 170.447 444.947 170.282 444.844 170.079C444.745 169.876 444.483 165.773 444.269 160.962C444.052 156.152 443.761 150.641 443.621 148.715C443.371 145.289 443.356 145.392 442.877 153.503C442.608 158.06 442.321 161.916 442.236 162.067C442.151 162.218 441.835 162.344 441.529 162.344C441.197 162.344 440.424 161.154 439.595 159.36C438.468 156.929 437.89 156.144 436.464 155.124C435.366 154.34 434.387 153.22 433.834 152.122C433.348 151.161 432.608 150.041 432.184 149.636C431.444 148.929 431.377 148.925 430.486 149.544C429.974 149.897 429.226 150.188 428.821 150.188C428.416 150.188 427.381 149.835 426.519 149.404C425.657 148.969 424.239 148.1 423.362 147.47C422.485 146.836 420.972 145.16 419.999 143.742C419.023 142.324 417.376 140.376 416.341 139.414C415.303 138.453 413.501 137.226 412.337 136.688C410.374 135.782 409.991 135.727 407.089 135.966C404.075 136.213 403.873 136.18 401.748 135.09C400.532 134.467 399.456 134.099 399.353 134.276C399.254 134.453 398.381 135.867 397.419 137.418C396.182 139.414 395.452 140.243 394.933 140.243C394.417 140.243 394.193 139.996 394.189 139.414C394.185 138.957 393.858 133.115 393.46 126.43C393.062 119.744 392.719 113.693 392.701 112.985C392.683 112.274 392.602 111.862 392.524 112.064C392.45 112.267 392.042 116.661 391.618 121.826C391.198 126.99 390.775 131.425 390.682 131.679C390.59 131.933 390.266 132.139 389.96 132.139C389.647 132.139 388.679 130.813 387.739 129.1L386.071 126.062C379.665 122.4 377.183 120.953 376.424 120.477C375.665 120.002 375.042 119.45 375.042 119.247C375.042 119.045 375.289 118.794 375.595 118.695C375.901 118.595 378.674 119.925 381.765 121.656C386.888 124.526 387.463 124.949 388.303 126.496C388.811 127.432 389.268 128.047 389.32 127.863C389.371 127.682 389.96 120.989 390.631 112.985C391.298 104.981 391.961 98.2294 392.101 97.9752C392.241 97.7211 392.513 97.5148 392.705 97.5148C392.896 97.5148 393.161 97.6953 393.29 97.92ZM382.225 71.0344C383.036 71.4617 385.19 72.6883 387.014 73.7528C388.837 74.821 391.986 76.6517 394.012 77.8193C396.038 78.9907 402.005 82.4237 407.273 85.4515C412.54 88.4829 417.244 91.3155 417.726 91.7502C418.209 92.1848 418.909 93.2051 419.284 94.0155C419.66 94.8259 419.97 96.0267 419.973 96.686C419.977 97.478 419.671 98.1926 419.06 98.804C418.356 99.5075 417.9 99.6733 417.126 99.5039C416.57 99.386 412.717 97.3233 408.562 94.929C404.411 92.5311 396.285 87.8457 390.513 84.5195C380.579 78.7954 379.956 78.3755 378.921 76.6664C378.166 75.4177 377.823 74.3679 377.816 73.2629C377.809 71.9884 377.993 71.5206 378.726 70.946C379.234 70.5482 379.894 70.2314 380.199 70.2388C380.505 70.2498 381.415 70.6071 382.225 71.0344ZM401.195 65.093C411.019 70.7655 419.542 75.8671 420.132 76.4233C420.721 76.9832 421.428 77.9777 421.697 78.6371C421.97 79.2964 422.191 80.372 422.194 81.0313C422.194 81.6906 421.948 82.6005 421.642 83.0572C421.255 83.6318 420.717 83.886 419.889 83.886C418.99 83.8897 414.198 81.2928 400.679 73.4802C386.645 65.3729 382.413 62.7613 381.525 61.6526C380.663 60.5807 380.347 59.7667 380.236 58.3375C380.115 56.7757 380.225 56.2969 380.881 55.6154C381.315 55.1587 382.045 54.783 382.501 54.783C382.958 54.7793 391.371 59.4204 401.195 65.093Z" fill="url(#paint14_linear_1_535)"/>
<path d="M434.518 248.302L429.243 251.378C423.793 250.025 421.024 249.427 419.573 249.175C418.123 248.926 415.553 248.583 413.859 248.416C412.165 248.249 408.673 248.114 406.094 248.117C403.515 248.12 399.891 248.255 398.036 248.416C396.181 248.577 393.479 248.92 392.029 249.175C390.578 249.43 387.809 250.033 385.875 250.514C383.941 250.994 381.107 251.853 379.575 252.421C378.042 252.99 375.44 254.101 373.788 254.889L370.784 256.322L370.799 266.138C367.039 268.708 364.973 270.355 363.784 271.457C362.591 272.561 361.05 274.255 360.358 275.222C359.67 276.189 358.647 277.971 358.09 279.178C357.533 280.388 356.93 282.067 356.751 282.914C356.546 283.881 356.429 288.297 356.429 294.782C356.435 302.887 356.528 305.503 356.868 306.942C357.109 307.95 357.61 309.465 357.985 310.312C358.357 311.159 359.245 312.706 359.957 313.755C360.669 314.804 362.242 316.633 363.453 317.822C364.666 319.012 366.907 320.82 368.44 321.834C369.972 322.851 372.61 324.339 374.3 325.142C375.991 325.945 378.564 327.017 380.014 327.524C381.465 328.031 384.102 328.825 385.875 329.285C387.648 329.746 391.009 330.422 393.347 330.789C396.978 331.36 398.748 331.457 405.508 331.463C411.67 331.471 414.164 331.357 416.789 330.95C418.644 330.663 421.674 330.094 423.529 329.684C425.384 329.274 428.481 328.412 430.415 327.773C432.349 327.132 435.382 325.901 437.155 325.04C438.928 324.181 441.565 322.692 443.015 321.737C444.466 320.782 446.719 318.956 448.023 317.682C449.327 316.41 450.968 314.511 451.668 313.462C452.366 312.413 453.257 310.834 453.643 309.946C454.03 309.058 454.537 307.411 454.772 306.283C455.12 304.58 455.179 300.677 455.1 283.28C455.012 263.041 454.988 262.27 454.405 260.571C454.074 259.604 453.503 258.218 453.136 257.494C452.767 256.77 451.906 255.384 451.22 254.417C450.537 253.45 448.937 251.665 447.669 250.452C446.397 249.242 444.305 247.557 443.015 246.713C441.726 245.869 440.475 245.19 440.232 245.201C439.988 245.213 437.418 246.608 434.518 248.302Z" fill="url(#paint15_linear_1_535)"/>
<path d="M401.552 286.972C400.99 287.042 399.275 287.303 397.743 287.555C396.21 287.807 393.708 288.414 392.175 288.903C390.643 289.395 388.469 290.257 387.34 290.817C386.212 291.379 384.469 292.452 383.464 293.199C382.461 293.949 381.638 294.661 381.632 294.781C381.629 294.901 382.45 295.614 383.458 296.364C384.466 297.111 386.344 298.221 387.633 298.828C388.923 299.435 391.1 300.264 392.468 300.674C393.837 301.084 396.146 301.65 397.596 301.931C399.501 302.3 401.702 302.444 405.508 302.447C409.353 302.45 411.577 302.306 413.713 301.919C415.324 301.626 417.698 301.055 418.987 300.651C420.277 300.243 422.225 299.499 423.321 298.995L425.308 298.078L425.287 291.192C422.677 290.011 420.995 289.36 419.866 288.985C418.738 288.607 416.432 288.018 414.738 287.675C412.617 287.242 410.249 287.016 407.12 286.949C404.62 286.893 402.115 286.905 401.552 286.972Z" fill="white"/>
<path d="M427.136 288.628L427.116 298.079C436.372 303.415 439.124 304.965 439.206 304.965C439.288 304.965 439.32 300.733 439.279 295.559L439.206 286.155C429.894 280.734 427.183 279.164 427.174 279.17C427.165 279.175 427.148 283.43 427.136 288.628ZM452.832 274.704C452.43 275.469 451.367 277.019 450.47 278.147C449.573 279.278 447.795 281.074 446.514 282.138C445.234 283.202 443.423 284.585 442.485 285.215L440.782 286.357L440.818 321.374C442.066 320.615 443.153 319.862 444.041 319.209C444.929 318.555 446.447 317.225 447.42 316.255C448.389 315.282 449.591 313.893 450.089 313.169C450.587 312.446 451.393 311.06 451.879 310.093C452.363 309.126 452.981 307.411 453.248 306.283C453.676 304.481 453.725 302.36 453.649 288.775L453.564 273.315L452.832 274.704ZM369.026 269.089C367.98 269.807 366.266 271.161 365.217 272.096C364.171 273.031 362.664 274.645 361.876 275.682C361.085 276.72 360.015 278.49 359.494 279.618C358.975 280.746 358.383 282.396 358.178 283.281C357.95 284.277 357.865 285.956 357.952 287.676C358.058 289.78 358.284 290.926 358.873 292.365C359.3 293.414 360.08 294.993 360.604 295.875C361.126 296.757 362.741 298.679 364.191 300.144C365.642 301.612 367.751 303.415 368.879 304.153C370.008 304.894 371.921 306.031 373.128 306.682C374.339 307.332 376.712 308.411 378.403 309.082C380.097 309.75 383.062 310.731 384.996 311.262C386.93 311.792 390.095 312.498 392.029 312.827C393.963 313.155 397.787 313.583 400.526 313.773C404.383 314.043 406.633 314.043 410.489 313.77C413.229 313.577 417.053 313.161 418.987 312.847C420.921 312.534 424.021 311.874 425.873 311.388C427.728 310.899 430.694 309.923 432.466 309.217C434.239 308.513 436.285 307.611 437.008 307.215L438.327 306.491C437.193 305.814 434.488 304.229 431.587 302.533L426.313 299.45C423.588 300.742 421.61 301.519 420.159 302.005C418.709 302.494 415.972 303.16 414.079 303.488C411.565 303.924 409.349 304.086 405.874 304.086C403.105 304.083 399.885 303.895 398.182 303.637C396.571 303.394 394.461 302.99 393.494 302.738C392.527 302.489 390.549 301.815 389.098 301.237C387.648 300.66 385.541 299.646 384.416 298.987C383.291 298.325 381.377 296.798 380.167 295.588C378.816 294.243 377.661 292.766 377.184 291.778C376.756 290.894 376.261 289.376 376.088 288.409C375.868 287.204 375.859 286.097 376.059 284.892C376.22 283.925 376.709 282.41 377.149 281.523C377.588 280.638 378.693 279.12 379.601 278.153C380.51 277.186 381.799 275.999 382.47 275.515L383.683 274.636C374.368 269.3 371.499 267.759 371.297 267.768C371.095 267.777 370.075 268.371 369.026 269.089ZM397.889 261.556C396.278 261.849 393.971 262.385 392.761 262.751C391.554 263.115 389.538 263.897 388.281 264.483L386.001 265.553C386.019 286.914 386.098 289.408 386.388 289.311C386.59 289.244 387.578 288.848 388.586 288.432C389.594 288.016 391.504 287.36 392.834 286.97C394.165 286.583 396.638 286.056 398.329 285.801C400.096 285.534 403.307 285.338 405.874 285.335C408.333 285.335 411.365 285.473 412.614 285.643C413.862 285.812 416.203 286.293 417.815 286.712C419.427 287.131 421.668 287.855 422.796 288.324C423.925 288.793 424.98 289.235 425.141 289.308C425.331 289.393 425.472 285.308 425.545 277.496L425.653 265.553C422.984 264.246 421.287 263.545 420.159 263.156C419.031 262.766 416.854 262.171 415.324 261.837C413.156 261.359 411.248 261.204 406.68 261.125C401.971 261.046 400.245 261.131 397.889 261.556Z" fill="white"/>
<path d="M372.264 262.244L372.234 266.138L384.41 273.259C384.559 266.499 384.486 265.494 384.202 265.318C383.994 265.189 381.846 263.935 379.428 262.531C377.011 261.127 374.414 259.613 373.661 259.164L372.29 258.35L372.264 262.244Z" fill="white"/>
<path d="M398.623 249.767C398.218 249.825 396.703 250.019 395.253 250.194C393.802 250.37 391.033 250.842 389.099 251.246C387.165 251.651 384.001 252.5 382.067 253.136C380.133 253.775 377.299 254.886 375.767 255.609L372.983 256.925L385.29 263.999C388.244 262.607 389.891 261.93 390.858 261.596C391.825 261.262 393.471 260.79 394.52 260.547C395.569 260.301 397.876 259.908 399.648 259.677C401.421 259.442 404.223 259.249 405.875 259.252C407.528 259.252 410.361 259.448 412.175 259.688C413.989 259.929 416.726 260.462 418.256 260.875C419.785 261.285 422.062 262.077 423.31 262.633L425.581 263.647V253.391L427.193 252.287C423.105 251.343 420.732 250.868 419.281 250.622C417.831 250.376 415.457 250.045 414.007 249.881C412.556 249.72 408.668 249.602 405.362 249.623C402.06 249.643 399.024 249.708 398.623 249.767Z" fill="white"/>
<path d="M434.105 250.347L427.925 253.978C430.081 255.507 431.347 256.662 432.127 257.529C432.909 258.397 433.964 259.964 434.471 261.01C435.312 262.739 435.397 263.173 435.397 265.699C435.397 268.254 435.315 268.65 434.415 270.534C433.817 271.779 432.78 273.256 431.778 274.287C430.867 275.225 429.624 276.347 429.015 276.778C428.402 277.212 428.007 277.654 428.136 277.763C428.262 277.868 431.001 279.474 434.225 281.329L440.085 284.702C441.902 283.606 443.517 282.428 444.847 281.379C446.177 280.33 447.997 278.58 448.894 277.493C449.79 276.406 451.047 274.46 451.683 273.171C452.322 271.882 453.052 269.839 453.304 268.629C453.6 267.22 453.705 265.749 453.6 264.527C453.509 263.481 453.172 261.766 452.85 260.717C452.524 259.671 451.762 257.969 451.156 256.937C450.546 255.906 449.125 254.071 447.997 252.858C446.869 251.645 445.023 249.981 443.895 249.154C442.766 248.331 441.492 247.446 441.064 247.185C440.293 246.719 440.217 246.752 434.105 250.347Z" fill="white"/>
<defs>
<linearGradient id="paint0_linear_1_535" x1="417.92" y1="399.792" x2="417.92" y2="432.301" gradientUnits="userSpaceOnUse">
<stop stop-color="#00B7FF"/>
<stop offset="1" stop-color="#0EB05C"/>
</linearGradient>
<linearGradient id="paint1_linear_1_535" x1="370.051" y1="371.926" x2="370.051" y2="404.636" gradientUnits="userSpaceOnUse">
<stop stop-color="#00B7FF"/>
<stop offset="1" stop-color="#0EB05C"/>
</linearGradient>
<linearGradient id="paint2_linear_1_535" x1="322.126" y1="344.483" x2="322.126" y2="377.14" gradientUnits="userSpaceOnUse">
<stop stop-color="#00B7FF"/>
<stop offset="1" stop-color="#0EB05C"/>
</linearGradient>
<linearGradient id="paint3_linear_1_535" x1="274.227" y1="316.746" x2="274.227" y2="349.318" gradientUnits="userSpaceOnUse">
<stop stop-color="#00B7FF"/>
<stop offset="1" stop-color="#0EB05C"/>
</linearGradient>
<linearGradient id="paint4_linear_1_535" x1="316.512" y1="304.621" x2="316.512" y2="495.76" gradientUnits="userSpaceOnUse">
<stop stop-color="#00B7FF"/>
<stop offset="1" stop-color="#0EB05C"/>
</linearGradient>
<linearGradient id="paint5_linear_1_535" x1="358.781" y1="433.969" x2="358.781" y2="466.765" gradientUnits="userSpaceOnUse">
<stop stop-color="#00B7FF"/>
<stop offset="1" stop-color="#0EB05C"/>
</linearGradient>
<linearGradient id="paint6_linear_1_535" x1="311.072" y1="406.324" x2="311.072" y2="438.847" gradientUnits="userSpaceOnUse">
<stop stop-color="#00B7FF"/>
<stop offset="1" stop-color="#0EB05C"/>
</linearGradient>
<linearGradient id="paint7_linear_1_535" x1="262.989" y1="378.664" x2="262.989" y2="411.437" gradientUnits="userSpaceOnUse">
<stop stop-color="#00B7FF"/>
<stop offset="1" stop-color="#0EB05C"/>
</linearGradient>
<linearGradient id="paint8_linear_1_535" x1="215.301" y1="350.934" x2="215.301" y2="383.608" gradientUnits="userSpaceOnUse">
<stop stop-color="#00B7FF"/>
<stop offset="1" stop-color="#0EB05C"/>
</linearGradient>
<linearGradient id="paint9_linear_1_535" x1="185.629" y1="20.2402" x2="185.629" y2="344.647" gradientUnits="userSpaceOnUse">
<stop stop-color="#00B7FF"/>
<stop offset="1" stop-color="#0EB05C"/>
</linearGradient>
<linearGradient id="paint10_linear_1_535" x1="217.741" y1="98.864" x2="217.741" y2="303.601" gradientUnits="userSpaceOnUse">
<stop stop-color="#00B7FF"/>
<stop offset="1" stop-color="#0EB05C"/>
</linearGradient>
<linearGradient id="paint11_linear_1_535" x1="217.616" y1="170.751" x2="217.616" y2="231.628" gradientUnits="userSpaceOnUse">
<stop stop-color="#00B7FF"/>
<stop offset="1" stop-color="#0EB05C"/>
</linearGradient>
<linearGradient id="paint12_linear_1_535" x1="457.641" y1="21.9998" x2="457.641" y2="275.426" gradientUnits="userSpaceOnUse">
<stop stop-color="#00B7FF"/>
<stop offset="1" stop-color="#0EB05C"/>
</linearGradient>
<linearGradient id="paint13_linear_1_535" x1="452.685" y1="113.875" x2="452.685" y2="247.472" gradientUnits="userSpaceOnUse">
<stop stop-color="#00B7FF"/>
<stop offset="1" stop-color="#0EB05C"/>
</linearGradient>
<linearGradient id="paint14_linear_1_535" x1="452.671" y1="54.783" x2="452.671" y2="209.045" gradientUnits="userSpaceOnUse">
<stop stop-color="#00B7FF"/>
<stop offset="1" stop-color="#0EB05C"/>
</linearGradient>
<linearGradient id="paint15_linear_1_535" x1="405.78" y1="245.201" x2="405.78" y2="331.463" gradientUnits="userSpaceOnUse">
<stop stop-color="#00B7FF"/>
<stop offset="1" stop-color="#0EB05C"/>
</linearGradient>
</defs>
</svg>
