<svg width="600" height="522" viewBox="0 0 600 522" fill="none" xmlns="http://www.w3.org/2000/svg">
<path fill-rule="evenodd" clip-rule="evenodd" d="M538.932 121.351C539.147 156.293 538.932 191.232 538.281 226.169C537.343 226.692 536.367 227.126 535.351 227.471C484.153 197.122 432.613 167.283 380.729 137.953C377.691 135.656 375.738 132.726 374.869 129.164C374.869 95.9604 374.869 62.7573 374.869 29.5542C375.558 27.3502 377.077 26.0481 379.427 25.6479C431.095 54.6382 482.526 84.0438 533.724 113.864C535.898 116.131 537.636 118.626 538.932 121.351Z" fill="white"/>
<path fill-rule="evenodd" clip-rule="evenodd" d="M548.698 120.049C548.698 153.252 548.698 186.455 548.698 219.658C546.706 221.856 544.316 223.593 541.536 224.867C541.1 190.578 540.671 156.291 540.234 122.002C540.234 121.785 540.234 121.568 540.234 121.351C539.271 117.366 537.103 114.219 533.724 111.911C483.268 82.6668 432.702 53.5868 382.031 24.6714C384.197 23.4259 386.475 22.4493 388.867 21.7417C439.471 50.2443 489.928 78.9989 540.234 108.005C544.935 110.813 547.754 114.828 548.698 120.049Z" fill="white"/>
<path d="M374.869 129.163C375.044 130.204 374.826 131.073 374.218 131.768C373.573 97.7243 373.357 63.6522 373.568 29.554H374.869V129.163ZM385.938 45.8303C389.964 47.5738 393.762 49.7441 397.33 52.3411C397.854 55.7596 397.745 59.1234 397.005 62.4319C393.351 61.3668 389.878 59.7392 386.588 57.5491C385.94 53.6669 385.724 49.7607 385.938 45.8303Z" fill="url(#paint0_linear_1_219)"/>
<path fill-rule="evenodd" clip-rule="evenodd" d="M527.213 190.361C527.428 196.67 527.213 202.963 526.562 209.242C480.331 181.566 433.672 154.548 386.588 128.187C385.947 122.491 385.73 116.74 385.937 110.934C387.814 112.435 389.768 112.543 391.796 111.26C397.727 104.063 403.261 96.5757 408.398 88.799C412.406 83.3432 415.661 83.7775 418.163 90.1011C423.5 104.591 428.708 119.132 433.788 133.721C434.708 135.779 435.794 137.732 437.044 139.58C438.867 141.726 440.82 141.943 442.903 140.231C446.36 132.99 449.726 125.72 452.994 118.421C453.971 118.091 454.726 118.417 455.273 119.398C456.653 122.485 458.281 125.415 460.156 128.187C462.337 128.792 464.179 128.25 465.689 126.559C467.245 122.792 468.984 119.102 470.898 115.492C472.415 112.888 473.938 112.888 475.455 115.492C479.029 130.009 482.499 144.55 485.872 159.111C486.646 162.18 487.949 165.001 489.778 167.575C501.848 175.852 514.329 183.447 527.213 190.361Z" fill="url(#paint1_linear_1_219)"/>
<path fill-rule="evenodd" clip-rule="evenodd" d="M527.214 190.362C514.33 183.448 501.849 175.852 489.779 167.575C487.949 165.002 486.647 162.18 485.873 159.112C482.5 144.55 479.03 130.009 475.456 115.492C473.939 112.888 472.416 112.888 470.899 115.492C468.985 119.102 467.246 122.792 465.69 126.559C464.18 128.25 462.337 128.793 460.156 128.187C458.281 125.415 456.654 122.485 455.274 119.398C454.727 118.417 453.972 118.091 452.995 118.421C449.727 125.72 446.361 132.99 442.904 140.231C440.821 141.943 438.868 141.726 437.044 139.58C435.794 137.732 434.709 135.779 433.789 133.721C428.709 119.132 423.501 104.591 418.164 90.1011C415.662 83.7776 412.406 83.3433 408.399 88.7991C403.262 96.5758 397.728 104.063 391.797 111.26C389.768 112.543 387.815 112.435 385.938 110.934C385.795 110.17 386.012 109.518 386.589 108.981C388.461 110.661 390.306 110.661 392.123 108.981C398.023 100.041 404.425 91.4696 411.328 83.2652C413.651 82.5653 415.604 83.1077 417.188 84.8928C418.329 86.5237 419.306 88.2593 420.117 90.1011C424.891 103.556 429.666 117.011 434.44 130.466C435.481 133.742 437.108 136.671 439.323 139.255C440.159 139.7 440.919 139.591 441.602 138.929C444.811 131.24 448.392 123.753 452.344 116.468C454.173 115.869 455.58 116.412 456.576 118.096C457.878 120.7 459.18 123.304 460.482 125.908C462.702 127.03 464.219 126.379 465.039 123.955C466.38 120.622 467.897 117.367 469.597 114.19C471.986 110.718 474.369 110.718 476.758 114.19C479.681 125.661 482.5 137.163 485.222 148.695C486.556 154.473 488.294 160.115 490.43 165.622C501.953 173.882 513.998 181.369 526.563 188.083C527.11 188.741 527.324 189.501 527.214 190.362Z" fill="url(#paint2_linear_1_219)"/>
<path fill-rule="evenodd" clip-rule="evenodd" d="M384.636 191.664C383.639 190.736 383.856 190.302 385.287 190.362C386.144 190.571 387.013 190.787 387.891 191.013C388.638 190.806 389.181 190.372 389.519 189.711C391.672 182.616 393.517 175.455 395.052 168.226C393.474 168.026 391.955 168.243 390.495 168.877C388.06 175.532 385.89 182.259 383.985 189.06C383.55 189.06 383.117 189.06 382.683 189.06C384.585 181.832 386.755 174.671 389.193 167.575C385.823 166.664 382.459 165.795 379.102 164.971C376.422 171.788 374.143 178.733 372.266 185.804C371.832 185.804 371.398 185.804 370.964 185.804C373.016 178.683 374.969 171.522 376.823 164.32C375.348 164.086 374.155 164.521 373.242 165.622C371.278 171.97 369.216 178.263 367.058 184.502C366.512 184.28 366.295 183.846 366.407 183.2C368.11 176.707 370.063 170.304 372.266 163.994C345.506 157.44 318.705 151.038 291.862 144.789C290.901 145.403 290.25 146.271 289.909 147.393C287.677 153.588 285.832 159.881 284.375 166.273C311.084 172.353 337.777 178.429 364.453 184.502C365.138 184.972 365.572 185.623 365.755 186.455C334.261 179.375 302.795 172.214 271.354 164.971C234.862 156.002 198.295 147.321 161.654 138.929C160.807 139.319 160.264 139.97 160.026 140.882C191.914 148.562 223.815 156.157 255.729 163.669C254.806 164.288 253.721 164.505 252.474 164.32C221.219 157.047 189.969 149.994 158.724 143.161C146.991 168.689 135.164 194.188 123.242 219.659C120.135 221.415 116.772 222.066 113.151 221.612C113.151 233.765 113.151 245.917 113.151 258.07C112.61 257.905 112.175 257.254 111.849 256.117C112.064 244.285 111.847 232.566 111.198 220.961C108.963 219.295 106.576 217.776 104.037 216.403C103.386 224.856 103.17 233.319 103.386 241.794C102.951 245.917 102.518 250.041 102.084 254.164C102.192 241.358 102.084 228.554 101.758 215.752C100.774 215.259 99.9052 214.608 99.1539 213.799C95.5908 191.89 96.5673 170.188 102.084 148.695C95.3942 147.307 89.1005 144.812 83.2034 141.208C82.2028 140.485 81.7692 139.509 81.9013 138.278C88.542 138.41 95.1604 138.844 101.758 139.58C102.3 139.364 102.843 139.146 103.386 138.929C112.923 114.032 126.161 91.4619 143.099 71.221C148.095 66.2386 153.954 62.5492 160.677 60.1533C166.301 62.1514 171.618 64.7555 176.628 67.9658C175.813 81.652 174.403 95.3239 172.396 108.981C243.467 125.383 314.431 142.202 385.287 159.437C389.079 161.224 392.769 163.177 396.354 165.297C397.054 165.778 397.488 166.429 397.657 167.25C395.319 175.623 392.932 183.978 390.495 192.315C390.061 192.532 389.627 192.749 389.193 192.966C387.662 192.528 386.144 192.093 384.636 191.664Z" fill="url(#paint3_linear_1_219)"/>
<path fill-rule="evenodd" clip-rule="evenodd" d="M170.442 115.492C205.558 124.186 240.714 132.758 275.911 141.208C276.437 141.408 276.871 141.734 277.213 142.184C274.999 148.72 272.72 155.23 270.377 161.716C269.905 162.08 269.363 162.296 268.75 162.367C233.461 153.735 198.087 145.38 162.63 137.302C162.332 137.032 162.115 136.707 161.979 136.325C165.168 129.514 167.989 122.57 170.442 115.492Z" fill="white"/>
<path fill-rule="evenodd" clip-rule="evenodd" d="M172.396 69.9189C173.264 69.9189 174.132 69.9189 175 69.9189C173.976 82.5459 172.565 95.1325 170.768 107.679C169.668 112.079 168.366 116.42 166.862 120.7C152.372 153.586 137.181 186.138 121.289 218.356C119.519 219.85 117.458 220.501 115.104 220.31C110.23 181.389 117.5 144.931 136.914 110.935C143.635 98.9007 151.556 87.7243 160.677 77.4059C164.294 74.4066 168.2 71.9111 172.396 69.9189Z" fill="white"/>
<path fill-rule="evenodd" clip-rule="evenodd" d="M279.167 142.185C282.73 142.466 286.202 143.226 289.584 144.463C286.859 151.348 284.688 158.401 283.073 165.622C279.442 164.763 275.752 164.112 272.005 163.669C274 156.382 276.388 149.22 279.167 142.185Z" fill="white"/>
<path fill-rule="evenodd" clip-rule="evenodd" d="M366.406 183.2C365.936 183.884 365.285 184.319 364.453 184.502C337.777 178.429 311.084 172.352 284.375 166.273C285.832 159.881 287.676 153.587 289.909 147.393C290.249 146.271 290.9 145.403 291.862 144.789C318.704 151.038 345.506 157.44 372.266 163.994C370.063 170.304 368.11 176.707 366.406 183.2Z" fill="white"/>
<path fill-rule="evenodd" clip-rule="evenodd" d="M506.381 127.21C508.535 126.868 509.942 127.736 510.612 129.815C516.472 144.685 522.006 159.659 527.214 174.736C527.285 175.956 526.849 176.933 525.912 177.666C524.011 178.025 522.272 177.591 520.703 176.364C510.664 170.423 500.788 164.238 491.081 157.809C490.645 156.507 490.645 155.205 491.081 153.903C495.86 144.775 500.957 135.878 506.381 127.21Z" fill="url(#paint4_linear_1_219)"/>
<path fill-rule="evenodd" clip-rule="evenodd" d="M382.682 189.059C378.805 188.964 375.333 187.878 372.266 185.804C374.143 178.733 376.421 171.788 379.102 164.971C382.459 165.795 385.822 166.664 389.193 167.575C386.755 174.671 384.585 181.832 382.682 189.059Z" fill="white"/>
<path fill-rule="evenodd" clip-rule="evenodd" d="M370.963 185.804C369.402 185.961 368.1 185.527 367.057 184.502C369.215 178.263 371.277 171.97 373.242 165.622C374.154 164.52 375.347 164.086 376.823 164.32C374.968 171.522 373.015 178.683 370.963 185.804Z" fill="white"/>
<path fill-rule="evenodd" clip-rule="evenodd" d="M249.219 172.783C250.159 173.327 250.81 174.195 251.172 175.388C252.581 175.983 253.883 176.742 255.079 177.666C252.342 178.688 249.521 179.23 246.615 179.294C243.9 178.642 241.296 177.665 238.802 176.364C242.127 174.713 245.599 173.52 249.219 172.783Z" fill="white"/>
<path fill-rule="evenodd" clip-rule="evenodd" d="M245.312 180.596C245.996 181.066 246.431 181.717 246.614 182.549C244.939 191.389 243.528 200.286 242.382 209.242C239.299 209.946 236.261 210.813 233.268 211.846C234.391 200.762 235.802 189.694 237.5 178.643C240.171 179.027 242.775 179.678 245.312 180.596Z" fill="white"/>
<path fill-rule="evenodd" clip-rule="evenodd" d="M385.286 190.362C384.852 189.927 384.419 189.494 383.984 189.06C385.889 182.259 388.059 175.532 390.495 168.877C391.955 168.243 393.474 168.026 395.052 168.226C393.516 175.455 391.671 182.616 389.518 189.711C389.18 190.372 388.637 190.806 387.891 191.013C387.012 190.787 386.144 190.571 385.286 190.362Z" fill="white"/>
<path fill-rule="evenodd" clip-rule="evenodd" d="M281.77 192.315C271.667 271.311 261.467 350.304 251.171 429.294C251.05 430.648 250.399 431.625 249.218 432.224C246.888 433.334 244.61 434.528 242.382 435.804C242.274 435.153 242.166 434.502 242.057 433.851C252.207 355.791 261.755 277.666 270.703 199.476C271.304 195.356 272.172 191.233 273.307 187.106C276.016 188.203 278.837 188.638 281.77 188.409C281.77 189.711 281.77 191.013 281.77 192.315Z" fill="white"/>
<path d="M548.697 120.049C547.753 114.828 544.935 110.813 540.234 108.005C489.929 78.9991 439.471 50.2447 388.867 21.7422C386.475 22.4498 384.197 23.4264 382.031 24.6719C432.702 53.5872 483.268 82.6671 533.724 111.911C537.103 114.219 539.271 117.367 540.234 121.352V122.002C540.02 156.51 540.235 191.015 540.886 225.518C541.283 225.437 541.497 225.22 541.536 224.867C544.316 223.593 546.706 221.856 548.698 219.658V120.049H548.697ZM550 220.31C549.596 221.435 548.945 222.412 548.047 223.239C544.577 225.192 541.1 227.146 537.63 229.099C536.543 229.533 535.462 229.533 534.375 229.099C533.457 228.205 532.37 227.663 531.12 227.471C481.459 197.643 431.328 168.454 380.729 139.906C377.455 138.046 375.284 135.332 374.219 131.768C374.827 131.072 375.044 130.205 374.87 129.164C375.739 132.726 377.692 135.656 380.729 137.953C432.613 167.283 484.154 197.122 535.352 227.471C536.367 227.126 537.344 226.692 538.281 226.169C538.932 191.232 539.147 156.294 538.933 121.352H538.932C537.636 118.627 535.898 116.131 533.724 113.864C482.526 84.044 431.095 54.6386 379.427 25.6484C377.077 26.0486 375.558 27.3507 374.869 29.5547H373.567C374.234 27.0404 375.753 25.1955 378.125 24.0205C381.018 23.1161 383.839 22.0313 386.588 20.7656C388.107 20.3316 389.627 20.3316 391.146 20.7656C418.29 36.2896 445.416 51.8061 472.525 67.3145C496.484 80.9225 520.358 94.7038 544.141 108.656C547.565 111.701 549.518 115.498 550 120.049V220.31Z" fill="url(#paint5_linear_1_219)"/>
<path fill-rule="evenodd" clip-rule="evenodd" d="M507.032 129.164C507.683 129.108 508.223 129.325 508.659 129.815C513.653 142.619 518.64 155.422 523.633 168.226C524.785 170.709 525.332 173.313 525.261 176.039C514.375 170.484 503.737 164.408 493.36 157.809C492.617 156.559 492.507 155.257 493.034 153.903C497.214 145.322 501.882 137.076 507.032 129.164Z" fill="white"/>
<path d="M507.683 156.508C509.805 156.655 510.456 157.631 509.636 159.437C506.381 159.949 505.73 158.973 507.683 156.508ZM509.636 154.554H507.031V141.533H509.636V154.554Z" fill="url(#paint6_linear_1_219)"/>
<path fill-rule="evenodd" clip-rule="evenodd" d="M243.359 215.752C244.541 204.853 246.06 194.002 247.916 183.2C248.524 182.505 248.742 181.637 248.567 180.596C250.162 180.233 251.681 180.233 253.125 180.596C250.269 193.137 247.665 205.723 245.312 218.356C243.978 217.98 243.327 217.113 243.359 215.752Z" fill="white"/>
<path fill-rule="evenodd" clip-rule="evenodd" d="M287.63 185.153C317.897 224.413 348.171 263.693 378.45 302.992C378.835 303.632 378.617 304.066 377.799 304.294C374.134 305.205 370.771 306.724 367.708 308.851C365.816 308.455 364.296 307.588 363.151 306.247C365.308 304.98 365.634 303.244 364.127 301.039C347.851 279.989 331.575 258.938 315.299 237.888C307.432 228.187 299.511 218.638 291.536 209.242C290.876 208.478 290.008 208.044 288.932 207.94C292.835 206.85 296.741 205.548 300.651 204.034C299.626 203.297 298.541 203.188 297.395 203.708C292.385 205.053 287.393 206.463 282.421 207.94C281.905 203.616 281.905 199.276 282.421 194.919C282.855 192.627 283.289 190.24 283.723 187.757C284.872 186.6 286.174 185.732 287.63 185.153Z" fill="white"/>
<path fill-rule="evenodd" clip-rule="evenodd" d="M390.495 214.45C390.616 217.02 391.049 219.516 391.797 221.937C385.924 219.648 380.064 217.153 374.219 214.45C368.857 211.389 363.323 208.568 357.617 205.986C356.676 201.871 356.568 197.748 357.291 193.617C360.763 195.136 364.236 196.655 367.708 198.174C367.577 204.235 370.398 207.924 376.172 209.242C377.69 208.804 379.209 208.695 380.729 208.916C383.912 210.909 387.167 212.754 390.495 214.45Z" fill="white"/>
<path fill-rule="evenodd" clip-rule="evenodd" d="M251.172 170.83C250.647 171.63 249.996 172.281 249.219 172.783C245.599 173.52 242.127 174.713 238.802 176.364C241.296 177.665 243.9 178.642 246.615 179.294C247.37 180.403 246.936 180.836 245.312 180.596C242.775 179.678 240.171 179.027 237.5 178.643C235.802 189.694 234.391 200.762 233.268 211.846C236.261 210.813 239.299 209.946 242.383 209.242C243.529 200.286 244.939 191.389 246.615 182.549C247.57 180.753 248.003 180.97 247.917 183.2C246.06 194.002 244.541 204.853 243.359 215.752C242.889 216.024 242.564 216.458 242.383 217.054C242.059 215.55 241.951 214.031 242.057 212.497C241.868 211.749 241.326 211.315 240.43 211.195C238.137 211.904 235.858 212.664 233.594 213.474C236.134 214.853 238.738 216.046 241.406 217.054C241.189 217.489 240.972 217.922 240.755 218.356C237.756 217.671 235.044 216.369 232.617 214.45C230.534 224.799 228.907 235.216 227.734 245.7C226.626 246.455 226.192 246.021 226.432 244.398C229.401 221.556 232.764 198.77 236.523 176.039C241.094 173.466 245.977 171.729 251.172 170.83Z" fill="url(#paint7_linear_1_219)"/>
<path fill-rule="evenodd" clip-rule="evenodd" d="M242.057 212.497C241.427 213.869 241.21 215.388 241.406 217.054C238.738 216.046 236.134 214.853 233.594 213.473C235.858 212.664 238.137 211.904 240.43 211.195C241.326 211.315 241.868 211.749 242.057 212.497Z" fill="white"/>
<path fill-rule="evenodd" clip-rule="evenodd" d="M240.755 218.356C239.524 227.696 238.222 237.028 236.849 246.351C233.681 246.384 230.643 247.035 227.734 248.304C227.47 247.616 227.47 246.748 227.734 245.7C228.907 235.216 230.534 224.799 232.617 214.45C235.043 216.369 237.756 217.671 240.755 218.356Z" fill="white"/>
<path fill-rule="evenodd" clip-rule="evenodd" d="M255.73 163.669C260.505 164.755 265.28 165.84 270.052 166.924C304.043 174.95 338.115 183.196 372.266 191.664C373.785 191.229 375.304 190.796 376.823 190.362C378.108 190.903 379.41 191.011 380.73 190.687C375.648 189.364 370.657 187.954 365.756 186.455C365.572 185.623 365.138 184.972 364.454 184.502C365.286 184.319 365.937 183.884 366.407 183.2C366.295 183.846 366.512 184.28 367.058 184.502C368.101 185.527 369.403 185.961 370.964 185.804C371.398 185.804 371.832 185.804 372.266 185.804C375.333 187.879 378.805 188.964 382.683 189.06C383.117 189.06 383.551 189.06 383.985 189.06C384.419 189.494 384.853 189.927 385.287 190.362C383.856 190.302 383.639 190.736 384.636 191.664C383.53 191.56 382.444 191.668 381.381 191.989C383.883 192.866 385.62 194.494 386.589 196.872C386.204 198.582 385.987 200.319 385.938 202.08C383.719 201.643 381.983 202.294 380.73 204.034C380.81 204.429 381.027 204.646 381.381 204.685C380.581 205.668 380.581 206.644 381.381 207.614C384.202 209.242 387.023 210.869 389.844 212.497C391.252 210.961 392.554 209.442 393.75 207.94C394.974 207.763 395.842 208.198 396.355 209.242C394.812 210.017 393.51 211.102 392.448 212.497C391.967 212.412 391.533 212.521 391.146 212.823C391.72 213.284 392.153 213.826 392.448 214.45C392.014 214.45 391.797 214.667 391.797 215.101C391.327 214.829 391.002 214.396 390.821 213.799C390.561 213.948 390.453 214.165 390.495 214.45C387.168 212.754 383.913 210.909 380.73 208.916C379.21 208.696 377.691 208.804 376.172 209.242C370.399 207.924 367.578 204.235 367.709 198.174C364.237 196.655 360.764 195.136 357.292 193.617C356.569 197.748 356.677 201.871 357.618 205.987C363.323 208.568 368.857 211.389 374.219 214.45C373.379 214.296 372.728 214.513 372.266 215.101C368.659 213.189 364.969 211.453 361.198 209.893C360.573 211.042 360.355 212.344 360.547 213.799C360.076 212.681 359.642 211.487 359.245 210.218C357.302 209.391 355.349 208.631 353.386 207.94C352.916 207.668 352.59 207.234 352.409 206.638C352.149 206.786 352.041 207.004 352.084 207.289C351.45 206.55 350.69 205.899 349.805 205.336C349.262 199.255 348.719 193.179 348.177 187.106C327.449 182.42 306.832 177.537 286.329 172.458C287.511 173.63 288.271 175.04 288.607 176.69C288.694 179.368 288.803 181.972 288.933 184.502C288.498 184.719 288.065 184.937 287.631 185.153C286.175 185.732 284.873 186.6 283.724 187.757C283.29 190.24 282.856 192.627 282.422 194.919C282.597 193.878 282.379 193.01 281.771 192.315C281.771 191.013 281.771 189.711 281.771 188.409C278.838 188.638 276.017 188.203 273.308 187.106C272.173 191.233 271.304 195.356 270.704 199.476C270.888 198.229 270.672 197.145 270.052 196.221C270.174 192.741 270.391 189.269 270.704 185.804C269.81 185.907 268.941 185.798 268.099 185.479C268.316 185.262 268.534 185.045 268.75 184.828C268.094 183.414 267.008 182.655 265.495 182.549C262.193 207.344 259.155 232.084 256.381 256.768C256.573 255.313 256.355 254.011 255.73 252.862C255.815 252.381 255.706 251.946 255.404 251.56C255.267 252.574 254.942 253.442 254.427 254.164C254.47 253.879 254.362 253.661 254.102 253.513C253.706 254.532 253.163 255.401 252.474 256.117C252.56 255.636 252.451 255.201 252.149 254.815C249.935 255.492 247.657 255.925 245.313 256.117C243.553 255.069 241.6 254.418 239.454 254.164C241.19 254.164 242.926 254.164 244.662 254.164C244.775 252.627 244.992 251.108 245.313 249.606C246.181 248.955 246.181 248.304 245.313 247.653C247.963 238.953 250.133 230.056 251.823 220.961C249.846 220.153 247.893 220.153 245.964 220.961C246.006 220.675 245.898 220.458 245.638 220.31C245.487 221.115 245.162 221.766 244.662 222.263C244.662 221.395 244.662 220.526 244.662 219.659C244.011 219.659 243.36 219.659 242.709 219.659C240.316 230.972 238.797 242.257 238.151 253.513C237.205 254.375 237.423 254.918 238.802 255.14C236.939 261.538 235.419 268.049 234.245 274.672C234.263 275.368 234.48 275.91 234.896 276.299C234.323 278.873 233.888 281.478 233.594 284.112C233.377 284.546 233.16 284.979 232.943 285.414C233.055 286.06 232.838 286.493 232.292 286.716C232.351 285.285 231.918 285.068 230.99 286.065C230.99 285.631 230.773 285.414 230.339 285.414C230.339 284.979 230.339 284.546 230.339 284.112C232.649 274.589 234.385 264.823 235.547 254.815C232.549 254.129 229.836 252.827 227.409 250.909C226.822 252.489 226.279 254.007 225.782 255.466C225.967 254.219 225.75 253.134 225.131 252.211C225.272 249.473 225.705 246.869 226.433 244.398C226.192 246.021 226.626 246.455 227.735 245.7C227.47 246.748 227.47 247.616 227.735 248.304C230.644 247.035 233.681 246.384 236.849 246.351C238.222 237.028 239.524 227.696 240.756 218.356C240.972 217.922 241.19 217.489 241.407 217.054C241.21 215.388 241.427 213.869 242.058 212.497C241.952 214.032 242.06 215.55 242.383 217.054C242.564 216.458 242.89 216.024 243.36 215.752C243.327 217.113 243.978 217.981 245.313 218.356C247.666 205.724 250.27 193.137 253.125 180.596C251.681 180.233 250.163 180.233 248.568 180.596C248.743 181.637 248.525 182.505 247.917 183.2C248.004 180.97 247.57 180.754 246.615 182.549C246.431 181.717 245.997 181.066 245.313 180.596C246.936 180.836 247.37 180.403 246.615 179.294C249.521 179.23 252.342 178.688 255.079 177.666C253.883 176.743 252.581 175.983 251.172 175.388C250.81 174.195 250.159 173.327 249.219 172.784C249.997 172.281 250.648 171.63 251.172 170.83C251.771 168.872 252.64 167.028 253.776 165.297C253.18 165.116 252.746 164.79 252.474 164.32C253.721 164.505 254.806 164.288 255.73 163.669Z" fill="url(#paint8_linear_1_219)"/>
<path fill-rule="evenodd" clip-rule="evenodd" d="M244.661 222.263C242.244 232.614 240.073 243.031 238.151 253.513C238.796 242.257 240.315 230.972 242.708 219.658C243.359 219.658 244.01 219.658 244.661 219.658C244.661 220.526 244.661 221.395 244.661 222.263Z" fill="white"/>
<path fill-rule="evenodd" clip-rule="evenodd" d="M257.682 218.356C258.479 218.781 258.914 219.541 258.984 220.635C257.683 230.831 255.838 240.922 253.45 250.909C251.889 250.026 250.261 249.266 248.567 248.63C248.189 248.049 247.972 247.397 247.916 246.677C249.711 237.871 251.556 229.082 253.45 220.31C254.944 219.709 256.354 219.058 257.682 218.356Z" fill="white"/>
<path fill-rule="evenodd" clip-rule="evenodd" d="M247.917 214.45C249.753 214.476 251.49 214.909 253.125 215.752C252.639 216.557 252.423 217.425 252.474 218.356C250.738 218.356 249.002 218.356 247.266 218.356C247.277 217.012 247.493 215.71 247.917 214.45Z" fill="white"/>
<path fill-rule="evenodd" clip-rule="evenodd" d="M258.985 197.523C259.908 199.164 260.559 200.9 260.938 202.731C260.236 207.26 259.802 211.817 259.636 216.403C258.006 217.145 256.27 217.579 254.427 217.705C256.357 211.054 257.876 204.326 258.985 197.523Z" fill="white"/>
<path d="M378.775 194.268C383.789 194.178 385.851 196.566 384.961 201.429C384.223 200.316 383.247 199.99 382.031 200.453C380.432 202.021 379.239 203.865 378.45 205.987C376.575 206.982 375.055 206.548 373.893 204.684C373.299 202.111 373.734 199.724 375.195 197.523C376.622 196.655 377.815 195.57 378.775 194.268ZM161.654 138.929C193.715 146.272 225.719 153.836 257.666 161.621L271.354 164.971C302.794 172.214 334.261 179.376 365.755 186.456C370.656 187.954 375.647 189.364 380.729 190.687C379.409 191.011 378.107 190.903 376.822 190.362C375.304 190.796 373.784 191.23 372.266 191.664C338.115 183.196 304.043 174.95 270.052 166.925V166.924C265.279 165.839 260.505 164.755 255.729 163.669C223.815 156.157 191.914 148.562 160.026 140.883C160.264 139.97 160.807 139.319 161.654 138.929ZM171.745 110.284C242.477 127.057 313.224 143.875 383.984 160.739C387.363 162.319 390.619 164.055 393.75 165.947C392.448 166.381 391.146 166.381 389.844 165.947C317.287 149.215 244.804 132.071 172.396 114.515C171.734 114.177 171.301 113.634 171.094 112.887C171.319 112.009 171.536 111.141 171.745 110.284ZM85.1562 139.581C91.4068 140.419 97.7003 140.962 104.036 141.208C107.188 143.109 110.443 144.846 113.802 146.417C108.377 146.851 102.951 146.851 97.5264 146.417C93.1065 144.429 88.983 142.15 85.1562 139.581ZM158.725 62.1062C164.159 63.0867 169.15 65.1483 173.698 68.2908C170.349 69.2602 167.202 70.6716 164.258 72.5232C160.191 70.436 156.177 68.265 152.214 66.0125C154.425 64.6934 156.596 63.3914 158.725 62.1062Z" fill="white"/>
<path fill-rule="evenodd" clip-rule="evenodd" d="M350.131 187.757C352.478 188.476 354.865 189.127 357.292 189.71C355.471 190.551 354.603 191.962 354.688 193.942C355.129 197.946 355.454 201.961 355.664 205.986C355.99 206.312 356.316 206.638 356.641 206.963C354.872 206.622 353.135 206.08 351.433 205.335C350.73 199.498 350.296 193.638 350.131 187.757Z" fill="white"/>
<path fill-rule="evenodd" clip-rule="evenodd" d="M357.943 190.362C362.6 190.821 367.158 191.797 371.615 193.291C370.404 194.306 369.428 195.499 368.685 196.872C364.717 195.16 360.702 193.533 356.641 191.989C357.214 191.528 357.648 190.985 357.943 190.362Z" fill="white"/>
<path fill-rule="evenodd" clip-rule="evenodd" d="M260.287 179.945C260.114 182.23 260.332 184.617 260.938 187.107C262.031 186.967 262.682 187.401 262.891 188.409C263.162 190.271 262.511 191.681 260.938 192.64C261.372 193.291 261.806 193.942 262.24 194.593C261.782 197.312 261.347 200.024 260.938 202.732C260.559 200.9 259.908 199.164 258.985 197.523C257.997 197.53 257.237 197.964 256.706 198.825C255.513 203.817 254.319 208.808 253.125 213.799C251.823 213.365 250.521 212.931 249.219 212.497C249.002 211.737 248.785 210.978 248.568 210.218C249.717 203.062 251.236 196.009 253.125 189.06C254.911 188.592 256.647 188.918 258.334 190.036C259.419 190.47 260.504 190.47 261.589 190.036C259.382 188.663 256.995 187.577 254.427 186.781C253.191 181.92 255.144 179.641 260.287 179.945Z" fill="white"/>
<path fill-rule="evenodd" clip-rule="evenodd" d="M260.286 179.945C261.693 180.157 262.887 180.808 263.867 181.898C264.025 184.198 263.7 186.369 262.89 188.408C262.681 187.401 262.03 186.966 260.937 187.106C260.331 184.617 260.114 182.23 260.286 179.945Z" fill="white"/>
<path fill-rule="evenodd" clip-rule="evenodd" d="M274.609 170.179C275.716 170.075 276.801 170.183 277.865 170.505C272.471 174.019 270.409 178.902 271.68 185.153C268.256 181.907 267.822 178.218 270.378 174.085C271.721 172.631 273.131 171.329 274.609 170.179Z" fill="white"/>
<path fill-rule="evenodd" clip-rule="evenodd" d="M281.12 171.481C286.716 173.2 288.561 176.89 286.654 182.549C285.894 184.177 284.701 185.37 283.073 186.13C280.686 186.564 278.299 186.564 275.912 186.13C273.072 184.681 272.096 182.402 272.982 179.294C274.378 175.182 277.091 172.578 281.12 171.481Z" fill="white"/>
<path fill-rule="evenodd" clip-rule="evenodd" d="M279.167 176.69C280.252 176.69 281.337 176.69 282.422 176.69C282.705 178.716 282.054 179.15 280.469 177.992C278.633 178.824 278.199 180.127 279.167 181.898C280.022 181.369 280.782 180.718 281.445 179.945C281.892 183.19 280.59 184.274 277.539 183.2C276.798 180.647 277.341 178.477 279.167 176.69Z" fill="url(#paint9_linear_1_219)"/>
<path fill-rule="evenodd" clip-rule="evenodd" d="M255.729 165.622C261.474 166.624 267.116 168.035 272.656 169.854C268.654 172.538 266.592 176.336 266.472 181.247C261.673 179.119 257.007 176.732 252.474 174.086C251.769 173.522 251.661 172.871 252.149 172.132C253.515 170.049 254.709 167.879 255.729 165.622Z" fill="white"/>
<path fill-rule="evenodd" clip-rule="evenodd" d="M232.291 248.304C233.593 248.304 234.895 248.304 236.198 248.304C236.401 250.093 236.184 251.829 235.546 253.513C233.159 252.319 230.772 251.125 228.385 249.932C229.832 249.563 231.134 249.02 232.291 248.304Z" fill="white"/>
<path fill-rule="evenodd" clip-rule="evenodd" d="M230.339 284.112C227.507 283.936 224.794 284.37 222.201 285.414C223.239 275.434 224.432 265.451 225.782 255.466C226.279 254.007 226.822 252.489 227.409 250.908C229.836 252.827 232.549 254.129 235.547 254.815C234.385 264.823 232.649 274.589 230.339 284.112Z" fill="white"/>
<path fill-rule="evenodd" clip-rule="evenodd" d="M270.052 196.221C260.375 275.679 250.393 355.106 240.104 434.502C238.753 433.338 237.342 432.254 235.872 431.247C235.764 430.379 235.656 429.511 235.547 428.643C242.066 371.289 249.011 313.998 256.38 256.768C259.154 232.084 262.193 207.344 265.495 182.549C267.008 182.655 268.093 183.414 268.75 184.828C268.533 185.045 268.316 185.262 268.099 185.479C268.941 185.798 269.809 185.906 270.703 185.804C270.391 189.269 270.174 192.741 270.052 196.221Z" fill="white"/>
<path fill-rule="evenodd" clip-rule="evenodd" d="M406.77 349.216C403.215 359.447 399.526 369.646 395.703 379.815C388.277 382.989 380.681 385.593 372.916 387.627C374.768 379.352 376.83 371.105 379.101 362.888C387.028 346.595 395.599 330.753 404.817 315.362C405.664 313.314 406.966 312.989 408.724 314.385C410.355 315.372 410.898 316.782 410.351 318.617C405.293 324.5 401.495 331.119 398.958 338.474C399.067 339.016 399.175 339.559 399.283 340.101C402.181 342.369 404.894 344.865 407.421 347.588C406.932 348.025 406.714 348.567 406.77 349.216Z" fill="white"/>
<path fill-rule="evenodd" clip-rule="evenodd" d="M223.177 332.94C225.11 333.14 226.413 334.117 227.084 335.869C221.748 361.354 216.539 386.854 211.459 412.367C210.353 412.471 209.267 412.363 208.204 412.041C207.84 411.569 207.623 411.027 207.552 410.414C213.389 384.727 218.597 358.902 223.177 332.94Z" fill="white"/>
<path fill-rule="evenodd" clip-rule="evenodd" d="M425.651 273.044C426.511 273.983 427.595 274.416 428.907 274.346C428.151 275.455 428.586 275.888 430.209 275.648C429.686 276.249 429.577 276.9 429.883 277.601C432.983 280.612 435.913 283.65 438.672 286.716C438.518 287.556 438.735 288.207 439.323 288.669C439.139 289.183 438.814 289.617 438.347 289.971C437.913 294.528 437.913 299.086 438.347 303.643C441.919 305.586 445.28 307.756 448.438 310.153C447.787 310.37 447.351 310.804 447.136 311.455C446.849 311.413 446.635 311.521 446.485 311.781C447.52 313.791 448.607 315.635 449.74 317.315C449.584 318.155 449.805 318.806 450.391 319.268C449.955 324.457 449.525 329.665 449.089 334.893C449.571 335.337 450.007 335.771 450.391 336.195C449.056 335.974 448.405 336.19 448.438 336.846C448.549 337.492 448.334 337.925 447.787 338.148C447.253 338.576 446.823 339.444 446.485 340.752C441.288 346.911 434.778 351.143 426.954 353.448C422.793 353.941 418.67 353.724 414.584 352.797C412.483 351.422 410.313 350.228 408.073 349.216C407.639 349.216 407.205 349.216 406.771 349.216C406.715 348.567 406.933 348.025 407.422 347.588C404.895 344.865 402.182 342.369 399.284 340.101C399.176 339.559 399.067 339.016 398.959 338.474C401.496 331.119 405.294 324.5 410.352 318.617C410.899 316.782 410.356 315.372 408.724 314.385C406.967 312.989 405.664 313.314 404.818 315.362C404.595 314.816 404.162 314.599 403.516 314.711C401.432 312.473 398.828 311.062 395.704 310.479C378.883 309.619 368.14 317.323 363.477 333.591C362.343 341.553 363.862 348.931 368.034 355.726C370.054 358.079 372.333 360.032 374.87 361.586C374.03 361.431 373.379 361.648 372.917 362.237C365.644 359.196 360.11 354.205 356.316 347.263C355.338 343.353 354.361 339.446 353.386 335.544C351.233 334.151 349.171 332.631 347.201 330.987C346.984 330.119 346.767 329.25 346.55 328.382C345.98 330.271 345.22 332.007 344.271 333.591C343.472 334.116 342.821 334.767 342.318 335.544C336.74 333.95 331.532 331.454 326.693 328.057C324.787 326.085 323.485 323.806 322.787 321.221C323.375 320.759 323.592 320.108 323.438 319.268C325.073 324.7 328.545 328.28 333.855 330.01C332.786 329.275 332.135 328.299 331.901 327.08C331.901 326.213 331.901 325.344 331.901 324.476C333.715 328.889 336.97 331.711 341.667 332.94C342.28 332.869 342.823 332.653 343.295 332.289C344.277 328.569 345.687 325.096 347.526 321.872C347.728 322.678 348.054 322.678 348.503 321.872C349.292 319.25 350.703 317.079 352.735 315.362C355.23 312.366 358.051 309.653 361.198 307.224C360.836 306.974 360.62 306.649 360.547 306.247C361.415 306.247 362.284 306.247 363.151 306.247C364.297 307.588 365.817 308.455 367.709 308.851C366.976 309.601 366.976 310.252 367.709 310.804C362.442 315.036 358.97 320.461 357.292 327.08C354.774 335.804 355.968 344.05 360.873 351.82C362.731 353.186 364.467 354.705 366.081 356.377C361.075 347.796 360.099 338.681 363.151 329.034C369.14 314.431 379.99 307.595 395.704 308.526C394.155 308.06 392.853 307.3 391.797 306.247C391.4 305.667 391.183 305.016 391.146 304.294C392.589 303.836 393.782 302.968 394.727 301.69C397.732 297.165 400.987 292.825 404.493 288.669C405.349 286.593 405.675 284.423 405.469 282.159C406.077 281.463 406.295 280.595 406.12 279.554C408.68 294.474 411.393 309.448 414.258 324.476C416.039 323.01 417.884 321.708 419.792 320.57C420.306 320.386 420.74 320.06 421.094 319.593C420.504 318.487 420.288 317.293 420.443 316.013C420.957 316.735 421.283 317.603 421.42 318.617C426.575 308.597 431.241 298.615 435.417 288.669C435.702 288.711 435.92 288.603 436.068 288.343C435.495 287.882 435.061 287.34 434.766 286.716C435.051 286.758 435.269 286.65 435.417 286.39C433.247 283.786 431.077 281.182 428.907 278.578C428.289 278.176 427.746 278.284 427.279 278.903C426.567 279.931 426.024 281.016 425.651 282.159C424.758 281.5 423.89 280.849 423.047 280.205C426.932 279.012 427.583 277.059 425 274.346C425.546 274.123 425.763 273.69 425.651 273.044Z" fill="url(#paint10_linear_1_219)"/>
<path fill-rule="evenodd" clip-rule="evenodd" d="M372.917 362.236C374.087 363.037 375.389 363.471 376.823 363.539C375.282 371.248 373.329 378.843 370.964 386.325C360.418 379.361 349.784 372.525 339.063 365.817C338.685 365.236 338.467 364.585 338.412 363.864C339.902 353.673 341.855 343.582 344.271 333.591C345.22 332.007 345.98 330.271 346.55 328.382C346.767 329.25 346.984 330.119 347.201 330.986C349.171 332.631 351.233 334.151 353.386 335.544C354.361 339.446 355.338 343.352 356.316 347.263C360.11 354.205 365.644 359.196 372.917 362.236Z" fill="white"/>
<path fill-rule="evenodd" clip-rule="evenodd" d="M230.99 333.591C232.99 333.384 234.943 333.601 236.85 334.242C235.146 343.155 233.302 352.052 231.316 360.935C228.575 361.991 225.971 363.293 223.503 364.841C223.069 363.539 223.069 362.237 223.503 360.935C225.488 352.528 227.225 344.064 228.712 335.544C229.353 334.689 230.113 334.037 230.99 333.591Z" fill="white"/>
<path fill-rule="evenodd" clip-rule="evenodd" d="M244.661 333.591C243.016 332.22 241.497 330.701 240.104 329.033C239.961 328.268 240.178 327.617 240.755 327.08C242.142 327.71 243.444 328.47 244.661 329.359C245.515 330.839 245.515 332.25 244.661 333.591Z" fill="white"/>
<path fill-rule="evenodd" clip-rule="evenodd" d="M225.13 323.825C226.796 323.629 228.315 323.846 229.687 324.476C228.839 327.004 228.405 329.608 228.385 332.289C227.093 332.365 226.009 331.931 225.13 330.987C224.505 328.617 224.505 326.231 225.13 323.825Z" fill="white"/>
<path fill-rule="evenodd" clip-rule="evenodd" d="M231.641 325.127C233.405 326.719 235.25 328.238 237.174 329.684C237.489 330.302 237.597 330.953 237.5 331.638C234.874 331.641 232.27 331.858 229.688 332.289C229.989 330.347 230.206 328.394 230.339 326.429C230.773 325.995 231.206 325.561 231.641 325.127Z" fill="white"/>
<path fill-rule="evenodd" clip-rule="evenodd" d="M233.594 324.476C233.633 324.123 233.85 323.906 234.245 323.825C236.792 323.994 238.094 325.296 238.151 327.731C236.747 326.487 235.227 325.401 233.594 324.476Z" fill="white"/>
<path fill-rule="evenodd" clip-rule="evenodd" d="M219.922 323.825C221.007 323.825 222.092 323.825 223.177 323.825C223.177 324.693 223.177 325.562 223.177 326.429C223.253 327.721 222.819 328.806 221.875 329.685C220.68 328.761 219.378 328.001 217.969 327.406C216.597 326.583 215.946 325.39 216.016 323.825C217.318 323.825 218.62 323.825 219.922 323.825Z" fill="white"/>
<path fill-rule="evenodd" clip-rule="evenodd" d="M329.297 312.106C329.189 315.585 329.298 319.057 329.622 322.523C330.207 324.195 330.967 325.714 331.901 327.08C332.135 328.298 332.786 329.275 333.854 330.01C328.544 328.28 325.072 324.699 323.438 319.268C323.438 318.833 323.438 318.4 323.438 317.966C323.857 314.343 324.4 310.654 325.065 306.898C327.465 310.85 328.549 315.191 328.32 319.919C328.435 317.192 328.76 314.588 329.297 312.106Z" fill="white"/>
<path d="M288.933 184.502C311.471 213.88 334.149 243.177 356.967 272.393C358.412 274.501 360.256 274.935 362.5 273.695V274.997C361.916 275.426 361.265 275.859 360.547 276.299C361.042 277.51 361.693 278.595 362.5 279.554C362.968 280.737 363.62 281.172 364.453 280.857C364.057 277.26 363.406 273.787 362.5 270.44C358.817 249.427 355.346 228.376 352.084 207.288C352.042 207.003 352.15 206.786 352.41 206.638C352.591 207.234 352.916 207.668 353.386 207.94C357.61 231.75 361.624 255.621 365.43 279.554C367.418 276.446 369.045 273.191 370.313 269.788C366.916 251.143 363.661 232.48 360.547 213.799C360.355 212.344 360.573 211.042 361.199 209.893C364.775 229.41 368.356 248.942 371.941 268.487C375.124 263.315 378.704 258.432 382.683 253.838C388.212 251.589 393.854 249.744 399.61 248.304C398.672 242.895 397.804 237.47 397.006 232.029C396.075 232.08 395.206 231.863 394.402 231.377C393.484 229.114 392.616 226.836 391.797 224.541C385.352 221.21 378.841 218.063 372.266 215.101C372.728 214.512 373.379 214.296 374.219 214.45C380.065 217.153 385.924 219.648 391.797 221.937C391.05 219.516 390.617 217.021 390.495 214.45C390.453 214.165 390.561 213.948 390.821 213.799C391.002 214.395 391.327 214.829 391.797 215.101C392.673 220.138 393.759 225.13 395.053 230.075C396.419 230.551 397.722 230.551 398.959 230.075C397.104 225.45 395.802 220.676 395.053 215.752C394.168 215.31 393.299 214.876 392.449 214.45C392.154 213.827 391.72 213.283 391.147 212.823C391.533 212.521 391.968 212.412 392.449 212.497C393.37 213.011 394.346 213.445 395.378 213.799C397.595 212.528 399.874 211.333 402.214 210.218C400.358 209.379 398.405 209.053 396.355 209.241C395.842 208.197 394.974 207.763 393.75 207.94C390.361 206.298 386.997 204.563 383.66 202.732C382.591 203.043 381.831 203.694 381.381 204.685C381.028 204.646 380.811 204.429 380.73 204.033C381.983 202.294 383.719 201.643 385.938 202.08C385.987 200.319 386.204 198.583 386.589 196.872C387.582 198.988 388.233 201.267 388.542 203.708C391.363 205.119 394.185 206.529 397.006 207.94C400.15 206.818 402.863 207.469 405.144 209.893C406.587 215.588 407.781 221.339 408.725 227.146C408.406 228.775 407.538 230.077 406.12 231.052C407.486 237.177 408.679 243.362 409.702 249.607C410.293 251.718 411.595 253.237 413.608 254.163C418.027 252.547 422.585 251.462 427.28 250.908C428.992 250.885 430.62 251.211 432.162 251.885C442.768 259.032 453.836 265.325 465.366 270.765C476.134 279.476 486.986 288.049 497.917 296.482C500.756 298.501 503.256 300.888 505.405 303.643C505.939 313.24 505.827 322.788 505.078 332.288C504.564 333.131 503.913 333.891 503.125 334.568C499.297 336.59 495.391 338.434 491.407 340.101C485.586 347.336 479.401 354.281 472.852 360.935C472.637 367.011 472.416 373.087 472.202 379.163C465.463 382.388 458.627 385.426 451.694 388.279C451.049 388.167 450.612 388.384 450.391 388.929C438.834 393.359 427.333 397.917 415.886 402.601C414.913 402.919 414.044 403.353 413.282 403.904C401.725 408.334 390.223 412.891 378.777 417.575C377.701 417.68 376.832 418.113 376.172 418.877C352.636 427.953 329.198 437.284 305.86 446.872C305.214 446.76 304.781 446.977 304.558 447.523C287.12 454.312 269.651 461.04 252.149 467.705C251.09 467.624 250.113 467.298 249.219 466.729C237.592 459.073 225.873 451.586 214.063 444.268C213.84 443.722 213.407 443.505 212.761 443.616C207.977 440.296 203.094 437.04 198.113 433.851C197.8 426.895 198.017 419.951 198.764 413.018L206.577 409.112C211.507 383.59 216.607 358.09 221.875 332.615C219.839 330.553 217.56 328.708 215.039 327.08C214.931 325.887 214.823 324.693 214.714 323.499C217.79 299.641 221.263 275.877 225.131 252.21C225.75 253.134 225.967 254.219 225.782 255.466C224.432 265.451 223.239 275.434 222.202 285.413C224.794 284.37 227.507 283.936 230.339 284.112V285.413C227.696 285.745 225.092 286.289 222.527 287.041C224.899 288.77 227.503 289.964 230.339 290.622C230.305 289.058 230.523 287.539 230.991 286.065C231.918 285.068 232.352 285.285 232.292 286.716V291.273H236.85C237.017 289.686 237.451 288.167 238.152 286.716C236.44 286.143 234.703 285.708 232.944 285.413C233.16 284.979 233.377 284.546 233.594 284.112C235.36 284.266 236.987 284.266 238.477 284.112C240.031 274.712 241.876 265.381 244.011 256.116H238.803C237.604 262.866 236.302 269.594 234.897 276.299C234.481 275.91 234.264 275.368 234.245 274.671C235.419 268.048 236.939 261.538 238.803 255.14C237.424 254.917 237.206 254.376 238.152 253.513C240.074 243.031 242.245 232.614 244.662 222.263C245.162 221.766 245.488 221.115 245.639 220.31C245.898 220.458 246.006 220.675 245.964 220.96C244.529 229.871 243.01 238.769 241.407 247.654H245.313C246.181 248.305 246.181 248.956 245.313 249.607C241.508 248.85 239.555 250.369 239.453 254.163C241.6 254.417 243.553 255.068 245.313 256.116C243.457 265.849 241.721 275.615 240.105 285.413C242.124 285.538 244.077 285.973 245.964 286.716C248.448 276.566 250.619 266.365 252.475 256.116C253.164 255.4 253.706 254.532 254.102 253.513C254.362 253.661 254.47 253.878 254.428 254.163C252.258 264.794 250.088 275.428 247.917 286.065C248.134 286.933 248.352 287.801 248.569 288.669C246.168 296.652 244.215 304.79 242.709 313.083C242.926 313.843 243.143 314.602 243.36 315.362C244.605 315.93 245.8 316.581 246.941 317.315C249.925 295.829 252.854 274.345 255.73 252.862C256.355 254.011 256.573 255.313 256.381 256.768C249.012 313.998 242.067 371.289 235.547 428.643C235.656 429.511 235.765 430.379 235.873 431.247C237.343 432.254 238.753 433.338 240.105 434.502C250.393 355.106 260.376 275.679 270.053 196.221C270.672 197.145 270.888 198.229 270.703 199.476C261.756 277.665 252.208 355.79 242.058 433.851C242.167 434.502 242.274 435.153 242.383 435.804C244.61 434.527 246.889 433.335 249.219 432.224C250.4 431.625 251.051 430.648 251.172 429.294C261.468 350.305 271.668 271.311 281.772 192.315C282.38 193.01 282.597 193.878 282.422 194.919C281.906 199.276 281.906 203.616 282.422 207.94C287.394 206.463 292.386 205.053 297.397 203.708C298.542 203.189 299.627 203.297 300.652 204.033C296.742 205.548 292.836 206.85 288.933 207.94C286.839 208.182 286.514 209.051 287.956 210.544C312.37 241.903 336.785 273.261 361.199 304.619C362.329 305.018 362.98 304.584 363.152 303.318C339.726 271.993 315.746 241.068 291.211 210.544C290.761 209.934 290.87 209.5 291.537 209.241C299.512 218.638 307.433 228.187 315.3 237.888L364.128 301.038C365.635 303.243 365.309 304.98 363.152 306.247H360.547C359.526 304.665 358.55 304.665 357.618 306.247C355.477 309.01 353.849 312.048 352.735 315.362C350.703 317.079 349.292 319.25 348.503 321.872C348.054 322.678 347.729 322.678 347.527 321.872C350.362 315.459 353.617 309.274 357.292 303.318C354.52 299.168 351.373 295.37 347.852 291.924C333.643 298.425 328.326 309.276 331.902 324.476V327.08C330.967 325.714 330.208 324.195 329.623 322.523C329.299 319.057 329.189 315.586 329.297 312.107C331.211 301.4 337.288 294.129 347.527 290.296C346.394 288.971 345.2 287.778 343.946 286.716C329.073 291.954 322.237 302.37 323.438 317.966V319.268C323.592 320.108 323.376 320.759 322.787 321.221C319.534 303.757 326.262 291.713 342.969 285.088C324.128 259.563 304.814 234.389 285.027 209.568C283.897 209.144 282.812 209.252 281.772 209.893C280.683 213.497 279.922 217.186 279.493 220.96C272.466 277.281 265.414 333.596 258.334 389.906L258.985 392.185C284.861 382.113 310.687 371.913 336.459 361.585C338.409 352.923 340.362 344.243 342.319 335.544C342.821 334.767 343.472 334.116 344.272 333.591C341.856 343.582 339.903 353.673 338.412 363.865C338.468 364.585 338.685 365.236 339.063 365.818C349.784 372.525 360.418 379.361 370.964 386.325C373.329 378.844 375.282 371.247 376.824 363.538C375.389 363.471 374.087 363.037 372.917 362.237C373.379 361.648 374.03 361.431 374.87 361.585C376.003 362.193 377.087 362.193 378.125 361.585C385.595 345.34 394.058 329.715 403.516 314.71C404.162 314.598 404.596 314.816 404.819 315.362C395.601 330.753 387.028 346.595 379.102 362.888C376.831 371.105 374.77 379.352 372.917 387.627C380.682 385.593 388.278 382.988 395.703 379.815C399.526 369.646 403.217 359.447 406.772 349.216H408.074C404.951 359.017 401.696 368.783 398.308 378.513C414.401 372.984 430.46 366.799 446.485 359.958C446.967 353.604 446.967 347.201 446.485 340.752C446.823 339.444 447.254 338.575 447.787 338.148C447.918 343.601 448.354 349.027 449.089 354.424C466.505 347.786 483.868 340.95 501.172 333.916C502.175 333.024 503.041 332.047 503.777 330.987C504.643 322.628 504.643 314.164 503.777 305.596C503.38 305.677 503.164 305.894 503.125 306.247C491.023 312.189 478.653 317.614 466.016 322.523C465.573 330.267 465.144 337.971 464.714 345.635C464.063 346.069 463.412 346.069 462.761 345.635C458.08 342.535 453.301 339.605 448.438 336.846C448.405 336.19 449.057 335.973 450.391 336.195C454.929 338.464 459.272 341.068 463.412 344.007C464.174 336.638 464.278 329.26 463.738 321.872C460.098 319.566 456.518 317.178 452.995 314.71C452.605 316.531 451.732 318.05 450.391 319.268C449.805 318.806 449.584 318.155 449.741 317.315C450.255 316.394 450.691 315.417 451.042 314.385C449.857 313.25 448.555 312.274 447.136 311.455C447.351 310.804 447.787 310.37 448.438 310.154C454.128 313.704 459.877 317.176 465.691 320.57C475.671 316.809 485.541 312.795 495.313 308.526C498.243 307.387 500.847 305.759 503.125 303.643C490.15 292.595 476.915 281.853 463.412 271.416C456.518 267.472 449.682 267.58 442.905 271.741C442.924 273.107 443.36 274.409 444.206 275.648C444.643 277.167 444.643 278.686 444.206 280.205C442.572 283.045 440.943 285.866 439.324 288.669C438.735 288.208 438.518 287.556 438.672 286.716C440.437 283.947 441.956 281.017 443.23 277.927C442.299 275.803 440.993 273.958 439.324 272.393C436.272 273.487 433.234 274.572 430.209 275.648C428.586 275.888 428.151 275.455 428.907 274.346C432.006 273.348 435.045 272.154 438.022 270.765C430.317 266.154 422.72 261.379 415.235 256.443C413.971 255.959 412.778 256.068 411.655 256.768C411.58 258.938 411.797 261.108 412.305 263.279C416.856 266.468 421.305 269.723 425.652 273.044C425.764 273.69 425.546 274.123 425 274.346C421.062 271.451 417.047 268.629 412.956 265.882C413.132 270.538 413.891 275.096 415.235 279.554C416.023 279.05 416.023 278.508 415.235 277.927L416.537 277.601C418.718 278.475 420.888 279.344 423.047 280.205C423.89 280.849 424.758 281.5 425.652 282.158C428.874 283.336 431.913 284.855 434.766 286.716C435.061 287.34 435.495 287.882 436.069 288.343C435.92 288.603 435.702 288.711 435.417 288.669C431.807 287.235 428.335 285.498 425 283.46C422.4 286.607 419.905 289.863 417.514 293.226C418.625 300.767 419.601 308.363 420.444 316.013C420.288 317.293 420.504 318.487 421.094 319.593C420.74 320.06 420.306 320.385 419.792 320.57C415.156 290.767 410.056 261.037 404.493 231.377C402.585 232.397 400.523 232.94 398.308 233.005C401.085 248.47 403.689 263.986 406.12 279.554C406.295 280.595 406.077 281.463 405.469 282.158C404.067 275.701 402.874 269.19 401.889 262.627C399.991 261.028 397.821 259.943 395.378 259.372C393.434 260.449 391.914 261.967 390.821 263.929C384 273.047 377.706 282.38 371.941 291.924C373.428 293.491 374.838 295.119 376.172 296.807C380.822 300 385.814 302.496 391.147 304.294C391.184 305.016 391.4 305.667 391.797 306.247C383.039 303.832 375.01 305.351 367.709 310.804C366.977 310.252 366.977 309.601 367.709 308.851C370.772 306.724 374.136 305.205 377.8 304.294C378.618 304.066 378.836 303.631 378.452 302.991C348.172 263.693 317.899 224.413 287.631 185.154C288.065 184.937 288.499 184.719 288.933 184.502Z" fill="url(#paint11_linear_1_219)"/>
<path fill-rule="evenodd" clip-rule="evenodd" d="M246.615 323.825C246.182 325.042 245.748 326.344 245.313 327.731C243.065 327.167 241.546 325.865 240.756 323.825C240.988 321.375 241.53 318.988 242.383 316.664C243.965 317.617 245.593 318.485 247.266 319.268C246.697 320.731 246.48 322.25 246.615 323.825Z" fill="white"/>
<path fill-rule="evenodd" clip-rule="evenodd" d="M361.849 308.851C363.101 309.043 364.186 309.585 365.104 310.479C358.482 316.985 354.793 324.906 354.037 334.242C352.503 332.816 350.875 331.514 349.154 330.335C348.906 326.298 349.992 322.609 352.409 319.268C355.117 315.352 358.263 311.88 361.849 308.851Z" fill="white"/>
<path fill-rule="evenodd" clip-rule="evenodd" d="M403.515 314.71C394.057 329.715 385.594 345.34 378.125 361.585C377.086 362.193 376.001 362.193 374.869 361.585C372.332 360.032 370.054 358.079 368.033 355.726C363.862 348.931 362.342 341.553 363.476 333.591C368.139 317.322 378.882 309.619 395.703 310.479C398.827 311.062 401.431 312.473 403.515 314.71Z" fill="white"/>
<path fill-rule="evenodd" clip-rule="evenodd" d="M371.615 332.94C374.683 332.919 375.66 334.438 374.544 337.497C372.479 339.377 371.068 338.944 370.312 336.195C370.574 335.023 371.008 333.938 371.615 332.94Z" fill="url(#paint12_linear_1_219)"/>
<path fill-rule="evenodd" clip-rule="evenodd" d="M372.266 334.893C373.876 335.184 373.984 335.835 372.591 336.846C372.277 336.229 372.169 335.578 372.266 334.893Z" fill="white"/>
<path fill-rule="evenodd" clip-rule="evenodd" d="M389.193 315.362C392.664 315.544 393.315 317.063 391.146 319.919C389.084 321.876 387.782 321.442 387.24 318.617C387.625 317.365 388.276 316.28 389.193 315.362Z" fill="url(#paint13_linear_1_219)"/>
<path fill-rule="evenodd" clip-rule="evenodd" d="M503.125 306.247C503.776 314.378 503.991 322.625 503.776 330.987C503.041 332.047 502.175 333.024 501.172 333.916C483.868 340.95 466.504 347.786 449.089 354.424C448.353 349.027 447.917 343.601 447.787 338.148C448.334 337.925 448.549 337.492 448.438 336.846C453.301 339.605 458.08 342.535 462.761 345.635C463.412 346.069 464.063 346.069 464.714 345.635C465.144 337.971 465.573 330.267 466.016 322.523C478.653 317.614 491.022 312.188 503.125 306.247Z" fill="white"/>
<path fill-rule="evenodd" clip-rule="evenodd" d="M230.339 321.872C230.122 321.872 229.904 321.872 229.688 321.872C228.385 321.872 227.083 321.872 225.781 321.872C227.517 312.327 229.253 302.778 230.99 293.226C232.726 293.226 234.462 293.226 236.198 293.226C234.243 302.781 232.29 312.329 230.339 321.872Z" fill="white"/>
<path fill-rule="evenodd" clip-rule="evenodd" d="M329.297 312.106C328.76 314.588 328.435 317.192 328.32 319.919C328.549 315.191 327.465 310.851 325.065 306.898C324.399 310.654 323.857 314.343 323.437 317.966C322.237 302.37 329.073 291.953 343.945 286.716C345.199 287.778 346.393 288.972 347.526 290.297C337.287 294.13 331.21 301.4 329.297 312.106Z" fill="white"/>
<path fill-rule="evenodd" clip-rule="evenodd" d="M347.527 321.872C345.688 325.096 344.277 328.569 343.295 332.289C342.823 332.653 342.281 332.869 341.667 332.94C336.97 331.711 333.715 328.889 331.902 324.476C328.326 309.276 333.643 298.425 347.852 291.924C351.374 295.37 354.52 299.168 357.292 303.317C353.617 309.274 350.362 315.459 347.527 321.872Z" fill="white"/>
<path fill-rule="evenodd" clip-rule="evenodd" d="M341.016 323.825C342.101 323.825 343.186 323.825 344.271 323.825C344.743 326.343 343.875 328.079 341.667 329.034C340.209 328.985 339.558 328.226 339.714 326.755C339.726 325.562 340.16 324.585 341.016 323.825Z" fill="url(#paint14_linear_1_219)"/>
<path fill-rule="evenodd" clip-rule="evenodd" d="M341.015 305.596C344.4 306.09 345.051 307.718 342.968 310.479C341.905 310.8 340.819 310.908 339.713 310.804C339.457 308.843 339.892 307.106 341.015 305.596Z" fill="url(#paint15_linear_1_219)"/>
<path fill-rule="evenodd" clip-rule="evenodd" d="M239.453 321.872C238.953 322.369 238.628 323.02 238.477 323.825C236.306 322.821 234.027 322.17 231.641 321.872C233.88 312.125 236.05 302.36 238.151 292.575C240.558 292.244 242.945 291.811 245.312 291.273C243.43 301.483 241.477 311.682 239.453 321.872Z" fill="white"/>
<path fill-rule="evenodd" clip-rule="evenodd" d="M224.479 319.268C223.871 319.963 223.653 320.831 223.828 321.872C221.522 321.668 219.352 321.886 217.317 322.523C216.576 320.698 216.468 318.744 216.992 316.664C218.354 307.281 219.873 297.95 221.549 288.669C224.314 290.106 227.027 291.625 229.687 293.226C227.701 301.855 225.964 310.536 224.479 319.268Z" fill="white"/>
<path fill-rule="evenodd" clip-rule="evenodd" d="M419.791 320.57C417.883 321.708 416.039 323.01 414.257 324.476C411.392 309.448 408.679 294.474 406.119 279.554C403.688 263.986 401.084 248.47 398.307 233.005C400.522 232.94 402.584 232.397 404.492 231.377C410.055 261.037 415.155 290.767 419.791 320.57Z" fill="white"/>
<path fill-rule="evenodd" clip-rule="evenodd" d="M233.594 284.111C233.888 281.477 234.322 278.873 234.896 276.299C236.301 269.594 237.603 262.867 238.802 256.117C240.538 256.117 242.274 256.117 244.01 256.117C241.876 265.381 240.031 274.712 238.477 284.111C236.987 284.266 235.359 284.266 233.594 284.111Z" fill="white"/>
<path fill-rule="evenodd" clip-rule="evenodd" d="M448.438 310.153C445.28 307.756 441.919 305.586 438.347 303.643C437.913 299.086 437.913 294.528 438.347 289.971C438.814 289.617 439.139 289.183 439.323 288.669C440.943 285.866 442.572 283.045 444.206 280.205C444.642 278.687 444.642 277.167 444.206 275.648C443.36 274.41 442.924 273.108 442.904 271.742C449.681 267.58 456.517 267.472 463.412 271.416C476.915 281.853 490.15 292.595 503.126 303.643C500.847 305.759 498.243 307.387 495.313 308.526C485.541 312.795 475.671 316.81 465.691 320.57C459.877 317.177 454.128 313.704 448.438 310.153Z" fill="white"/>
<path fill-rule="evenodd" clip-rule="evenodd" d="M405.468 282.159C405.674 284.423 405.349 286.593 404.492 288.669C400.986 292.825 397.731 297.165 394.726 301.69C393.781 302.968 392.588 303.836 391.145 304.294C385.813 302.496 380.821 300 376.171 296.807C374.837 295.119 373.427 293.491 371.94 291.924C377.705 282.38 383.999 273.048 390.82 263.929C391.913 261.968 393.433 260.449 395.377 259.372C397.82 259.942 399.99 261.028 401.888 262.627C402.873 269.19 404.066 275.701 405.468 282.159Z" fill="white"/>
<path d="M419.791 322.523C421.917 322.392 423.653 323.152 425 324.801C417.466 325.864 414.752 330.096 416.862 337.497C411.519 331.368 412.496 326.376 419.791 322.523ZM408.074 304.945C408.822 305.134 409.256 305.677 409.375 306.573C409.917 308.186 410.026 309.814 409.702 311.456C408.045 309.776 406.418 309.776 404.819 311.456L404.167 310.804C405.967 309.149 407.27 307.196 408.074 304.945ZM417.188 279.554C419.199 280.361 421.152 281.337 423.047 282.484C421.066 285.471 419.005 288.401 416.863 291.273C416.425 288.32 415.882 285.391 415.235 282.484C415.765 281.414 416.416 280.438 417.188 279.554ZM399.61 258.07C400.983 258.429 401.524 259.298 401.237 260.674C400.649 259.892 399.89 259.349 398.958 259.046C399.32 258.797 399.537 258.472 399.61 258.07Z" fill="white"/>
<path fill-rule="evenodd" clip-rule="evenodd" d="M252.474 256.117C250.617 266.365 248.447 276.565 245.963 286.716C244.076 285.972 242.123 285.539 240.104 285.414C241.72 275.615 243.456 265.85 245.312 256.117C247.656 255.925 249.934 255.492 252.148 254.815C252.45 255.201 252.559 255.636 252.474 256.117Z" fill="white"/>
<path d="M486.197 341.403C486.881 341.306 487.532 341.415 488.15 341.729C482.584 347.616 477.161 353.585 471.875 359.633C468.516 356.978 465.045 354.481 461.458 352.145C469.817 348.721 478.066 345.141 486.197 341.403ZM367.709 310.804C375.01 305.352 383.039 303.832 391.797 306.247C392.852 307.3 394.154 308.06 395.703 308.526C379.99 307.596 369.14 314.432 363.151 329.034C360.099 338.682 361.075 347.796 366.081 356.377C364.467 354.704 362.73 353.186 360.872 351.82C355.967 344.05 354.774 335.803 357.292 327.08V327.079C358.97 320.46 362.442 315.036 367.709 310.804ZM435.416 293.878C435.954 297.231 436.28 300.703 436.393 304.294C446.327 310.717 450.234 319.832 448.111 331.637C444.785 342.157 437.734 348.776 426.953 351.495C420.795 352.804 415.369 351.393 410.677 347.262C412.413 344.658 414.148 342.054 415.885 339.45C425.116 340.311 429.131 336.187 427.93 327.081C426.544 324.614 424.917 322.335 423.047 320.245C427.086 311.408 431.208 302.618 435.416 293.878ZM410.677 320.57C411.769 322.409 412.42 324.47 412.63 326.755C411.257 330.973 411.908 334.771 414.583 338.148C413.101 341.036 411.256 343.64 409.049 345.961C405.431 344.079 402.719 341.367 400.911 337.823C403.401 331.652 406.656 325.9 410.677 320.57ZM452.995 314.711C456.517 317.179 460.098 319.565 463.737 321.872C464.278 329.26 464.174 336.638 463.412 344.008C459.271 341.069 454.928 338.465 450.391 336.195C450.007 335.771 449.571 335.337 449.089 334.893C449.525 329.666 449.954 324.457 450.391 319.268C451.732 318.051 452.604 316.532 452.995 314.711ZM421.744 326.429C424.663 325.994 426.4 327.188 426.953 330.01C426.784 333.939 424.831 336.434 421.094 337.497C418.583 337.043 417.498 335.524 417.838 332.94C417.947 332.072 418.055 331.204 418.164 330.336C419.492 329.118 420.685 327.816 421.744 326.429ZM425 283.461C428.334 285.498 431.806 287.235 435.416 288.669C431.24 298.615 426.574 308.597 421.419 318.617C421.282 317.603 420.957 316.734 420.442 316.012C419.6 308.362 418.623 300.767 417.513 293.226C419.904 289.863 422.4 286.608 425 283.461ZM447.136 311.456C448.555 312.274 449.857 313.251 451.042 314.385C450.69 315.417 450.254 316.394 449.739 317.315C448.606 315.635 447.52 313.791 446.484 311.781C446.634 311.521 446.849 311.413 447.136 311.456ZM357.617 306.247C358.549 304.664 359.526 304.664 360.547 306.247C360.619 306.649 360.836 306.974 361.198 307.223C358.051 309.652 355.229 312.365 352.734 315.361C353.849 312.047 355.477 309.01 357.617 306.247ZM405.469 289.32C406.969 293.241 408.054 297.364 408.724 301.69C406.812 304.801 404.751 307.84 402.539 310.804C399.555 309.041 396.625 307.196 393.75 305.27C397.901 300.108 401.807 294.791 405.469 289.32ZM391.797 257.419C392.502 257.982 392.61 258.633 392.123 259.372C384.481 269.229 377.32 279.43 370.639 289.971C368.214 287.502 366.694 284.68 366.081 281.508C371.384 271.527 377.786 262.412 385.287 254.164L391.797 257.419ZM427.279 278.903C427.747 278.284 428.288 278.176 428.906 278.578C431.076 281.182 433.247 283.786 435.417 286.39C435.269 286.65 435.051 286.758 434.766 286.716C431.912 284.855 428.874 283.335 425.651 282.158C426.024 281.015 426.567 279.93 427.279 278.903ZM439.323 272.393C440.993 273.958 442.299 275.803 443.229 277.927C441.956 281.017 440.437 283.947 438.672 286.716C435.913 283.65 432.983 280.612 429.883 277.601C429.577 276.9 429.686 276.249 430.209 275.648C433.234 274.572 436.271 273.487 439.323 272.393ZM362.5 270.44C363.406 273.788 364.057 277.259 364.453 280.856C363.619 281.171 362.968 280.737 362.5 279.554C361.693 278.595 361.042 277.51 360.547 276.299C361.264 275.859 361.915 275.425 362.5 274.997V270.44ZM412.956 265.883C417.047 268.63 421.061 271.451 425 274.346C427.583 277.059 426.932 279.012 423.047 280.206C420.888 279.345 418.718 278.476 416.537 277.601C416.103 277.71 415.669 277.818 415.234 277.927C416.023 278.508 416.023 279.051 415.234 279.554C413.891 275.096 413.131 270.539 412.956 265.883ZM411.654 256.768C412.778 256.068 413.971 255.959 415.234 256.442C422.72 261.379 430.316 266.154 438.021 270.765C435.045 272.155 432.006 273.348 428.906 274.346C427.595 274.417 426.511 273.982 425.651 273.044C421.304 269.723 416.855 266.467 412.305 263.278C411.796 261.108 411.58 258.938 411.654 256.768ZM423.697 252.862C426.094 252.755 428.482 252.862 430.859 253.187C437.913 257.691 445.072 262.031 452.344 266.208C448.47 267.68 444.564 269.091 440.625 270.44C432.375 265.665 424.345 260.566 416.536 255.14C419.031 254.467 421.418 253.708 423.697 252.862ZM400.261 256.767C399.023 256.724 397.829 256.941 396.68 257.419C393.629 256.382 390.699 255.08 387.891 253.512C389.989 253.066 391.942 252.415 393.75 251.559H400.261V256.767ZM375.521 192.315C376.414 192.213 377.283 192.321 378.125 192.64C372.774 195.635 370.712 200.084 371.939 205.987C368.893 200.277 370.086 195.72 375.521 192.315Z" fill="white"/>
<path fill-rule="evenodd" clip-rule="evenodd" d="M247.266 250.257C254.178 252.268 253.961 253.57 246.615 254.164C246.626 252.819 246.843 251.517 247.266 250.257Z" fill="white"/>
<path fill-rule="evenodd" clip-rule="evenodd" d="M245.312 249.606C244.992 251.108 244.775 252.627 244.661 254.164C242.925 254.164 241.189 254.164 239.453 254.164C239.555 250.369 241.508 248.849 245.312 249.606Z" fill="white"/>
<path fill-rule="evenodd" clip-rule="evenodd" d="M288.932 207.94C290.009 208.044 290.876 208.477 291.537 209.242C290.869 209.5 290.761 209.934 291.211 210.544C315.746 241.068 339.725 271.992 363.151 303.317C362.98 304.584 362.329 305.018 361.198 304.619C336.784 273.261 312.37 241.903 287.956 210.544C286.513 209.05 286.839 208.182 288.932 207.94Z" fill="white"/>
<path fill-rule="evenodd" clip-rule="evenodd" d="M353.385 207.94C355.349 208.631 357.302 209.391 359.244 210.218C359.641 211.487 360.075 212.681 360.546 213.799C363.66 232.48 366.915 251.143 370.312 269.789C369.045 273.191 367.417 276.446 365.429 279.554C361.623 255.621 357.609 231.75 353.385 207.94Z" fill="white"/>
<path fill-rule="evenodd" clip-rule="evenodd" d="M392.448 214.45C393.299 214.875 394.167 215.31 395.052 215.752C395.801 220.676 397.103 225.45 398.958 230.075C397.721 230.551 396.419 230.551 395.052 230.075C393.758 225.13 392.673 220.138 391.797 215.101C391.797 214.667 392.014 214.45 392.448 214.45Z" fill="white"/>
<path fill-rule="evenodd" clip-rule="evenodd" d="M245.312 247.653C244.01 247.653 242.708 247.653 241.406 247.653C243.01 238.769 244.529 229.872 245.964 220.961C247.893 220.153 249.846 220.153 251.823 220.961C250.132 230.056 247.962 238.953 245.312 247.653Z" fill="white"/>
<path fill-rule="evenodd" clip-rule="evenodd" d="M402.865 211.195C403.572 211.273 404.006 211.707 404.167 212.497C405.046 217.316 406.131 222.09 407.422 226.82C406.057 228.919 404.104 230.222 401.563 230.726C400.161 228.817 399.184 226.647 398.633 224.216C398.209 221.236 397.666 218.306 397.006 215.427C399.002 214.002 400.955 212.591 402.865 211.195Z" fill="white"/>
<path fill-rule="evenodd" clip-rule="evenodd" d="M396.354 209.242C398.404 209.053 400.357 209.379 402.213 210.218C399.873 211.333 397.594 212.527 395.377 213.799C394.345 213.445 393.369 213.011 392.448 212.497C393.509 211.102 394.811 210.016 396.354 209.242Z" fill="white"/>
<path fill-rule="evenodd" clip-rule="evenodd" d="M393.75 207.94C392.554 209.442 391.252 210.961 389.844 212.497C387.023 210.869 384.202 209.242 381.381 207.614C380.581 206.644 380.581 205.668 381.381 204.685C381.83 203.694 382.59 203.043 383.659 202.731C386.997 204.563 390.36 206.299 393.75 207.94Z" fill="white"/>
<path fill-rule="evenodd" clip-rule="evenodd" d="M376.171 351.169C379.541 350.522 380.735 351.825 379.752 355.075C377.457 357.853 375.829 357.527 374.869 354.099C374.882 352.905 375.315 351.929 376.171 351.169Z" fill="url(#paint16_linear_1_219)"/>
<path fill-rule="evenodd" clip-rule="evenodd" d="M392.448 391.533C392.409 391.18 392.192 390.963 391.797 390.882C390.342 391.697 388.822 392.023 387.24 391.859C387.674 391.642 388.107 391.425 388.542 391.208C387.76 390.62 387.217 389.861 386.914 388.929C386.256 389.474 385.496 389.691 384.635 389.58C384.746 388.719 384.529 387.96 383.984 387.302C385.896 386.79 387.198 386.031 387.891 385.023C406.298 377.835 424.744 370.565 443.229 363.213C445.124 362.319 446.973 361.343 448.763 360.283C448.887 358.931 449.212 357.629 449.74 356.377C452.129 355.4 454.512 354.424 456.901 353.447C458.509 352.988 460.026 353.205 461.458 354.098C464.544 356.072 467.363 358.35 469.922 360.934C444.245 371.519 418.418 381.719 392.448 391.533Z" fill="white"/>
<path fill-rule="evenodd" clip-rule="evenodd" d="M446.484 340.752C446.966 347.201 446.966 353.604 446.484 359.958C430.459 366.798 414.4 372.983 398.307 378.513C401.695 368.782 404.95 359.017 408.073 349.216C410.312 350.228 412.482 351.421 414.583 352.796C418.669 353.724 422.792 353.941 426.953 353.448C434.777 351.143 441.287 346.911 446.484 340.752Z" fill="white"/>
<path fill-rule="evenodd" clip-rule="evenodd" d="M337.11 351.82C337.463 351.859 337.68 352.076 337.761 352.471C328.289 357.749 318.524 362.523 308.464 366.794C309.983 367.77 311.502 368.747 313.021 369.723C310.572 369.378 308.184 368.619 305.86 367.445C294.875 372.734 283.807 377.833 272.656 382.744C273.634 383.124 274.502 383.666 275.261 384.372C273.569 385.067 271.942 384.85 270.378 383.721C267.391 384.672 264.569 385.974 261.914 387.627C260.9 387.077 260.249 387.511 259.961 388.929C259.642 388.087 259.533 387.219 259.636 386.325C260.53 386.427 261.398 386.319 262.24 386C264.238 384.788 266.191 383.595 268.099 382.419C266.086 380.837 263.916 379.535 261.589 378.513C260.884 377.949 260.776 377.298 261.263 376.559C264.322 378.632 267.577 380.368 271.029 381.768C281.929 377.022 292.671 372.031 303.255 366.794C295.589 362.496 287.993 358.047 280.469 353.447C280.686 353.339 280.903 353.231 281.12 353.122C288.554 356.744 295.932 360.542 303.255 364.515C304.558 364.841 305.86 365.166 307.162 365.492C317.449 361.42 327.432 356.863 337.11 351.82Z" fill="url(#paint17_linear_1_219)"/>
<path fill-rule="evenodd" clip-rule="evenodd" d="M222.526 366.143C224.356 367.385 226.309 368.47 228.385 369.398C229.128 370.649 229.237 371.951 228.711 373.304C226.393 384.822 224.006 396.324 221.549 407.809C218.945 409.112 216.341 410.414 213.737 411.716C216.368 396.494 219.298 381.304 222.526 366.143Z" fill="white"/>
<path d="M230.99 370.7C233.955 372.347 236.885 374.083 239.779 375.908C239.009 384.135 238.141 392.383 237.174 400.648C232.99 402.469 228.758 404.205 224.479 405.856C225.876 394.091 228.047 382.372 230.99 370.7ZM230.338 362.888C233.883 363.954 237.248 365.474 240.429 367.445C240.753 369.605 240.862 371.774 240.755 373.955C235.402 371.494 230.193 368.673 225.13 365.492C226.92 364.597 228.655 363.729 230.338 362.888ZM239.453 333.591C241.047 334.224 242.783 334.441 244.662 334.242V337.497C243.588 347.054 242.394 356.602 241.081 366.143L233.919 361.586C233.484 359.85 233.484 358.113 233.919 356.377C235.496 349.358 236.908 342.305 238.151 335.219C238.271 334.323 238.705 333.78 239.453 333.591ZM255.403 251.56C255.705 251.946 255.813 252.38 255.728 252.861C252.853 274.344 249.923 295.829 246.939 317.314C245.798 316.581 244.604 315.93 243.359 315.361C243.142 314.602 242.924 313.843 242.708 313.083C244.213 304.789 246.166 296.651 248.567 288.669C248.35 287.801 248.132 286.932 247.916 286.064C250.086 275.428 252.257 264.795 254.426 254.164C254.941 253.442 255.266 252.574 255.403 251.56ZM232.943 285.414C234.703 285.708 236.439 286.142 238.151 286.716C237.45 288.167 237.016 289.687 236.849 291.273H232.292V286.716C232.837 286.493 233.055 286.06 232.943 285.414ZM230.339 285.414C230.773 285.414 230.99 285.631 230.99 286.065C230.522 287.539 230.305 289.058 230.339 290.622C227.503 289.964 224.898 288.771 222.526 287.042C225.091 286.289 227.695 285.746 230.339 285.414Z" fill="white"/>
<path fill-rule="evenodd" clip-rule="evenodd" d="M450.39 388.929C450.573 389.395 450.794 389.938 451.041 390.557C454.075 391.638 457.109 392.723 460.156 393.812C449.687 400.199 438.834 405.625 427.604 410.088C423.324 408.064 419.418 405.569 415.885 402.601C427.332 397.917 438.834 393.36 450.39 388.929Z" fill="white"/>
<path fill-rule="evenodd" clip-rule="evenodd" d="M469.921 362.888C470.677 367.981 470.781 373.189 470.247 378.513C398.661 407.73 326.938 436.701 255.078 465.427C254.014 465.748 252.929 465.856 251.823 465.752C251.823 459.893 251.823 454.034 251.823 448.174C303.813 427.174 356.113 406.883 408.724 387.302C429.254 379.309 449.655 371.171 469.921 362.888Z" fill="url(#paint18_linear_1_219)"/>
<path fill-rule="evenodd" clip-rule="evenodd" d="M387.89 385.023C387.198 386.031 385.895 386.791 383.984 387.302C384.529 387.96 384.746 388.72 384.635 389.58C385.496 389.691 386.255 389.474 386.914 388.929C387.216 389.861 387.759 390.62 388.541 391.208C388.107 391.425 387.673 391.642 387.239 391.859C388.822 392.023 390.341 391.697 391.796 390.882C392.192 390.963 392.408 391.18 392.448 391.533C345.282 409.209 298.407 427.655 251.823 446.872C234.784 435.858 217.857 424.681 201.041 413.343C202.812 412.824 204.44 412.065 205.924 411.065C206.054 412.303 206.597 413.279 207.552 413.994C209.071 414.429 210.59 414.429 212.109 413.994C216.722 412.287 220.954 410.008 224.804 407.158C228.793 405.814 232.699 404.294 236.523 402.601C235.951 411.846 234.974 421.069 233.593 430.27C233.554 431.384 233.988 432.252 234.895 432.875C237.199 434.324 239.478 435.735 241.731 437.106C245.778 436.059 249.466 434.323 252.799 431.898C254.054 419.182 255.898 406.596 258.333 394.138C284.106 383.81 309.931 373.611 335.807 363.539C336.979 365.904 338.714 367.749 341.015 369.072C351.649 375.8 362.283 382.528 372.916 389.255C374.002 389.689 375.086 389.689 376.171 389.255C379.977 387.516 383.883 386.106 387.89 385.023Z" fill="white"/>
<path d="M137.24 438.409C140.299 438.122 142.685 439.207 144.401 441.664C137.332 440.417 134.185 443.672 134.961 451.43C136.017 452.996 137.428 454.19 139.193 455.011C133.742 455.423 130.92 452.819 130.729 447.198C131.761 443.45 133.932 440.52 137.24 438.409ZM67.252 427.341C69.1504 428.01 70.5618 429.204 71.4844 430.922C71.3157 431.743 70.8808 432.394 70.1816 432.875C63.9162 436.23 57.9487 435.904 52.2783 431.898C51.7327 429.958 52.2754 428.438 53.9062 427.341C54.7331 429.069 56.0352 430.48 57.8125 431.572C60.1998 432.006 62.5863 432.006 64.9736 431.572C66.4501 430.558 67.209 429.148 67.252 427.341Z" fill="white"/>
<path d="M103.386 241.794C105.637 241.626 108.023 241.843 110.547 242.445C110.761 245.944 110.544 249.416 109.896 252.861C107.969 253.594 106.016 254.245 104.036 254.814C105.552 255.611 107.071 255.611 108.594 254.814C109.083 255.385 109.409 256.036 109.571 256.768C110.44 256.39 111.199 256.174 111.849 256.117C112.175 257.254 112.61 257.905 113.152 258.07C115.071 258.796 116.482 260.098 117.383 261.977C117.922 268.702 114.775 271.523 107.943 270.439V400.648C109.844 400.418 111.364 401.069 112.5 402.602C112.532 405.811 113.725 408.415 116.081 410.414C116.516 413.018 116.516 415.623 116.081 418.227C114.276 420.63 114.058 423.234 115.43 426.039C121.964 430.075 128.583 433.981 135.286 437.758C141.273 435.868 145.18 437.93 147.005 443.942C150.801 445.948 154.492 448.119 158.074 450.453C163.224 454.786 165.828 460.32 165.886 467.055V469.008C165.778 472.487 165.886 475.959 166.211 479.424C167.96 480.189 169.479 481.275 170.769 482.68C173.486 490.293 170.99 495.066 163.282 497.002C159.746 497.223 156.273 496.897 152.865 496.025C150.627 495.306 148.999 493.895 147.982 491.794C147.548 489.19 147.548 486.586 147.982 483.981C148.906 482.161 150.316 480.859 152.214 480.075C155.308 468.912 151.727 460.882 141.472 455.986C135.092 457.949 130.861 455.67 128.777 449.15C124.108 446.273 119.334 443.561 114.453 441.013C114.072 441.149 113.746 441.367 113.477 441.664C113.152 444.259 113.044 446.863 113.152 449.477C121.232 451.303 123.945 456.294 121.289 464.45C120.559 465.833 119.582 467.027 118.36 468.031C112.652 471.548 106.575 472.416 100.13 470.635C94.7666 469.294 91.946 465.93 91.6674 460.544C88.6114 460.937 85.7894 460.395 83.2035 458.916C79.5826 454.606 79.8003 450.484 83.8549 446.547C88.1321 444.024 91.9298 444.565 95.2474 448.174C96.7864 446.961 98.4142 445.877 100.13 444.919C100.347 444.051 100.565 443.182 100.782 442.314C99.341 438.368 98.5821 434.245 98.5033 429.945C93.9974 426.986 89.3308 424.273 84.5052 421.807C79.9508 423.054 76.1536 421.86 73.1127 418.227C72.8086 414.437 70.7461 412.484 66.9271 412.367V426.039C69.3887 426.348 71.4512 427.433 73.1127 429.294C73.5469 432.332 73.5469 435.37 73.1127 438.408L71.4847 440.036C66.4893 442.194 61.2809 442.845 55.8597 441.989C53.4366 441.273 51.5912 439.863 50.3256 437.758C49.8913 434.719 49.8913 431.681 50.3256 428.643C51.5599 427.321 52.9714 426.236 54.558 425.388C54.9382 419.493 55.4799 413.634 56.1849 407.81C61.8939 399.509 68.8392 398.424 77.0189 404.555C82.5194 401.826 86.3164 403.344 88.4115 409.111C91.0338 410.638 93.6382 412.157 96.224 413.669L97.5258 410.414H97.5267C98.1165 409.46 98.984 408.809 100.13 408.461C99.5079 403.917 101.353 401.095 105.664 399.997C106.207 356.159 106.099 312.322 105.339 268.486C103.679 267.548 101.943 266.789 100.13 266.208C97.3915 264.209 96.8497 261.713 98.5033 258.721C100.085 257.47 101.278 255.951 102.083 254.164C102.518 250.041 102.952 245.917 103.386 241.794ZM111.524 421.481C110.352 422.015 109.158 422.449 107.943 422.783C107.76 422.645 107.623 422.501 107.532 422.351H107.531C107.554 422.388 107.579 422.426 107.608 422.463C107.694 422.573 107.806 422.68 107.943 422.783C105.786 423.589 103.616 423.372 101.432 422.133C100.824 426.182 100.596 430.249 100.746 434.336L100.782 435.153C102.704 438.401 105.526 439.486 109.245 438.408C107.95 436.202 107.624 433.815 108.269 431.247C109.546 429.318 111.064 427.583 112.826 426.039C113.454 424.175 113.02 422.656 111.524 421.481ZM83.2035 408.461C79.9263 410.023 78.5157 412.627 78.972 416.273L98.5033 427.992C98.7852 426.868 98.9032 425.731 98.8578 424.58L98.8285 424.086C98.2526 421.593 97.5156 419.121 96.6185 416.671L96.224 415.622C91.8954 413.24 87.5549 410.853 83.2035 408.461ZM99.5765 422.149C99.5075 422.429 99.427 422.701 99.3334 422.963C99.427 422.701 99.5075 422.429 99.5765 422.149ZM107.403 422.002H107.402H107.403ZM114.128 415.622C110.78 417.252 107.232 417.927 103.487 417.645L102.735 417.575C101.59 417.33 100.504 416.896 99.4789 416.273C98.6816 417.799 99.1157 418.992 100.782 419.854C103.077 420.724 105.464 421.049 107.943 420.83C107.805 420.971 107.694 421.108 107.608 421.242C107.579 421.287 107.553 421.33 107.531 421.374H107.532C107.623 421.199 107.76 421.017 107.943 420.83C110.201 420.406 112.263 419.538 114.128 418.227C114.563 417.359 114.562 416.49 114.128 415.622ZM102.754 417.271H102.755H102.754ZM103.06 416.599C103.006 416.653 102.959 416.714 102.918 416.782C102.959 416.714 103.006 416.653 103.06 416.599ZM112.826 409.763C108.814 413.207 104.799 413.207 100.782 409.763C100.119 410.214 99.4678 410.647 98.8285 411.064L98.7992 411.398C98.7558 412.175 98.8745 412.932 99.1537 413.669C100.622 414.97 102.249 415.839 104.036 416.273L104.686 416.293C107.917 416.337 110.956 415.57 113.802 413.994C114.768 412.319 114.442 410.909 112.826 409.763ZM98.3832 411.087C98.3158 411.08 98.2516 411.069 98.1908 411.052C98.2516 411.069 98.3157 411.08 98.3832 411.087ZM97.6732 410.686C97.7111 410.739 97.7526 410.786 97.7972 410.829C97.7527 410.786 97.7111 410.739 97.6732 410.686Z" fill="url(#paint19_linear_1_219)"/>
<path fill-rule="evenodd" clip-rule="evenodd" d="M165.885 469.007C165.885 468.356 165.885 467.705 165.885 467.054C176.41 462.449 187.043 457.349 197.786 451.755C188.634 445.819 179.194 440.285 169.466 435.153C163.345 437.846 157.269 440.667 151.237 443.617C150.911 443.4 150.586 443.182 150.26 442.966C156.114 440.039 161.973 437.109 167.838 434.177C158.743 428.6 149.52 423.283 140.169 418.226C133.181 421.345 126.345 424.492 119.661 427.666C119.444 427.449 119.227 427.232 119.01 427.015C125.391 423.444 131.901 420.189 138.541 417.25C135.324 415.099 131.852 413.472 128.125 412.367C127.218 411.705 127 411.054 127.474 410.414C131.6 412.551 135.832 414.504 140.169 416.273C150.714 410.626 161.456 405.417 172.395 400.648C173.263 400.214 173.263 399.78 172.395 399.346C170.588 398.962 169.069 398.095 167.838 396.742C168.055 396.525 168.272 396.307 168.489 396.091C171.491 398.215 174.746 399.192 178.255 399.02C177.351 400.646 176.158 401.188 174.674 400.648C163.587 405.569 152.845 411.103 142.448 417.25C151.459 422.732 160.573 428.049 169.791 433.2C177.087 429.824 184.358 426.351 191.601 422.783C192.003 423.401 191.895 423.944 191.276 424.411C184.457 427.278 177.946 430.641 171.744 434.502C181.03 440.176 190.47 445.602 200.065 450.778C204.696 448.955 208.928 446.567 212.76 443.617C213.406 443.505 213.839 443.722 214.062 444.268C212.371 444.412 212.371 444.737 214.062 445.244C210.089 447.699 205.965 449.869 201.692 451.755C210.481 457.343 219.379 462.769 228.385 468.031C229.253 468.465 230.121 468.465 230.989 468.031C233.139 466.956 235.309 465.871 237.5 464.776C239.011 464.231 240.53 464.014 242.057 464.125C238.781 465.978 235.526 467.823 232.291 469.658C243.956 476.738 255.566 483.9 267.122 491.143C276.517 486.716 285.74 482.051 294.791 477.145C287.4 472.44 279.804 468.1 272.005 464.125C271.354 463.473 270.703 462.822 270.052 462.171C271.88 462.054 273.617 462.488 275.26 463.473C282.207 468.033 289.368 472.265 296.744 476.169C306.733 471.175 316.716 466.183 326.692 461.195C319.054 456.947 311.675 452.39 304.557 447.523C304.78 446.977 305.213 446.76 305.859 446.872C312.545 450.87 319.272 454.884 326.041 458.916C327.47 459.81 328.99 460.027 330.599 459.567C340.263 454.41 350.028 449.418 359.895 444.593C353.798 440.895 347.722 437.207 341.666 433.526C342.317 433.091 342.968 433.091 343.619 433.526C349.658 437.142 355.843 440.506 362.174 443.617C372.65 438.65 382.959 433.442 393.099 427.992C387.987 423.917 382.345 420.88 376.171 418.877C376.832 418.113 377.699 417.679 378.776 417.575C384 420.3 389.209 423.23 394.401 426.364C395.268 426.798 396.137 426.798 397.005 426.364C406.898 421.149 416.88 416.049 426.953 411.065C421.561 408.496 417.004 406.109 413.281 403.903C414.043 403.353 414.912 402.919 415.885 402.601C419.418 405.569 423.324 408.064 427.604 410.088C438.834 405.625 449.687 400.199 460.156 393.812C457.109 392.723 454.075 391.638 451.041 390.557C450.794 389.938 450.573 389.395 450.39 388.929C450.612 388.384 451.048 388.166 451.692 388.278C454.733 389.57 457.767 390.981 460.807 392.51C461.894 392.944 462.975 392.944 464.062 392.51C474.381 387.892 484.583 383.118 494.661 378.187C491.419 375.914 487.949 373.96 484.244 372.328C483.339 371.749 483.45 371.423 484.57 371.351C488.496 373.638 492.617 375.591 496.94 377.21C498.086 376.901 499.173 376.467 500.195 375.908C500.306 376.125 500.41 376.343 500.52 376.559C499.869 376.994 499.218 377.427 498.567 377.861C499.407 379.462 500.709 380.439 502.474 380.791C500.214 380.74 498.157 379.981 496.289 378.513C485.8 383.781 475.28 388.99 464.713 394.138C474.375 399.728 484.14 405.153 494.01 410.414C504.023 404.755 514.225 399.438 524.609 394.463C523.372 393.77 523.268 393.227 524.283 392.835C525.924 393.523 527.552 393.632 529.166 393.161C528.73 393.595 528.3 394.029 527.864 394.463C529.602 395.548 531.334 396.633 533.073 397.718C530.501 397.574 528.222 396.598 526.237 394.789C515.709 399.889 505.403 405.423 495.312 411.39C499.752 413.284 503.88 415.671 507.682 418.552C502.727 416.834 497.949 414.556 493.359 411.716C482.669 417.929 471.601 423.463 460.156 428.317C469.713 433.746 479.264 439.172 488.802 444.593C488.587 444.81 488.365 445.028 488.151 445.244C479.017 440.132 469.687 435.141 460.156 430.27C459.069 429.836 457.988 429.836 456.901 430.27C447.487 435.302 437.94 440.185 428.255 444.919C432.683 447.46 437.024 450.173 441.276 453.057C440.625 453.491 439.974 453.491 439.323 453.057C435.174 450.475 430.834 448.197 426.302 446.221C415.897 451.206 405.698 456.522 395.703 462.171C396.788 462.931 397.873 463.69 398.958 464.45C398.632 464.667 398.307 464.884 397.981 465.101C396.083 464.392 394.239 463.85 392.448 463.473C372.183 474.24 351.783 484.657 331.25 494.723C330.63 495.191 330.522 495.733 330.924 496.351C332.826 497.791 334.888 498.985 337.109 499.932C338.013 500.511 337.905 500.836 336.783 500.908C333.972 499.102 330.934 497.8 327.669 497.002C321.427 500.029 320.884 499.486 326.041 495.375C316.316 489.332 306.442 483.582 296.419 478.122C287.173 482.792 277.949 487.458 268.75 492.119C272.92 494.983 277.259 497.587 281.77 499.932C281.445 500.041 281.119 500.149 280.794 500.257C276.024 497.983 271.467 495.378 267.122 492.445C260.69 495.185 254.397 498.223 248.242 501.559C248.184 500.509 248.727 499.749 249.869 499.281C254.884 496.889 259.875 494.502 264.843 492.119C265.711 490.921 265.602 490.596 264.518 491.143C253.149 483.994 241.539 477.266 229.687 470.96C219.214 476.033 208.69 481.025 198.112 485.934C197.786 485.609 197.461 485.283 197.135 484.958C205.815 480.835 214.496 476.711 223.177 472.588C224.62 471.763 225.922 470.786 227.083 469.658C218.23 463.41 208.899 457.985 199.088 453.382C188.586 457.875 178.386 462.866 168.489 468.356C177.255 473.445 185.936 478.654 194.531 483.981C195.196 484.308 195.304 484.742 194.856 485.283C185.343 479.604 175.685 474.179 165.885 469.007Z" fill="url(#paint20_linear_1_219)"/>
<path fill-rule="evenodd" clip-rule="evenodd" d="M326.692 462.497C328.012 462.392 329.314 462.5 330.599 462.823C339.627 468.486 348.742 474.02 357.942 479.424C347.778 484.289 337.796 489.497 327.995 495.049C318.25 489.09 308.485 483.122 298.698 477.146C308.08 472.321 317.412 467.439 326.692 462.497Z" fill="white"/>
<path fill-rule="evenodd" clip-rule="evenodd" d="M214.063 444.268C225.873 451.586 237.592 459.073 249.219 466.729C250.113 467.298 251.09 467.624 252.149 467.705C269.651 461.04 287.12 454.313 304.558 447.523C311.676 452.39 319.055 456.948 326.693 461.195C316.717 466.183 306.733 471.175 296.745 476.169C289.369 472.265 282.207 468.033 275.261 463.474C273.618 462.489 271.881 462.054 270.052 462.171C270.704 462.823 271.355 463.474 272.006 464.125C279.805 468.1 287.401 472.44 294.792 477.145C285.741 482.051 276.518 486.716 267.123 491.143C255.567 483.9 243.957 476.739 232.292 469.658C235.526 467.823 238.782 465.978 242.058 464.125C240.531 464.014 239.011 464.231 237.5 464.776C235.31 465.871 233.14 466.956 230.99 468.031C230.122 468.465 229.254 468.465 228.386 468.031C219.38 462.769 210.482 457.343 201.693 451.755C205.966 449.869 210.09 447.699 214.063 445.244C212.372 444.737 212.372 444.412 214.063 444.268Z" fill="white"/>
<path fill-rule="evenodd" clip-rule="evenodd" d="M361.198 445.57C361.883 445.473 362.534 445.581 363.151 445.896C372.397 451.494 381.729 456.92 391.146 462.172C380.751 468.023 370.226 473.556 359.57 478.773C350.731 473.192 341.725 467.875 332.552 462.823C331.994 462.374 331.561 461.832 331.25 461.195C341.23 455.988 351.212 450.78 361.198 445.57Z" fill="white"/>
<path fill-rule="evenodd" clip-rule="evenodd" d="M376.172 418.877C382.346 420.88 387.988 423.918 393.099 427.992C382.959 433.442 372.65 438.65 362.174 443.617C355.844 440.506 349.659 437.142 343.62 433.526C342.969 433.091 342.318 433.091 341.667 433.526C347.722 437.207 353.798 440.895 359.896 444.593C350.029 449.418 340.263 454.41 330.599 459.567C328.99 460.027 327.471 459.81 326.042 458.916C319.273 454.884 312.546 450.87 305.859 446.872C329.198 437.284 352.635 427.953 376.172 418.877Z" fill="white"/>
<path fill-rule="evenodd" clip-rule="evenodd" d="M395.052 428.643C404.821 434.178 414.587 439.712 424.349 445.244C414.123 450.63 403.815 455.946 393.425 461.195C383.325 456.024 373.45 450.49 363.802 444.593C374.381 439.414 384.797 434.097 395.052 428.643Z" fill="white"/>
<path fill-rule="evenodd" clip-rule="evenodd" d="M199.74 414.971C216.526 425.785 233.237 436.744 249.87 447.849C250.727 453.561 250.727 459.311 249.87 465.101C233.464 454.448 216.971 443.922 200.391 433.526C199.75 427.395 199.533 421.21 199.74 414.971Z" fill="url(#paint21_linear_1_219)"/>
<path fill-rule="evenodd" clip-rule="evenodd" d="M426.953 412.367C428.846 412.416 430.581 412.958 432.161 413.994C440.52 418.934 448.984 423.708 457.552 428.317C447.773 433.858 437.792 439.066 427.604 443.942C425.965 444.11 424.447 443.675 423.047 442.64C414.262 438.141 405.798 433.15 397.656 427.666C407.441 422.557 417.207 417.457 426.953 412.367Z" fill="white"/>
<path fill-rule="evenodd" clip-rule="evenodd" d="M413.281 403.903C417.003 406.109 421.561 408.496 426.953 411.065C416.88 416.049 406.898 421.149 397.005 426.364C396.137 426.799 395.268 426.799 394.401 426.364C389.209 423.23 384 420.3 378.776 417.575C390.222 412.891 401.724 408.334 413.281 403.903Z" fill="white"/>
<path fill-rule="evenodd" clip-rule="evenodd" d="M460.157 395.44C461.478 395.334 462.78 395.443 464.063 395.765C473.392 400.865 482.728 405.965 492.058 411.065C481.563 416.203 471.146 421.519 460.808 427.015C459.942 427.45 459.069 427.45 458.203 427.015C448.965 421.635 439.631 416.427 430.209 411.39C440.335 406.22 450.319 400.903 460.157 395.44Z" fill="white"/>
<path d="M169.141 489.841C169.808 490.099 169.916 490.533 169.466 491.143C168.204 492.839 166.577 494.033 164.583 494.724C160.406 495.29 156.282 495.072 152.213 494.072C150.822 493.147 150.062 491.953 149.935 490.492C150.963 491.495 152.157 492.255 153.516 492.771C158.428 493.503 163.202 493.07 167.838 491.469C168.412 491.008 168.846 490.465 169.141 489.841ZM165.885 481.378C169.526 482.11 170.72 484.28 169.466 487.888C165.47 491.51 160.804 492.704 155.469 491.469C153.387 490.917 151.542 489.94 149.935 488.539C149.012 485.716 149.771 483.545 152.213 482.028C152.05 486.748 154.329 488.918 159.049 488.539C164.362 488.978 166.641 486.591 165.885 481.378ZM139.844 442.315C145.738 444.938 151.381 448.085 156.772 451.755C159.815 454.584 162.093 457.949 163.608 461.847C164.15 469.885 164.041 477.914 163.282 485.935C160.715 486.651 158.111 486.76 155.469 486.261L154.493 485.284L153.842 466.403C152.77 462.735 150.707 459.805 147.657 457.614C143.697 455.581 139.899 453.302 136.263 450.778C135.829 449.693 135.829 448.609 136.263 447.523C137.302 445.656 138.497 443.919 139.844 442.315ZM119.011 460.544C120.224 464.302 118.922 466.798 115.105 468.031C108.915 470.382 102.838 470.164 96.8754 467.38L93.9457 464.45C93.6234 463.166 93.515 461.864 93.6205 460.544C100.531 464.859 107.91 465.618 115.756 462.822C116.931 462.189 118.016 461.43 119.011 460.544ZM99.4789 446.872C100.634 449.402 101.177 452.224 101.107 455.336C101.763 456.481 102.74 457.241 104.036 457.614C107.459 458.543 110.389 457.783 112.826 455.336C113.148 454.052 113.256 452.749 113.151 451.43C116.418 451.449 118.589 452.968 119.661 455.986C118.945 458.765 117.21 460.61 114.453 461.521C108.127 464.099 102.051 463.665 96.224 460.219C93.8132 458.008 93.0544 455.294 93.9457 452.08C95.7222 450.193 97.5663 448.457 99.4789 446.872ZM84.5052 448.175C84.64 449.544 84.7494 451.063 84.8314 452.731C86.5938 454.625 88.6547 455.059 91.016 454.033C92.5368 458.457 91.0176 460.085 86.4584 458.916C82.7679 457.083 81.575 454.154 82.8783 450.127C83.5583 449.559 84.1004 448.908 84.5052 448.175ZM102.083 439.711C105.08 440.286 108.119 440.504 111.199 440.362C111.307 445.358 111.198 450.35 110.872 455.336C107.884 457.202 105.063 456.985 102.41 454.685C102.084 449.698 101.975 444.707 102.083 439.711ZM87.7611 448.175C90.2689 448.622 91.3538 450.141 91.016 452.731C86.493 453.43 85.408 451.912 87.7611 448.175ZM89.7142 447.523C91.4746 446.863 92.9939 447.405 94.2719 449.15C93.0069 451.32 92.2465 451.212 91.9926 448.825C91.4613 447.964 90.7018 447.531 89.7142 447.523ZM113.802 427.341C120.472 430.97 126.983 434.877 133.333 439.06C131.208 441.356 129.581 443.961 128.451 446.872C122.48 443.235 116.404 439.762 110.222 436.455C109.095 432.428 110.287 429.39 113.802 427.341ZM71.1586 433.852C72.0564 436.439 71.2976 438.285 68.8802 439.386C63.5346 441.744 58.3262 441.527 53.2552 438.734C52.0332 437.35 51.3822 435.723 51.3021 433.852C52.7865 434.594 54.3064 435.353 55.8597 436.13C59.3316 436.564 62.8039 436.564 66.2758 436.13C68.0309 435.632 69.6586 434.872 71.1586 433.852ZM111.524 421.481C113.02 422.656 113.454 424.175 112.826 426.039C111.064 427.583 109.546 429.318 108.269 431.247C107.624 433.815 107.95 436.202 109.245 438.408C105.526 439.486 102.704 438.401 100.782 435.153C100.567 430.791 100.784 426.452 101.433 422.133C103.617 423.372 105.787 423.588 107.943 422.783C109.158 422.449 110.352 422.015 111.524 421.481ZM57.4867 409.112C60.2145 403.463 64.6642 401.401 70.8334 402.927C72.4584 403.63 73.9782 404.499 75.391 405.531C73.5825 407.226 72.4981 409.288 72.1361 411.716C70.739 411.47 69.3275 411.253 67.9037 411.065C66.8244 411.179 65.957 411.613 65.3002 412.367C64.9749 418.001 64.8654 423.638 64.973 429.28C64.9734 429.285 64.9746 429.289 64.975 429.294C64.0336 430.231 62.8398 430.665 61.3939 430.596C60.4922 430.587 59.7325 430.37 59.1146 429.945C58.4663 430.001 57.9235 429.783 57.4867 429.294C57.0525 422.567 57.0525 415.839 57.4867 409.112ZM59.4066 429.93H59.4076H59.4066ZM59.5443 429.524C59.617 429.557 59.6906 429.589 59.765 429.619H59.766C59.6913 429.589 59.6173 429.557 59.5443 429.524ZM58.1381 428.643C57.8667 424.981 57.7655 421.319 57.8334 417.657C57.8062 419.122 57.8062 420.587 57.8334 422.052C57.8469 422.784 57.8668 423.517 57.8939 424.249C57.9211 424.981 57.9548 425.714 57.9955 426.446C58.0362 427.179 58.0838 427.911 58.1381 428.644C58.3822 428.847 58.6402 429.031 58.9115 429.193V429.192C58.6403 429.03 58.3821 428.846 58.1381 428.643ZM96.224 415.622C97.3015 418.416 98.1703 421.237 98.8285 424.086C98.934 425.406 98.8255 426.708 98.5033 427.992L78.972 416.273C78.5157 412.627 79.9261 410.023 83.2035 408.461C87.5549 410.853 91.8954 413.24 96.224 415.622ZM114.128 415.622C114.562 416.49 114.563 417.359 114.128 418.227C112.263 419.538 110.201 420.406 107.943 420.83C105.464 421.049 103.077 420.724 100.782 419.854C99.1158 418.992 98.6825 417.799 99.4799 416.273C100.505 416.896 101.59 417.33 102.735 417.575C106.758 418.012 110.557 417.361 114.128 415.622ZM79.9486 404.555C81.959 404.475 83.695 405.126 85.1566 406.508C81.3893 406.867 78.6771 409.036 77.0189 413.018C76.3451 416.547 77.7552 418.826 81.2504 419.854C76.5097 420.521 74.1224 418.459 74.0892 413.669C74.0912 409.315 76.0444 406.277 79.9486 404.555ZM112.826 409.763C114.442 410.909 114.768 412.319 113.802 413.994C110.766 415.675 107.51 416.436 104.036 416.273C102.25 415.839 100.622 414.97 99.1537 413.669C98.8347 412.827 98.7263 411.958 98.8285 411.064C99.4678 410.647 100.119 410.214 100.782 409.763C104.799 413.207 108.814 413.207 112.826 409.763ZM57.9955 413.263L57.9965 413.262L57.9955 413.263ZM58.2064 410.794H58.2074H58.2064ZM104.688 401.95C105.183 402.53 105.835 402.964 106.641 403.252C108.095 402.526 109.506 402.526 110.873 403.252C112.461 410.007 109.966 412.177 103.386 409.763C102.633 407.625 102.524 405.454 103.061 403.252C103.708 402.884 104.25 402.449 104.688 401.95ZM58.9388 409.329H58.9398H58.9388ZM100.13 259.372C100.693 260.145 101.344 260.905 102.083 261.65C105.141 261.924 107.963 262.685 110.547 263.93C111.672 263.871 112.757 263.654 113.802 263.278C113.99 262.116 113.99 261.031 113.802 260.023C116.374 262.731 116.374 265.443 113.802 268.161C108.406 268.666 103.741 267.038 99.8051 263.278C99.3637 261.912 99.4721 260.61 100.13 259.372ZM111.199 257.419C111.832 259.013 112.048 260.749 111.849 262.627C110.44 262.877 109.354 262.443 108.594 261.325C108.879 259.551 109.747 258.249 111.199 257.419ZM102.735 256.117C104.209 256.585 105.728 256.802 107.292 256.769V260.675H102.735V256.117ZM111.198 220.961C111.847 232.566 112.064 244.285 111.849 256.117C111.199 256.174 110.44 256.391 109.571 256.769C109.409 256.037 109.083 255.386 108.594 254.815C107.071 255.612 105.552 255.612 104.036 254.815C106.016 254.246 107.969 253.595 109.896 252.862C110.544 249.417 110.761 245.945 110.547 242.445C111.195 235.4 111.411 228.239 111.198 220.961ZM104.688 243.096C108.59 242.218 110.326 243.738 109.896 247.653C109.875 249.124 109.657 250.534 109.245 251.885C107.522 252.208 105.786 252.318 104.036 252.211C103.858 249.11 104.075 246.071 104.688 243.096Z" fill="white"/>
<defs>
<linearGradient id="paint0_linear_1_219" x1="385.573" y1="29.5549" x2="385.573" y2="131.768" gradientUnits="userSpaceOnUse">
<stop stop-color="#00B7FF"/>
<stop offset="1" stop-color="#0EB05C"/>
</linearGradient>
<linearGradient id="paint1_linear_1_219" x1="456.577" y1="85.0088" x2="456.577" y2="209.242" gradientUnits="userSpaceOnUse">
<stop stop-color="#00B7FF"/>
<stop offset="1" stop-color="#0EB05C"/>
</linearGradient>
<linearGradient id="paint2_linear_1_219" x1="456.569" y1="82.9695" x2="456.569" y2="190.362" gradientUnits="userSpaceOnUse">
<stop stop-color="#00B7FF"/>
<stop offset="1" stop-color="#0EB05C"/>
</linearGradient>
<linearGradient id="paint3_linear_1_219" x1="239.767" y1="60.1533" x2="239.767" y2="258.07" gradientUnits="userSpaceOnUse">
<stop stop-color="#00B7FF"/>
<stop offset="1" stop-color="#0EB05C"/>
</linearGradient>
<linearGradient id="paint4_linear_1_219" x1="508.988" y1="127.138" x2="508.988" y2="177.788" gradientUnits="userSpaceOnUse">
<stop stop-color="#00B7FF"/>
<stop offset="1" stop-color="#0EB05C"/>
</linearGradient>
<linearGradient id="paint5_linear_1_219" x1="461.784" y1="20.4404" x2="461.784" y2="229.425" gradientUnits="userSpaceOnUse">
<stop stop-color="#00B7FF"/>
<stop offset="1" stop-color="#0EB05C"/>
</linearGradient>
<linearGradient id="paint6_linear_1_219" x1="508.281" y1="141.533" x2="508.281" y2="159.569" gradientUnits="userSpaceOnUse">
<stop stop-color="#00B7FF"/>
<stop offset="1" stop-color="#0EB05C"/>
</linearGradient>
<linearGradient id="paint7_linear_1_219" x1="238.77" y1="170.83" x2="238.77" y2="246.06" gradientUnits="userSpaceOnUse">
<stop stop-color="#00B7FF"/>
<stop offset="1" stop-color="#0EB05C"/>
</linearGradient>
<linearGradient id="paint8_linear_1_219" x1="310.743" y1="163.669" x2="310.743" y2="286.716" gradientUnits="userSpaceOnUse">
<stop stop-color="#00B7FF"/>
<stop offset="1" stop-color="#0EB05C"/>
</linearGradient>
<linearGradient id="paint9_linear_1_219" x1="279.852" y1="176.69" x2="279.852" y2="183.601" gradientUnits="userSpaceOnUse">
<stop stop-color="#00B7FF"/>
<stop offset="1" stop-color="#0EB05C"/>
</linearGradient>
<linearGradient id="paint10_linear_1_219" x1="386.589" y1="273.044" x2="386.589" y2="362.237" gradientUnits="userSpaceOnUse">
<stop stop-color="#00B7FF"/>
<stop offset="1" stop-color="#0EB05C"/>
</linearGradient>
<linearGradient id="paint11_linear_1_219" x1="351.855" y1="184.502" x2="351.855" y2="467.705" gradientUnits="userSpaceOnUse">
<stop stop-color="#00B7FF"/>
<stop offset="1" stop-color="#0EB05C"/>
</linearGradient>
<linearGradient id="paint12_linear_1_219" x1="372.651" y1="332.939" x2="372.651" y2="338.643" gradientUnits="userSpaceOnUse">
<stop stop-color="#00B7FF"/>
<stop offset="1" stop-color="#0EB05C"/>
</linearGradient>
<linearGradient id="paint13_linear_1_219" x1="389.819" y1="315.362" x2="389.819" y2="321.12" gradientUnits="userSpaceOnUse">
<stop stop-color="#00B7FF"/>
<stop offset="1" stop-color="#0EB05C"/>
</linearGradient>
<linearGradient id="paint14_linear_1_219" x1="342.044" y1="323.825" x2="342.044" y2="329.034" gradientUnits="userSpaceOnUse">
<stop stop-color="#00B7FF"/>
<stop offset="1" stop-color="#0EB05C"/>
</linearGradient>
<linearGradient id="paint15_linear_1_219" x1="341.9" y1="305.596" x2="341.9" y2="310.843" gradientUnits="userSpaceOnUse">
<stop stop-color="#00B7FF"/>
<stop offset="1" stop-color="#0EB05C"/>
</linearGradient>
<linearGradient id="paint16_linear_1_219" x1="377.477" y1="351.008" x2="377.477" y2="356.94" gradientUnits="userSpaceOnUse">
<stop stop-color="#00B7FF"/>
<stop offset="1" stop-color="#0EB05C"/>
</linearGradient>
<linearGradient id="paint17_linear_1_219" x1="298.68" y1="351.82" x2="298.68" y2="388.929" gradientUnits="userSpaceOnUse">
<stop stop-color="#00B7FF"/>
<stop offset="1" stop-color="#0EB05C"/>
</linearGradient>
<linearGradient id="paint18_linear_1_219" x1="361.202" y1="362.888" x2="361.202" y2="465.791" gradientUnits="userSpaceOnUse">
<stop stop-color="#00B7FF"/>
<stop offset="1" stop-color="#0EB05C"/>
</linearGradient>
<linearGradient id="paint19_linear_1_219" x1="110.916" y1="241.739" x2="110.916" y2="497.069" gradientUnits="userSpaceOnUse">
<stop stop-color="#00B7FF"/>
<stop offset="1" stop-color="#0EB05C"/>
</linearGradient>
<linearGradient id="paint20_linear_1_219" x1="326.041" y1="371.351" x2="326.041" y2="501.559" gradientUnits="userSpaceOnUse">
<stop stop-color="#00B7FF"/>
<stop offset="1" stop-color="#0EB05C"/>
</linearGradient>
<linearGradient id="paint21_linear_1_219" x1="225.088" y1="414.971" x2="225.088" y2="465.101" gradientUnits="userSpaceOnUse">
<stop stop-color="#00B7FF"/>
<stop offset="1" stop-color="#0EB05C"/>
</linearGradient>
</defs>
</svg>
