<svg width="600" height="542" viewBox="0 0 600 542" fill="none" xmlns="http://www.w3.org/2000/svg">
<path d="M55.6686 126.011L55.3326 129.598C57.5628 129.784 58.2609 129.791 58.3257 129.731C58.3924 129.674 57.7972 129.576 57.0056 129.514L55.5664 129.398L56.0045 122.424L55.6686 126.011Z" fill="url(#paint0_linear_1_596)"/>
<path d="M55.0307 122.371C54.6378 122.529 54.4146 123.639 54.2103 126.487C54.057 128.63 54.0661 130.549 54.2331 130.745C54.4001 130.94 56.0616 131.2 57.9234 131.318C59.7853 131.436 61.5801 131.528 61.9166 131.521C62.4069 131.511 62.5303 131.385 62.5441 130.87C62.5591 130.312 62.082 130.184 58.9487 129.91L55.3382 129.595C55.7654 124.115 55.8172 122.442 55.7316 122.341C55.6416 122.241 55.3269 122.254 55.0307 122.371Z" fill="url(#paint1_linear_1_596)"/>
<path d="M54.8266 122.132C54.4337 122.29 54.2087 123.451 53.9888 126.469C53.8237 128.734 53.8367 130.744 54.0132 130.932C54.2267 131.159 54.2659 131.057 54.1308 130.625C54.0165 130.269 54.0616 128.283 54.2271 126.212C54.4356 123.621 54.6859 122.392 55.0287 122.277C55.3031 122.183 55.4925 122.066 55.4477 122.014C55.4029 121.961 55.1228 122.015 54.8266 122.132Z" fill="url(#paint2_linear_1_596)"/>
<path d="M73.2883 384.97C73.1754 385.371 73.1251 386.544 73.1785 387.579C73.26 389.22 73.3541 389.461 73.8999 389.461C74.4739 389.461 74.5272 389.251 74.5272 386.955C74.5272 384.879 74.4394 384.433 74.0097 384.348C73.6835 384.283 73.4137 384.515 73.2883 384.97Z" fill="url(#paint3_linear_1_596)"/>
<path d="M75.4992 383.423C75.5682 383.552 76.7539 383.658 78.134 383.658C79.5142 383.658 80.6998 383.552 80.7689 383.423C80.841 383.295 79.6522 383.188 78.134 383.188C76.6159 383.188 75.4271 383.295 75.4992 383.423Z" fill="url(#paint4_linear_1_596)"/>
<path d="M67.0305 383.423C67.0995 383.552 68.2851 383.658 69.6653 383.658C71.0454 383.658 72.2311 383.552 72.3001 383.423C72.3722 383.295 71.1834 383.188 69.6653 383.188C68.1471 383.188 66.9583 383.295 67.0305 383.423Z" fill="url(#paint5_linear_1_596)"/>
<path d="M75.4617 382.47C75.3425 382.692 75.3645 382.981 75.5119 383.113C75.6593 383.244 76.9109 383.317 78.291 383.269C80.2765 383.207 80.8004 383.091 80.8004 382.717C80.8004 382.344 80.2671 382.228 78.2408 382.156C76.3964 382.09 75.6186 382.178 75.4617 382.47Z" fill="url(#paint6_linear_1_596)"/>
<path d="M67.036 382.548C66.9294 382.814 67.0172 383.106 67.2337 383.197C67.4501 383.288 68.6859 383.326 69.9783 383.276C71.8226 383.207 72.3308 383.087 72.3308 382.717C72.3308 382.344 71.7975 382.228 69.7806 382.156C67.723 382.084 67.196 382.159 67.036 382.548Z" fill="url(#paint7_linear_1_596)"/>
<path d="M73.2797 376.5C73.1605 376.902 73.1417 378.075 73.2326 379.11C73.3205 380.145 73.5086 381.105 73.6498 381.24C73.7878 381.378 74.0764 381.306 74.2928 381.083C74.55 380.817 74.6567 379.879 74.6065 378.329C74.5438 376.435 74.4277 375.961 74.0105 375.876C73.6874 375.813 73.4114 376.049 73.2797 376.5Z" fill="url(#paint8_linear_1_596)"/>
<path d="M153.3 356.492C152.438 356.793 145.876 360.406 138.715 364.528C131.554 368.65 125.105 372.461 124.377 372.994C123.624 373.549 122.849 374.471 122.573 375.143C122.197 376.055 122.09 377.614 122.09 382.122C122.09 386.347 122.206 388.201 122.523 388.944C122.758 389.506 123.361 390.337 123.856 390.792C124.352 391.25 130.898 395.177 138.401 399.518C146.848 404.408 152.701 407.601 153.771 407.902C154.95 408.238 156.337 408.351 158.162 408.26C160.311 408.156 161.224 407.943 162.867 407.165C163.99 406.635 170.693 402.858 177.766 398.771C184.84 394.684 191.05 390.923 191.568 390.412L192.509 389.48V374.76C190.809 373.107 184.244 369.098 176.825 364.788C168.893 360.177 162.626 356.737 161.613 356.435C160.618 356.141 158.827 355.93 157.378 355.937C155.847 355.946 154.257 356.163 153.3 356.492Z" fill="url(#paint9_linear_1_596)"/>
<path d="M153.926 357.931C153.236 358.148 148.933 360.485 144.36 363.123C139.786 365.764 133.648 369.311 130.715 371.005C127.782 372.702 125.028 374.462 124.599 374.917C124.134 375.406 123.814 376.112 123.814 376.651C123.814 377.206 124.119 377.859 124.599 378.329C125.031 378.753 131.452 382.63 138.87 386.94C148.588 392.589 152.885 394.919 154.24 395.274C155.275 395.547 156.687 395.769 157.377 395.769C158.067 395.769 159.444 395.556 160.435 395.299C161.68 394.973 166.432 392.407 175.805 387.005C183.267 382.702 189.76 378.822 190.234 378.379C190.761 377.887 191.099 377.238 191.106 376.711C191.112 376.237 190.852 375.494 190.525 375.064C190.199 374.631 188.747 373.59 187.301 372.749C185.852 371.905 179.798 368.383 173.844 364.917C167.891 361.451 162.317 358.367 161.455 358.066C160.485 357.728 158.989 357.524 157.534 357.53C156.238 357.536 154.617 357.718 153.926 357.931Z" fill="white"/>
<path d="M163.848 373.715C163.437 373.791 162.697 374.264 162.201 374.769C161.611 375.371 161.298 376.018 161.298 376.632C161.298 377.294 161.577 377.806 162.239 378.358C162.756 378.787 163.779 379.295 164.513 379.484C165.247 379.672 166.41 379.744 167.1 379.647C167.791 379.546 168.851 379.139 169.453 378.74C170.055 378.342 170.692 377.642 170.864 377.181C171.1 376.557 171.059 376.137 170.708 375.5C170.447 375.033 169.673 374.393 168.982 374.079C168.245 373.747 167.079 373.524 166.159 373.546C165.297 373.565 164.256 373.643 163.848 373.715Z" fill="url(#paint10_linear_1_596)"/>
<path d="M163.839 375.516C163.227 375.779 162.791 376.184 162.819 376.46C162.844 376.727 163.183 377.147 163.572 377.395C163.961 377.639 164.773 377.937 165.376 378.054C166.172 378.21 166.881 378.088 167.963 377.608C168.782 377.244 169.457 376.84 169.463 376.711C169.469 376.582 169.171 376.193 168.798 375.848C168.343 375.425 167.603 375.193 166.514 375.136C165.608 375.089 164.441 375.256 163.839 375.516Z" fill="white"/>
<path d="M146.399 373.875C145.881 374.054 145.138 374.503 144.743 374.87C144.294 375.287 144.037 375.883 144.049 376.476C144.059 376.993 144.238 377.642 144.448 377.918C144.658 378.191 145.326 378.681 145.928 379.001C146.637 379.38 147.694 379.59 148.908 379.597C150.257 379.606 151.101 379.427 151.888 378.966C152.49 378.612 153.187 377.975 153.431 377.555C153.817 376.893 153.817 376.648 153.431 375.748C153.136 375.058 152.562 374.499 151.731 374.104C150.981 373.747 149.843 373.511 148.908 373.524C148.046 373.536 146.916 373.693 146.399 373.875Z" fill="url(#paint11_linear_1_596)"/>
<path d="M146.42 375.541C145.915 375.807 145.526 376.231 145.557 376.485C145.589 376.739 145.931 377.14 146.32 377.379C146.708 377.617 147.414 377.899 147.888 378.006C148.362 378.113 149.35 378.063 150.084 377.893C150.818 377.724 151.627 377.372 151.887 377.109C152.307 376.682 152.279 376.554 151.639 375.926C151.097 375.39 150.494 375.202 149.13 375.136C147.973 375.083 147.013 375.224 146.42 375.541Z" fill="white"/>
<path d="M156.781 363.678C156.659 363.988 156.649 369.888 156.759 376.789C156.869 383.69 157.016 389.512 157.088 389.728C157.161 389.944 157.43 390.051 157.691 389.963C158.102 389.825 158.152 388.103 158.083 376.557C158.014 364.713 157.951 363.298 157.502 363.21C157.226 363.157 156.903 363.367 156.781 363.678Z" fill="url(#paint12_linear_1_596)"/>
<path d="M399.96 239.208C399.528 239.349 394.942 241.934 389.766 244.954C384.591 247.972 376.263 252.815 371.26 255.716C366.257 258.618 355.743 264.731 347.891 269.298C340.04 273.865 327.635 281.076 320.32 285.323C312.387 289.925 306.804 293.36 306.49 293.827C306.199 294.257 302.902 299.799 299.166 306.139C295.399 312.531 292.441 317.876 292.529 318.136C292.651 318.507 293.065 318.572 294.489 318.447C295.481 318.359 301.657 317.998 308.212 317.644C314.815 317.289 320.552 316.841 321.073 316.64C321.59 316.443 330.978 311.066 341.932 304.696C352.885 298.325 363.192 292.34 364.83 291.396C366.467 290.452 374.302 285.901 382.238 281.283C390.174 276.669 400.265 270.807 404.665 268.263C409.066 265.716 413.072 263.266 413.567 262.811C414.063 262.36 414.753 261.356 415.101 260.578C415.562 259.543 415.722 258.536 415.703 256.814C415.688 255.519 415.456 253.649 415.189 252.658C414.922 251.667 414.226 249.901 413.643 248.737C413.059 247.573 412.102 245.986 411.513 245.208C410.926 244.43 409.813 243.201 409.044 242.473C408.276 241.745 406.798 240.704 405.763 240.155C404.568 239.525 403.31 239.123 402.313 239.057C401.45 239.001 400.393 239.067 399.96 239.208Z" fill="url(#paint13_linear_1_596)"/>
<path d="M309.937 293.404C309.677 293.488 309.134 293.727 308.727 293.928C308.281 294.15 306.91 296.117 305.301 298.846C303.824 301.346 301.795 304.771 300.788 306.452L298.959 309.511C301.202 312.55 302.19 314.103 302.601 314.921L303.35 316.411C306.39 316.173 310.166 315.947 313.701 315.759C318.695 315.496 320.342 315.301 321.073 314.887C321.59 314.595 322.293 313.795 322.632 313.108C323.096 312.177 323.243 311.267 323.221 309.511C323.199 307.836 322.951 306.481 322.365 304.806C321.91 303.51 321.082 301.688 320.521 300.75C319.962 299.812 318.657 298.175 317.622 297.108C316.587 296.042 315.034 294.815 314.172 294.386C313.309 293.953 312.108 293.52 311.506 293.426C310.903 293.329 310.198 293.319 309.937 293.404ZM388.163 248.035C387.664 248.144 385.914 249.013 384.277 249.964C382.639 250.914 369.158 258.75 354.321 267.379C339.485 276.005 323.958 285.016 319.818 287.403L312.29 291.741C314.479 292.519 315.878 293.307 316.816 293.993C317.754 294.677 319.206 296.086 320.047 297.121C320.888 298.156 322.13 300.132 322.81 301.512C323.491 302.892 324.278 304.937 324.557 306.06C324.884 307.365 325.025 308.965 324.953 310.502C324.877 312.07 324.946 312.82 325.15 312.663C325.323 312.528 331.251 309.062 338.324 304.959C345.398 300.857 358.879 293.024 368.28 287.557C377.68 282.087 388.74 275.65 392.852 273.251C400.001 269.082 400.355 268.828 400.98 267.479C401.532 266.281 401.607 265.663 401.466 263.401C401.353 261.538 401.052 260.12 400.471 258.696C400.017 257.573 399.185 255.902 398.624 254.973C398.066 254.048 396.867 252.533 395.961 251.601C395.054 250.673 393.715 249.569 392.981 249.148C392.247 248.725 391.068 248.257 390.359 248.107C389.65 247.959 388.662 247.925 388.163 248.035Z" fill="white"/>
<path d="M355.223 124.992C355.101 125.093 355.022 125.685 355.051 126.303C355.079 127.012 355.59 128.235 356.434 129.622C357.623 131.57 357.773 132.034 357.773 133.718C357.773 135.425 357.645 135.811 356.519 137.445C355.32 139.183 355.264 139.374 355.264 141.686C355.264 143.979 355.33 144.201 356.497 145.961C357.394 147.307 357.773 148.244 357.883 149.383C358.018 150.813 357.902 151.174 356.566 153.461C355.267 155.688 355.101 156.18 355.101 157.852C355.098 159.502 355.258 160.004 356.406 161.93C357.124 163.137 357.795 164.656 357.899 165.308C358.034 166.155 358.241 166.487 358.636 166.484C358.937 166.481 359.2 166.302 359.219 166.086C359.235 165.87 359.222 165.27 359.185 164.753C359.15 164.235 358.818 163.275 358.448 162.617C358.077 161.961 357.453 160.832 357.064 160.107C356.675 159.386 356.362 158.37 356.365 157.852C356.371 157.335 356.657 156.347 356.998 155.656C357.34 154.966 357.93 153.906 358.31 153.304C358.689 152.702 359.094 151.641 359.207 150.951C359.323 150.261 359.295 149.098 359.144 148.364C358.993 147.63 358.341 146.231 357.695 145.255C356.682 143.724 356.519 143.229 356.519 141.698C356.519 140.18 356.685 139.672 357.648 138.22C358.269 137.288 358.887 136.168 359.018 135.738C359.153 135.306 359.244 134.176 359.226 133.229C359.194 131.802 358.971 131.153 357.933 129.465C357.243 128.342 356.572 126.896 356.44 126.247C356.312 125.598 356.032 125.008 355.825 124.936C355.615 124.864 355.345 124.889 355.223 124.992Z" fill="url(#paint14_linear_1_596)"/>
<path d="M161.107 45.1694C160.998 45.4172 160.95 46.6625 161.004 47.9391C161.079 49.7521 161.205 50.2634 161.572 50.2634C161.951 50.2634 162.042 49.7615 162.042 47.6223C162.042 45.8908 161.917 44.9373 161.675 44.8526C161.474 44.7805 161.217 44.9247 161.107 45.1694Z" fill="url(#paint15_linear_1_596)"/>
<path d="M163.184 42.9574C162.905 43.2648 162.911 43.4562 163.216 43.7542C163.476 44.0114 164.407 44.118 165.963 44.0678C168.081 43.9957 168.316 43.9267 168.316 43.3621C168.316 42.7975 168.077 42.7253 165.932 42.6438C164.285 42.581 163.435 42.6783 163.184 42.9574Z" fill="url(#paint16_linear_1_596)"/>
<path d="M154.756 43.0457C154.624 43.3186 154.656 43.6794 154.828 43.8487C155.001 44.0181 156.202 44.1185 157.494 44.0746C159.608 43.9993 159.847 43.9272 159.847 43.3626C159.847 42.7979 159.608 42.7258 157.422 42.6443C155.462 42.569 154.95 42.6474 154.756 43.0457Z" fill="url(#paint17_linear_1_596)"/>
<path d="M161.107 36.7002C160.998 36.948 160.95 38.1932 161.004 39.4699C161.079 41.2829 161.205 41.7941 161.572 41.7941C161.951 41.7941 162.042 41.2923 162.042 39.1531C162.042 37.4216 161.917 36.468 161.675 36.3834C161.474 36.3112 161.217 36.4555 161.107 36.7002Z" fill="url(#paint18_linear_1_596)"/>
<path d="M388.433 34.7367C387.872 35.0817 387.182 35.822 386.896 36.3835C386.611 36.9449 386.375 37.9675 386.375 38.6576C386.375 39.3571 386.661 40.3953 387.022 41.0101C387.376 41.6155 388.138 42.3714 388.715 42.6976C389.531 43.1525 390.155 43.2466 391.491 43.1117C392.944 42.9674 393.389 42.7604 394.314 41.8131C395.343 40.756 395.412 40.5553 395.412 38.6293C395.412 36.6125 395.387 36.5497 394.079 35.3421C392.881 34.2317 392.58 34.1094 391.099 34.1094C390.002 34.1115 389.113 34.3206 388.433 34.7367Z" fill="url(#paint19_linear_1_596)"/>
<path d="M388.832 36.4462C388.11 37.083 387.969 37.45 388.007 38.5635C388.041 39.5735 388.267 40.1318 388.91 40.7811C389.553 41.4336 390.064 41.65 390.968 41.6437C391.884 41.6406 392.386 41.4147 393.085 40.6964C393.744 40.0189 394.001 39.448 394.001 38.6576C394.001 37.9456 393.725 37.2273 393.217 36.6187C392.564 35.8377 392.201 35.6777 391.068 35.6777C390.068 35.6777 389.472 35.8816 388.832 36.4462Z" fill="white"/>
<path d="M293.626 20.7346C292.679 21.1361 288.373 23.5074 284.06 26.0074C279.747 28.5042 264.644 37.2336 250.497 45.4015C236.351 53.5726 221.175 62.3302 216.778 64.8678C212.38 67.4054 197.983 75.7176 184.784 83.3429C171.584 90.9682 160.296 97.6306 159.69 98.1544C159.085 98.6751 157.918 99.8984 157.096 100.874C156.271 101.849 154.979 103.844 154.226 105.312C153.47 106.78 152.592 108.756 152.272 109.704C151.723 111.335 151.682 113.609 151.535 151.917L151.378 192.406C137.765 184.476 133.599 182.215 133.342 182.265C133.085 182.318 121.366 189.043 107.308 197.211C93.2489 205.382 77.8352 214.334 73.0581 217.11L64.3726 222.154C64.2001 255.281 64.2722 262.131 64.4855 262.413C64.6612 262.646 66.0413 263.527 67.5501 264.374C69.0588 265.218 70.2602 265.974 70.2162 266.052C70.1723 266.13 68.8675 266.946 67.3148 267.865L64.4918 269.537C64.1687 300.151 64.1311 309.25 64.2001 309.511C64.2691 309.771 67.2584 311.669 70.8404 313.73C74.4225 315.79 78.977 318.413 80.9594 319.555C82.9418 320.696 90.1405 324.856 96.9565 328.798C103.772 332.738 111.288 337.07 113.659 338.422L117.972 340.878C144.226 325.561 151.924 321.223 152.015 321.352C152.106 321.48 152.178 322.362 152.175 323.312C152.171 324.482 152.407 325.542 152.909 326.606C153.313 327.468 153.984 328.485 154.395 328.861C154.806 329.241 159.163 331.891 164.081 334.752C168.997 337.612 173.586 340.1 174.276 340.279C175.16 340.511 175.991 340.504 177.099 340.26C177.961 340.072 179.301 339.582 180.079 339.181C180.856 338.776 192.431 332.126 205.799 324.401C219.171 316.678 233.214 308.57 237.009 306.38C240.805 304.194 253.157 297.064 264.455 290.537C275.754 284.01 287.19 277.407 289.862 275.864C292.535 274.32 298.454 270.92 303.011 268.307C309.473 264.603 311.778 263.11 313.482 261.519C314.683 260.397 316.239 258.634 316.938 257.599C317.638 256.564 318.607 254.835 319.093 253.756C319.579 252.677 320.185 250.914 320.442 249.835C320.843 248.145 320.9 241.532 320.869 201.609C320.847 176.161 320.737 128.383 320.624 95.4317C320.436 40.1758 320.379 35.4112 319.887 34.1094C319.595 33.3315 318.896 32.2588 318.331 31.7256C317.77 31.1892 313.78 28.7049 309.467 26.2018C305.154 23.7019 300.919 21.2804 300.057 20.8224C298.953 20.239 298.024 19.9943 296.92 20.0006C296.001 20.0069 294.637 20.3111 293.626 20.7346Z" fill="url(#paint20_linear_1_596)"/>
<path d="M137.421 290.405C133.886 292.479 128.271 295.753 124.946 297.686L118.902 301.199C118.911 330.006 118.949 338.372 118.993 338.378C119.037 338.384 123.234 335.969 128.324 333.014C133.415 330.059 140.786 325.787 144.707 323.516L151.837 319.391C151.846 302.011 151.777 296.964 151.693 296.964C151.608 296.964 150.049 297.845 148.23 298.924C145.554 300.512 144.855 300.806 144.544 300.477C144.265 300.176 144.19 298.307 144.265 293.341C144.321 289.64 144.249 286.619 144.108 286.626C143.967 286.632 140.956 288.335 137.421 290.405ZM149.026 283.655C147.734 284.427 146.498 285.233 146.282 285.443C145.987 285.732 145.909 287.378 145.968 291.98L146.047 298.131L151.693 294.875C151.821 285.07 151.752 282.228 151.621 282.237C151.489 282.247 150.322 282.883 149.026 283.655ZM145.655 277.47L139.933 280.81C144.086 283.241 145.291 283.759 145.576 283.63C145.833 283.517 147.352 282.658 148.948 281.723L151.85 280.026C151.85 275.409 151.743 274.079 151.614 274.098C151.486 274.113 148.804 275.631 145.655 277.47ZM65.8103 289.132C65.7758 298.786 65.7476 307.199 65.7476 307.826V308.965C95.1602 325.953 106.631 332.569 110.21 334.626C113.789 336.684 116.791 338.368 116.875 338.368C116.96 338.368 117.032 329.968 117.032 319.705V301.042C111.562 297.93 104.893 294.094 98.6827 290.509C92.4721 286.924 84.2163 282.162 80.3331 279.929C76.4531 277.692 71.61 274.897 69.5743 273.718L65.8762 271.576L65.8103 289.132Z" fill="white"/>
<path d="M131.598 246.313L119.071 253.653C118.829 282.601 118.791 291.005 118.835 291.005C118.879 291.005 122.267 289.072 126.363 286.714C130.46 284.355 137.834 280.079 142.753 277.216L151.692 272.006C151.846 250.253 151.818 249.61 151.3 249.782C150.999 249.886 149.587 250.66 148.163 251.507C146.739 252.357 145.293 253.051 144.948 253.051C144.343 253.051 144.318 252.809 144.224 246.012L144.13 238.973L131.598 246.313ZM148.577 236.476L145.779 238.076L145.886 250.855L151.523 247.561C151.532 237.715 151.498 234.861 151.454 234.867C151.413 234.87 150.117 235.595 148.577 236.476Z" fill="white"/>
<path d="M65.9318 241.19C65.9129 250.56 65.8094 258.931 65.7028 259.794L65.5083 261.362C74.6862 266.673 80.3166 269.935 83.9395 272.04C87.5623 274.141 95.2535 278.586 101.034 281.914C106.815 285.245 112.74 288.655 114.208 289.495C115.676 290.333 116.909 291.017 116.953 291.013C116.997 291.007 117.031 282.604 117.031 272.341V253.677C112.533 251.071 105.655 247.097 98.8387 243.166C92.0227 239.233 81.932 233.408 76.4114 230.218C70.8908 227.031 66.2831 224.362 66.1701 224.287C66.0604 224.214 65.9506 231.821 65.9318 241.19Z" fill="white"/>
<path d="M79.4973 215.172C70.1374 220.592 66.9945 222.559 67.2642 222.816C67.465 223.008 73.3431 226.455 80.3317 230.476C87.3202 234.494 94.66 238.732 96.6424 239.886C98.6248 241.044 104.133 244.218 108.875 246.941C113.621 249.663 117.643 251.947 117.815 252.016C117.988 252.085 122.928 249.356 128.793 245.953C134.659 242.549 140.34 239.259 141.419 238.644C142.498 238.029 143.275 237.44 143.144 237.339C143.015 237.236 134.512 232.308 124.245 226.386C113.979 220.464 102.583 213.88 98.9165 211.75C95.2497 209.623 92.2165 207.879 92.1726 207.879C92.1287 207.876 86.4262 211.16 79.4973 215.172Z" fill="white"/>
<path d="M100.232 203.124C97.1171 204.965 94.5199 206.612 94.4634 206.785C94.4038 206.957 95.4703 207.745 96.8316 208.532C98.1961 209.322 109.403 215.8 121.737 222.929C134.07 230.062 144.377 236.031 144.635 236.201C144.983 236.426 145.93 236.031 148.314 234.664L151.523 232.819L151.379 225.677C116.618 205.574 106.383 199.746 106.21 199.755C106.038 199.768 103.347 201.283 100.232 203.124Z" fill="white"/>
<path d="M120.639 191.245C113.911 195.181 108.425 198.525 108.447 198.672C108.472 198.82 110.73 200.222 113.466 201.787C116.204 203.352 125.818 208.892 134.833 214.099C143.848 219.306 151.294 223.565 151.379 223.565C151.463 223.565 151.529 216.966 151.523 208.901L151.51 194.237C137.797 186.351 133.6 184.065 133.343 184.074C133.086 184.081 127.367 187.308 120.639 191.245Z" fill="white"/>
<path d="M153.335 182.236C153.372 184.868 153.41 188.434 153.413 190.16L153.416 193.296C161.318 197.863 164.633 199.805 165.885 200.558C167.136 201.307 168.231 201.922 168.316 201.922C168.4 201.922 168.472 198.359 168.472 194.002V186.082C157.413 179.667 153.987 177.726 153.73 177.628C153.322 177.472 153.269 178.09 153.335 182.236Z" fill="white"/>
<path d="M282.962 48.6318C281.322 49.5446 277.087 51.9661 273.552 54.0081C270.017 56.0532 263.665 59.7263 259.437 62.1729C255.209 64.6195 247.869 68.8604 243.126 71.5924C238.38 74.3245 229.632 79.3745 223.679 82.8092C217.725 86.247 212.387 89.5029 211.81 90.0487C211.236 90.5945 210.392 91.6735 209.937 92.4514C209.482 93.2293 208.921 94.4275 208.685 95.1176C208.344 96.1213 208.265 99.8885 208.284 113.859C208.297 123.476 208.4 131.594 208.513 131.895C208.626 132.196 208.943 132.695 209.219 133.003C209.495 133.31 210.11 133.558 210.583 133.551C211.057 133.545 211.976 133.275 212.622 132.949C213.268 132.623 219.727 128.931 226.972 124.747C234.218 120.562 246.147 113.681 253.477 109.452C260.811 105.224 270.833 99.4556 275.748 96.6326C282.667 92.6647 284.995 91.1685 286.049 90.0173C286.795 89.1987 287.783 87.7526 288.244 86.8054L289.079 85.0802V48.5879C287.852 47.3082 287.168 46.9568 286.726 46.96C286.296 46.9663 284.603 47.7159 282.962 48.6318Z" fill="white"/>
<path d="M225.878 97.0722C224.811 97.6117 223.673 98.537 222.882 99.5094C222.18 100.372 221.295 101.89 220.916 102.881C220.505 103.96 220.225 105.41 220.219 106.489C220.213 107.856 220.385 108.556 220.937 109.39C221.411 110.108 222.038 110.588 222.747 110.776C223.553 110.99 224.203 110.933 225.247 110.563C226.025 110.284 227.33 109.415 228.149 108.628C228.983 107.825 230.053 106.332 230.58 105.234C231.097 104.155 231.615 102.568 231.731 101.705C231.878 100.604 231.79 99.7164 231.436 98.7252C231.053 97.6556 230.661 97.182 229.814 96.7648C229.199 96.4637 228.45 96.2127 228.149 96.2096C227.848 96.2096 226.825 96.5954 225.878 97.0722ZM271.827 70.4762C271.137 70.8118 269.945 71.7622 269.177 72.5935C268.408 73.4247 267.426 74.8801 266.993 75.8274C266.545 76.8186 266.153 78.3524 266.077 79.4346C265.977 80.8398 266.093 81.6271 266.532 82.5493C266.94 83.3994 267.464 83.9169 268.22 84.2243C269.148 84.5976 269.534 84.6007 270.723 84.2463C271.595 83.9828 272.762 83.2362 273.809 82.2576C274.823 81.3166 275.864 79.9365 276.416 78.8072C276.921 77.7721 277.423 76.1473 277.526 75.2C277.633 74.2214 277.561 72.9667 277.36 72.2986C277.125 71.5301 276.648 70.9059 275.983 70.495C275.422 70.1531 274.54 69.8708 274.023 69.8677C273.505 69.8677 272.517 70.1406 271.827 70.4762Z" fill="url(#paint21_linear_1_596)"/>
<path d="M311.597 31.9326C311.217 32.1114 308.394 33.6892 305.323 35.4363C302.256 37.1866 297.202 40.088 294.097 41.8853C290.992 43.6826 288.382 45.2102 288.294 45.2729C288.21 45.3388 288.526 45.6776 289 46.0258C289.474 46.3708 290.057 47.0452 290.299 47.5188C290.65 48.2152 290.753 51.8569 290.838 66.5742C290.942 84.6165 290.939 84.7827 290.264 86.4922C289.891 87.4395 288.972 89.0643 288.225 90.0994C287.363 91.2913 286.177 92.4205 284.991 93.1828C283.963 93.8446 271.617 101.021 257.555 109.133C243.493 117.244 227.756 126.334 222.581 129.333C217.405 132.332 212.606 134.942 211.916 135.133C211.226 135.321 210.31 135.384 209.877 135.271C209.447 135.155 207.471 134.132 205.486 132.997C203.5 131.858 201.421 130.6 200.859 130.196C200.298 129.794 199.639 129.076 199.394 128.602C199.04 127.915 198.896 124.65 198.689 112.448C198.544 104.039 198.34 97.1914 198.231 97.2354C198.121 97.2793 193.755 99.7823 188.526 102.803C181.816 106.677 178.473 108.8 177.162 110.017C176.139 110.965 174.652 112.731 173.856 113.938C173.062 115.146 171.983 117.191 171.462 118.486L170.512 120.839C170.653 293.937 170.797 333.485 170.992 334.526C171.202 335.668 171.61 336.518 172.315 337.292C172.877 337.91 173.83 338.544 174.433 338.704C175.035 338.864 176.026 338.905 176.628 338.792C177.231 338.682 178.291 338.312 178.981 337.97C179.671 337.631 183.059 335.721 186.509 333.726C189.959 331.734 194.9 328.88 197.487 327.387C200.075 325.891 210.872 319.655 221.483 313.526C232.094 307.4 249.032 297.62 259.123 291.792C269.214 285.964 281.638 278.793 286.726 275.857C291.817 272.921 299.367 268.564 303.507 266.174C310.314 262.247 311.261 261.595 313.388 259.396C315.097 257.624 316.101 256.231 317.067 254.299C317.798 252.837 318.623 250.723 318.902 249.6C319.366 247.731 319.385 238.782 319.131 141.541C318.877 44.7523 318.808 35.4269 318.344 34.4231C318.065 33.8178 317.456 32.9709 316.995 32.5411C316.314 31.9044 315.79 31.7413 314.222 31.6817C313.159 31.6409 311.979 31.7538 311.597 31.9326Z" fill="white"/>
<path d="M206.741 263.053C205.793 263.36 204.31 263.972 203.447 264.414C202.584 264.853 200.963 265.892 199.84 266.714C198.717 267.538 196.989 269.035 195.997 270.042C195.006 271.048 193.435 272.893 192.506 274.144C191.578 275.396 190.169 277.548 189.382 278.928C188.592 280.308 187.5 282.566 186.954 283.946C186.405 285.327 185.637 287.726 185.248 289.279C184.856 290.832 184.439 293.303 184.323 294.768C184.197 296.302 184.25 298.331 184.445 299.552C184.63 300.715 185.057 302.409 185.389 303.316C185.728 304.238 186.669 305.721 187.531 306.687C188.554 307.832 189.642 308.664 190.769 309.159C191.703 309.567 193.247 309.972 194.194 310.056C195.263 310.154 196.694 310.016 197.958 309.696C199.081 309.41 200.844 308.78 201.879 308.293C202.914 307.81 204.89 306.565 206.27 305.527C207.65 304.489 209.604 302.738 210.611 301.634C211.618 300.533 213.186 298.573 214.093 297.277C214.999 295.985 216.248 294.009 216.869 292.886C217.487 291.763 218.443 289.718 218.992 288.338C219.544 286.958 220.335 284.489 220.755 282.849C221.345 280.534 221.517 279.028 221.527 276.105C221.536 273.153 221.401 271.902 220.896 270.302C220.542 269.179 219.852 267.629 219.363 266.852C218.876 266.074 217.989 265.06 217.393 264.599C216.797 264.135 215.674 263.467 214.896 263.116C213.842 262.636 212.851 262.476 210.975 262.485C209.451 262.492 207.788 262.714 206.741 263.053Z" fill="url(#paint22_linear_1_596)"/>
<path d="M207.212 264.487C206.522 264.703 205.251 265.24 204.389 265.676C203.526 266.115 201.973 267.096 200.938 267.865C199.903 268.63 198.225 270.092 197.209 271.111C196.193 272.134 194.762 273.743 194.031 274.694C193.297 275.641 192.068 277.476 191.299 278.771C190.531 280.064 189.468 282.112 188.941 283.319C188.414 284.527 187.749 286.221 187.46 287.083C187.171 287.946 186.742 289.499 186.506 290.534C186.271 291.569 185.983 293.404 185.87 294.611C185.747 295.885 185.816 297.861 186.036 299.317C186.246 300.697 186.742 302.532 187.143 303.394C187.545 304.257 188.52 305.562 189.308 306.296C190.311 307.227 191.29 307.782 192.548 308.14C193.762 308.482 194.888 308.585 195.998 308.454C196.905 308.344 198.598 307.892 199.762 307.45C200.926 307.008 202.867 305.988 204.075 305.185C205.283 304.382 207.337 302.663 208.639 301.365C209.944 300.066 211.754 297.943 212.663 296.65C213.573 295.355 214.934 293.169 215.687 291.788C216.443 290.408 217.622 287.585 218.312 285.515C219.125 283.065 219.68 280.685 219.896 278.693C220.135 276.5 220.132 274.948 219.884 273.204C219.693 271.867 219.219 270.067 218.833 269.204C218.447 268.342 217.782 267.212 217.353 266.695C216.923 266.177 215.806 265.365 214.872 264.888C213.432 264.154 212.811 264.026 210.819 264.057C209.527 264.076 207.902 264.27 207.212 264.487Z" fill="white"/>
<path d="M205.521 285.358C203.259 289.326 201.302 292.57 201.173 292.567C201.045 292.56 199.843 291.927 198.507 291.155C197.171 290.38 195.866 289.75 195.606 289.75C195.345 289.75 195.135 289.998 195.138 290.299C195.141 290.666 196.205 291.447 198.353 292.664C201.405 294.389 201.59 294.449 202.07 293.918C202.346 293.608 204.429 290.145 206.697 286.221C208.965 282.297 210.818 278.875 210.818 278.615C210.818 278.354 210.552 278.144 210.226 278.144C209.78 278.144 208.61 279.938 205.521 285.358Z" fill="url(#paint23_linear_1_596)"/>
<path d="M269.004 255.729C256.066 263.213 242.383 271.143 238.601 273.348C234.815 275.556 231.675 277.535 231.621 277.752C231.565 277.968 231.731 278.216 231.992 278.3C232.252 278.388 236.803 275.964 242.107 272.915C247.412 269.869 259.234 263.05 268.377 257.768C277.521 252.482 286.943 247.037 289.318 245.663C292.279 243.954 293.634 242.997 293.631 242.621C293.627 242.298 293.402 242.081 293.078 242.097C292.777 242.109 281.943 248.245 269.004 255.729ZM282.335 231.031C270.174 238.06 254.504 247.115 247.518 251.159C240.533 255.202 234.147 258.869 233.331 259.308C232.515 259.747 231.769 260.318 231.675 260.578C231.581 260.838 231.684 261.146 231.904 261.262C232.126 261.378 232.657 261.287 233.089 261.061C233.519 260.832 242.06 255.923 252.066 250.152C262.072 244.38 278.022 235.177 287.511 229.697C296.999 224.221 304.954 219.575 305.189 219.378C305.424 219.18 305.531 218.841 305.424 218.625C305.321 218.408 305.057 218.236 304.841 218.242C304.625 218.245 294.496 224.001 282.335 231.031ZM208.466 206.605C207.776 206.749 206.224 207.279 205.016 207.781C203.809 208.283 201.905 209.315 200.782 210.071C199.659 210.827 197.541 212.656 196.073 214.133C194.602 215.614 192.504 218.164 191.409 219.801C190.311 221.442 189.022 223.559 188.542 224.506C188.062 225.457 187.222 227.361 186.673 228.741C186.124 230.121 185.412 232.379 185.092 233.759C184.775 235.14 184.421 237.329 184.308 238.621C184.192 239.917 184.254 242.069 184.443 243.405C184.631 244.741 185.061 246.576 185.396 247.482C185.732 248.389 186.613 249.819 187.357 250.663C188.097 251.504 189.27 252.517 189.96 252.912C190.65 253.307 192.096 253.784 193.175 253.969C194.731 254.236 195.606 254.208 197.41 253.831C198.661 253.571 200.531 252.962 201.566 252.479C202.601 251.993 204.295 251.03 205.33 250.334C206.365 249.637 208.385 247.881 209.822 246.432C211.258 244.983 213.253 242.595 214.257 241.131C215.261 239.666 216.716 237.194 217.491 235.641C218.269 234.089 219.257 231.83 219.69 230.623C220.126 229.415 220.718 227.298 221.013 225.918C221.317 224.497 221.553 221.981 221.559 220.115C221.565 217.951 221.383 216.122 221.026 214.782C220.728 213.66 220.151 212.179 219.743 211.489C219.338 210.799 218.469 209.71 217.814 209.074C217.158 208.434 215.988 207.628 215.21 207.276C214.432 206.928 212.883 206.574 211.76 206.492C210.637 206.411 209.157 206.461 208.466 206.605Z" fill="url(#paint24_linear_1_596)"/>
<path d="M208.623 208.211C207.845 208.371 206.082 209.049 204.702 209.714C203.322 210.376 201.098 211.79 199.761 212.851C198.425 213.914 196.449 215.843 195.37 217.138C194.291 218.437 192.629 220.73 191.678 222.236C190.725 223.744 189.404 226.247 188.745 227.8C188.087 229.353 187.193 231.966 186.757 233.603C186.148 235.896 185.96 237.414 185.935 240.19C185.91 242.878 186.048 244.277 186.478 245.679C186.794 246.714 187.368 248.057 187.751 248.659C188.134 249.264 188.927 250.162 189.517 250.654C190.104 251.15 191.082 251.761 191.685 252.015C192.293 252.269 193.758 252.476 194.978 252.48C196.502 252.48 197.798 252.257 199.213 251.746C200.335 251.338 202.089 250.513 203.108 249.911C204.131 249.308 206.367 247.477 208.077 245.836C209.931 244.061 211.963 241.714 213.105 240.033C214.159 238.481 215.693 235.799 216.511 234.073C217.327 232.348 218.362 229.666 218.807 228.114C219.253 226.561 219.752 224.093 219.912 222.625C220.103 220.896 220.093 219.077 219.883 217.449C219.698 216.003 219.206 214.155 218.72 213.092C218.24 212.041 217.333 210.765 216.621 210.131C215.931 209.523 214.909 208.836 214.347 208.61C213.786 208.381 212.587 208.133 211.681 208.058C210.774 207.979 209.4 208.048 208.623 208.211Z" fill="white"/>
<path d="M204.51 224.199C203.409 226.621 202.471 228.597 202.428 228.591C202.384 228.588 201.22 228.02 199.84 227.33C198.46 226.64 197.189 226.147 197.017 226.232C196.844 226.317 196.703 226.599 196.703 226.859C196.703 227.135 197.748 227.854 199.212 228.584C200.593 229.275 201.722 229.98 201.722 230.153C201.722 230.325 200.727 232.618 199.514 235.25C198.3 237.882 197.381 240.209 197.475 240.425C197.569 240.642 197.82 240.821 198.036 240.821C198.253 240.824 199.451 238.565 200.702 235.802C201.954 233.042 203.083 230.777 203.212 230.774C203.34 230.771 204.604 231.373 206.016 232.107C207.801 233.035 208.701 233.349 208.952 233.133C209.153 232.96 209.231 232.643 209.128 232.427C209.021 232.211 207.807 231.47 206.427 230.78C205.047 230.09 203.917 229.384 203.917 229.212C203.917 229.039 204.764 227.063 205.8 224.82C206.835 222.578 207.682 220.533 207.682 220.272C207.682 220.012 207.418 219.802 207.098 219.802C206.653 219.802 206.041 220.84 204.51 224.199Z" fill="url(#paint25_linear_1_596)"/>
<path d="M289.079 188.249C287.181 189.347 280.265 193.343 273.709 197.129C267.154 200.912 255.228 207.794 247.204 212.418C239.181 217.041 232.337 221.094 231.991 221.423C231.452 221.934 231.43 222.057 231.835 222.298C232.139 222.48 232.635 222.405 233.246 222.085C233.764 221.812 242.656 216.699 253.007 210.717C263.358 204.739 276.727 197.032 282.715 193.591C290.397 189.178 293.605 187.174 293.615 186.788C293.621 186.468 293.398 186.242 293.078 186.242C292.777 186.245 290.977 187.148 289.079 188.249ZM277.63 177.789C263.051 186.226 246.696 195.683 241.279 198.807C235.865 201.932 231.455 204.614 231.477 204.773C231.502 204.93 231.769 205.147 232.07 205.257C232.387 205.369 233.149 205.147 233.874 204.733C234.564 204.334 240.423 200.95 246.891 197.211C253.362 193.472 265.215 186.625 273.239 181.998C281.263 177.368 290.506 172.039 293.784 170.151C297.062 168.262 301.049 165.957 302.645 165.028C304.258 164.091 305.5 163.165 305.443 162.949C305.387 162.732 305.07 162.532 304.737 162.5C304.405 162.469 292.21 169.348 277.63 177.789ZM207.447 150.973C206.54 151.218 204.847 151.898 203.683 152.485C202.519 153.068 200.719 154.179 199.684 154.953C198.649 155.728 196.745 157.482 195.449 158.852C194.157 160.223 192.294 162.532 191.315 163.987C190.333 165.443 188.824 168.118 187.959 169.928C187.096 171.741 186.023 174.492 185.575 176.045C185.126 177.597 184.609 180.21 184.421 181.847C184.173 184.034 184.176 185.539 184.436 187.493C184.656 189.121 185.139 190.894 185.675 192.042C186.158 193.077 186.986 194.419 187.51 195.022C188.037 195.624 189.226 196.543 190.154 197.06C191.735 197.942 192.052 198.001 195.135 197.992C198.087 197.983 198.655 197.885 200.625 197.042C201.832 196.521 203.934 195.326 205.292 194.385C206.653 193.441 208.843 191.54 210.157 190.16C211.471 188.779 213.247 186.662 214.1 185.455C214.956 184.247 216.252 182.13 216.979 180.75C217.707 179.369 218.717 177.183 219.225 175.888C219.733 174.595 220.467 172.196 220.856 170.555C221.38 168.35 221.562 166.638 221.559 163.968C221.556 161.315 221.396 159.865 220.96 158.479C220.634 157.444 219.922 155.891 219.379 155.029C218.836 154.166 217.782 153.018 217.036 152.479C216.292 151.939 215.009 151.268 214.191 150.989C213.372 150.709 211.888 150.49 210.897 150.502C209.906 150.512 208.353 150.725 207.447 150.973Z" fill="url(#paint26_linear_1_596)"/>
<path d="M207.76 152.523C206.853 152.78 205.301 153.398 204.31 153.896C203.318 154.395 201.659 155.433 200.624 156.208C199.589 156.983 197.701 158.727 196.43 160.085C195.16 161.443 193.369 163.686 192.453 165.066C191.534 166.446 190.147 168.915 189.373 170.555C188.595 172.196 187.594 174.806 187.146 176.358C186.697 177.911 186.176 180.452 185.982 182.004C185.725 184.097 185.728 185.477 185.991 187.337C186.227 188.993 186.697 190.533 187.372 191.872C188.03 193.177 188.865 194.263 189.724 194.931C190.458 195.498 191.587 196.104 192.233 196.273C192.88 196.446 194.257 196.584 195.292 196.581C196.424 196.577 197.986 196.295 199.212 195.869C200.335 195.476 202.453 194.369 203.918 193.403C205.433 192.406 207.666 190.511 209.093 189.015C210.473 187.569 212.405 185.185 213.387 183.723C214.369 182.262 215.815 179.686 216.602 178.005C217.39 176.324 218.371 173.783 218.789 172.359C219.203 170.935 219.692 168.432 219.871 166.791C220.065 165.041 220.097 162.971 219.946 161.773C219.805 160.65 219.466 159.028 219.187 158.165C218.905 157.287 218.092 155.923 217.339 155.063C216.599 154.223 215.429 153.247 214.739 152.899C213.983 152.519 212.672 152.225 211.446 152.162C210.25 152.096 208.726 152.247 207.76 152.523Z" fill="white"/>
<path d="M202.959 164.003C199.605 165.916 196.528 167.789 196.124 168.159C195.719 168.526 195.086 169.395 194.712 170.085C194.072 171.274 194.038 171.754 194.038 179.131V186.923C195.252 187.873 195.923 188.143 196.312 188.133C196.701 188.127 199.734 186.556 203.056 184.645C206.378 182.732 209.426 180.863 209.831 180.489C210.236 180.113 210.869 179.244 211.243 178.554C211.889 177.353 211.914 176.979 211.823 169.614L211.726 161.93C210.537 160.835 209.938 160.518 209.624 160.518C209.313 160.518 206.315 162.086 202.959 164.003Z" fill="url(#paint27_linear_1_596)"/>
<path d="M208.03 162.892L206.653 163.689L206.728 170.398C201.876 173.193 200.22 173.968 199.918 173.924C199.454 173.855 199.344 173.391 199.213 170.922L199.056 167.999C197.356 169.134 196.54 170.097 196.151 170.872C195.48 172.205 195.442 172.641 195.452 179.024C195.455 182.732 195.587 185.978 195.747 186.239C195.994 186.643 196.158 186.65 196.917 186.286C197.403 186.054 200.129 184.52 202.977 182.873C205.825 181.229 208.419 179.655 208.745 179.376C209.071 179.097 209.598 178.303 209.915 177.613C210.414 176.524 210.492 175.492 210.498 169.85C210.502 166.123 210.37 163.074 210.191 162.714C210.019 162.369 209.771 162.086 209.642 162.089C209.514 162.089 208.786 162.453 208.03 162.892Z" fill="white"/>
<path d="M287.51 133.217C284.577 134.917 270.814 142.871 256.927 150.889C243.041 158.909 231.677 165.659 231.677 165.892C231.677 166.124 231.925 166.35 232.226 166.397C232.527 166.44 245.09 159.367 260.143 150.672C275.196 141.981 288.849 134.092 290.49 133.141C292.488 131.984 293.47 131.231 293.47 130.858C293.47 130.554 293.329 130.262 293.156 130.215C292.984 130.168 290.443 131.52 287.51 133.217ZM299.088 109.519C295.998 111.307 283.872 118.308 272.14 125.08C260.409 131.849 246.649 139.788 241.558 142.718C236.467 145.65 232.094 148.241 231.834 148.48C231.448 148.831 231.439 148.979 231.771 149.302C232.101 149.622 232.464 149.543 233.653 148.897C234.463 148.458 248.041 140.638 263.828 131.52C279.615 122.401 295.383 113.302 298.874 111.304C302.362 109.303 305.292 107.49 305.383 107.273C305.474 107.057 305.358 106.743 305.126 106.574C304.818 106.351 303.168 107.157 299.088 109.519Z" fill="url(#paint28_linear_1_596)"/>
<path d="M294.567 21.9889C293.965 22.2084 287.895 25.6118 281.079 29.5546C274.263 33.4943 262.833 40.1001 255.672 44.2312C248.511 48.3622 231.645 58.1047 218.189 65.8775C204.733 73.6533 189.206 82.6211 183.685 85.8048C178.165 88.9917 170.919 93.1667 167.582 95.0832C162.886 97.7807 161.079 99.004 159.583 100.507C158.52 101.57 157.071 103.405 156.365 104.584C155.656 105.76 154.668 107.78 154.169 109.076L153.26 111.428V153.438C164.687 160.116 168.109 162.064 168.237 162.07C168.366 162.08 168.51 152.877 168.557 141.619L168.642 121.152C169.897 117.749 170.584 116.127 170.976 115.349C171.365 114.571 172.284 113.091 173.014 112.056C173.745 111.021 175.11 109.468 176.048 108.605C177.055 107.677 180.502 105.447 184.482 103.144C188.183 101.002 192.835 98.2952 194.821 97.1314L198.428 95.011C198.967 91.1247 199.482 89.3148 200.002 88.217C200.526 87.1097 201.615 85.6261 202.647 84.6098C203.942 83.33 206.304 81.7899 211.762 78.6626C215.815 76.3415 223.506 71.9156 228.854 68.8291C234.202 65.7394 243.518 60.36 249.556 56.872C255.594 53.384 263.922 48.5755 268.062 46.1853C272.203 43.7983 276.155 41.5869 276.845 41.2764C277.535 40.9659 278.523 40.7055 279.041 40.6992C279.615 40.6961 281.174 41.3642 283.04 42.4181C284.721 43.3686 286.239 44.1465 286.412 44.1465C286.584 44.1465 291.49 41.3799 297.312 37.9985C303.133 34.6172 308.604 31.4899 309.466 31.0508C310.329 30.6116 311.389 30.16 311.819 30.0502C312.493 29.8777 311.715 29.3381 306.33 26.2203C302.879 24.2222 299.598 22.3559 299.037 22.0736C298.476 21.7944 297.487 21.5686 296.841 21.5748C296.195 21.5842 295.169 21.7693 294.567 21.9889Z" fill="white"/>
<path d="M504.025 195.833C503.026 196.161 501.619 196.793 500.903 197.24C500.188 197.687 499.274 198.501 498.877 199.048C498.424 199.663 496.235 206.51 493.103 217.091C490.329 226.471 487.038 237.569 485.786 241.757C484.535 245.955 483.293 249.521 483.019 249.703C482.747 249.885 481.366 250.663 479.949 251.434C478.532 252.206 476.195 253.917 474.758 255.242C473.318 256.566 471.543 258.542 470.812 259.635C470.08 260.728 469.13 262.664 468.706 263.939C468.173 265.528 467.931 267.011 467.935 268.657C467.938 270.163 468.183 271.796 468.6 273.044C468.964 274.136 469.842 275.96 470.553 277.099C471.262 278.238 472.788 280.049 473.947 281.122C475.102 282.198 476.87 283.632 477.87 284.307C478.87 284.982 480.734 286.062 482.009 286.704C483.283 287.346 485.892 288.416 487.803 289.081C489.713 289.747 493.067 290.654 495.252 291.094C497.437 291.538 501.383 292.061 504.025 292.26C507.532 292.521 510.121 292.518 513.627 292.246C516.269 292.041 519.993 291.571 521.904 291.203C523.814 290.836 526.794 290.081 528.525 289.528C530.257 288.975 532.938 287.936 534.485 287.217C536.031 286.502 538.491 285.121 539.947 284.151C541.404 283.185 543.629 281.294 544.894 279.953C546.394 278.358 547.572 276.709 548.287 275.196C548.893 273.921 549.562 271.911 549.774 270.726C550.072 269.084 550.075 268.025 549.78 266.257C549.569 264.982 548.969 263.045 548.443 261.953C547.92 260.86 546.814 259.072 545.983 257.98C545.155 256.887 543.457 255.199 542.212 254.225C540.967 253.252 538.679 251.759 537.133 250.904L534.319 249.348C524.731 217.035 521.381 205.795 520.685 203.517C519.576 199.869 519.268 199.23 518.1 198.117C517.368 197.422 515.951 196.541 514.951 196.157C513.597 195.637 512.196 195.429 509.488 195.349C506.661 195.267 505.439 195.373 504.025 195.833Z" fill="url(#paint29_linear_1_596)"/>
<path d="M481.436 262.151C481.327 262.406 481.075 263.138 480.873 263.773C480.671 264.412 480.509 265.75 480.512 266.753C480.519 268.047 480.787 269.147 481.449 270.56C481.962 271.653 482.969 273.196 483.684 273.99C484.402 274.785 485.958 276.079 487.14 276.867C488.326 277.652 490.335 278.731 491.61 279.261C492.885 279.794 494.749 280.463 495.748 280.751C496.748 281.039 498.761 281.499 500.218 281.771C501.675 282.042 504.433 282.367 506.343 282.489C508.306 282.618 511.405 282.559 513.461 282.353C515.464 282.155 518.517 281.628 520.248 281.181C521.98 280.738 524.364 279.953 525.545 279.44C526.731 278.927 528.591 277.993 529.684 277.364C530.777 276.738 532.511 275.397 533.538 274.384C534.591 273.351 535.779 271.752 536.262 270.726C536.733 269.726 537.213 268.236 537.329 267.415C537.471 266.432 537.345 265.194 536.964 263.773L536.388 261.621C534.769 264.67 533.452 266.332 532.329 267.379C531.237 268.402 529.151 269.855 527.694 270.613C526.241 271.372 524.082 272.318 522.897 272.716C521.712 273.113 519.255 273.735 517.434 274.096C514.991 274.583 512.779 274.755 508.992 274.755C505.204 274.755 502.992 274.583 500.549 274.096C498.728 273.735 496.272 273.113 495.086 272.716C493.904 272.318 491.742 271.372 490.286 270.617C488.657 269.769 486.766 268.408 485.379 267.084C484.005 265.776 482.83 264.296 482.376 263.31C481.906 262.283 481.562 261.86 481.436 262.151ZM490.051 233.009C489.925 233.268 489.167 235.804 488.369 238.644C487.574 241.485 486.899 244.316 486.872 244.935C486.846 245.554 487.134 246.733 487.511 247.55C487.889 248.368 488.594 249.543 489.077 250.156C489.561 250.772 490.997 251.97 492.272 252.821C493.785 253.831 495.739 254.738 497.9 255.427C499.721 256.009 502.254 256.632 503.529 256.814C504.803 256.993 507.224 257.142 508.909 257.145C511.749 257.152 511.971 257.201 511.971 257.814C511.971 258.261 511.677 258.549 511.061 258.701C510.561 258.824 508.29 258.754 506.012 258.545C503.737 258.337 500.682 257.854 499.225 257.473C497.768 257.092 495.348 256.195 493.845 255.476C492.064 254.626 490.411 253.51 489.1 252.268C487.995 251.222 486.776 249.692 486.396 248.875L485.7 247.385C482.813 257.172 482.525 258.585 482.697 259.635C482.82 260.363 483.227 261.631 483.601 262.449C483.979 263.267 485.19 264.833 486.296 265.925C487.425 267.041 489.316 268.445 490.62 269.13C491.891 269.799 494.275 270.795 495.914 271.345C497.553 271.891 500.609 272.593 502.701 272.901C505.519 273.315 507.628 273.408 510.813 273.262C513.18 273.156 516.457 272.782 518.096 272.431C519.735 272.083 522.268 271.338 523.725 270.779C525.181 270.219 527.304 269.157 528.442 268.422C529.581 267.687 531.19 266.376 532.018 265.511C532.846 264.647 533.842 263.267 534.23 262.449C534.62 261.631 535.001 260.287 535.077 259.469C535.18 258.387 534.836 256.668 533.816 253.179C533.048 250.54 532.362 248.265 532.293 248.13C532.223 247.994 531.833 248.504 531.422 249.262C531.012 250.02 529.82 251.437 528.774 252.407C527.641 253.457 525.764 254.705 524.138 255.49C522.635 256.218 521.073 256.814 520.662 256.814C520.175 256.817 519.914 256.622 519.911 256.241C519.907 255.844 520.51 255.41 521.814 254.867C522.864 254.43 524.691 253.444 525.877 252.672C527.062 251.901 528.416 250.768 528.889 250.156C529.363 249.543 530.015 248.52 530.34 247.881C530.664 247.246 530.945 246.051 530.969 245.233C530.992 244.309 530.383 241.631 529.353 238.168C528.048 233.768 527.628 232.715 527.366 233.182C527.184 233.509 526.423 234.453 525.675 235.284C524.926 236.112 523.288 237.337 522.033 238.002C520.778 238.668 518.636 239.561 517.269 239.989C515.047 240.68 514.156 240.763 508.826 240.757C502.949 240.753 502.824 240.737 499.721 239.661C497.99 239.062 495.907 238.141 495.086 237.615C494.265 237.088 493.06 236.092 492.405 235.4C491.749 234.708 491.001 233.781 490.746 233.34C490.385 232.721 490.226 232.645 490.051 233.009ZM493.395 221.501C493.027 222.809 492.415 224.848 492.027 226.03C491.643 227.216 491.315 228.864 491.302 229.699C491.286 230.831 491.531 231.625 492.279 232.844C492.914 233.88 494 234.963 495.258 235.817C496.348 236.555 498.096 237.486 499.142 237.886C500.188 238.283 502.35 238.836 503.943 239.111C505.535 239.386 507.81 239.611 508.992 239.611C510.177 239.611 512.448 239.386 514.041 239.111C515.633 238.836 517.719 238.32 518.676 237.966C519.632 237.611 521.308 236.734 522.4 236.016C523.493 235.297 524.804 234.135 525.31 233.433C525.9 232.615 526.304 231.559 526.426 230.5C526.578 229.152 526.35 227.947 525.198 224.044C524.417 221.405 523.764 219.193 523.748 219.134C523.735 219.074 523.052 219.726 522.231 220.581C521.414 221.438 519.887 222.567 518.841 223.09C517.795 223.613 516.007 224.295 514.868 224.6C513.489 224.973 511.53 225.157 508.992 225.153C506.383 225.15 504.509 224.964 503.032 224.56C501.85 224.236 500.059 223.58 499.059 223.107C498.059 222.63 496.523 221.541 495.649 220.683L494.057 219.124L493.395 221.501ZM498.48 204.553C498.437 204.619 497.652 207.208 496.732 210.304C495.586 214.171 495.119 216.27 495.242 217.008C495.341 217.604 495.974 218.694 496.662 219.448C497.344 220.2 498.722 221.226 499.725 221.73C500.725 222.229 502.738 222.905 504.194 223.223C506.207 223.666 507.674 223.762 510.319 223.623C512.61 223.501 514.471 223.196 515.782 222.733C516.875 222.345 518.398 221.653 519.169 221.193C519.937 220.733 521.023 219.733 521.579 218.972C522.165 218.164 522.589 217.174 522.589 216.594C522.592 216.048 521.88 213.121 521.006 210.089L519.424 204.573C517.626 206.156 516.361 206.953 515.451 207.371C514.54 207.788 512.713 208.281 511.395 208.47C509.77 208.702 508.19 208.708 506.512 208.483C505.144 208.301 503.244 207.798 502.291 207.364C501.334 206.934 500.102 206.096 499.553 205.507C499.003 204.914 498.52 204.487 498.48 204.553Z" fill="white"/>
<path d="M417.212 321.642C422.544 324.746 436.963 333.133 449.261 340.279C461.559 347.423 476.066 355.849 481.499 358.997L491.383 364.725L491.261 389.987L476.909 398.325C481.499 400.93 483.267 402.093 483.797 402.59C484.326 403.086 485.11 404.249 485.536 405.174C486.18 406.562 486.335 407.281 486.43 409.31C486.498 410.698 486.407 412.551 486.226 413.574C486.048 414.569 485.616 416.257 485.265 417.322C484.913 418.39 484.05 420.364 483.347 421.716C482.644 423.068 481.507 424.926 480.819 425.851C480.129 426.777 478.586 428.462 477.392 429.599C475.826 431.088 474.606 431.977 473.029 432.773C471.714 433.437 470.173 433.993 469.162 434.164C467.919 434.373 467.146 434.368 466.19 434.148C465.441 433.975 463.003 432.77 460.375 431.269C457.886 429.85 455.823 428.718 455.787 428.757C455.751 428.793 455.593 429.697 455.441 430.762C455.286 431.83 454.864 433.631 454.505 434.768C454.146 435.906 453.386 437.767 452.815 438.904C452.244 440.041 451.308 441.669 450.734 442.522C450.16 443.375 449.101 444.763 448.377 445.606C447.656 446.448 446.19 447.829 445.125 448.669C444.058 449.511 442.489 450.529 441.636 450.93C440.783 451.333 439.328 451.806 438.405 451.985C437.098 452.235 436.426 452.238 435.369 452.003C434.472 451.801 432.189 450.638 428.649 448.581C425.699 446.867 422.88 445.06 422.381 444.562L421.476 443.659C415.268 447.221 410.324 450.064 406.485 452.274C402.647 454.484 393.808 459.581 386.842 463.597C379.877 467.614 369.786 473.442 364.421 476.549C359.055 479.656 354.49 482.196 354.276 482.196C354.061 482.196 353.573 481.992 353.19 481.744C352.508 481.302 352.495 481.305 352.689 481.809C352.798 482.093 353.012 482.907 353.165 483.618C353.322 484.36 353.374 485.903 353.283 487.236C353.196 488.516 352.883 490.436 352.586 491.501C352.288 492.568 351.554 494.486 350.952 495.766C350.35 497.045 349.226 499.015 348.448 500.139C347.672 501.266 346.165 503.054 345.101 504.111C344.033 505.171 342.348 506.533 341.353 507.141C340.358 507.745 338.903 508.446 338.122 508.694C337.119 509.014 336.168 509.115 334.891 509.035C333.173 508.927 332.88 508.805 329.076 506.626C326.874 505.365 324.168 503.77 323.067 503.085C321.966 502.4 320.976 501.842 320.87 501.845C320.764 501.847 317.07 503.923 312.664 506.456L304.651 511.061L304.393 514.608C300.586 516.776 297.709 518.441 295.54 519.702C293.372 520.966 291.539 522 291.47 522C291.4 522 289.567 520.968 287.399 519.704C285.23 518.443 279.795 515.287 275.316 512.69C270.837 510.092 264.034 506.14 260.196 503.907C256.357 501.672 244.551 494.807 233.962 488.653C223.373 482.496 213.37 476.688 211.734 475.743C210.098 474.799 206.407 472.664 203.528 471.002L198.294 467.981L198.423 453.933L206.435 449.222L206.707 444.848C216.513 435.205 221.801 430.01 224.786 427.087L230.214 421.768C235.603 408.408 239.821 397.958 243.062 389.925C246.306 381.892 248.986 375.309 249.02 375.293C249.053 375.278 255.683 371.471 263.75 366.829L278.417 358.393C299.149 370.383 305.341 373.937 305.556 374.027C305.783 374.125 306.846 373.67 308.14 372.921C309.347 372.22 312.723 370.274 315.636 368.594C318.549 366.914 324.191 363.665 328.171 361.37C332.152 359.075 351.399 347.964 370.947 336.676C390.492 325.392 406.718 316.121 407.002 316.077C407.312 316.028 411.399 318.256 417.212 321.642Z" fill="url(#paint30_linear_1_596)"/>
<path d="M303.452 507.89L303.488 513.729C295.576 518.278 293.018 519.733 292.697 519.896L292.115 520.19L292.245 508.5C298.254 505.013 300.766 503.563 301.707 503.028L303.413 502.054L303.452 507.89ZM347.171 478.056C347.667 478.149 348.453 478.42 348.915 478.66C349.375 478.898 350.109 479.588 350.544 480.191C350.978 480.795 351.518 481.93 351.743 482.711C352.05 483.781 352.118 484.838 352.019 486.975C351.916 489.247 351.727 490.302 351.081 492.209C350.637 493.525 349.965 495.212 349.587 495.957C349.212 496.704 348.37 498.128 347.713 499.123C347.059 500.118 345.767 501.728 344.844 502.7C343.919 503.675 342.407 504.982 341.484 505.608C340.559 506.233 339.107 506.988 338.254 507.283C337.401 507.58 336.062 507.82 335.281 507.82C334.498 507.82 333.511 507.688 333.084 507.528C332.658 507.368 331.87 506.805 331.332 506.28C330.794 505.755 330.135 504.745 329.869 504.034C329.603 503.323 329.303 502.044 329.205 501.191C329.099 500.294 329.156 498.771 329.337 497.572C329.51 496.435 329.882 494.75 330.166 493.825C330.451 492.902 331.148 491.214 331.72 490.077C332.288 488.94 333.232 487.311 333.816 486.458C334.403 485.605 335.641 484.111 336.566 483.134C337.494 482.16 339.068 480.816 340.063 480.147C341.058 479.48 342.454 478.746 343.164 478.518C343.875 478.291 344.863 478.056 345.361 477.996C345.858 477.937 346.672 477.963 347.171 478.056Z" fill="white"/>
<path d="M343.472 486.776C343.785 486.83 344.284 487.132 344.581 487.443C344.876 487.755 345.214 488.476 345.331 489.045C345.447 489.614 345.46 490.66 345.357 491.371C345.253 492.082 344.855 493.302 344.467 494.085C344.082 494.866 343.338 496.018 342.818 496.644C342.296 497.267 341.405 498.055 340.836 498.391C340.265 498.73 339.34 499.016 338.768 499.035C338.2 499.053 337.502 498.949 337.218 498.807C336.933 498.665 336.481 498.096 336.212 497.543C335.848 496.796 335.755 496.179 335.848 495.119C335.917 494.336 336.316 492.943 336.737 492.017C337.158 491.092 338.019 489.771 338.652 489.079C339.285 488.388 340.208 487.618 340.707 487.373C341.203 487.125 341.901 486.866 342.258 486.796C342.612 486.729 343.16 486.719 343.472 486.776Z" fill="url(#paint31_linear_1_596)"/>
<path d="M347.298 473.649C347.725 473.752 348.526 474.059 349.082 474.333C349.635 474.607 350.56 475.354 351.136 475.993C351.713 476.634 352.449 477.766 352.778 478.513C353.103 479.26 353.372 479.986 353.372 480.128C353.372 480.27 352.995 480.198 352.532 479.965C352.069 479.733 351.157 479.063 350.503 478.479C349.849 477.892 347.89 476.6 346.151 475.605C343.235 473.938 343.046 473.783 343.721 473.633C344.124 473.543 344.92 473.468 345.489 473.465C346.058 473.462 346.872 473.545 347.298 473.649ZM201.784 456.846C202.921 457.526 207.457 460.177 211.864 462.736C216.271 465.298 226.738 471.382 235.126 476.259C243.513 481.134 252.817 486.541 255.803 488.272C258.788 490.007 266.291 494.364 272.473 497.96C278.656 501.555 285.316 505.411 287.27 506.528L290.824 508.559C290.824 517.574 290.765 520.19 290.695 520.19C290.625 520.19 289.315 519.451 287.787 518.549C286.26 517.647 275.531 511.405 263.944 504.677C252.357 497.952 238.752 490.051 233.704 487.117C228.656 484.183 218.855 478.474 211.921 474.429L199.313 467.076C199.326 458.161 199.416 455.582 199.522 455.592C199.628 455.603 200.647 456.166 201.784 456.846Z" fill="white"/>
<path d="M285.525 508.507C285.97 508.773 286.606 509.574 287.014 510.381C287.407 511.156 287.727 512.167 287.725 512.629C287.722 513.121 287.508 513.684 287.205 513.986C286.921 514.271 286.572 514.503 286.43 514.503C286.288 514.503 285.794 514.335 285.331 514.129C284.869 513.922 284.181 513.312 283.801 512.772C283.424 512.231 282.998 511.384 282.855 510.885C282.713 510.389 282.664 509.691 282.742 509.334C282.822 508.98 283.016 508.538 283.171 508.355C283.328 508.168 283.75 508.024 284.104 508.031C284.46 508.039 285.099 508.254 285.525 508.507ZM277.125 503.679C277.482 503.821 278.045 504.193 278.379 504.503C278.712 504.814 279.206 505.506 279.477 506.039C279.746 506.571 279.968 507.533 279.968 508.171C279.968 509.135 279.857 509.401 279.322 509.722C278.741 510.071 278.58 510.066 277.712 509.657C277.182 509.409 276.417 508.74 276.011 508.171C275.541 507.509 275.223 506.672 275.127 505.845C275.001 504.754 275.065 504.462 275.536 503.971C275.841 503.65 276.179 503.397 276.285 503.405C276.391 503.415 276.771 503.539 277.125 503.679ZM213.298 466.623C213.755 467.013 214.347 467.771 214.614 468.303C214.877 468.836 215.094 469.797 215.094 470.435C215.094 471.399 214.983 471.666 214.448 471.986C213.962 472.278 213.624 472.309 213.091 472.118C212.701 471.978 212.068 471.542 211.683 471.149C211.3 470.756 210.806 469.999 210.584 469.466C210.364 468.934 210.184 468.148 210.184 467.722C210.184 467.295 210.3 466.714 210.442 466.429C210.626 466.065 210.959 465.912 211.584 465.912C212.172 465.912 212.743 466.149 213.298 466.623ZM204.944 461.705C205.402 461.942 206.128 462.666 206.557 463.315C206.984 463.961 207.4 464.956 207.48 465.525C207.581 466.238 207.503 466.739 207.227 467.14C206.973 467.504 206.557 467.722 206.113 467.724C205.722 467.724 205.11 467.528 204.756 467.282C204.399 467.039 203.957 466.662 203.774 466.442C203.588 466.222 203.21 465.576 202.939 465.008C202.665 464.439 202.437 463.596 202.435 463.134C202.432 462.632 202.639 462.084 202.947 461.777C203.231 461.493 203.608 461.263 203.787 461.265C203.965 461.27 204.484 461.467 204.944 461.705Z" fill="url(#paint32_linear_1_596)"/>
<path d="M211.863 448.565C213.995 449.813 224.811 456.104 235.9 462.542C246.988 468.983 258.502 475.675 261.487 477.414C264.473 479.151 271.8 483.418 277.77 486.895C283.741 490.371 289.122 493.499 289.729 493.845L290.836 494.473L290.823 502.356C289.921 501.798 285.734 499.355 280.937 496.566C276.14 493.78 268.347 489.249 263.62 486.499C258.892 483.749 245.954 476.225 234.866 469.779C223.778 463.336 213.168 457.182 211.291 456.107L207.874 454.153C207.862 448.043 207.885 446.275 207.921 446.282C207.957 446.288 209.73 447.316 211.863 448.565ZM425.151 436.611L425.094 440.162C419.085 443.633 413.502 446.856 408.811 449.562C404.12 452.268 396.5 456.665 391.882 459.332C387.26 462 382.026 465.018 380.251 466.042C378.473 467.065 374.345 469.446 371.075 471.33C367.806 473.214 364.753 474.977 364.291 475.246L363.451 475.734L363.471 468.627C388.56 454.204 397.366 449.136 399.227 448.058C401.085 446.98 404.526 444.988 406.872 443.631C409.217 442.271 414.045 439.48 417.599 437.428C421.152 435.373 424.319 433.551 424.634 433.377L425.208 433.062L425.151 436.611ZM422.796 431.033C423.492 431.447 424.176 431.845 424.319 431.92C424.491 432.009 424.491 432.096 424.319 432.181C424.176 432.253 420.571 434.323 416.306 436.784C412.042 439.245 402.039 445.021 394.078 449.622C386.118 454.222 375.999 460.066 371.592 462.604C367.185 465.143 363.552 467.218 363.515 467.213C363.479 467.208 363.456 466.419 363.461 465.46L363.469 463.716C370.765 459.536 375.735 456.678 379.217 454.667C382.701 452.659 393.574 446.383 403.383 440.726C413.192 435.068 421.289 430.403 421.375 430.359C421.463 430.315 422.104 430.617 422.796 431.033ZM232.927 424C233.852 424.541 240.772 428.567 248.306 432.948C255.84 437.329 266.716 443.651 272.472 446.996C278.23 450.34 288.466 456.293 295.217 460.221C301.97 464.153 308.915 468.174 310.652 469.159C312.389 470.146 313.818 471.01 313.829 471.082C313.839 471.152 308.783 476.181 302.593 482.261L291.34 493.31C289.636 492.361 280.071 486.817 268.983 480.379C257.895 473.941 244.984 466.445 240.293 463.724C235.602 461.002 226.497 455.698 220.056 451.94C213.617 448.182 208.384 445.019 208.425 444.913C208.469 444.804 213.504 439.829 219.616 433.856C225.729 427.88 230.847 422.998 230.989 423.003C231.131 423.01 232.004 423.458 232.927 424ZM450.423 420.116C450.992 420.387 451.796 420.943 452.207 421.354C452.618 421.765 453.259 422.742 453.628 423.525C454.241 424.822 454.3 425.228 454.295 428.177C454.292 430.746 454.171 431.829 453.703 433.476C453.38 434.613 452.553 436.706 451.863 438.128C451.175 439.55 449.919 441.643 449.077 442.78C448.234 443.918 446.621 445.701 445.494 446.748C444.125 448.017 442.76 448.986 441.377 449.674C439.873 450.42 438.852 450.741 437.629 450.855C436.399 450.968 435.639 450.896 434.786 450.586C434.148 450.351 433.228 449.78 432.742 449.314C432.259 448.846 431.561 447.826 431.191 447.045C430.576 445.74 430.524 445.357 430.545 442.393C430.563 439.655 430.674 438.805 431.271 436.836C431.659 435.556 432.491 433.463 433.122 432.183C433.752 430.904 435.063 428.81 436.03 427.531C436.996 426.252 438.661 424.448 439.726 423.525C440.801 422.589 442.574 421.393 443.716 420.826C445.391 419.997 446.107 419.793 447.58 419.718C448.963 419.648 449.632 419.741 450.423 420.116Z" fill="white"/>
<path d="M445.33 428.88C445.656 428.937 446.212 429.296 446.568 429.679C446.933 430.072 447.246 430.749 447.284 431.237C447.323 431.713 447.315 432.7 447.271 433.434C447.225 434.168 446.891 435.406 446.524 436.19C446.16 436.97 445.48 438.133 445.012 438.774C444.545 439.413 443.596 440.304 442.901 440.751C442.206 441.199 441.288 441.643 440.862 441.739C440.376 441.847 439.724 441.759 439.117 441.506C438.323 441.173 438.07 440.878 437.716 439.873C437.401 438.971 437.333 438.268 437.468 437.223C437.566 436.44 437.993 435.076 438.414 434.186C438.835 433.297 439.735 431.977 440.409 431.25C441.084 430.524 442.043 429.725 442.542 429.477C443.038 429.229 443.736 428.971 444.092 428.901C444.446 428.834 445.005 428.823 445.33 428.88Z" fill="url(#paint33_linear_1_596)"/>
<path d="M451.318 413.381C451.316 413.487 451.145 414.329 450.941 415.255C450.737 416.18 450.566 417.312 450.564 417.775C450.558 418.237 450.494 418.615 450.424 418.615C450.354 418.615 449.393 418.077 448.292 417.423C447.191 416.767 446.26 416.185 446.224 416.131C446.188 416.074 447.263 415.389 448.615 414.609C449.967 413.828 451.13 413.187 451.199 413.187C451.269 413.187 451.323 413.275 451.318 413.381ZM362.159 442.781V476.51C356.551 479.715 354.894 480.648 354.858 480.651C354.821 480.656 354.635 480.16 354.444 479.553C354.253 478.945 353.731 477.761 353.281 476.921C352.834 476.084 351.945 474.944 351.304 474.388C350.663 473.835 349.531 473.156 348.784 472.879C347.892 472.548 346.783 472.378 345.553 472.38C344.522 472.383 342.981 472.566 342.128 472.789C341.275 473.011 339.665 473.675 338.549 474.27C337.432 474.861 335.579 476.102 334.429 477.027C333.281 477.953 331.694 479.444 330.903 480.343C330.11 481.243 328.823 482.871 328.04 483.962C327.256 485.053 326.018 487.107 325.287 488.529C324.555 489.95 323.612 492.103 323.186 493.311C322.759 494.518 322.219 496.497 321.984 497.704L321.552 499.901C308.554 507.412 304.721 509.594 304.651 509.594C304.581 509.594 304.527 507.588 304.532 505.135L304.545 500.677C301.022 498.586 299.911 497.976 299.805 497.971C299.699 497.965 297.926 498.953 295.864 500.16L292.116 502.357V494.344C305.636 481.036 310.914 475.831 312.565 474.192L315.569 471.212C326.096 444.973 330.252 434.619 331.596 431.279L334.041 425.206C340.709 421.344 347.005 417.705 352.338 414.632C357.667 411.556 362.058 409.041 362.095 409.046C362.131 409.049 362.159 424.231 362.159 442.781Z" fill="white"/>
<path fill-rule="evenodd" clip-rule="evenodd" d="M357.881 415.771C357.816 415.771 353.898 417.999 349.171 420.721C344.443 423.442 339.763 426.156 336.958 427.833L333.963 435.306C332.314 439.418 328.623 448.596 325.759 455.704C322.895 462.811 320.551 468.831 320.549 469.079C320.546 469.405 320.709 469.505 321.128 469.436C321.448 469.384 329.967 464.566 358.411 448.118L358.313 432.139C358.258 423.349 358.165 416.071 358.106 415.965C358.046 415.859 357.946 415.771 357.881 415.771ZM351.825 460.227C351.68 460.227 349.525 461.39 347.038 462.811C344.34 464.354 342.515 465.551 342.515 465.784C342.515 465.998 342.66 466.236 342.838 466.313C343.017 466.394 345.196 465.28 347.685 463.84C350.171 462.4 352.265 461.173 352.337 461.113C352.407 461.056 352.381 460.831 352.277 460.617C352.177 460.402 351.972 460.227 351.825 460.227Z" fill="url(#paint34_linear_1_596)"/>
<path d="M357.243 432.507L357.238 447.433C351.337 450.814 345.493 454.179 340.448 457.092C335.4 460.002 329.295 463.527 326.879 464.921C324.462 466.316 322.456 467.428 322.423 467.394C322.389 467.363 322.666 466.58 323.04 465.655C323.413 464.729 326.904 456.066 330.797 446.399C334.692 436.733 338.018 428.692 338.194 428.529C338.367 428.369 342.696 425.833 347.814 422.9C352.932 419.966 357.147 417.568 357.183 417.573C357.219 417.578 357.245 424.298 357.243 432.507Z" fill="white"/>
<path d="M480.405 402.057C480.832 402.16 481.53 402.426 481.956 402.651C482.383 402.874 482.988 403.331 483.298 403.662C483.61 403.995 484.099 404.791 484.386 405.432C484.67 406.071 485.019 407.41 485.161 408.405C485.329 409.596 485.329 410.964 485.161 412.411C485.022 413.618 484.562 415.626 484.143 416.869C483.722 418.113 483.013 419.857 482.566 420.746C482.119 421.635 481.168 423.233 480.449 424.3C479.731 425.365 478.265 427.115 477.19 428.185C476.115 429.255 474.422 430.612 473.427 431.204C472.432 431.793 470.92 432.473 470.067 432.716C469.085 432.992 467.994 433.111 467.095 433.036C466.216 432.961 465.285 432.677 464.657 432.292C464.099 431.948 463.375 431.317 463.052 430.891C462.727 430.465 462.225 429.446 461.936 428.629C461.543 427.521 461.408 426.502 461.411 424.623C461.411 423.026 461.595 421.346 461.912 420.036C462.186 418.898 462.773 417.094 463.218 416.029C463.662 414.962 464.445 413.393 464.96 412.54C465.477 411.687 466.381 410.348 466.976 409.568C467.57 408.785 468.979 407.273 470.111 406.208C471.24 405.14 472.856 403.897 473.701 403.445C474.546 402.99 475.994 402.439 476.916 402.22C477.839 402 478.829 401.832 479.113 401.845C479.397 401.858 479.979 401.951 480.405 402.057Z" fill="white"/>
<path d="M477.045 411.465C477.33 411.656 477.728 412.212 477.929 412.695C478.18 413.297 478.252 414.145 478.165 415.383C478.072 416.66 477.811 417.645 477.281 418.728C476.867 419.573 475.996 420.852 475.345 421.571C474.59 422.403 473.649 423.098 472.76 423.486C471.832 423.887 471.098 424.042 470.584 423.943C470.157 423.863 469.55 423.532 469.235 423.209C468.919 422.884 468.565 422.095 468.449 421.457C468.333 420.816 468.325 419.712 468.431 419.002C468.539 418.291 468.976 417.011 469.403 416.159C469.827 415.306 470.558 414.15 471.026 413.589C471.494 413.029 472.401 412.24 473.039 411.84C473.869 411.32 474.536 411.111 475.365 411.113C476.004 411.113 476.761 411.271 477.045 411.465Z" fill="url(#paint35_linear_1_596)"/>
<path fill-rule="evenodd" clip-rule="evenodd" d="M252.212 384.05C252.085 384.083 251.377 385.621 250.635 387.469C249.894 389.317 246.753 397.11 243.654 404.786C240.555 412.463 237.971 418.976 237.911 419.26C237.818 419.697 238.775 420.343 244.089 423.434C247.544 425.445 258.865 432.026 269.242 438.058C279.619 444.088 293.287 452.028 299.611 455.701C305.939 459.374 311.346 462.535 311.63 462.723C312.126 463.054 312.292 462.713 315.69 454.346C317.639 449.549 320.896 441.467 326.621 427.146L323.907 425.554C322.416 424.675 307.585 416.05 290.953 406.383C274.321 396.717 258.852 387.722 256.577 386.399C254.303 385.073 252.339 384.016 252.212 384.05ZM490.098 366.404C489.956 366.404 487.658 367.666 484.994 369.209C482.329 370.752 477.472 373.559 474.203 375.448C470.933 377.335 466.746 379.754 464.898 380.819C463.05 381.886 459.677 383.833 457.403 385.143C455.128 386.456 446.87 391.225 439.052 395.74C431.233 400.258 421.115 406.099 416.566 408.725C412.017 411.351 405.62 415.047 402.35 416.937C399.081 418.828 391.231 423.365 384.904 427.017C378.579 430.671 371.159 434.957 363.436 439.42L363.452 462.294L364.033 462.002C364.354 461.839 366.884 460.4 369.655 458.797C372.428 457.197 382.604 451.325 392.27 445.745C401.937 440.167 413.511 433.486 417.987 430.896C422.466 428.309 431.073 423.336 437.113 419.849C443.156 416.363 457.113 408.309 468.129 401.953C479.147 395.595 488.653 390.116 490.357 389.149V377.777C490.357 370.367 490.266 366.404 490.098 366.404ZM278.043 360.023C277.751 360.165 272.571 363.132 266.528 366.616C260.488 370.098 254.44 373.582 253.088 374.355C251.659 375.174 250.741 375.849 250.891 375.97C251.033 376.084 259.351 380.94 269.371 386.764C279.395 392.584 297.944 403.357 333.599 424.06L339.156 420.847C342.214 419.082 348.213 415.616 352.493 413.15C356.77 410.682 360.516 408.49 360.813 408.275C361.324 407.908 359.9 407.045 334.181 392.122C319.236 383.45 301.245 373.003 294.199 368.906C287.154 364.81 280.757 361.078 279.981 360.61C278.854 359.927 278.469 359.811 278.043 360.023ZM407.132 317.286C407.062 317.281 404.095 318.951 400.541 320.995C396.987 323.04 392.102 325.852 389.686 327.245C387.269 328.64 382.035 331.662 378.055 333.96C374.074 336.257 368.9 339.248 366.553 340.602C364.209 341.956 357.287 345.947 351.175 349.47C345.062 352.993 337.91 357.12 335.279 358.645C332.651 360.168 325.496 364.295 319.384 367.818C313.271 371.341 307.98 374.394 307.624 374.603C306.983 374.978 307.006 374.998 310.079 376.748C312.679 378.229 313.263 378.47 313.698 378.237C313.982 378.084 318.751 375.337 324.295 372.137C329.839 368.935 336.933 364.838 340.061 363.037C343.188 361.235 349.528 357.581 354.147 354.918C358.768 352.256 363.71 349.4 365.132 348.571C366.553 347.741 371.73 344.745 376.633 341.912C381.539 339.082 390.262 334.05 396.018 330.731C401.776 327.415 406.661 324.647 406.873 324.58C407.088 324.513 409.879 325.968 413.076 327.811C416.276 329.654 429.186 337.149 441.766 344.469C454.348 351.786 467.343 359.335 470.646 361.248C474.239 363.326 476.656 364.88 476.658 365.112C476.661 365.355 470.972 368.787 461.476 374.275C453.123 379.1 440.417 386.438 433.236 390.581C426.059 394.724 411.172 403.321 400.153 409.684C389.138 416.047 376.37 423.421 363.449 430.891L363.431 433.476C363.421 434.897 363.395 436.497 363.369 437.029C363.343 437.562 363.351 437.999 363.387 437.999C363.423 437.999 376.682 430.364 392.852 421.031C409.021 411.7 424.521 402.755 427.292 401.157C430.065 399.558 437.338 395.357 443.456 391.824C449.574 388.291 462.445 380.865 472.06 375.321C481.675 369.777 489.465 365.161 489.369 365.066C489.271 364.97 487.216 363.735 484.8 362.321C482.383 360.91 475.697 357.022 469.938 353.683C464.182 350.346 450.807 342.577 440.215 336.418C429.626 330.261 417.879 323.438 414.11 321.259C410.344 319.077 407.204 317.289 407.132 317.286ZM411.009 338.527C410.655 338.519 409.957 338.664 409.458 338.847C408.962 339.028 401.751 343.189 393.433 348.092C385.119 352.995 374.94 358.992 370.818 361.416C366.695 363.84 358.73 368.441 353.113 371.638C347.499 374.838 339.823 379.237 336.055 381.413C332.289 383.59 328.771 385.608 328.239 385.903C327.706 386.195 327.267 386.492 327.264 386.565C327.259 386.634 329.381 387.934 331.979 389.452C334.576 390.966 340.511 394.427 345.165 397.141C349.82 399.852 353.746 402.072 353.889 402.072C354.031 402.072 362.899 396.994 373.596 390.785C384.294 384.577 395.199 378.245 397.827 376.715C400.458 375.182 407.902 370.855 426.129 360.269L426.106 357.715C426.09 355.916 425.922 354.626 425.537 353.352C425.237 352.357 424.469 350.496 423.828 349.217C423.187 347.937 422.014 346.076 421.221 345.081C420.427 344.086 419.055 342.659 418.173 341.912C417.289 341.163 415.927 340.209 415.144 339.793C414.364 339.377 413.257 338.925 412.689 338.788C412.12 338.653 411.365 338.537 411.009 338.527ZM438.793 354.918C437.804 355.011 436.834 355.428 434.658 356.694C433.094 357.601 430.13 359.325 428.067 360.522C426.007 361.721 413.213 369.154 399.636 377.045C386.062 384.934 370.497 393.995 355.152 402.977L357.559 404.352C358.879 405.107 360.691 406.153 363.201 407.629L363.227 418.356C363.242 424.256 363.24 429.17 363.224 429.276C363.206 429.382 363.253 429.469 363.322 429.469C363.395 429.469 367.202 427.301 371.787 424.652C376.372 422.002 382.043 418.728 384.387 417.379C386.734 416.027 392.723 412.571 397.698 409.697C402.673 406.823 413.084 400.806 420.83 396.329C428.579 391.853 438.406 386.174 442.67 383.709C446.935 381.245 451.259 378.756 452.283 378.18C453.35 377.575 454.2 376.911 454.281 376.614C454.361 376.329 454.425 375.283 454.43 374.288C454.433 373.292 454.2 371.548 453.913 370.411C453.624 369.273 452.973 367.469 452.469 366.404C451.962 365.337 451.045 363.709 450.429 362.786C449.814 361.861 448.574 360.346 447.672 359.418C446.77 358.493 445.449 357.338 444.738 356.852C444.027 356.368 443.04 355.8 442.541 355.593C442.045 355.384 441.288 355.12 440.861 355.006C440.435 354.893 439.504 354.854 438.793 354.918Z" fill="white"/>
<defs>
<linearGradient id="paint0_linear_1_596" x1="58.2981" y1="125.11" x2="54.3671" y2="128.467" gradientUnits="userSpaceOnUse">
<stop stop-color="#00B7FF"/>
<stop offset="1" stop-color="#0EB05C"/>
</linearGradient>
<linearGradient id="paint1_linear_1_596" x1="59.2272" y1="126.435" x2="54.2109" y2="130.719" gradientUnits="userSpaceOnUse">
<stop stop-color="#00B7FF"/>
<stop offset="1" stop-color="#0EB05C"/>
</linearGradient>
<linearGradient id="paint2_linear_1_596" x1="57.3053" y1="124.189" x2="52.0718" y2="128.658" gradientUnits="userSpaceOnUse">
<stop stop-color="#00B7FF"/>
<stop offset="1" stop-color="#0EB05C"/>
</linearGradient>
<linearGradient id="paint3_linear_1_596" x1="73.8422" y1="384.337" x2="73.8422" y2="389.461" gradientUnits="userSpaceOnUse">
<stop stop-color="#00B7FF"/>
<stop offset="1" stop-color="#0EB05C"/>
</linearGradient>
<linearGradient id="paint4_linear_1_596" x1="78.134" y1="383.188" x2="78.134" y2="383.658" gradientUnits="userSpaceOnUse">
<stop stop-color="#00B7FF"/>
<stop offset="1" stop-color="#0EB05C"/>
</linearGradient>
<linearGradient id="paint5_linear_1_596" x1="69.6653" y1="383.188" x2="69.6653" y2="383.658" gradientUnits="userSpaceOnUse">
<stop stop-color="#00B7FF"/>
<stop offset="1" stop-color="#0EB05C"/>
</linearGradient>
<linearGradient id="paint6_linear_1_596" x1="78.0927" y1="382.135" x2="78.0927" y2="383.284" gradientUnits="userSpaceOnUse">
<stop stop-color="#00B7FF"/>
<stop offset="1" stop-color="#0EB05C"/>
</linearGradient>
<linearGradient id="paint7_linear_1_596" x1="69.6607" y1="382.131" x2="69.6607" y2="383.298" gradientUnits="userSpaceOnUse">
<stop stop-color="#00B7FF"/>
<stop offset="1" stop-color="#0EB05C"/>
</linearGradient>
<linearGradient id="paint8_linear_1_596" x1="73.897" y1="375.866" x2="73.897" y2="381.31" gradientUnits="userSpaceOnUse">
<stop stop-color="#00B7FF"/>
<stop offset="1" stop-color="#0EB05C"/>
</linearGradient>
<linearGradient id="paint9_linear_1_596" x1="157.3" y1="355.937" x2="157.3" y2="408.29" gradientUnits="userSpaceOnUse">
<stop stop-color="#00B7FF"/>
<stop offset="1" stop-color="#0EB05C"/>
</linearGradient>
<linearGradient id="paint10_linear_1_596" x1="166.155" y1="373.544" x2="166.155" y2="379.69" gradientUnits="userSpaceOnUse">
<stop stop-color="#00B7FF"/>
<stop offset="1" stop-color="#0EB05C"/>
</linearGradient>
<linearGradient id="paint11_linear_1_596" x1="148.885" y1="373.523" x2="148.885" y2="379.597" gradientUnits="userSpaceOnUse">
<stop stop-color="#00B7FF"/>
<stop offset="1" stop-color="#0EB05C"/>
</linearGradient>
<linearGradient id="paint12_linear_1_596" x1="157.396" y1="363.202" x2="157.396" y2="389.994" gradientUnits="userSpaceOnUse">
<stop stop-color="#00B7FF"/>
<stop offset="1" stop-color="#0EB05C"/>
</linearGradient>
<linearGradient id="paint13_linear_1_596" x1="354.116" y1="239.037" x2="354.116" y2="318.505" gradientUnits="userSpaceOnUse">
<stop stop-color="#00B7FF"/>
<stop offset="1" stop-color="#0EB05C"/>
</linearGradient>
<linearGradient id="paint14_linear_1_596" x1="357.161" y1="124.895" x2="357.161" y2="166.484" gradientUnits="userSpaceOnUse">
<stop stop-color="#00B7FF"/>
<stop offset="1" stop-color="#0EB05C"/>
</linearGradient>
<linearGradient id="paint15_linear_1_596" x1="161.512" y1="44.834" x2="161.512" y2="50.2634" gradientUnits="userSpaceOnUse">
<stop stop-color="#00B7FF"/>
<stop offset="1" stop-color="#0EB05C"/>
</linearGradient>
<linearGradient id="paint16_linear_1_596" x1="165.648" y1="42.6255" x2="165.648" y2="44.0799" gradientUnits="userSpaceOnUse">
<stop stop-color="#00B7FF"/>
<stop offset="1" stop-color="#0EB05C"/>
</linearGradient>
<linearGradient id="paint17_linear_1_596" x1="157.261" y1="42.6187" x2="157.261" y2="44.0849" gradientUnits="userSpaceOnUse">
<stop stop-color="#00B7FF"/>
<stop offset="1" stop-color="#0EB05C"/>
</linearGradient>
<linearGradient id="paint18_linear_1_596" x1="161.512" y1="36.3647" x2="161.512" y2="41.7941" gradientUnits="userSpaceOnUse">
<stop stop-color="#00B7FF"/>
<stop offset="1" stop-color="#0EB05C"/>
</linearGradient>
<linearGradient id="paint19_linear_1_596" x1="390.894" y1="34.1094" x2="390.894" y2="43.1683" gradientUnits="userSpaceOnUse">
<stop stop-color="#00B7FF"/>
<stop offset="1" stop-color="#0EB05C"/>
</linearGradient>
<linearGradient id="paint20_linear_1_596" x1="192.523" y1="20.0005" x2="192.523" y2="340.878" gradientUnits="userSpaceOnUse">
<stop stop-color="#00B7FF"/>
<stop offset="1" stop-color="#0EB05C"/>
</linearGradient>
<linearGradient id="paint21_linear_1_596" x1="248.897" y1="69.8677" x2="248.897" y2="110.9" gradientUnits="userSpaceOnUse">
<stop stop-color="#00B7FF"/>
<stop offset="1" stop-color="#0EB05C"/>
</linearGradient>
<linearGradient id="paint22_linear_1_596" x1="202.891" y1="262.485" x2="202.891" y2="310.087" gradientUnits="userSpaceOnUse">
<stop stop-color="#00B7FF"/>
<stop offset="1" stop-color="#0EB05C"/>
</linearGradient>
<linearGradient id="paint23_linear_1_596" x1="202.978" y1="278.144" x2="202.978" y2="294.212" gradientUnits="userSpaceOnUse">
<stop stop-color="#00B7FF"/>
<stop offset="1" stop-color="#0EB05C"/>
</linearGradient>
<linearGradient id="paint24_linear_1_596" x1="244.858" y1="206.453" x2="244.858" y2="278.303" gradientUnits="userSpaceOnUse">
<stop stop-color="#00B7FF"/>
<stop offset="1" stop-color="#0EB05C"/>
</linearGradient>
<linearGradient id="paint25_linear_1_596" x1="202.938" y1="219.802" x2="202.938" y2="240.821" gradientUnits="userSpaceOnUse">
<stop stop-color="#00B7FF"/>
<stop offset="1" stop-color="#0EB05C"/>
</linearGradient>
<linearGradient id="paint26_linear_1_596" x1="244.841" y1="150.502" x2="244.841" y2="222.395" gradientUnits="userSpaceOnUse">
<stop stop-color="#00B7FF"/>
<stop offset="1" stop-color="#0EB05C"/>
</linearGradient>
<linearGradient id="paint27_linear_1_596" x1="202.95" y1="160.518" x2="202.95" y2="188.134" gradientUnits="userSpaceOnUse">
<stop stop-color="#00B7FF"/>
<stop offset="1" stop-color="#0EB05C"/>
</linearGradient>
<linearGradient id="paint28_linear_1_596" x1="268.473" y1="106.538" x2="268.473" y2="166.397" gradientUnits="userSpaceOnUse">
<stop stop-color="#00B7FF"/>
<stop offset="1" stop-color="#0EB05C"/>
</linearGradient>
<linearGradient id="paint29_linear_1_596" x1="508.967" y1="195.324" x2="508.967" y2="292.453" gradientUnits="userSpaceOnUse">
<stop stop-color="#00B7FF"/>
<stop offset="1" stop-color="#0EB05C"/>
</linearGradient>
<linearGradient id="paint30_linear_1_596" x1="344.838" y1="316.076" x2="344.838" y2="522" gradientUnits="userSpaceOnUse">
<stop stop-color="#00B7FF"/>
<stop offset="1" stop-color="#0EB05C"/>
</linearGradient>
<linearGradient id="paint31_linear_1_596" x1="340.62" y1="486.739" x2="340.62" y2="499.037" gradientUnits="userSpaceOnUse">
<stop stop-color="#00B7FF"/>
<stop offset="1" stop-color="#0EB05C"/>
</linearGradient>
<linearGradient id="paint32_linear_1_596" x1="245.08" y1="461.265" x2="245.08" y2="514.503" gradientUnits="userSpaceOnUse">
<stop stop-color="#00B7FF"/>
<stop offset="1" stop-color="#0EB05C"/>
</linearGradient>
<linearGradient id="paint33_linear_1_596" x1="442.356" y1="428.843" x2="442.356" y2="441.784" gradientUnits="userSpaceOnUse">
<stop stop-color="#00B7FF"/>
<stop offset="1" stop-color="#0EB05C"/>
</linearGradient>
<linearGradient id="paint34_linear_1_596" x1="339.48" y1="415.771" x2="339.48" y2="469.457" gradientUnits="userSpaceOnUse">
<stop stop-color="#00B7FF"/>
<stop offset="1" stop-color="#0EB05C"/>
</linearGradient>
<linearGradient id="paint35_linear_1_596" x1="473.278" y1="411.113" x2="473.278" y2="423.972" gradientUnits="userSpaceOnUse">
<stop stop-color="#00B7FF"/>
<stop offset="1" stop-color="#0EB05C"/>
</linearGradient>
</defs>
</svg>
