<svg width="123" height="36" viewBox="0 0 123 36" fill="none" xmlns="http://www.w3.org/2000/svg">
<g clip-path="url(#clip0_121_3949)">
<mask id="mask0_121_3949" style="mask-type:luminance" maskUnits="userSpaceOnUse" x="0" y="0" width="123" height="36">
<path d="M0 0H122.828V35.8866H0V0Z" fill="white"/>
</mask>
<g mask="url(#mask0_121_3949)">
<path d="M117.488 11.7889L114.543 19.1673C114.302 19.7505 114.063 20.334 113.857 20.9184C113.555 21.7721 113.303 22.6432 113.104 23.5269C112.83 22.601 112.591 21.6736 112.318 20.7465C112.044 19.8541 111.769 18.9615 111.461 18.0692L109.3 11.7541H101.833C101.833 11.6853 101.729 10.1063 102.998 9.69486C103.431 9.56575 103.882 9.50768 104.333 9.52291H106.161V5.5086H104.333C102.817 5.41074 101.306 5.75637 99.9831 6.50333C99.3221 6.95848 98.7702 7.55478 98.3673 8.24921C97.9644 8.94364 97.7206 9.71889 97.6534 10.519C97.586 10.9303 97.586 11.3428 97.5513 11.7553H95.4273V15.4957H97.5175V30.0817H101.799V15.4617H105.739L110.671 28.4688L107.485 35.8866H112.179L122.319 11.7887L117.488 11.7889ZM89.6441 30.0815H93.9258V11.6863H89.6441V30.0815ZM89.661 9.78074H93.9089V5.90199H89.661V9.78074ZM80.6954 11.3774C79.0295 11.3171 77.3984 11.8638 76.1048 12.916C75.7569 13.2303 75.4253 13.5623 75.1114 13.9107C74.8035 13.5348 74.4717 13.1793 74.118 12.8464C73.9653 12.701 73.8052 12.5637 73.6382 12.4351C72.5879 11.7201 71.3462 11.3393 70.0758 11.3426C68.8095 11.3378 67.5742 11.7344 66.547 12.4755C66.21 12.7508 65.7256 13.2307 65.6908 13.2623L65.6569 11.5482H61.5452V30.0815H65.8267V20.163C65.7066 19.0007 65.9715 17.831 66.5808 16.8341C66.8784 16.4152 67.2753 16.0766 67.7358 15.8489C68.1963 15.6211 68.7061 15.5112 69.2195 15.5291C69.6289 15.5175 70.0365 15.5875 70.4186 15.7349C70.8008 15.8823 71.1498 16.1043 71.4455 16.3878C71.8789 16.9148 72.2022 17.5235 72.3965 18.1777C72.5907 18.8319 72.6518 19.5185 72.5762 20.1968V30.0815H76.8577V20.0944C76.9263 18.648 77.0633 17.0745 78.4018 16.1123C78.9656 15.724 79.6359 15.5202 80.3202 15.5291C81.0714 15.4868 81.8112 15.7278 82.3937 16.2044C82.9762 16.6811 83.359 17.3588 83.4668 18.104C83.5844 18.6448 83.6305 19.1988 83.6038 19.7517V30.0827H87.8853V19.6819C87.9161 18.6455 87.826 17.609 87.6168 16.5934C87.2611 15.0482 86.3721 13.678 85.1064 12.7241C83.8401 11.7699 82.2783 11.2931 80.6954 11.3774ZM49.6928 30.3552C49.1465 30.3605 48.6007 30.3203 48.061 30.235C47.2382 30.1011 46.4382 29.8525 45.6843 29.4965C44.0472 28.7266 42.6693 27.4969 41.7183 25.9572C40.7703 24.4233 40.2695 22.6548 40.2723 20.8512C40.2656 19.5507 40.5336 18.2635 41.0587 17.0739C41.4154 16.2412 41.8918 15.4649 42.4724 14.7699C43.0462 14.084 43.7139 13.4828 44.4559 12.9839C45.1956 12.4831 46.0037 12.0917 46.8552 11.8219C47.718 11.5496 48.6173 11.4109 49.522 11.4104C50.1623 11.413 50.8002 11.4884 51.4234 11.6352C52.409 11.8571 53.337 12.2837 54.1473 12.8872C54.5793 13.2413 54.9805 13.6315 55.3464 14.0537L55.3116 11.6509H59.5933V30.0831H55.5162L55.5498 27.4061C55.1293 28.0029 54.6218 28.5333 54.044 28.9794C53.4294 29.4641 52.7313 29.8321 51.9842 30.0652C51.2389 30.2746 50.4667 30.3723 49.6928 30.3552ZM50.0007 15.4263C48.7912 15.4167 47.6161 15.8291 46.6777 16.5928C46.0415 17.111 45.5295 17.7655 45.1794 18.5079C44.8293 19.2504 44.6501 20.0619 44.6548 20.8828C44.6373 22.3023 45.1836 23.6707 46.1738 24.6874C47.1643 25.7043 48.5176 26.2862 49.9366 26.3055C51.0822 26.3224 52.1966 25.9335 53.0831 25.2076C53.7397 24.7011 54.2723 24.0515 54.6403 23.3081C55.0083 22.5647 55.2022 21.7472 55.2071 20.9176C55.1982 20.2488 55.0844 19.5855 54.8701 18.9519C54.8544 18.9024 54.8419 18.8608 54.8307 18.8226C54.4516 17.8419 53.7903 16.9957 52.9306 16.3911C52.0709 15.7865 51.0512 15.4509 50.0007 15.4263ZM34.4322 14.0647V11.6517H30.1507V30.0839H34.4322V18.5816L40.0331 16.1674V11.6517L34.4322 14.0647ZM3.15901 25.7263L0 30.2062H4.31525L9.9624 22.2152L14.6159 30.2062H18.8075C18.8075 30.2062 18.6458 29.9218 12.2582 18.9446C21.4396 19.0573 25.3253 6.25676 28.1204 0C6.63034 2.1421 8.76556 14.948 8.76556 14.948L18.3479 8.14927L18.1144 8.37453C12.5799 13.6606 7.5714 19.4719 3.15921 25.7265" fill="white"/>
</g>
</g>
<defs>
<clipPath id="clip0_121_3949">
<rect width="123" height="36" fill="white"/>
</clipPath>
</defs>
</svg>
