<svg width="79" height="36" viewBox="0 0 79 36" fill="none" xmlns="http://www.w3.org/2000/svg">
<path d="M32.1724 7.87908H28.2299V24.8931H32.1724V7.87908ZM32.1724 1.88062H28.2299V5.93278H32.1724V1.88062ZM38.7932 20.8895C38.4687 20.5555 38.3093 20.039 38.3093 19.3455V1.91489H34.3669V19.6224C34.3669 21.3575 34.8451 22.6673 35.8015 23.5577C36.758 24.4481 38.1585 24.8933 40.003 24.8933H40.7972V21.3916H40.2449C39.5989 21.3916 39.1149 21.2233 38.7932 20.8895ZM53.9853 8.62125C52.7215 7.905 51.2726 7.54269 49.6359 7.52829C47.9991 7.51389 46.5188 7.89074 45.201 8.65553C43.8801 9.42031 42.8354 10.4505 42.0641 11.7518C41.2926 13.0531 40.8998 14.5001 40.8884 16.0953C40.8771 17.6905 41.2386 19.143 41.9786 20.4558C42.7159 21.7685 43.7464 22.8158 45.0671 23.6006C46.388 24.3854 47.8881 24.785 49.5704 24.7992C50.8855 24.8106 52.1038 24.5822 53.2253 24.1171C54.3469 23.652 55.3204 23.0013 56.1459 22.1652C56.5277 21.7781 56.8674 21.3514 57.1593 20.8924L53.4985 20.0477C53.1201 20.4444 52.6902 20.7583 52.212 20.9894C51.4349 21.3632 50.5638 21.5487 49.5959 21.5402C48.7421 21.5345 47.9479 21.3261 47.2134 20.9153C46.479 20.5044 45.8897 19.9279 45.4457 19.1858C45.1212 18.6437 44.9191 18.0472 44.8366 17.3994L58.0673 17.505L58.0816 15.8898C58.0958 14.2717 57.7314 12.8363 56.9914 11.5806C56.2512 10.3278 55.2492 9.34327 53.9882 8.62701L53.9853 8.62125ZM44.9362 14.2888C45.0483 13.8233 45.2369 13.3796 45.4941 12.9761C45.9496 12.2627 46.5417 11.6948 47.2703 11.2753C47.9991 10.853 48.7791 10.6446 49.6102 10.6532C50.4869 10.659 51.2755 10.8586 51.9757 11.2439C52.6759 11.632 53.2309 12.157 53.6409 12.8164C53.9284 13.2786 54.1106 13.7952 54.1932 14.363L44.9362 14.2888ZM68.3349 7.57106C63.567 7.57106 59.7042 11.4465 59.7042 16.2236C59.7042 21.0006 63.5699 24.8763 68.3349 24.8763C73.0999 24.8763 76.9657 21.0008 76.9657 16.2236C76.9657 11.4464 73.1 7.57106 68.3349 7.57106ZM68.3349 21.3376C65.5198 21.3376 63.2368 19.0489 63.2368 16.2265C63.2368 13.4041 65.5198 11.1155 68.3349 11.1155C71.15 11.1155 73.4331 13.4042 73.4331 16.2265C73.4331 19.0487 71.1502 21.3376 68.3349 21.3376ZM28.4406 33.3603V30.2727H28.9501V33.3603H28.4406ZM28.5772 33.3603V32.9208H30.3307V33.3603H28.5772ZM31.5406 33.4231C31.3442 33.4231 31.1734 33.3946 31.0225 33.3374C30.8745 33.2804 30.7493 33.1976 30.6467 33.0892C30.542 32.9775 30.4633 32.844 30.4162 32.6982C30.3622 32.5441 30.3365 32.3758 30.3365 32.1874C30.3365 31.9991 30.3622 31.8221 30.4133 31.6623C30.4644 31.5024 30.5386 31.3627 30.6382 31.2428C30.7369 31.1237 30.8616 31.029 31.0026 30.966C31.1477 30.9004 31.3129 30.869 31.5008 30.869C31.6687 30.869 31.8195 30.8975 31.9562 30.9546C32.0901 31.0096 32.2077 31.098 32.2978 31.2114C32.3918 31.3256 32.46 31.4654 32.5055 31.6338C32.551 31.8022 32.5681 31.9962 32.5539 32.2188L30.6582 32.2388V31.922L32.2437 31.9078L32.0758 32.099C32.0957 31.9163 32.0786 31.7622 32.0302 31.6424C31.9818 31.5224 31.9106 31.434 31.8195 31.3741C31.7284 31.3142 31.6203 31.2857 31.495 31.2857C31.3584 31.2857 31.2388 31.3227 31.1392 31.3941C31.0367 31.4654 30.9598 31.5682 30.9058 31.6994C30.8517 31.8307 30.8232 31.9906 30.8232 32.1788C30.8232 32.4557 30.8859 32.6668 31.0111 32.8095C31.1364 32.9522 31.31 33.0236 31.5377 33.0236C31.6374 33.0236 31.72 33.0121 31.7911 32.9865C31.8594 32.9609 31.9163 32.9295 31.9647 32.8865C32.0103 32.8438 32.0502 32.7953 32.0758 32.7411C32.1042 32.6868 32.1242 32.6298 32.1413 32.5697L32.5881 32.6639C32.5648 32.7733 32.5245 32.8783 32.4686 32.9751C32.4133 33.0679 32.3408 33.1492 32.255 33.2147C32.1624 33.2856 32.0571 33.3379 31.9448 33.3688C31.8253 33.406 31.6887 33.4231 31.5377 33.4231H31.5406ZM34.0028 33.3603V31.0717H33.5588V30.6236C33.6983 30.6236 33.8149 30.6008 33.9117 30.5552C34.0057 30.5094 34.0683 30.4152 34.0967 30.2727H34.518V33.3603H34.0028ZM35.4689 31.8392C35.355 31.8392 35.2554 31.8221 35.1671 31.7878C35.084 31.7565 35.0091 31.7067 34.9479 31.6422C34.8882 31.5795 34.8455 31.5024 34.8142 31.414C34.7829 31.3254 34.7686 31.2257 34.7686 31.1172C34.7686 31.0088 34.7829 30.9031 34.8142 30.8118C34.8427 30.7228 34.8871 30.6397 34.945 30.5664C35.0021 30.495 35.0732 30.4437 35.1586 30.4066C35.2504 30.3676 35.3492 30.3482 35.4489 30.3496C35.5456 30.3496 35.6339 30.3666 35.7136 30.4008C35.7918 30.4334 35.8604 30.4855 35.9129 30.5522C35.967 30.6178 36.0068 30.7005 36.0354 30.7975C36.064 30.8946 36.0723 31.0088 36.0638 31.1371L34.9593 31.1486V30.9631L35.8844 30.9545L35.7876 31.0658C35.7991 30.9574 35.7876 30.869 35.762 30.8004C35.7365 30.7319 35.6937 30.6777 35.6397 30.6435C35.5833 30.6086 35.518 30.5907 35.4518 30.5921C35.3721 30.5921 35.3037 30.6121 35.2439 30.6548C35.1842 30.6976 35.1387 30.7548 35.1073 30.8347C35.076 30.9117 35.0589 31.0059 35.0589 31.1143C35.0589 31.2769 35.096 31.3998 35.1671 31.4824C35.2383 31.5652 35.3408 31.608 35.4746 31.608C35.5315 31.608 35.5828 31.5995 35.6226 31.5852C35.6624 31.571 35.6965 31.5509 35.7222 31.5253C35.7478 31.4995 35.7707 31.4739 35.7876 31.4396C35.8047 31.4082 35.8162 31.374 35.8247 31.3397L36.0865 31.394C36.0738 31.4582 36.0507 31.5198 36.0183 31.5766C35.9859 31.6309 35.9434 31.6783 35.893 31.7164C35.8418 31.7564 35.782 31.785 35.7108 31.8078C35.6329 31.8295 35.5525 31.8401 35.4717 31.8392H35.4689ZM36.2401 31.8024V30.384H36.4992L36.4821 30.892H36.5247C36.5418 30.7749 36.5674 30.6779 36.6016 30.5981C36.6311 30.5259 36.6792 30.4628 36.7411 30.4154C36.7981 30.3726 36.8721 30.3526 36.9574 30.3526C36.9773 30.3526 36.9973 30.3526 37.02 30.3555C37.0428 30.3555 37.0684 30.364 37.097 30.3726L37.0826 30.6865C37.0542 30.6748 37.0247 30.6663 36.9944 30.6609C36.9672 30.6553 36.9396 30.6525 36.9118 30.6522C36.8407 30.6522 36.781 30.6723 36.7297 30.715C36.6745 30.762 36.6315 30.8217 36.6045 30.8891C36.5699 30.9735 36.5451 31.0616 36.5305 31.1516V31.7995H36.2345L36.2401 31.8024ZM39.3058 33.4231C39.0951 33.4231 38.913 33.3888 38.7649 33.326C38.617 33.2604 38.4917 33.172 38.3978 33.0578C38.301 32.9436 38.2299 32.8124 38.1814 32.661C38.133 32.5097 38.1102 32.3471 38.1102 32.1759C38.1102 31.9933 38.1359 31.8221 38.1843 31.6651C38.2311 31.5128 38.3075 31.3712 38.4091 31.2486C38.5086 31.1284 38.6343 31.0327 38.7764 30.9688C38.9215 30.9032 39.0895 30.8718 39.283 30.8718C39.4766 30.8718 39.6474 30.9061 39.7926 30.9716C39.9348 31.0402 40.0516 31.1315 40.1371 31.2513C40.2253 31.3712 40.2793 31.5111 40.305 31.6709L39.8295 31.8021C39.8245 31.7107 39.7982 31.6218 39.7527 31.5425C39.7083 31.4637 39.6434 31.3986 39.5648 31.3541C39.4851 31.3085 39.3856 31.2856 39.2716 31.2856C39.1692 31.2856 39.078 31.3056 38.9956 31.3455C38.9149 31.386 38.8461 31.447 38.7962 31.5224C38.7422 31.5995 38.7023 31.6937 38.6738 31.7992C38.6431 31.9156 38.6277 32.0356 38.6283 32.156C38.6283 32.3358 38.6539 32.4898 38.7051 32.6183C38.7564 32.7467 38.8333 32.8467 38.933 32.9151C39.0325 32.9865 39.1635 33.0206 39.3172 33.0206C39.4453 33.0206 39.5506 32.9979 39.6361 32.9493C39.7186 32.9035 39.7867 32.8353 39.8324 32.7525C39.8793 32.6659 39.9084 32.5708 39.9179 32.4727L40.3761 32.5669C40.3627 32.6912 40.3271 32.8121 40.2708 32.9237C40.2174 33.0276 40.1438 33.1197 40.0545 33.1947C39.9661 33.269 39.858 33.326 39.7327 33.3659C39.6075 33.406 39.468 33.4231 39.3114 33.4231H39.3058ZM41.6372 33.4231C41.4009 33.4231 41.1932 33.3746 41.0138 33.2748C40.8346 33.1777 40.6951 33.0321 40.5925 32.8409C40.4901 32.6498 40.4417 32.4158 40.4417 32.136C40.4417 31.8562 40.4928 31.6168 40.5983 31.4284C40.7036 31.2401 40.8459 31.1002 41.0252 31.0061C41.2046 30.9119 41.4067 30.8662 41.6259 30.8662C41.845 30.8662 42.0614 30.9148 42.2408 31.0117C42.42 31.1087 42.5624 31.2514 42.6648 31.4427C42.7673 31.6339 42.8186 31.8707 42.8186 32.1532C42.8186 32.4357 42.7673 32.6697 42.6648 32.858C42.5624 33.0464 42.42 33.1891 42.2408 33.2804C42.0614 33.3746 41.8593 33.4202 41.6343 33.4202L41.6372 33.4231ZM41.6514 33.0208C41.7909 33.0208 41.9105 32.9865 42.0074 32.9237C42.104 32.8609 42.1809 32.7611 42.235 32.6327C42.289 32.5042 42.3147 32.353 42.3147 32.1732C42.3147 31.9933 42.2863 31.8307 42.2321 31.6994C42.178 31.5681 42.0984 31.4654 41.993 31.3941C41.8877 31.3227 41.7624 31.2857 41.6172 31.2857C41.4806 31.2857 41.3611 31.3171 41.2614 31.3828C41.1619 31.4483 41.0851 31.5425 41.0338 31.668C40.9796 31.7936 40.9541 31.9478 40.9541 32.1304C40.9541 32.4101 41.0167 32.6298 41.1419 32.7839C41.2672 32.9408 41.4351 33.0179 41.6514 33.0179V33.0208ZM43.1258 33.3602V30.9287H43.5586L43.5273 31.7278H43.6069C43.6439 31.5337 43.6981 31.374 43.7692 31.2455C43.8404 31.1171 43.9258 31.0229 44.0283 30.9601C44.1307 30.8973 44.2502 30.8659 44.3841 30.8659C44.5378 30.8659 44.663 30.9031 44.7599 30.9744C44.8565 31.0457 44.9306 31.1485 44.9818 31.2769C45.0302 31.4054 45.0588 31.5508 45.0615 31.7164H45.1327C45.1696 31.5281 45.2238 31.374 45.2949 31.2455C45.3661 31.12 45.4572 31.0229 45.5654 30.9601C45.6735 30.8973 45.7988 30.8631 45.9382 30.8631C46.0664 30.8631 46.1774 30.8888 46.2742 30.9401C46.371 30.9914 46.4506 31.0657 46.5161 31.1656C46.5816 31.2627 46.63 31.3882 46.6642 31.5337C46.6982 31.6821 46.7126 31.8533 46.7126 32.0446V33.3544H46.203V32.1045C46.203 31.9275 46.1859 31.7792 46.1546 31.6621C46.1232 31.5452 46.0748 31.4566 46.0122 31.3967C45.9496 31.3368 45.87 31.3083 45.7703 31.3083C45.6593 31.3083 45.5596 31.3482 45.4714 31.4281C45.3832 31.508 45.3149 31.6165 45.2636 31.7592C45.2124 31.899 45.1811 32.0617 45.1669 32.2472V33.3544H44.6686V32.133C44.6686 31.9504 44.6544 31.7963 44.6231 31.6735C44.5918 31.5508 44.5434 31.4595 44.478 31.3996C44.4125 31.3397 44.3328 31.3083 44.236 31.3083C44.1165 31.3083 44.0168 31.3482 43.9315 31.431C43.8462 31.5138 43.7778 31.625 43.7294 31.7677C43.681 31.9104 43.6497 32.0731 43.6411 32.2557V33.3515H43.1316L43.1258 33.3602ZM47.1024 34.1137V30.9289H47.5465L47.5266 31.5881L47.5977 31.5939C47.6319 31.4398 47.6831 31.3113 47.7542 31.2029C47.8255 31.0944 47.9137 31.0117 48.019 30.9546C48.1272 30.8975 48.2553 30.869 48.4033 30.869C48.6168 30.869 48.799 30.9232 48.9499 31.0317C49.0978 31.1401 49.2117 31.2884 49.2886 31.4797C49.3654 31.6709 49.4025 31.8964 49.4025 32.1503C49.4025 32.4043 49.3654 32.6212 49.2914 32.8124C49.2175 33.0036 49.1064 33.1548 48.9612 33.2604C48.816 33.3689 48.6396 33.4231 48.4318 33.4231C48.2667 33.4231 48.13 33.3888 48.0218 33.3232C47.9136 33.2576 47.8254 33.1663 47.7571 33.0493C47.6864 32.9299 47.6327 32.8011 47.5977 32.6668H47.5181C47.5379 32.7581 47.5521 32.8495 47.5664 32.9408C47.5806 33.0321 47.5921 33.1234 47.5977 33.2091C47.6063 33.2975 47.6092 33.3803 47.6092 33.463V34.1166H47.0995L47.1024 34.1137ZM48.2837 32.995C48.4118 32.995 48.5172 32.958 48.6054 32.8865C48.6936 32.8124 48.7591 32.7125 48.8047 32.5842C48.8502 32.4557 48.8759 32.3101 48.8759 32.1447C48.8759 31.9792 48.8531 31.825 48.8047 31.6994C48.7591 31.5738 48.6908 31.4768 48.5997 31.4084C48.5086 31.3398 48.4033 31.3056 48.2781 31.3056C48.1699 31.3056 48.0731 31.3314 47.9905 31.377C47.9076 31.425 47.8358 31.4902 47.7799 31.5682C47.7232 31.6471 47.6799 31.7348 47.6518 31.8279C47.624 31.9185 47.6096 32.0127 47.6092 32.1075V32.1732C47.6092 32.236 47.6176 32.3044 47.6347 32.3758C47.6518 32.4499 47.6774 32.5214 47.7145 32.5926C47.7515 32.6639 47.7942 32.7296 47.8482 32.7924C47.9023 32.8523 47.9649 32.9008 48.0361 32.938C48.1102 32.9751 48.1899 32.9922 48.281 32.9922L48.2837 32.995ZM50.5184 33.4117C50.2794 33.4117 50.1028 33.3461 49.9862 33.2147C49.8723 33.0835 49.8125 32.8837 49.8125 32.6154V31.3427H49.4566L49.4624 30.9346H49.6815C49.7697 30.9318 49.8324 30.9146 49.8752 30.8832C49.9178 30.8518 49.9434 30.7976 49.952 30.7206L49.9976 30.3838H50.3021V30.926H50.9654V31.3512H50.3021V32.5955C50.3021 32.7182 50.3306 32.8038 50.3875 32.858C50.4444 32.9122 50.5241 32.938 50.6294 32.938C50.6893 32.938 50.7491 32.9322 50.8059 32.9179C50.869 32.9029 50.9282 32.8747 50.9796 32.8351V33.326C50.8885 33.3574 50.8059 33.3803 50.7262 33.3917C50.6494 33.4031 50.5783 33.4117 50.5156 33.4117H50.5184ZM52.2692 33.4231C52.0727 33.4231 51.9019 33.3946 51.7511 33.3374C51.6029 33.2804 51.4777 33.1976 51.3753 33.0892C51.2704 32.9777 51.1916 32.8441 51.1448 32.6982C51.0906 32.5441 51.0651 32.3758 51.0651 32.1874C51.0651 31.9991 51.0906 31.8221 51.1419 31.6623C51.1932 31.5024 51.2672 31.3627 51.3667 31.2428C51.4654 31.1237 51.59 31.029 51.7311 30.966C51.8763 30.9004 52.0414 30.869 52.2292 30.869C52.3971 30.869 52.5481 30.8975 52.6847 30.9546C52.8185 31.0096 52.9361 31.098 53.0263 31.2114C53.1202 31.3256 53.1886 31.4654 53.2341 31.6338C53.2796 31.8022 53.2967 31.9962 53.2825 32.2188L51.3867 32.2388V31.922L52.9723 31.9078L52.8042 32.099C52.8242 31.9163 52.8071 31.7622 52.7587 31.6424C52.7103 31.5224 52.6392 31.434 52.5481 31.3741C52.457 31.3142 52.3489 31.2857 52.2236 31.2857C52.0869 31.2857 51.9674 31.3227 51.8677 31.3941C51.7653 31.4654 51.6884 31.5682 51.6343 31.6994C51.5803 31.8307 51.5518 31.9906 51.5518 32.1788C51.5518 32.4557 51.6145 32.6668 51.7397 32.8095C51.865 32.9522 52.0385 33.0236 52.2663 33.0236C52.3658 33.0236 52.4484 33.0121 52.5197 32.9865C52.5879 32.9609 52.6449 32.9295 52.6932 32.8865C52.7388 32.8438 52.7786 32.7953 52.8042 32.7411C52.8328 32.6868 52.8526 32.6298 52.8697 32.5697L53.3167 32.6639C53.2934 32.7733 53.253 32.8783 53.1971 32.9751C53.1418 33.0679 53.0693 33.1492 52.9836 33.2147C52.891 33.2856 52.7857 33.3379 52.6734 33.3688C52.5537 33.406 52.4171 33.4231 52.2663 33.4231H52.2692ZM54.4806 34.1137V30.9289H54.9247L54.9047 31.5881L54.976 31.5939C55.01 31.4398 55.0613 31.3113 55.1326 31.2029C55.2036 31.0944 55.2918 31.0117 55.3973 30.9546C55.5055 30.8975 55.6336 30.869 55.7815 30.869C55.995 30.869 56.1772 30.9232 56.328 31.0317C56.4761 31.1401 56.5899 31.2884 56.6667 31.4797C56.7436 31.6709 56.7806 31.8964 56.7806 32.1503C56.7806 32.4043 56.7436 32.6212 56.6696 32.8124C56.5956 33.0036 56.4846 33.1548 56.3394 33.2604C56.1943 33.3689 56.0178 33.4231 55.8099 33.4231C55.6449 33.4231 55.5083 33.3888 55.4 33.3232C55.2918 33.2576 55.2036 33.1663 55.1353 33.0493C55.0646 32.9299 55.011 32.8011 54.976 32.6668H54.8963C54.9161 32.7581 54.9305 32.8495 54.9447 32.9408C54.9589 33.0321 54.9702 33.1234 54.976 33.2091C54.9845 33.2975 54.9873 33.3803 54.9873 33.463V34.1166H54.4779L54.4806 34.1137ZM55.662 32.995C55.79 32.995 55.8954 32.958 55.9836 32.8865C56.0718 32.8124 56.1373 32.7125 56.1828 32.5842C56.2284 32.4557 56.2541 32.3101 56.2541 32.1447C56.2541 31.9792 56.2312 31.825 56.1828 31.6994C56.1373 31.5738 56.069 31.4768 55.9779 31.4084C55.8868 31.3398 55.7815 31.3056 55.6562 31.3056C55.5481 31.3056 55.4513 31.3314 55.3687 31.377C55.2858 31.425 55.214 31.4902 55.1581 31.5682C55.1014 31.6471 55.0581 31.7348 55.03 31.8279C55.0021 31.9185 54.9878 32.0127 54.9873 32.1075V32.1732C54.9873 32.236 54.9958 32.3044 55.0129 32.3758C55.03 32.4499 55.0556 32.5214 55.0926 32.5926C55.1297 32.6639 55.1723 32.7296 55.2265 32.7924C55.2805 32.8523 55.3431 32.9008 55.4144 32.938C55.4883 32.9751 55.5681 32.9922 55.6591 32.9922L55.662 32.995ZM57.0939 33.3603V30.9289H57.538L57.5096 31.7992H57.5836C57.612 31.5995 57.6547 31.4311 57.7146 31.2942C57.7743 31.1571 57.854 31.0516 57.9536 30.9803C58.0532 30.9089 58.1785 30.8718 58.3237 30.8718C58.3578 30.8718 58.3948 30.8718 58.4347 30.8775C58.4745 30.8832 58.5172 30.8917 58.5685 30.9089L58.5456 31.4483C58.454 31.4121 58.3567 31.3928 58.2582 31.3913C58.1358 31.3913 58.0333 31.4283 57.9451 31.4997C57.8568 31.571 57.7857 31.6709 57.7317 31.7992C57.6746 31.9277 57.6348 32.0761 57.6064 32.2473V33.3603H57.0939ZM59.7724 33.4231C59.5362 33.4231 59.3283 33.3746 59.1491 33.2748C58.9697 33.1777 58.8302 33.0321 58.7278 32.8409C58.6281 32.6498 58.577 32.4158 58.577 32.136C58.577 31.8562 58.6281 31.6168 58.7335 31.4284C58.8388 31.2401 58.9811 31.1002 59.1604 31.0061C59.3398 30.9119 59.5419 30.8662 59.7611 30.8662C59.9803 30.8662 60.1966 30.9148 60.3759 31.0117C60.5553 31.1087 60.6976 31.2514 60.8 31.4427C60.9025 31.6339 60.9537 31.8707 60.9537 32.1532C60.9537 32.4357 60.9026 32.6697 60.8 32.858C60.6976 33.0464 60.5553 33.1891 60.3759 33.2804C60.1966 33.3746 59.9945 33.4202 59.7696 33.4202L59.7724 33.4231ZM59.7867 33.0208C59.9261 33.0208 60.0458 32.9865 60.1424 32.9237C60.2393 32.8609 60.3161 32.7611 60.3703 32.6327C60.4243 32.5042 60.45 32.353 60.45 32.1732C60.45 31.9933 60.4214 31.8307 60.3674 31.6994C60.3132 31.5682 60.2335 31.4654 60.1282 31.3941C60.0229 31.3229 59.8977 31.2857 59.7525 31.2857C59.6159 31.2857 59.4964 31.3171 59.3967 31.3828C59.297 31.4483 59.2202 31.5425 59.169 31.668C59.1149 31.7936 59.0893 31.9478 59.0893 32.1304C59.0893 32.4101 59.1519 32.6298 59.2772 32.7839C59.4024 32.9408 59.5703 33.0179 59.7867 33.0179V33.0208ZM63.2282 33.4231C63.0318 33.4231 62.861 33.3946 62.7102 33.3374C62.5621 33.2804 62.4368 33.1976 62.3345 33.0892C62.2296 32.9777 62.1508 32.8441 62.1039 32.6982C62.0498 32.5441 62.0242 32.3758 62.0242 32.1874C62.0242 31.9991 62.0498 31.8221 62.1011 31.6623C62.1522 31.5026 62.2263 31.3626 62.3259 31.2428C62.4245 31.1237 62.5492 31.029 62.6903 30.966C62.8355 30.9004 63.0005 30.869 63.1884 30.869C63.3563 30.869 63.5073 30.8975 63.6439 30.9546C63.7805 31.0117 63.8944 31.0973 63.9854 31.2114C64.0794 31.3256 64.1477 31.4654 64.1933 31.6338C64.2388 31.8021 64.2559 31.9962 64.2417 32.2188L62.3458 32.2387V31.922L63.9313 31.9078L63.7634 32.0989C63.7833 31.9163 63.7662 31.7622 63.7178 31.6424C63.6694 31.5224 63.5983 31.434 63.5073 31.3741C63.4161 31.3142 63.3079 31.2856 63.1826 31.2856C63.0461 31.2856 62.9265 31.3227 62.8269 31.394C62.7244 31.4654 62.6476 31.5681 62.5935 31.6994C62.5394 31.8307 62.5109 31.9904 62.5109 32.1788C62.5109 32.4557 62.5735 32.6668 62.6987 32.8095C62.824 32.9522 62.9976 33.0235 63.2255 33.0235C63.325 33.0235 63.4076 33.0121 63.4787 32.9865C63.5471 32.9607 63.6039 32.9293 63.6523 32.8865C63.6979 32.8438 63.7378 32.7953 63.7634 32.741C63.7918 32.6868 63.8118 32.6298 63.8289 32.5697L64.2757 32.6639C64.2524 32.7732 64.2121 32.8782 64.1562 32.975C64.1009 33.0678 64.0285 33.1491 63.9428 33.2147C63.8502 33.2856 63.7449 33.3379 63.6325 33.3688C63.5129 33.406 63.3763 33.4231 63.2255 33.4231H63.2282ZM63.3165 30.5836H62.9008L63.2311 29.8588H63.772L63.3136 30.5836H63.3165ZM65.3518 33.4117C65.1127 33.4117 64.9363 33.3461 64.8195 33.2147C64.7029 33.0835 64.6459 32.8837 64.6459 32.6154V31.3427H64.2901L64.2958 30.9346H64.515C64.6032 30.9318 64.6658 30.9146 64.7085 30.8832C64.7512 30.8518 64.7768 30.7976 64.7853 30.7206L64.8309 30.3838H65.1355V30.926H65.7987V31.3512H65.1355V32.5955C65.1355 32.7182 65.164 32.8038 65.2208 32.858C65.2779 32.9122 65.3576 32.938 65.4629 32.938C65.5226 32.938 65.5824 32.9322 65.6394 32.9179C65.7024 32.9029 65.7615 32.8747 65.8129 32.8351V33.326C65.7219 33.3574 65.6394 33.3803 65.5597 33.3917C65.4828 33.4031 65.4116 33.4117 65.349 33.4117H65.3518ZM66.0633 33.3603V30.0728H66.5756V30.8176C66.5756 30.8832 66.5756 30.9518 66.5699 31.0259C66.5643 31.1001 66.5585 31.1742 66.5499 31.2542C66.5414 31.3312 66.533 31.4111 66.5215 31.4882C66.5101 31.5653 66.4988 31.6451 66.4873 31.7222H66.5699C66.6098 31.534 66.6667 31.3797 66.7378 31.2514C66.809 31.1259 66.9001 31.0288 67.0083 30.966C67.1164 30.9032 67.2503 30.869 67.404 30.869C67.68 30.869 67.8879 30.966 68.0216 31.16C68.1582 31.3541 68.2237 31.648 68.2237 32.0361V33.3603H67.7142V32.0933C67.7142 31.8221 67.6743 31.6224 67.5919 31.4968C67.5121 31.3712 67.3898 31.3085 67.2274 31.3085C67.0909 31.3085 66.9741 31.3512 66.8801 31.434C66.7862 31.5196 66.7122 31.6309 66.6609 31.7765C66.6098 31.9192 66.5785 32.0846 66.5643 32.273V33.3632H66.0547L66.0633 33.3603ZM68.8814 30.5408C68.7732 30.5408 68.6907 30.518 68.6338 30.4724C68.5769 30.4267 68.5483 30.3582 68.5483 30.2698C68.5483 30.1812 68.5769 30.1156 68.6338 30.0699C68.6907 30.0243 68.7732 30.0015 68.8814 30.0015C68.9896 30.0015 69.0722 30.0243 69.1291 30.0699C69.1861 30.1156 69.2116 30.1812 69.2116 30.2698C69.2116 30.3583 69.1832 30.4239 69.1291 30.4695C69.0722 30.5152 68.9896 30.5408 68.8814 30.5408ZM68.6253 33.3632V30.9318H69.1348V33.3632H68.6253ZM71.2327 34.1137V33.4602C71.2327 33.3803 71.2383 33.2946 71.247 33.2062C71.2557 33.1165 71.2671 33.027 71.2812 32.938C71.2954 32.8467 71.3096 32.7554 71.3267 32.6641H71.247C71.2126 32.7995 71.1589 32.9292 71.0875 33.0493C71.0192 33.1635 70.931 33.2548 70.8228 33.3204C70.7147 33.3888 70.5752 33.4202 70.4073 33.4202C70.2023 33.4202 70.0286 33.3661 69.8834 33.2576C69.7411 33.1492 69.6301 33.0007 69.5532 32.8095C69.4764 32.6184 69.4395 32.3958 69.4395 32.1475C69.4395 31.8993 69.4792 31.6709 69.5561 31.4797C69.6329 31.2857 69.7468 31.1344 69.8977 31.0288C70.0457 30.9204 70.2279 30.8662 70.4386 30.8662C70.5952 30.8662 70.726 30.8947 70.8342 30.9518C70.9429 31.0094 71.0343 31.0951 71.0989 31.2C71.1644 31.3085 71.2157 31.4369 71.247 31.591H71.3209L71.2982 30.9318H71.7422V34.1137H71.2327ZM70.5694 32.9951C70.6605 32.9951 70.7402 32.978 70.8115 32.9408C70.8826 32.9066 70.9452 32.8553 70.9993 32.7953C71.0534 32.7353 71.0962 32.667 71.1302 32.5955C71.1633 32.5261 71.1891 32.4535 71.207 32.3787C71.2236 32.3104 71.2323 32.2405 71.2327 32.1703V32.1104C71.2327 32.0162 71.2185 31.922 71.1872 31.8279C71.1559 31.7337 71.116 31.6453 71.062 31.5682C71.0076 31.4906 70.9366 31.4263 70.8541 31.3799C70.7687 31.3314 70.6747 31.3085 70.5694 31.3085C70.4442 31.3085 70.3389 31.3427 70.2478 31.4113C70.1568 31.4797 70.0884 31.5767 70.04 31.7023C69.9916 31.8279 69.9689 31.9763 69.9689 32.1475C69.9689 32.3188 69.9916 32.4586 70.04 32.587C70.0855 32.7153 70.1539 32.8153 70.2421 32.8894C70.3304 32.9637 70.4413 32.9979 70.5723 32.9979L70.5694 32.9951ZM72.9633 33.4231C72.6872 33.4231 72.4794 33.3289 72.3399 33.1377C72.2004 32.9465 72.1322 32.6582 72.1322 32.273V30.9318H72.6446V32.2273C72.6446 32.4869 72.6816 32.6782 72.7585 32.8009C72.8353 32.9236 72.9548 32.9863 73.1198 32.9863C73.2138 32.9863 73.2964 32.9636 73.3703 32.9179C73.4445 32.8723 73.5071 32.8066 73.5611 32.7182C73.6152 32.6297 73.6579 32.527 73.6921 32.4099C73.7263 32.2928 73.7461 32.1588 73.7547 32.0133V30.9318H74.2642V33.363H73.8258L73.8543 32.5584H73.7832C73.7434 32.761 73.6863 32.9264 73.6152 33.052C73.544 33.1776 73.4529 33.2717 73.3448 33.3317C73.2366 33.3917 73.1085 33.4231 72.9633 33.4231ZM75.7728 33.4231C75.5765 33.4231 75.4057 33.3946 75.2549 33.3374C75.1067 33.2804 74.9815 33.1976 74.8791 33.0892C74.7766 32.9807 74.6997 32.8523 74.6484 32.6982C74.5944 32.5441 74.5688 32.3758 74.5688 32.1874C74.5688 31.9991 74.5944 31.8221 74.6457 31.6623C74.6968 31.5026 74.771 31.3627 74.8705 31.2428C74.9691 31.1237 75.0938 31.029 75.2349 30.966C75.3801 30.9004 75.5452 30.869 75.733 30.869C75.9009 30.869 76.0519 30.8975 76.1885 30.9546C76.3223 31.0096 76.4399 31.098 76.5301 31.2114C76.624 31.3256 76.6924 31.4654 76.7379 31.6338C76.7834 31.8022 76.8005 31.9962 76.7863 32.2188L74.8904 32.2388V31.922L76.4759 31.9078L76.308 32.099C76.328 31.9163 76.3109 31.7622 76.2625 31.6424C76.2141 31.5224 76.143 31.434 76.0519 31.3741C75.9607 31.3142 75.8525 31.2857 75.7273 31.2857C75.5907 31.2857 75.4712 31.3227 75.3715 31.3941C75.2691 31.4654 75.1922 31.5682 75.1381 31.6994C75.0841 31.8307 75.0555 31.9906 75.0555 32.1788C75.0555 32.4557 75.1181 32.6668 75.2434 32.8095C75.3686 32.9522 75.5423 33.0236 75.7701 33.0236C75.8696 33.0236 75.9522 33.0121 76.0233 32.9865C76.0917 32.9609 76.1486 32.9295 76.197 32.8865C76.2425 32.8438 76.2824 32.7953 76.308 32.7411C76.3364 32.6868 76.3564 32.6298 76.3735 32.5697L76.8203 32.6639C76.797 32.7733 76.7567 32.8783 76.7008 32.9751C76.6455 33.0679 76.5731 33.1492 76.4874 33.2147C76.3948 33.2856 76.2895 33.3379 76.1771 33.3688C76.0575 33.406 75.9209 33.4231 75.7701 33.4231H75.7728ZM76.9686 27.8553H28.2728V28.0808H76.9686V27.8553ZM20.9941 30.3036C18.4237 29.1109 15.9784 27.4642 13.6614 25.3723C10.3394 25.3096 7.56981 24.1625 5.35522 21.9307C3.14054 19.6991 2.0332 16.9396 2.0332 13.6522C2.0332 10.3647 3.16621 7.56213 5.43207 5.31055C7.69793 3.05897 10.4254 1.94398 13.79 1.94398C17.1545 1.94398 20.0576 3.05897 22.3234 5.31069C24.5893 7.56213 25.725 10.3418 25.725 13.652C25.725 15.9978 25.1329 18.1096 23.9544 19.9817C22.7731 21.8566 21.1819 23.2663 19.1751 24.2081V24.2709C21.0965 25.5266 23.2173 26.648 25.5371 27.6326L20.9941 30.3036ZM8.6287 19.137C10.0434 20.6324 11.7941 21.3801 13.8806 21.3801C15.9672 21.3801 17.7178 20.6324 19.1324 19.137C20.5472 17.6416 21.253 15.8123 21.253 13.652C21.253 11.4918 20.5472 9.66252 19.1324 8.16708C17.7177 6.67178 15.9671 5.92413 13.8806 5.92413C11.7942 5.92413 10.0435 6.67183 8.6287 8.16722C7.21388 9.66252 6.50805 11.4918 6.50805 13.6522C6.50805 15.8123 7.21402 17.6416 8.6287 19.137Z" fill="white"/>
</svg>
