<svg width="184" height="36" viewBox="0 0 184 36" fill="none" xmlns="http://www.w3.org/2000/svg">
<g clip-path="url(#clip0_121_3955)">
<mask id="mask0_121_3955" style="mask-type:luminance" maskUnits="userSpaceOnUse" x="0" y="0" width="184" height="36">
<path d="M0 0H184V36H0V0Z" fill="white"/>
</mask>
<g mask="url(#mask0_121_3955)">
<path d="M97.1284 5.27811C95.4499 6.95382 93.8205 8.57897 92.1195 10.2772C89.883 8.15489 87.1496 7.05004 83.9563 7.26197C81.7217 7.40854 79.7181 8.16904 77.9967 9.63282C74.3801 12.7093 73.1146 17.429 74.785 21.6941C76.492 26.055 80.6361 28.638 85.5242 28.3873C89.0877 28.2058 93.2297 25.3455 94.0639 22.3852H84.3324V15.696H102.158C103.251 23.2048 99.1278 31.0824 91.2344 34.2731C82.9013 37.641 73.3457 34.1508 69.0135 26.271C64.6774 18.3832 67.0426 8.59718 74.6091 3.11918C81.3006 -1.72496 91.4859 -0.748248 97.1306 5.27789L97.1284 5.27811ZM41.1215 0.268752L27.1643 35.6735C27.0844 35.6835 27.0047 35.6958 26.927 35.706C24.8092 30.132 22.693 24.5583 20.4709 18.7089C18.3139 24.5501 16.2573 30.1239 14.086 35.9996C9.39137 24.091 4.69605 12.1827 0 0.274752C2.51881 0.274752 4.8821 0.254395 7.2454 0.309466C7.46603 0.31568 7.76056 0.774466 7.88116 1.07597C9.77449 5.83654 11.6451 10.6053 13.5218 15.3716C13.6792 15.7693 13.8448 16.1628 14.0678 16.7111C16.2306 11.2087 18.3345 5.85689 20.5302 0.268752C22.7277 5.83032 24.8233 11.1395 27.0253 16.713C27.7551 14.8743 28.3908 13.2881 29.0125 11.6979C30.3842 8.19132 31.7682 4.69075 33.0992 1.17004C33.3548 0.492895 33.6696 0.232109 34.4138 0.250323C36.5849 0.303466 38.7561 0.268752 41.1194 0.268752H41.1215ZM143.31 35.4622C133.993 35.4193 125.591 27.3684 125.944 17.1195C126.266 7.87804 134.316 -0.29932 144.293 0.00860895C153.784 0.30218 161.685 8.45318 161.519 18.0536C161.35 27.927 153.283 35.6375 143.31 35.4622ZM133.104 17.813C133.12 23.6478 137.898 28.3798 143.721 28.3267C149.613 28.2737 154.34 23.5764 154.34 17.7763C154.34 11.8925 149.588 7.16875 143.686 7.18289C137.737 7.19532 133.088 11.8659 133.104 17.8149V17.813ZM65.1332 7.22318H51.2313V14.2689H61.6047V21.2435H51.2231V28.1711C51.6074 28.1874 51.9713 28.218 52.3353 28.218C56.2871 28.2221 60.2389 28.2384 64.1907 28.2058C64.9698 28.1996 65.2785 28.3873 65.2478 29.223C65.1844 30.9193 65.2028 32.6197 65.2416 34.3179C65.2581 35.007 65.0679 35.2721 64.3319 35.27C57.8593 35.2455 51.3866 35.2518 44.914 35.264C44.3292 35.264 44.0553 35.1213 44.0574 34.4709C44.0718 23.2599 44.0696 12.0489 44.0737 0.837895C44.0737 0.674823 44.1187 0.511538 44.1514 0.295538H65.1354V7.22318H65.1332ZM175.508 35.0988H168.411V7.27418H159.868V0.342466H184V7.24139H175.508V35.0988ZM112.329 28.1833H126.364V35.1172H105.378V0.342466H112.329V28.1833Z" fill="white"/>
</g>
</g>
<defs>
<clipPath id="clip0_121_3955">
<rect width="184" height="36" fill="white"/>
</clipPath>
</defs>
</svg>
