<svg width="187" height="36" viewBox="0 0 187 36" fill="none" xmlns="http://www.w3.org/2000/svg">
<g clip-path="url(#clip0_121_3933)">
<mask id="mask0_121_3933" style="mask-type:luminance" maskUnits="userSpaceOnUse" x="0" y="0" width="187" height="36">
<path d="M0 0.213623H187V35.9752H0V0.213623Z" fill="white"/>
</mask>
<g mask="url(#mask0_121_3933)">
<path d="M30.3262 18.0923C29.9901 11.5873 24.683 6.44664 18.1593 6.30622C16.3525 1.46028 10.95 -1.00107 6.10158 0.807516C1.2484 2.61181 -1.21671 8.00609 0.594856 12.8473C1.02494 13.9985 1.6777 15.0539 2.51585 15.953C3.35401 16.8522 4.36115 17.5775 5.47975 18.0875V18.7043C5.48882 25.5629 11.0499 31.1205 17.9186 31.1295H18.232C20.7288 35.6534 26.4264 37.3034 30.9616 34.8103C35.4968 32.3173 37.145 26.6281 34.6479 22.0995C33.681 20.3407 32.1692 18.9446 30.3443 18.1059L30.3262 18.0832V18.0923ZM6.23777 14.3752C3.59115 12.6301 2.86032 9.0713 4.60796 6.42852C6.35584 3.78574 9.91957 3.05597 12.5662 4.80113C13.3282 5.30516 13.9599 5.98247 14.4095 6.77756C12.5511 7.32219 10.8452 8.2919 9.4268 9.60985C8.00842 10.9278 6.91658 12.5578 6.23777 14.3707V14.3752ZM26.4218 32.3261C25.5863 32.326 24.7609 32.1434 24.0034 31.791C23.2459 31.4387 22.5746 30.9251 22.0364 30.2863L21.9319 30.164C21.851 30.0626 21.7738 29.9583 21.7006 29.8512L21.6188 29.7332C21.546 29.6199 21.478 29.5067 21.4098 29.3887L21.3464 29.2709C21.2837 29.1503 21.2246 29.0278 21.1691 28.9037C21.1476 28.8607 21.128 28.8168 21.1102 28.7721C21.0602 28.65 21.0147 28.526 20.974 28.4004C20.974 28.3506 20.9378 28.3008 20.9239 28.251C20.8874 28.1283 20.8556 28.0043 20.8285 27.8793C20.8285 27.8249 20.7971 27.7658 20.788 27.7114C20.7789 27.6571 20.747 27.4666 20.7334 27.3443C20.7198 27.222 20.7334 27.2175 20.7062 27.154V26.5919C20.7062 23.4234 23.2758 20.8574 26.449 20.8574C26.6399 20.8574 26.8304 20.8574 27.0165 20.8846H27.0802C27.2435 20.8846 27.4024 20.9256 27.5613 20.9573H27.6567C27.8065 20.989 27.9562 21.0252 28.1106 21.0705L28.1969 21.0932C28.3558 21.1475 28.5192 21.2064 28.6508 21.2701H28.6735C28.8416 21.3425 29.005 21.4195 29.1639 21.5056H29.1911C29.3273 21.5783 29.4635 21.6599 29.5906 21.7459L29.7494 21.8592C32.3462 23.6725 32.9819 27.2446 31.166 29.8376C30.6339 30.5971 29.9256 31.2165 29.1018 31.6428C28.278 32.069 27.3631 32.2895 26.4354 32.2853L26.4218 32.3261ZM178.584 9.51165H166.293C161.645 9.51165 157.877 13.2533 157.877 17.8679C157.877 22.4829 161.645 26.2242 166.293 26.2242H178.584C183.232 26.2242 186.999 22.4829 186.999 17.8679C186.999 13.253 183.232 9.51165 178.584 9.51165ZM178.584 22.3875H166.293C163.781 22.3875 161.745 20.3662 161.745 17.872C161.745 15.3777 163.781 13.3524 166.293 13.3486H178.584C181.096 13.3486 183.132 15.3699 183.132 17.8641C183.132 20.3584 181.096 22.3837 178.584 22.3875ZM57.638 21.4682L48.1019 9.81371H44.5923V25.9543H48.4022V20.6964C48.4022 19.424 48.3714 18.2241 48.3097 17.1007C48.2868 16.6458 48.2481 16.1876 48.2021 15.7289L56.8759 25.9543H58.396L67.07 15.7289C67.0227 16.1852 66.9868 16.6426 66.9622 17.1007C66.9007 18.2203 66.8699 19.4202 66.8699 20.6964V25.9543H70.6795V9.81371H67.1816L57.638 21.4682ZM123.983 19.6951C124.874 19.2562 125.631 18.5875 126.177 17.758C126.719 16.934 127.001 15.9661 126.985 14.9801C127.007 14.0192 126.759 13.0714 126.269 12.2441C125.772 11.4514 125.048 10.8258 124.191 10.4481C123.151 9.99629 122.023 9.77966 120.89 9.81371H103.819V25.9543H107.559V20.3984H119.192L123.383 25.9543H127.955L123.402 19.9474C123.599 19.8711 123.795 19.7905 123.983 19.6951ZM107.559 13.0811H120.381C120.833 13.0764 121.28 13.1622 121.698 13.3334C122.074 13.4845 122.404 13.7307 122.656 14.0479C122.903 14.3778 123.029 14.7824 123.014 15.1942C123.022 15.611 122.897 16.0197 122.656 16.3598C122.412 16.692 122.085 16.9552 121.709 17.1239C121.307 17.3083 120.87 17.4023 120.428 17.399H107.559V13.0811ZM93.406 9.51165H81.0914C76.435 9.51165 72.66 13.2602 72.66 17.8839C72.66 22.5076 76.435 26.2562 81.0914 26.2562H93.406C98.0622 26.2562 101.837 22.5074 101.837 17.8839C101.837 13.2602 98.0622 9.51165 93.406 9.51165ZM93.406 22.412H81.0914C78.5748 22.412 76.5352 20.3867 76.5352 17.8877C76.5352 15.3887 78.5748 13.3596 81.0914 13.3558H93.406C95.9226 13.3558 97.9622 15.3811 97.9622 17.8801C97.9622 20.3791 95.9226 22.4082 93.406 22.412ZM131.562 9.51165H129.936V26.0345H133.37V19.944H155.064V16.592H133.37V13.0516H155.897V9.51189L131.562 9.51165Z" fill="white"/>
</g>
</g>
<defs>
<clipPath id="clip0_121_3933">
<rect width="187" height="36" fill="white"/>
</clipPath>
</defs>
</svg>
