<svg width="159" height="36" viewBox="0 0 159 36" fill="none" xmlns="http://www.w3.org/2000/svg">
<g clip-path="url(#clip0_121_3939)">
<path d="M131.941 28.9714C130.773 28.9714 129.845 28.4799 129.158 27.4971C128.471 26.5142 128.127 25.2342 128.127 23.657C128.127 21.5542 128.665 19.4057 129.742 17.2113C130.819 14.9941 132.182 13.1655 133.832 11.7255C135.504 10.2855 137.165 9.56554 138.814 9.56554C139.799 9.56554 140.533 9.86274 141.014 10.4571C141.518 11.0284 141.873 11.817 142.079 12.8229C142.148 13.2115 142.239 13.4057 142.354 13.4056C142.468 13.4056 142.594 13.2342 142.732 12.8913L143.041 12.0342C143.156 11.6685 143.316 11.4056 143.522 11.2456C143.752 11.0858 144.095 11.0058 144.553 11.0057C145.057 11.0057 145.481 10.9143 145.825 10.7315C146.191 10.5486 146.661 10.2743 147.234 9.90855C147.457 9.75194 147.687 9.60325 147.921 9.46276C148.15 9.3256 148.356 9.25702 148.539 9.25702C148.792 9.25702 148.986 9.3256 149.124 9.46276C149.261 9.57715 149.284 9.76001 149.193 10.0113L148.883 10.7313C148.127 12.5142 147.509 14.0114 147.028 15.2229C146.544 16.4399 146.109 17.6751 145.722 18.9257L144.725 21.8057C144.313 22.9713 144.107 23.8513 144.107 24.4457C144.107 25.04 144.313 25.3601 144.725 25.4057C145.687 25.4057 146.97 23.6114 148.574 20.0229C148.666 19.84 148.746 19.7028 148.814 19.6114C148.883 19.5199 148.963 19.4742 149.055 19.4743C149.238 19.4743 149.33 19.5657 149.33 19.7485C149.33 19.8855 149.284 20.0455 149.193 20.2284C148.299 22.4685 147.234 24.4914 145.997 26.2971C144.782 28.08 143.282 28.9714 141.495 28.9714C140.326 28.9714 139.479 28.7314 138.952 28.2514C138.448 27.7485 138.196 27.0971 138.196 26.2971C138.196 25.9085 138.253 25.5199 138.368 25.1313C138.482 24.7427 138.7 24.1942 139.021 23.4856L139.742 21.7714L140.051 20.9484L140.12 20.6742C140.12 20.5827 140.086 20.5141 140.017 20.4685C139.995 20.4459 139.968 20.4282 139.938 20.4164C139.909 20.4046 139.877 20.399 139.845 20.3999C139.639 20.3999 139.467 20.5485 139.33 20.8457C138.482 22.5371 137.738 23.9085 137.096 24.9599C136.484 26.0038 135.719 26.9512 134.828 27.7713C133.957 28.5714 132.995 28.9714 131.941 28.9714ZM133.591 22.937C133.591 24.3999 133.958 25.1313 134.691 25.1313C135.24 25.1313 135.87 24.7656 136.581 24.0342C137.314 23.3027 138.001 22.3884 138.643 21.2913C139.307 20.1714 139.811 19.0971 140.155 18.0684C140.727 16.1713 141.014 14.6514 141.014 13.5086C141.014 11.7257 140.567 10.8343 139.673 10.8343C138.826 10.8343 137.921 11.5429 136.959 12.96C136.019 14.3542 135.218 16.0228 134.553 17.9657C133.912 19.8857 133.591 21.5428 133.591 22.937Z" fill="white"/>
<path d="M122.505 16.457C122.941 15.2913 123.159 14.3999 123.159 13.7828C123.159 13.1886 122.952 12.8915 122.54 12.8913C122.036 12.8913 121.429 13.3713 120.719 14.3313C120.008 15.2914 118.43 18.6391 117.651 20.2162C117.491 20.5819 117.331 20.7533 117.17 20.7304C117.01 20.7304 116.93 20.6505 116.93 20.4905C116.93 20.3533 116.975 20.1819 117.067 19.9763C119.541 14.3076 123.01 9.3943 125.805 9.3943C126.996 9.3943 127.855 9.64569 128.382 10.1485C128.909 10.6513 129.172 11.3028 129.172 12.1029C129.172 12.6058 129.092 13.12 128.932 13.6457C128.771 14.1714 128.416 15.2228 127.866 16.7999L126.114 22.0799C125.633 23.2686 125.392 24.1715 125.392 24.7885C125.392 25.3599 125.587 25.6456 125.976 25.6456C126.48 25.6685 127.076 25.2114 127.763 24.2742C128.451 23.3371 129.207 22.0457 130.031 20.4C130.192 20.0344 130.352 19.863 130.512 19.8856C130.673 19.8856 130.753 19.9656 130.753 20.1257C130.753 20.2627 130.707 20.4341 130.616 20.6399C129.653 22.8114 128.542 24.7657 127.282 26.5029C126.022 28.2401 124.522 29.1086 122.78 29.1085C121.589 29.1085 120.73 28.8571 120.203 28.3542C119.676 27.8514 119.413 27.2 119.413 26.3999C119.413 25.8513 119.493 25.2913 119.653 24.72C119.814 24.1485 120.157 23.1313 120.684 21.6685L122.505 16.457ZM125.564 4.31999C125.564 3.47427 125.839 2.78853 126.389 2.26277C126.939 1.73701 127.66 1.47419 128.554 1.4743C129.447 1.47442 130.157 1.73724 130.684 2.26277C131.234 2.76576 131.509 3.4515 131.509 4.31999C131.509 5.16559 131.234 5.85128 130.684 6.37703C130.157 6.87991 129.447 7.13135 128.554 7.13135C127.66 7.13135 126.939 6.87991 126.389 6.37703C125.839 5.85139 125.564 5.16571 125.564 4.31999Z" fill="white"/>
<path d="M99.9775 28.9714C98.832 28.9714 97.9156 28.48 97.2283 27.4971C96.5409 26.5143 96.1973 25.2344 96.1973 23.6572C96.1973 21.5543 96.7356 19.4057 97.8124 17.2114C98.8892 14.9942 100.252 13.1656 101.902 11.7256C103.574 10.2856 105.235 9.56557 106.885 9.56557C107.778 9.56557 108.465 9.81707 108.947 10.3201C109.451 10.8229 109.852 11.5429 110.149 12.4801C110.241 12.8457 110.367 13.0285 110.527 13.0285C110.596 13.0285 110.665 12.9828 110.734 12.8914C110.802 12.8001 110.859 12.6744 110.905 12.5142L113.38 5.38284C113.723 4.3772 113.895 3.63432 113.895 3.15421C113.895 2.81148 113.803 2.57148 113.62 2.43421C113.46 2.27439 113.185 2.19443 112.795 2.19432C112.406 2.19432 111.89 2.21714 111.249 2.26278L110.459 2.2971C110.046 2.2971 109.84 2.19426 109.84 1.98858C109.84 1.73714 110.081 1.61142 110.562 1.61142C111.226 1.61142 112.291 1.50858 113.758 1.3029C115.224 1.09721 116.312 0.891477 117.022 0.685682L117.813 0.479944C118.981 0.159981 119.737 0 120.081 0C120.379 0 120.527 0.102841 120.527 0.308523C120.527 0.377159 120.493 0.502878 120.424 0.685682L118.947 4.49159C118.763 4.94871 118.351 6.01155 117.709 7.68011C117.068 9.3489 116.541 10.8003 116.129 12.0344L113.07 21.9087C112.635 23.0745 112.417 23.9659 112.417 24.583C112.417 25.1545 112.612 25.463 113.002 25.5087C113.941 25.5316 115.258 23.7602 116.953 20.1945C117.114 19.8288 117.274 19.6459 117.435 19.6459C117.618 19.6459 117.709 19.7373 117.709 19.9201C117.709 20.0574 117.664 20.2174 117.572 20.4002C116.587 22.6631 115.476 24.6745 114.239 26.4344C113.024 28.1716 111.535 29.0402 109.771 29.0402C108.603 29.0402 107.755 28.8002 107.228 28.3202C106.724 27.8172 106.472 27.1658 106.472 26.366C106.472 25.9316 106.53 25.5087 106.644 25.0974C106.782 24.663 107.045 23.9544 107.434 22.9715L107.881 21.7373L108.259 20.7431L108.328 20.4687C108.328 20.3773 108.294 20.2973 108.225 20.2288C108.179 20.1602 108.122 20.1258 108.053 20.1258C107.938 20.1258 107.824 20.1716 107.71 20.263C107.618 20.3545 107.538 20.4802 107.469 20.6401C106.713 22.263 106.003 23.6344 105.338 24.7544C104.697 25.8744 103.906 26.8573 102.967 27.703C102.051 28.5486 101.054 28.9715 99.9775 28.9716M101.661 23.0402C101.661 24.4573 102.016 25.1658 102.727 25.1658C103.345 25.1658 104.021 24.7659 104.754 23.9659C105.51 23.143 106.22 22.1144 106.885 20.8802C107.572 19.623 108.099 18.3773 108.465 17.1431C108.649 16.5487 108.786 15.9887 108.878 15.463C108.969 14.9374 109.038 14.2859 109.084 13.5087C109.084 12.6858 108.969 12.0344 108.74 11.5545C108.534 11.0745 108.202 10.8345 107.744 10.8345C106.896 10.8345 105.991 11.543 105.029 12.9602C104.09 14.3773 103.288 16.0687 102.624 18.0345C101.982 19.9774 101.661 21.6459 101.661 23.0402Z" fill="white"/>
<path d="M86.58 28.9716C85.3199 28.9716 84.1744 28.6973 83.1435 28.1486C82.1356 27.5772 81.3337 26.7772 80.738 25.7486C80.1653 24.6972 79.8789 23.4744 79.8789 22.0801C79.8789 19.9315 80.3715 17.8858 81.3566 15.943C82.3417 14 83.659 12.4342 85.3085 11.2458C86.9809 10.0572 88.7678 9.46295 90.6693 9.46295C91.9294 9.46295 93.0635 9.74865 94.0716 10.3201C95.1023 10.8915 95.9156 11.7029 96.5114 12.7543C97.1071 13.7829 97.4049 14.9944 97.4048 16.3887C97.4048 18.5373 96.9123 20.583 95.9271 22.5257C94.9421 24.4457 93.6133 26 91.9408 27.1886C90.2684 28.3773 88.4815 28.9716 86.58 28.9716ZM85.0337 25.3373C85.0337 27.0058 85.4918 27.8401 86.4082 27.8401C87.2557 27.8401 88.1263 26.9944 89.02 25.303C89.9362 23.5886 90.7037 21.5544 91.3224 19.2001C91.9409 16.8458 92.2502 14.8115 92.2502 13.0973C92.2502 11.4287 91.7805 10.5944 90.8411 10.5944C89.9936 10.5944 89.1116 11.4515 88.1951 13.1657C87.3016 14.8799 86.5456 16.9257 85.9271 19.3029C85.3314 21.6573 85.0336 23.6687 85.0337 25.3373Z" fill="white"/>
<path d="M53.1516 28.9714C52.2354 28.9714 51.5023 28.7886 50.9524 28.4229C50.4025 28.0343 50.1276 27.4285 50.1276 26.6057C50.1276 26.0115 50.2536 25.3715 50.5056 24.6858C51.3075 22.4229 52.2354 19.6915 53.2892 16.4915C53.7245 15.3258 53.9421 14.4343 53.9421 13.8171C53.9421 13.2228 53.7473 12.9257 53.3579 12.9257C52.831 12.9029 52.2125 13.3829 51.5023 14.3657C50.8149 15.3257 50.0818 16.6057 49.3029 18.2058C49.1883 18.4114 49.0966 18.56 49.0279 18.6515C48.9592 18.72 48.8791 18.7542 48.7875 18.7543C48.6271 18.7543 48.5469 18.6629 48.5469 18.4801C48.5469 18.32 48.5927 18.1485 48.6843 17.9657C49.6465 15.7715 50.7576 13.8058 52.0177 12.0686C53.3006 10.3086 54.8241 9.42865 56.5881 9.42865C57.7795 9.42865 58.6272 9.68009 59.1311 10.183C59.658 10.6858 59.9215 11.3486 59.9215 12.1714C59.9215 12.56 59.8528 12.9486 59.7153 13.3372C59.6008 13.7258 59.3717 14.2972 59.0281 15.0514L58.3408 16.6973L57.5848 18.6515C57.516 18.8116 57.4816 18.9487 57.4816 19.0629C57.4816 19.2229 57.5618 19.3029 57.7222 19.3029C57.8138 19.3029 57.894 19.2572 57.9628 19.1658C58.0544 19.0743 58.1575 18.9143 58.272 18.6857C59.3029 16.6744 60.1964 15.0516 60.9524 13.8173C61.7085 12.583 62.5447 11.5658 63.461 10.7657C64.3775 9.96573 65.3626 9.56575 66.4164 9.56575C67.1954 9.56575 67.814 9.85145 68.2721 10.4229C68.7303 10.9715 68.9594 11.5886 68.9594 12.2743C68.9594 12.9371 68.8563 13.6114 68.6502 14.2972C68.444 14.983 68.1347 15.8516 67.7223 16.9029C67.6092 17.1733 67.506 17.4478 67.4129 17.7258C67.3292 17.9574 67.2375 18.1861 67.1381 18.4115C67.0694 18.5714 67.035 18.6971 67.035 18.7887C67.035 18.9029 67.1152 18.9601 67.2755 18.9601C67.3671 18.9601 67.4473 18.9258 67.5161 18.8571C67.6077 18.7657 67.6993 18.6286 67.7909 18.4458C68.8906 16.3657 69.7955 14.7542 70.5057 13.6115C71.2159 12.4689 72.0063 11.5089 72.8769 10.7315C73.7704 9.95435 74.7441 9.56575 75.7979 9.56575C76.8059 9.56575 77.5733 9.85145 78.1003 10.4229C78.6502 10.9715 78.9251 11.7029 78.9251 12.6172C78.9251 13.2343 78.7533 14.0572 78.4095 15.0857C78.0888 16.1143 77.4703 17.8515 76.554 20.2971L75.7979 22.32C75.2939 23.5315 75.0419 24.4343 75.0419 25.0286C75.0419 25.6 75.2481 25.8857 75.6605 25.8857C76.1645 25.8857 76.7602 25.44 77.4474 24.5486C78.1347 23.6344 78.9136 22.3773 79.7842 20.7772C79.8988 20.5715 79.9904 20.4344 80.0591 20.3658C80.1278 20.2972 80.2081 20.263 80.2997 20.263C80.4371 20.2858 80.5059 20.3772 80.5059 20.5372C80.5059 20.6742 80.4601 20.8456 80.3685 21.0514C79.3145 23.2458 78.1118 25.2001 76.7602 26.9144C75.4085 28.6057 73.8392 29.3829 72.0522 29.2458C70.0132 29.063 68.9937 28.1601 68.9938 26.5372C68.9938 25.9887 69.0854 25.4287 69.2686 24.8572C69.4519 24.2858 69.8299 23.2572 70.4027 21.7714L70.9182 20.5029C71.7657 18.3087 72.3499 16.7658 72.6707 15.8743C73.0143 14.9829 73.1861 14.3771 73.1861 14.0572C73.1861 13.5315 72.98 13.2687 72.5677 13.2687C71.9719 13.2687 71.2273 13.863 70.3339 15.0515C69.4634 16.24 68.6387 17.6 67.8597 19.1315C67.1037 20.6629 66.6111 21.8058 66.382 22.5601C65.9696 23.6344 65.7634 24.7086 65.7636 25.7829V26.3315C65.7863 26.5136 65.7863 26.6979 65.7636 26.8801C65.7406 27.4971 65.3855 28 64.6981 28.3887C64.0338 28.7772 63.3121 28.9714 62.5331 28.9714C61.594 28.9714 60.8495 28.7886 60.2996 28.4229C59.7497 28.0343 59.4747 27.44 59.4747 26.64C59.4747 26.0915 59.6122 25.4401 59.8871 24.6858L60.2652 23.8287C61.3878 21.2 62.2584 19.0628 62.8769 17.4171C63.5183 15.7715 63.839 14.6516 63.839 14.0572C63.839 13.5315 63.6443 13.2687 63.2548 13.2687C62.9112 13.2687 62.3957 13.5887 61.7085 14.2286C61.0441 14.8686 60.2996 15.8858 59.4747 17.28C58.6501 18.6744 57.8368 20.4344 57.0349 22.5601C56.5996 23.703 56.3819 24.7887 56.3821 25.8172L56.4163 26.8801C56.3935 27.4971 56.0384 28 55.351 28.3887C54.6867 28.7772 53.9535 28.9714 53.1516 28.9714Z" fill="white"/>
<path d="M38.4863 28.9716C37.2262 28.9716 36.0807 28.6973 35.0498 28.1486C34.0417 27.5772 33.2399 26.7772 32.6442 25.7486C32.0715 24.6972 31.7852 23.4744 31.7852 22.0801C31.7852 19.9315 32.2777 17.8858 33.2629 15.943C34.2479 14 35.5652 12.4342 37.2148 11.2458C38.887 10.0572 40.674 9.46295 42.5756 9.46295C43.8357 9.46295 44.9697 9.74865 45.9776 10.3201C47.0085 10.8915 47.8218 11.7029 48.4176 12.7543C49.0131 13.7829 49.311 14.9944 49.3111 16.3887C49.3111 18.5373 48.8185 20.583 47.8334 22.5257C46.8482 24.4457 45.5195 26 43.8471 27.1886C42.1746 28.3773 40.3876 28.9716 38.4863 28.9716ZM36.9398 25.3373C36.9398 27.0058 37.398 27.8401 38.3144 27.8401C39.162 27.8401 40.0325 26.9944 40.9261 25.303C41.8425 23.5886 42.61 21.5544 43.2284 19.2001C43.847 16.8458 44.1563 14.8115 44.1563 13.0973C44.1563 11.4287 43.6867 10.5944 42.7474 10.5944C41.8998 10.5944 41.0178 11.4515 40.1014 13.1657C39.208 14.8799 38.4519 16.9257 37.8332 19.3029C37.2377 21.6573 36.9399 23.6687 36.9398 25.3373Z" fill="white"/>
<path d="M2.81782 36C1.85573 36 1.14554 35.7829 0.687258 35.3486C0.229086 34.9143 0 34.3543 0 33.6686C0 33.0513 0.21762 32.5027 0.652861 32.0228C1.08821 31.5428 1.68392 31.3028 2.43997 31.3028C2.94389 31.3028 3.37913 31.44 3.74569 31.7143C4.11225 32.0115 4.52461 32.4458 4.98279 33.0172C5.3036 33.4057 5.56708 33.6914 5.77323 33.8743C5.9795 34.0571 6.19712 34.1485 6.4261 34.1485C6.81559 34.1485 7.15927 33.9428 7.45715 33.5315C7.7321 33.12 8.02992 32.4457 8.35062 31.5086C8.67132 30.5715 9.19823 28.88 9.93135 26.4343C9.9771 26.2743 10.0344 26.08 10.1032 25.8514C10.1949 25.6229 10.2865 25.3487 10.378 25.0286L14.5705 11.4857C14.5934 11.4173 14.6049 11.3259 14.6049 11.2115C14.6049 10.8914 14.4102 10.7314 14.0207 10.7314H11.9245C11.787 10.7314 11.6839 10.7085 11.6153 10.6629C11.5465 10.5943 11.5121 10.5257 11.5121 10.4572C11.5121 10.3656 11.5579 10.2856 11.6495 10.2171C11.7641 10.1257 11.9016 10.08 12.0619 10.08C13.0012 10.08 13.7458 9.99998 14.2957 9.83994C14.8453 9.65714 15.2119 9.30286 15.3953 8.7771L15.5672 8.29716C16.0253 6.92557 16.747 5.63417 17.7321 4.42295C18.7401 3.18852 19.9543 2.20564 21.3748 1.47432C22.8181 0.72 24.376 0.342841 26.0483 0.342841C26.621 0.342841 27.0791 0.377159 27.4229 0.445794C27.7894 0.514318 28.2247 0.617159 28.7288 0.754318C29.3703 0.937122 29.8399 1.02852 30.1377 1.02852C30.4584 1.02852 31.0998 0.868542 32.062 0.548579C33.2764 0.18286 34.1126 0 34.5706 0C34.8685 0 35.0174 0.102841 35.0174 0.308523C35.0174 0.377159 34.983 0.502879 34.9142 0.685682C34.5478 1.71432 34.1126 2.82292 33.6085 4.01148C33.1827 5.07353 32.7589 6.13637 32.337 7.2C31.9246 8.29716 31.5924 9.29142 31.3404 10.1828L27.8697 21.7371C27.5031 22.8343 27.3198 23.6914 27.3198 24.3086C27.3198 24.9714 27.526 25.3028 27.9383 25.3028C28.8317 25.3028 30.0917 23.4971 31.7184 19.8858C31.8787 19.5201 32.0391 19.3372 32.1996 19.3372C32.3828 19.3372 32.4744 19.4286 32.4744 19.6114C32.4744 19.7485 32.4286 19.9084 32.337 20.0914C31.4436 22.4001 30.3897 24.4572 29.1754 26.2628C27.9612 28.0457 26.4606 28.9371 24.6737 28.9371C22.4744 28.9142 21.3748 27.9999 21.3748 26.1942C21.3748 25.7371 21.4321 25.2914 21.5466 24.8572C21.684 24.3999 21.9474 23.5771 22.3369 22.3886L22.6119 21.6343L27.8697 5.41716C27.9382 5.16572 27.9726 4.9486 27.9727 4.76579C27.9727 4.14852 27.6978 3.62277 27.148 3.18852C26.6209 2.73151 25.9794 2.38867 25.2235 2.16C24.4675 1.93144 23.7687 1.81716 23.1273 1.81716C22.6005 1.81716 22.211 1.93144 21.9589 2.16C21.7298 2.38856 21.5694 2.79998 21.4778 3.39426L21.409 4.11426C21.18 6.85722 21.0082 8.50295 20.8936 9.05148L20.7562 9.63437C20.7332 9.70279 20.7218 9.80563 20.7218 9.9429C20.7218 10.2401 20.9165 10.3887 21.306 10.3887C21.8099 10.3887 22.314 10.3315 22.8181 10.2171C22.9555 10.1942 23.1043 10.1714 23.2648 10.1486C23.4586 10.1252 23.6537 10.1137 23.849 10.1143C23.9863 10.1143 24.0894 10.16 24.1582 10.2514C24.227 10.3201 24.2614 10.4115 24.2614 10.5256C24.2614 10.6629 24.2041 10.7886 24.0894 10.9028C23.9978 10.9943 23.8604 11.0401 23.6772 11.0401H21.0998C20.55 11.0401 20.1834 11.3258 20.0001 11.8972L16.323 24.0001C15.6587 26.1715 14.6049 28.1715 13.1616 29.9999C11.7412 31.8514 10.1147 33.3143 8.28199 34.3886C6.44931 35.4629 4.62803 36 2.81782 36ZM154.735 0.71714H155.858L156.809 3.03292H156.853L157.805 0.71714H158.927V4.45744H158.045V2.15983H158.014L157.113 4.43355H156.55L155.649 2.14705H155.618V4.45744H154.735V0.71714ZM151.331 1.45127V0.71714H154.499V1.45127H153.362V4.45744H152.469V1.4511L151.331 1.45127Z" fill="white"/>
</g>
<defs>
<clipPath id="clip0_121_3939">
<rect width="159" height="36" fill="white"/>
</clipPath>
</defs>
</svg>
