<svg width="56" height="56" viewBox="0 0 56 56" fill="none" xmlns="http://www.w3.org/2000/svg">
<path d="M2.67549 33.1897C1.46343 33.1897 0.586874 34.3566 1.23543 35.3805C2.69441 37.684 5.31129 39.2242 8.2981 39.2242H20.4209C21.5413 39.2242 22.4029 40.215 22.2473 41.3246L22.0594 42.6649C21.9317 43.5755 21.1526 44.253 20.233 44.253H17.6315C16.4856 44.253 15.5574 45.1531 15.5574 46.2645C15.5574 47.3759 16.4856 48.276 17.6315 48.276H38.3722C39.5182 48.276 40.4463 47.3759 40.4463 46.2645C40.4463 45.1531 39.5182 44.253 38.3722 44.253H35.7708C34.8512 44.253 34.0721 43.5755 33.9444 42.6649L33.7564 41.3246C33.6008 40.215 34.4624 39.2242 35.5828 39.2242H47.7056C50.6923 39.2242 53.309 37.684 54.7681 35.3807C55.4167 34.3567 54.5402 33.1897 53.328 33.1897H2.67549ZM26.0183 44.2533C26.0199 44.2533 26.0211 44.2522 26.0214 44.2507L26.5492 40.4864C26.6507 39.7628 27.2697 39.2246 28.0004 39.2246C28.7311 39.2246 29.3501 39.7628 29.4516 40.4864L29.9062 43.7282C29.9451 44.0056 29.7297 44.2533 29.4496 44.2533H26.0183Z" fill="#00B7FF"/>
<path d="M47.7037 0H8.2963C3.72298 0 0 3.61068 0 8.04604V27.3223C0 28.3409 0.825701 29.1666 1.84425 29.1666H54.1557C55.1743 29.1666 56 28.3409 56 27.3223V8.04604C56 3.61068 52.277 0 47.7037 0ZM37.0791 15.0512C31.575 16.5247 30.5173 17.5505 28.9979 22.8887C28.8734 23.3262 28.4638 23.6279 27.9971 23.6279C27.5305 23.6279 27.1209 23.3262 26.9964 22.8887C25.4771 17.5507 24.4194 16.5248 18.9152 15.0512C18.464 14.9306 18.153 14.5333 18.153 14.0807C18.153 13.6281 18.4641 13.2308 18.9152 13.1102C24.4193 11.6367 25.477 10.6109 26.9964 5.27267C27.1209 4.83516 27.5305 4.53346 27.9971 4.53346C28.4638 4.53346 28.8734 4.83519 28.9979 5.27267C30.5172 10.6107 31.5749 11.6366 37.0791 13.1102C37.5302 13.2308 37.8413 13.6281 37.8413 14.0807C37.8413 14.5333 37.5302 14.9306 37.0791 15.0512Z" fill="#00B7FF"/>
<path d="M4.60205 55.0345C4.60205 53.4348 5.89888 52.1379 7.4986 52.1379H48.0503C49.65 52.1379 50.9469 53.4348 50.9469 55.0345C50.9469 55.5677 50.5146 56 49.9814 56H5.56757C5.03433 56 4.60205 55.5677 4.60205 55.0345Z" fill="#00B7FF"/>
</svg>
