<svg width="49" height="48" viewBox="0 0 49 48" fill="none" xmlns="http://www.w3.org/2000/svg">
<path d="M42.1717 19.2514H31.2022C30.4633 19.2514 29.7929 18.8209 29.511 18.153C29.2292 17.4851 29.3815 16.7207 29.9072 16.2086L33.4647 12.7428C27.7285 8.3938 19.4252 8.78714 14.1537 13.9228C8.44036 19.4889 8.44036 28.5059 14.1537 34.072C19.867 39.6381 29.1225 39.6381 34.8359 34.072C35.4605 33.4634 36.0166 32.8178 36.5041 32.135C37.2735 31.0589 38.7971 30.7991 39.9017 31.5487C41.0062 32.2983 41.2728 33.7826 40.5035 34.8587C39.8559 35.7641 39.117 36.625 38.2867 37.4339C30.6689 44.8554 18.3206 44.8554 10.7105 37.4339C3.10032 30.0125 3.09271 17.9897 10.7105 10.5683C17.894 3.56986 29.2749 3.17652 36.9383 9.36601L40.8767 5.5217C41.4023 5.00962 42.187 4.86119 42.8726 5.13579C43.5582 5.41038 44 6.06347 44 6.78335V17.4702C44 18.4573 43.1849 19.2514 42.1717 19.2514Z" fill="url(#paint0_linear_121_3981)"/>
<defs>
<linearGradient id="paint0_linear_121_3981" x1="44" y1="5" x2="-2.12821" y2="29.6735" gradientUnits="userSpaceOnUse">
<stop offset="0.0644535" stop-color="#00BCEF"/>
<stop offset="0.95133" stop-color="#002363"/>
</linearGradient>
</defs>
</svg>
