<svg width="48" height="48" viewBox="0 0 48 48" fill="none" xmlns="http://www.w3.org/2000/svg">
<path fill-rule="evenodd" clip-rule="evenodd" d="M7.58648 6.25078C7.42245 5.6176 7.90044 5 8.55453 5H22.3455C22.9997 5 23.4776 5.61765 23.3136 6.25084L22.9831 7.52619L20.8526 15.7492C20.6885 16.3824 21.1665 17 21.8206 17H26.8C27.3523 17 27.8 17.4477 27.8 18V30C27.8 30.5523 28.2478 31 28.8 31H42C42.5523 31 43 31.4477 43 32V34C43 34.5523 42.5523 35 42 35H40.2001C39.6478 35 39.2001 35.4477 39.2001 36V42C39.2001 42.5523 38.7523 43 38.2001 43H36.4C35.8477 43 35.4 42.5523 35.4 42V36C35.4 35.4477 34.9523 35 34.4 35H28.8C28.2477 35 27.8 35.4477 27.8 36C27.8 36.5523 27.3523 37 26.8001 37H25C24.4477 37 24 37.4477 24 38V42C24 42.5523 23.5523 43 23 43H21.2C20.6477 43 20.2 42.5523 20.2 42V38C20.2 37.4477 19.7522 37 19.2 37H13.6C13.0477 37 12.6 37.4477 12.6 38V42C12.6 42.5523 12.1523 43 11.6 43H9.79995C9.24766 43 8.79995 42.5523 8.79995 42V38C8.79995 37.4477 8.35223 37 7.79995 37H6C5.44771 37 5 36.5523 5 36V18C5 17.4477 5.44772 17 6 17H9.07935C9.73345 17 10.2114 16.3824 10.0474 15.7492L7.91689 7.52619L7.58648 6.25078ZM41.1 20C41.1 19.4477 40.6523 19 40.1 19H30.7C30.1477 19 29.7 19.4477 29.7 20V28C29.7 28.5523 30.1477 29 30.7 29H40.1C40.6523 29 41.1 28.5523 41.1 28V20Z" fill="url(#paint0_linear_121_3974)"/>
<defs>
<linearGradient id="paint0_linear_121_3974" x1="43" y1="5" x2="-2.45737" y2="28.6912" gradientUnits="userSpaceOnUse">
<stop offset="0.0644535" stop-color="#00BCEF"/>
<stop offset="0.95133" stop-color="#002363"/>
</linearGradient>
</defs>
</svg>
