<svg width="49" height="48" viewBox="0 0 49 48" fill="none" xmlns="http://www.w3.org/2000/svg">
<path d="M21.6549 43C20.7568 43 19.9838 42.715 19.3358 42.145C18.6878 41.575 18.2967 40.8783 18.1623 40.055L17.7132 36.92C17.2808 36.7617 16.8737 36.5717 16.4918 36.35C16.1099 36.1283 15.7354 35.8908 15.3682 35.6375L12.2747 36.8725C11.4431 37.2208 10.6115 37.2525 9.77994 36.9675C8.94835 36.6825 8.29972 36.1758 7.83403 35.4475L5.48897 31.5525C5.02328 30.8242 4.89023 30.0483 5.08981 29.225C5.28939 28.4017 5.73845 27.7208 6.43697 27.1825L9.08141 25.2825C9.04814 25.0608 9.03151 24.8468 9.03151 24.6403V23.3578C9.03151 23.1526 9.04814 22.9392 9.08141 22.7175L6.43697 20.8175C5.73845 20.2792 5.28939 19.5983 5.08981 18.775C4.89023 17.9517 5.02328 17.1758 5.48897 16.4475L7.83403 12.5525C8.29972 11.8242 8.94835 11.3175 9.77994 11.0325C10.6115 10.7475 11.4431 10.7792 12.2747 11.1275L15.3682 12.3625C15.7341 12.1092 16.1166 11.8717 16.5158 11.65C16.9149 11.4283 17.3141 11.2383 17.7132 11.08L18.1623 7.945C18.2953 7.12167 18.6865 6.425 19.3358 5.855C19.9851 5.285 20.7582 5 21.6549 5H26.3451C27.2432 5 28.0169 5.285 28.6662 5.855C29.3155 6.425 29.706 7.12167 29.8377 7.945L30.2868 11.08C30.7192 11.2383 31.127 11.4283 31.5102 11.65C31.8934 11.8717 32.2673 12.1092 32.6318 12.3625L35.7253 11.1275C36.5569 10.7792 37.3885 10.7475 38.2201 11.0325C39.0516 11.3175 39.7003 11.8242 40.166 12.5525L42.511 16.4475C42.9767 17.1758 43.1098 17.9517 42.9102 18.775C42.7106 19.5983 42.2616 20.2792 41.563 20.8175L38.9186 22.7175C38.9519 22.9392 38.9685 23.1532 38.9685 23.3597V24.6403C38.9685 24.8468 38.9352 25.0608 38.8687 25.2825L41.5131 27.1825C42.2117 27.7208 42.6607 28.4017 42.8603 29.225C43.0599 30.0483 42.9268 30.8242 42.4611 31.5525L40.0662 35.4475C39.6005 36.1758 38.9519 36.6825 38.1203 36.9675C37.2887 37.2525 36.4571 37.2208 35.6255 36.8725L32.6318 35.6375C32.2659 35.8908 31.8834 36.1283 31.4842 36.35C31.0851 36.5717 30.6859 36.7617 30.2868 36.92L29.8377 40.055C29.7047 40.8783 29.3141 41.575 28.6662 42.145C28.0182 42.715 27.2445 43 26.3451 43H21.6549ZM24.0998 30.65C26.0291 30.65 27.6756 30.0008 29.0394 28.7025C30.4032 27.4042 31.0851 25.8367 31.0851 24C31.0851 22.1633 30.4032 20.5958 29.0394 19.2975C27.6756 17.9992 26.0291 17.35 24.0998 17.35C22.1373 17.35 20.4821 17.9992 19.1342 19.2975C17.7864 20.5958 17.1132 22.1633 17.1145 24C17.1158 25.8367 17.7897 27.4042 19.1362 28.7025C20.4827 30.0008 22.1373 30.65 24.0998 30.65Z" fill="url(#paint0_linear_121_4020)"/>
<defs>
<linearGradient id="paint0_linear_121_4020" x1="43" y1="5" x2="-2.45737" y2="28.6912" gradientUnits="userSpaceOnUse">
<stop offset="0.0644535" stop-color="#00BCEF"/>
<stop offset="0.95133" stop-color="#002363"/>
</linearGradient>
</defs>
</svg>
