<svg width="49" height="48" viewBox="0 0 49 48" fill="none" xmlns="http://www.w3.org/2000/svg">
<path d="M39.6667 5H9.33333C6.95 5 5 6.9 5 9.22222V38.7778C5 41.1 6.95 43 9.33333 43H39.6667C42.05 43 44 41.1 44 38.7778V9.22222C44 6.9 42.05 5 39.6667 5ZM18 32.5556C18 33.6601 17.1046 34.5556 16 34.5556H15.6667C14.5621 34.5556 13.6667 33.6601 13.6667 32.5556V21.7778C13.6667 20.6732 14.5621 19.7778 15.6667 19.7778H16C17.1046 19.7778 18 20.6732 18 21.7778V32.5556ZM26.6667 32.5556C26.6667 33.6601 25.7712 34.5556 24.6667 34.5556H24.3333C23.2288 34.5556 22.3333 33.6601 22.3333 32.5556V15.4444C22.3333 14.3399 23.2288 13.4444 24.3333 13.4444H24.6667C25.7712 13.4444 26.6667 14.3399 26.6667 15.4444V32.5556ZM35.3333 32.5556C35.3333 33.6601 34.4379 34.5556 33.3333 34.5556H33C31.8954 34.5556 31 33.6601 31 32.5556V28.1111C31 27.0065 31.8954 26.1111 33 26.1111H33.3333C34.4379 26.1111 35.3333 27.0065 35.3333 28.1111V32.5556Z" fill="url(#paint0_linear_121_4011)"/>
<defs>
<linearGradient id="paint0_linear_121_4011" x1="44" y1="5" x2="-2.12821" y2="29.6735" gradientUnits="userSpaceOnUse">
<stop offset="0.0644535" stop-color="#00BCEF"/>
<stop offset="0.95133" stop-color="#002363"/>
</linearGradient>
</defs>
</svg>
