<svg width="49" height="48" viewBox="0 0 49 48" fill="none" xmlns="http://www.w3.org/2000/svg">
<path d="M24 5C34.4937 5 43 13.5063 43 24C43 34.4937 34.4937 43 24 43C13.5063 43 5 34.4937 5 24C5 13.5063 13.5063 5 24 5ZM24 12.6C23.4961 12.6 23.0128 12.8002 22.6565 13.1565C22.3002 13.5128 22.1 13.9961 22.1 14.5V24C22.1001 24.5039 22.3004 24.9871 22.6567 25.3433L28.3567 31.0433C28.715 31.3894 29.195 31.5809 29.6932 31.5766C30.1913 31.5723 30.6679 31.3724 31.0202 31.0202C31.3724 30.6679 31.5723 30.1913 31.5766 29.6932C31.5809 29.195 31.3894 28.715 31.0433 28.3567L25.9 23.2134V14.5C25.9 13.9961 25.6998 13.5128 25.3435 13.1565C24.9872 12.8002 24.5039 12.6 24 12.6Z" fill="url(#paint0_linear_121_3988)"/>
<defs>
<linearGradient id="paint0_linear_121_3988" x1="43" y1="5" x2="-2.45737" y2="28.6912" gradientUnits="userSpaceOnUse">
<stop offset="0.0644535" stop-color="#00BCEF"/>
<stop offset="0.95133" stop-color="#002363"/>
</linearGradient>
</defs>
</svg>
