<svg width="60" height="60" viewBox="0 0 60 60" fill="none" xmlns="http://www.w3.org/2000/svg">
<path d="M3.09219 35.5142C1.80438 35.5142 0.873035 36.754 1.56213 37.8419C3.11229 40.2893 5.89273 41.9258 9.06622 41.9258H21.9467C23.1372 41.9258 24.0526 42.9786 23.8873 44.1575L23.6876 45.5815C23.5519 46.5491 22.7241 47.2689 21.747 47.2689H18.983C17.7654 47.2689 16.7792 48.2253 16.7792 49.4061C16.7792 50.587 17.7654 51.5434 18.983 51.5434H41.02C42.2376 51.5434 43.2237 50.587 43.2237 49.4061C43.2237 48.2253 42.2376 47.2689 41.02 47.2689H38.2559C37.2788 47.2689 36.4511 46.5491 36.3154 45.5815L36.1157 44.1575C35.9504 42.9786 36.8658 41.9258 38.0562 41.9258H50.9367C54.11 41.9258 56.8903 40.2894 58.4406 37.8421C59.1297 36.7541 58.1984 35.5142 56.9105 35.5142H3.09219ZM27.894 47.2693C27.8956 47.2693 27.8969 47.2681 27.8972 47.2665L28.458 43.267C28.5658 42.4981 29.2236 41.9262 29.9999 41.9262C30.7763 41.9262 31.434 42.4981 31.5418 43.267L32.0248 46.7114C32.0662 47.0061 31.8373 47.2693 31.5397 47.2693H27.894Z" fill="url(#paint0_linear_1_1360)"/>
<path d="M50.9352 0.25H9.06481C4.20567 0.25 0.25 4.08634 0.25 8.79892V29.28C0.25 30.3622 1.12731 31.2395 2.20952 31.2395H57.7905C58.8727 31.2395 59.75 30.3622 59.75 29.28V8.79892C59.75 4.08634 55.7943 0.25 50.9352 0.25ZM39.6466 16.2419C33.7985 17.8075 32.6746 18.8974 31.0602 24.5693C30.928 25.0341 30.4928 25.3547 29.997 25.3547C29.5011 25.3547 29.0659 25.0341 28.9337 24.5693C27.3195 18.8976 26.1956 17.8076 20.3474 16.2419C19.868 16.1137 19.5375 15.6916 19.5375 15.2107C19.5375 14.7299 19.8681 14.3078 20.3474 14.1795C26.1955 12.614 27.3193 11.524 28.9337 5.85221C29.0659 5.38736 29.5011 5.0668 29.997 5.0668C30.4928 5.0668 30.928 5.38739 31.0602 5.85221C32.6745 11.5239 33.7983 12.6139 39.6466 14.1795C40.1259 14.3078 40.4564 14.7299 40.4564 15.2107C40.4564 15.6916 40.1259 16.1137 39.6466 16.2419Z" fill="url(#paint1_linear_1_1360)"/>
<path d="M5.14001 58.7243C5.14001 57.0246 6.5179 55.6467 8.2176 55.6467H51.3038C53.0035 55.6467 54.3814 57.0246 54.3814 58.7243C54.3814 59.2909 53.9221 59.7502 53.3555 59.7502H6.16588C5.59931 59.7502 5.14001 59.2909 5.14001 58.7243Z" fill="url(#paint2_linear_1_1360)"/>
<defs>
<linearGradient id="paint0_linear_1_1360" x1="46.9095" y1="38.9872" x2="42.1073" y2="55.711" gradientUnits="userSpaceOnUse">
<stop stop-color="#00B7FF"/>
<stop offset="1" stop-color="#0EB05C"/>
</linearGradient>
<linearGradient id="paint1_linear_1_1360" x1="47.0739" y1="6.96439" x2="32.2989" y2="33.8401" gradientUnits="userSpaceOnUse">
<stop stop-color="#00B7FF"/>
<stop offset="1" stop-color="#0EB05C"/>
</linearGradient>
<linearGradient id="paint2_linear_1_1360" x1="43.8908" y1="56.5358" x2="43.4863" y2="61.1345" gradientUnits="userSpaceOnUse">
<stop stop-color="#00B7FF"/>
<stop offset="1" stop-color="#0EB05C"/>
</linearGradient>
</defs>
</svg>
