<svg width="68" height="68" viewBox="0 0 68 68" fill="none" xmlns="http://www.w3.org/2000/svg">
<path d="M16.9722 20.3161L5.00049 14.2832V28.0506C5.00049 28.8088 5.43274 29.5113 6.13295 29.8638L17 35.3007V20.2603L16.9722 20.3161Z" fill="url(#paint0_linear_1_1323)"/>
<path d="M18.9924 16.771L30.9641 10.766L19.91 5.22252C19.3438 4.92583 18.6688 4.92583 18.1026 5.22252L7.02069 10.766L18.9924 16.771Z" fill="url(#paint1_linear_1_1323)"/>
<path d="M21.0168 20.3165V35.3291L31.8839 29.8921C32.5589 29.5396 33.0164 28.8372 33.0164 28.0789V14.3115L21.0447 20.3165H21.0168Z" fill="url(#paint2_linear_1_1323)"/>
<path d="M48.977 50.9907C47.8723 50.9907 46.9547 50.0702 46.9547 48.962V45.9595C46.9547 45.2013 47.387 44.4988 48.0872 44.1463L51.0801 42.6324C52.0786 42.1176 53.292 42.5513 53.8025 43.553C54.3157 44.5547 53.9112 45.7719 52.8849 46.2841L50.9966 47.23V48.9873C50.9966 50.0955 50.079 51.0161 48.9744 51.0161L48.977 50.9907Z" fill="url(#paint3_linear_1_1323)"/>
<path d="M48.977 63.0006C48.6003 63.0006 48.249 62.8916 47.9254 62.7039C47.3314 62.3261 46.9547 61.6769 46.9547 60.9719V56.4555C46.9547 55.3473 47.8723 54.4268 48.977 54.4268C50.0816 54.4268 50.9992 55.3473 50.9992 56.4555V57.6727H51.0801C52.0786 57.1326 53.292 57.5383 53.8025 58.5374C54.3157 59.5391 53.9112 60.7564 52.8849 61.2686L49.892 62.7825C49.5962 62.9169 49.298 62.998 49.0022 62.998L48.977 63.0006Z" fill="url(#paint4_linear_1_1323)"/>
<path d="M57.9574 58.5093C57.2016 58.5093 56.5014 58.1035 56.15 57.4011C55.6369 56.3994 56.0413 55.1821 57.0676 54.6699L58.9559 53.7241V51.9667C58.9559 50.8585 59.8736 49.938 60.9782 49.938C62.0828 49.938 63.0004 50.8585 63.0004 51.9667V54.9692C63.0004 55.7275 62.5682 56.4299 61.868 56.7824L58.875 58.2963C58.5793 58.4307 58.281 58.5119 57.9853 58.5119L57.9574 58.5093Z" fill="url(#paint5_linear_1_1323)"/>
<path d="M60.9496 47.9881C59.845 47.9881 58.9273 47.0675 58.9273 45.9593V43.2282H58.8465C57.848 43.7683 56.6346 43.3626 56.124 42.3635C55.6109 41.3618 56.0153 40.1445 57.0416 39.6323L60.0346 38.1184C60.6539 37.7938 61.4097 37.8471 62.0038 38.1996C62.5978 38.5774 62.9744 39.2266 62.9744 39.9316V45.9366C62.9744 47.0448 62.0568 47.9653 60.9522 47.9653L60.9496 47.9881Z" fill="url(#paint6_linear_1_1323)"/>
<path d="M48.9798 50.9907C47.8752 50.9907 46.9576 50.0701 46.9576 48.9619V47.2046L45.0693 46.2587C44.0708 45.7439 43.6663 44.5267 44.1517 43.5276C44.6648 42.5259 45.8782 42.1201 46.8741 42.607L49.867 44.1209C50.542 44.4734 50.9995 45.1759 50.9995 45.9341V48.9366C50.9995 50.0448 50.0819 50.9653 48.9772 50.9653L48.9798 50.9907Z" fill="url(#paint7_linear_1_1323)"/>
<path d="M48.9769 63.0006C48.6811 63.0006 48.3576 62.9194 48.0871 62.785L45.0942 61.2711C44.0957 60.7563 43.6912 59.5391 44.1766 58.54C44.6619 57.5383 45.9031 57.1325 46.899 57.6194H46.9799V56.4301C46.9799 55.3219 47.8975 54.4014 49.0021 54.4014C50.1068 54.4014 51.0244 55.3219 51.0244 56.4301V60.9465C51.0244 61.6489 50.673 62.2981 50.0537 62.6785C49.7301 62.8687 49.3535 62.9752 49.0021 62.9752L48.9769 63.0006Z" fill="url(#paint8_linear_1_1323)"/>
<path d="M39.9711 58.5092C39.6754 58.5092 39.3518 58.428 39.0813 58.2936L36.0884 56.7797C35.4134 56.4272 34.9559 55.7248 34.9559 54.9665V51.964C34.9559 50.8559 35.8735 49.9353 36.9782 49.9353C38.0828 49.9353 39.0004 50.8559 39.0004 51.964V53.7214L40.8887 54.6673C41.8872 55.182 42.2917 56.3993 41.8063 57.3984C41.455 58.1008 40.7269 58.5066 39.9989 58.5066L39.9711 58.5092Z" fill="url(#paint9_linear_1_1323)"/>
<path d="M36.9782 47.9879C35.8735 47.9879 34.9559 47.0673 34.9559 45.9591V39.9541C34.9559 39.2517 35.3073 38.6025 35.9266 38.2221C36.5206 37.8442 37.2739 37.8163 37.8958 38.1409L40.8887 39.6548C41.8872 40.1696 42.2917 41.3869 41.8063 42.386C41.321 43.3877 40.1077 43.7934 39.0839 43.3065H39.003V46.0124C39.003 47.1205 38.0854 48.0411 36.9808 48.0411L36.9782 47.9879Z" fill="url(#paint10_linear_1_1323)"/>
<path d="M54.9649 38.9524C54.6691 38.9524 54.3455 38.8712 54.0751 38.7368L48.979 36.1933L43.8829 38.7368C42.8592 39.2516 41.6711 38.818 41.1605 37.8163C40.6474 36.8146 41.0518 35.5973 42.0503 35.0851L48.0361 32.0826C48.6024 31.7859 49.2773 31.7859 49.8435 32.0826L55.8294 35.0851C56.8279 35.5999 57.2324 36.8172 56.747 37.8163C56.3957 38.5187 55.6676 38.9245 54.9396 38.9245L54.9649 38.9524Z" fill="url(#paint11_linear_1_1323)"/>
<path d="M55.554 29.3492C54.4494 29.3492 53.5317 28.4286 53.5317 27.3204V15.1481C53.5317 14.7703 53.236 14.471 52.8568 14.471H39.376C38.2714 14.471 37.3538 13.5505 37.3538 12.4423C37.3538 11.3341 38.2714 10.4136 39.376 10.4136H52.8568C55.4453 10.4136 57.5762 12.5514 57.5762 15.1481V27.3204C57.5762 28.4286 56.6586 29.3492 55.554 29.3492Z" fill="url(#paint12_linear_1_1323)"/>
<path d="M28.5931 57.7513H15.1123C12.5238 57.7513 10.3929 55.6135 10.3929 53.0168V39.4928C10.3929 38.3847 11.3105 37.4641 12.4151 37.4641C13.5198 37.4641 14.4374 38.3847 14.4374 39.4928V53.0168C14.4374 53.3946 14.7331 53.6939 15.1123 53.6939H28.5931C29.6978 53.6939 30.6154 54.6144 30.6154 55.7226C30.6154 56.8308 29.6978 57.7513 28.5931 57.7513Z" fill="url(#paint13_linear_1_1323)"/>
<defs>
<linearGradient id="paint0_linear_1_1323" x1="14.4436" y1="18.837" x2="4.51073" y2="24.2096" gradientUnits="userSpaceOnUse">
<stop stop-color="#00B7FF"/>
<stop offset="1" stop-color="#0EB05C"/>
</linearGradient>
<linearGradient id="paint1_linear_1_1323" x1="25.8631" y1="7.55039" x2="20.4282" y2="18.0239" gradientUnits="userSpaceOnUse">
<stop stop-color="#00B7FF"/>
<stop offset="1" stop-color="#0EB05C"/>
</linearGradient>
<linearGradient id="paint2_linear_1_1323" x1="30.46" y1="18.8653" x2="20.5271" y2="24.238" gradientUnits="userSpaceOnUse">
<stop stop-color="#00B7FF"/>
<stop offset="1" stop-color="#0EB05C"/>
</linearGradient>
<linearGradient id="paint3_linear_1_1323" x1="52.5185" y1="44.2782" x2="47.8094" y2="47.9452" gradientUnits="userSpaceOnUse">
<stop stop-color="#00B7FF"/>
<stop offset="1" stop-color="#0EB05C"/>
</linearGradient>
<linearGradient id="paint4_linear_1_1323" x1="52.5185" y1="56.2844" x2="47.8209" y2="59.9543" gradientUnits="userSpaceOnUse">
<stop stop-color="#00B7FF"/>
<stop offset="1" stop-color="#0EB05C"/>
</linearGradient>
<linearGradient id="paint5_linear_1_1323" x1="61.4937" y1="51.7957" x2="56.7957" y2="55.4672" gradientUnits="userSpaceOnUse">
<stop stop-color="#00B7FF"/>
<stop offset="1" stop-color="#0EB05C"/>
</linearGradient>
<linearGradient id="paint6_linear_1_1323" x1="61.4677" y1="40.0878" x2="56.2177" y2="43.5757" gradientUnits="userSpaceOnUse">
<stop stop-color="#00B7FF"/>
<stop offset="1" stop-color="#0EB05C"/>
</linearGradient>
<linearGradient id="paint7_linear_1_1323" x1="49.4969" y1="44.2624" x2="44.7957" y2="47.9195" gradientUnits="userSpaceOnUse">
<stop stop-color="#00B7FF"/>
<stop offset="1" stop-color="#0EB05C"/>
</linearGradient>
<linearGradient id="paint8_linear_1_1323" x1="49.5218" y1="56.2645" x2="44.8165" y2="59.9206" gradientUnits="userSpaceOnUse">
<stop stop-color="#00B7FF"/>
<stop offset="1" stop-color="#0EB05C"/>
</linearGradient>
<linearGradient id="paint9_linear_1_1323" x1="40.5082" y1="51.793" x2="35.813" y2="55.4534" gradientUnits="userSpaceOnUse">
<stop stop-color="#00B7FF"/>
<stop offset="1" stop-color="#0EB05C"/>
</linearGradient>
<linearGradient id="paint10_linear_1_1323" x1="40.5082" y1="40.1102" x2="35.2508" y2="43.5811" gradientUnits="userSpaceOnUse">
<stop stop-color="#00B7FF"/>
<stop offset="1" stop-color="#0EB05C"/>
</linearGradient>
<linearGradient id="paint11_linear_1_1323" x1="53.5403" y1="33.3973" x2="50.4658" y2="39.972" gradientUnits="userSpaceOnUse">
<stop stop-color="#00B7FF"/>
<stop offset="1" stop-color="#0EB05C"/>
</linearGradient>
<linearGradient id="paint12_linear_1_1323" x1="53.268" y1="14.5163" x2="42.5761" y2="25.3341" gradientUnits="userSpaceOnUse">
<stop stop-color="#00B7FF"/>
<stop offset="1" stop-color="#0EB05C"/>
</linearGradient>
<linearGradient id="paint13_linear_1_1323" x1="26.3071" y1="41.8597" x2="14.87" y2="52.6605" gradientUnits="userSpaceOnUse">
<stop stop-color="#00B7FF"/>
<stop offset="1" stop-color="#0EB05C"/>
</linearGradient>
</defs>
</svg>
