<svg width="64" height="64" viewBox="0 0 64 64" fill="none" xmlns="http://www.w3.org/2000/svg">
<path d="M15.9784 19.1111C15.9756 19.1167 15.9689 19.1189 15.9633 19.1161L7.60591 14.9045C6.27575 14.2342 4.70587 15.2011 4.70587 16.6906V26.4007C4.70587 27.1143 5.1127 27.7754 5.77172 28.1072L13.1047 31.776C14.4345 32.4413 15.9996 31.4743 15.9996 29.9873V19.1161C15.9996 19.1043 15.9836 19.1006 15.9784 19.1111Z" fill="#00B7FF"/>
<path d="M16.9783 15.3348C17.5426 15.6178 18.2074 15.6178 18.7717 15.3348L25.5781 11.9207C27.0492 11.1828 27.0491 9.08297 25.5779 8.34519L18.7386 4.91537C18.2057 4.63612 17.5704 4.63612 17.0375 4.91537L10.1783 8.34654C8.70558 9.08325 8.70442 11.1846 10.1764 11.9229L16.9783 15.3348Z" fill="#00B7FF"/>
<path d="M19.8012 19.1214C19.7895 19.1214 19.78 19.1309 19.78 19.1426V30.0138C19.78 31.5008 21.3451 32.4678 22.6749 31.8025L30.0079 28.1337C30.6431 27.8019 31.0737 27.1408 31.0737 26.4271V16.7103C31.0737 15.2224 29.5069 14.2555 28.177 14.9226L19.8107 19.1191C19.8078 19.1206 19.8045 19.1214 19.8012 19.1214Z" fill="#00B7FF"/>
<path d="M46.0946 48.0032C46.0952 47.9968 46.0902 47.9913 46.0838 47.9912C45.0495 47.9846 44.1925 47.1208 44.1925 46.0819V43.256C44.1925 42.5423 44.5993 41.8812 45.2583 41.5495L48.0752 40.1246C49.015 39.6401 50.157 40.0482 50.6375 40.991C51.1205 41.9338 50.7398 43.0794 49.7739 43.5615L49.1009 43.8986C48.4241 44.2376 47.9967 44.9298 47.9967 45.6868V46.1057C47.9967 47.1447 47.1397 48.0084 46.1054 48.0151C46.099 48.0151 46.0939 48.0096 46.0946 48.0032Z" fill="#00B7FF"/>
<path d="M46.0958 59.2946C45.7413 59.2946 45.4106 59.192 45.1061 59.0154C44.547 58.6598 44.1925 58.0488 44.1925 57.3852V53.1345C44.1925 52.0915 45.0561 51.2251 46.0958 51.2251C47.1355 51.2251 47.9991 52.0915 47.9991 53.1345V54.2194C47.9991 54.2529 48.0263 54.2801 48.0598 54.2801C48.0699 54.2801 48.0799 54.2775 48.0889 54.2728C49.026 53.7754 50.1593 54.1582 50.6375 55.094C51.1205 56.0367 50.7398 57.1824 49.7739 57.6645L46.957 59.0893C46.6786 59.2158 46.3979 59.2922 46.1196 59.2922L46.0958 59.2946Z" fill="#00B7FF"/>
<path d="M54.5478 55.0676C53.8364 55.0676 53.1774 54.6857 52.8467 54.0246C52.3637 53.0818 52.7444 51.9362 53.7103 51.4541L54.3833 51.117C55.0601 50.778 55.4875 50.0858 55.4875 49.3288V48.9099C55.4875 47.8669 56.3512 47.0005 57.3908 47.0005C58.4305 47.0005 59.2941 47.8669 59.2941 48.9099V51.7358C59.2941 52.4494 58.8873 53.1105 58.2283 53.4423L55.4114 54.8671C55.133 54.9936 54.8523 55.07 54.574 55.07L54.5478 55.0676Z" fill="#00B7FF"/>
<path d="M57.3659 45.1545C57.3652 45.1606 57.36 45.1652 57.3539 45.1651C56.3191 45.1592 55.4614 44.2952 55.4614 43.2558V40.7461C55.4614 40.7125 55.4342 40.6853 55.4007 40.6853C55.3906 40.6853 55.3806 40.6879 55.3716 40.6926C54.4345 41.19 53.3012 40.8073 52.823 39.8715C52.34 38.9287 52.7207 37.783 53.6866 37.301L56.5035 35.8761C57.0864 35.5706 57.7977 35.6207 58.3569 35.9525C58.9159 36.3081 59.2704 36.9191 59.2704 37.5826V43.2344C59.2704 44.2738 58.4128 45.1378 57.378 45.1438C57.3718 45.1438 57.3666 45.1484 57.3659 45.1545Z" fill="#00B7FF"/>
<path d="M46.097 47.9792C46.0976 47.9856 46.0925 47.9912 46.0861 47.9911C45.0519 47.9845 44.1949 47.1207 44.1949 46.0818V45.6628C44.1949 44.9058 43.7675 44.2137 43.0906 43.8746L42.4177 43.5375C41.4779 43.053 41.0972 41.9074 41.554 40.9671C42.037 40.0243 43.179 39.6424 44.1163 40.1007L46.9332 41.5255C47.5684 41.8573 47.999 42.5184 47.999 43.232V46.0579C47.999 47.0969 47.142 47.9606 46.1078 47.9673C46.1014 47.9673 46.0963 47.9729 46.097 47.9792Z" fill="#00B7FF"/>
<path d="M46.1077 59.2827C46.1001 59.2904 46.0897 59.2947 46.079 59.2946C45.8052 59.2916 45.5078 59.2157 45.2583 59.0918L42.4415 57.6669C41.5017 57.1824 41.121 56.0368 41.5778 55.0964C42.0325 54.158 43.1921 53.7753 44.1272 54.2238C44.1357 54.2278 44.145 54.23 44.1544 54.23C44.1886 54.23 44.2162 54.2024 44.2162 54.1682V53.1107C44.2162 52.0677 45.0799 51.2013 46.1195 51.2013C47.1592 51.2013 48.0228 52.0677 48.0228 53.1107V57.3614C48.0228 58.0225 47.6921 58.6335 47.1093 58.9916C46.8099 59.1676 46.4622 59.2674 46.1363 59.2707C46.1256 59.2709 46.1153 59.2751 46.1077 59.2827Z" fill="#00B7FF"/>
<path d="M37.6198 55.0676C37.3415 55.0676 37.0369 54.9912 36.7824 54.8647L33.9655 53.4398C33.3303 53.1081 32.8997 52.447 32.8997 51.7333V48.9074C32.8997 47.8644 33.7633 46.998 34.803 46.998C35.8426 46.998 36.7062 47.8644 36.7062 48.9074V49.3264C36.7062 50.0834 37.1337 50.7755 37.8105 51.1146L38.4835 51.4516C39.4232 51.9362 39.8039 53.0818 39.3471 54.0221C39.0164 54.6832 38.3312 55.0651 37.646 55.0651L37.6198 55.0676Z" fill="#00B7FF"/>
<path d="M34.8042 45.1901C34.8035 45.1761 34.7918 45.1651 34.7778 45.1649C33.7494 45.1511 32.8997 44.2902 32.8997 43.2557V37.6039C32.8997 36.9428 33.2304 36.3318 33.8132 35.9738C34.3723 35.6181 35.0813 35.5919 35.6666 35.8974L38.4835 37.3222C39.4232 37.8068 39.8039 38.9524 39.3471 39.8927C38.8923 40.8314 37.7584 41.214 36.7976 40.7651C36.7892 40.7612 36.78 40.7591 36.7708 40.7591C36.7365 40.7591 36.7087 40.7869 36.7087 40.8212V43.3058C36.7087 44.3403 35.8589 45.2012 34.8306 45.215C34.8165 45.2152 34.8049 45.2042 34.8042 45.1901Z" fill="#00B7FF"/>
<path d="M51.72 36.648C51.7246 36.6531 51.721 36.6611 51.7142 36.6611C51.4407 36.6579 51.1436 36.5821 50.8944 36.4583L46.9913 34.5102C46.4289 34.2295 45.7673 34.2295 45.205 34.5102L41.3018 36.4583C40.3383 36.9428 39.2201 36.5347 38.7396 35.5919C38.2566 34.6491 38.6373 33.5035 39.577 33.0214L45.2107 30.1955C45.7437 29.9163 46.3789 29.9163 46.9118 30.1955L52.5456 33.0214C53.4853 33.5059 53.866 34.6516 53.4092 35.5919C53.0814 36.2473 52.4051 36.6283 51.7258 36.6348C51.719 36.6349 51.7154 36.643 51.72 36.648Z" fill="#00B7FF"/>
<path d="M52.2865 27.6226C51.2468 27.6226 50.3832 26.7562 50.3832 25.7133V14.2569C50.3832 13.9013 50.1048 13.6197 49.748 13.6197H37.0602C36.0205 13.6197 35.1569 12.7533 35.1569 11.7103C35.1569 10.6673 36.0205 9.8009 37.0602 9.8009H49.748C52.1842 9.8009 54.1898 11.8129 54.1898 14.2569V25.7133C54.1898 26.7562 53.3261 27.6226 52.2865 27.6226Z" fill="#00B7FF"/>
<path d="M26.9113 54.3541H14.2235C11.7873 54.3541 9.78168 52.3421 9.78168 49.898V37.1696C9.78168 36.1267 10.6453 35.2603 11.685 35.2603C12.7246 35.2603 13.5883 36.1267 13.5883 37.1696V49.898C13.5883 50.2537 13.8666 50.5353 14.2235 50.5353H26.9113C27.951 50.5353 28.8146 51.4017 28.8146 52.4447C28.8146 53.4877 27.951 54.3541 26.9113 54.3541Z" fill="#00B7FF"/>
</svg>
