<svg width="68" height="68" viewBox="0 0 68 68" fill="none" xmlns="http://www.w3.org/2000/svg">
<path d="M45.1361 54.3258C44.2715 54.3258 43.5707 53.6249 43.5707 52.7604V48.6175C43.5707 46.6564 42.7917 44.7756 41.4052 43.3889C40.0187 42.0022 38.1381 41.2231 36.1773 41.2231C34.2164 41.2231 32.3359 42.0022 30.9493 43.3889C29.5628 44.7756 28.7838 46.6564 28.7838 48.6175V52.7845C28.7838 53.6357 28.0938 54.3258 27.2425 54.3258C26.2845 54.3258 25.3656 54.7064 24.6882 55.384C24.0107 56.0615 23.6301 56.9805 23.6301 57.9386V61.696C23.6301 62.0154 23.757 62.3217 23.9828 62.5476C24.2086 62.7734 24.5149 62.9003 24.8343 62.9003H47.5444C47.8637 62.9003 48.17 62.7734 48.3958 62.5476C48.6216 62.3217 48.7485 62.0154 48.7485 61.696V57.9386C48.7485 56.9805 48.3679 56.0615 47.6904 55.384C47.013 54.7064 46.0941 54.3258 45.1361 54.3258ZM36.3458 51.1101C36.3458 51.1033 36.3408 51.0976 36.3342 51.0967C35.7281 51.0099 35.1732 50.7082 34.7709 50.2463C34.366 49.7815 34.1429 49.1858 34.1429 48.5693C34.1429 47.9528 34.366 47.3571 34.7709 46.8922C35.1758 46.4274 35.7352 46.1248 36.3458 46.0403C36.7003 46.0057 37.058 46.0457 37.3961 46.1577C37.7342 46.2697 38.0451 46.4512 38.3088 46.6905C38.5725 46.9298 38.7833 47.2217 38.9275 47.5473C39.0718 47.873 39.1463 48.2252 39.1463 48.5813C39.1463 48.9375 39.0718 49.2897 38.9275 49.6154C38.7833 49.941 38.5725 50.2329 38.3088 50.4722C38.0451 50.7115 37.7342 50.893 37.3961 51.005C37.0619 51.1157 36.7085 51.156 36.3581 51.1235C36.3511 51.1229 36.3458 51.1171 36.3458 51.1101Z" fill="url(#paint0_linear_1_1383)"/>
<path d="M62.6703 26.2757C62.6602 26.2908 62.637 26.2873 62.6318 26.2699C61.9899 24.1428 60.6838 22.2765 58.9043 20.945C57.1126 19.6043 54.9364 18.877 52.6987 18.8712C51.683 18.8607 50.6742 19.0032 49.7058 19.2917C48.896 19.5329 47.9944 19.3825 47.4049 18.7772L43.739 15.0136C43.2468 14.5083 43.0788 13.7827 43.1525 13.0811C43.2583 12.0743 43.1518 11.052 42.8348 10.0817C42.3994 8.74912 41.5859 7.572 40.4934 6.69377C39.4008 5.81554 38.0764 5.27412 36.6816 5.13551C35.2868 4.9969 33.8817 5.26707 32.6377 5.91311C31.7862 6.37459 31.0361 7.00259 30.4321 7.75979C29.9667 8.3432 29.5953 8.99413 29.3301 9.68889C29.176 10.0926 28.9365 10.4632 28.594 10.7266L14.6565 21.4474C14.2348 21.7718 13.7013 21.9022 13.1693 21.8893C11.8438 21.8572 10.5273 22.1677 9.34966 22.7972C7.72157 23.6492 6.44016 25.0406 5.72477 26.7333C5.00938 28.426 4.90449 30.3148 5.42805 32.0763C5.95161 33.8378 7.07106 35.3626 8.59481 36.3896C9.85202 37.237 11.32 37.7021 12.8224 37.7401C13.4288 37.7555 14.0271 37.9592 14.4502 38.394L24.5219 48.742C24.7854 49.0127 25.2443 48.8262 25.2443 48.4485C25.2401 46.8531 25.585 45.2761 26.2548 43.8281C26.6208 43.0369 27.079 42.2947 27.6181 41.6162C28.3436 40.7033 28.4211 39.358 27.6014 38.5287L21.5276 32.3845C21.0388 31.8899 20.8613 31.1783 20.9292 30.4862C20.9737 30.0331 20.9785 29.577 20.9437 29.1232C20.8838 28.3424 21.1349 27.5436 21.7492 27.0579L31.4118 19.4182C32.0509 18.9129 32.9254 18.8713 33.6961 19.1357C34.1853 19.3035 34.6923 19.4187 35.2086 19.4786C35.7762 19.5444 36.3482 19.5424 36.9127 19.4737C37.6427 19.3849 38.4031 19.5581 38.9207 20.0804L42.4614 23.6531C43.0668 24.2641 43.1946 25.1882 42.9201 26.0033C42.5687 27.0471 42.389 28.1444 42.3913 29.2522C42.3898 31.5451 43.1475 33.7741 44.546 35.591C45.9445 37.408 47.9051 38.7107 50.1218 39.2959C50.3776 39.3303 50.6368 39.3303 50.8925 39.2959C51.6242 39.2938 52.33 39.0252 52.8781 38.5404C53.4262 38.0556 53.7789 37.3877 53.8704 36.6617C53.9619 35.9356 53.7858 35.2011 53.3752 34.5955C52.9645 33.9898 52.3473 33.5545 51.6391 33.3708C50.9032 33.1759 50.2312 32.7916 49.6899 32.2563C49.1487 31.7209 48.7571 31.0531 48.554 30.3193C48.351 29.5855 48.3437 28.8114 48.5327 28.0739C48.7218 27.3364 49.1007 26.6613 49.6317 26.1158C50.1627 25.5702 50.8273 25.1733 51.5593 24.9644C52.2914 24.7555 53.0654 24.742 53.8042 24.9253C54.5431 25.1085 55.2211 25.4821 55.7708 26.0088C56.3205 26.5355 56.7226 27.197 56.9373 27.9275C57.0191 28.337 57.1852 28.725 57.4251 29.0668C57.6649 29.4086 57.9732 29.6968 58.3304 29.913C58.6876 30.1293 59.0859 30.2688 59.4999 30.3229C59.914 30.3769 60.3347 30.3441 60.7354 30.2268C61.1361 30.1094 61.508 29.9099 61.8275 29.6411C62.147 29.3722 62.407 29.0398 62.5911 28.665C62.7753 28.2902 62.8794 27.8812 62.8969 27.4639C62.9139 27.0604 62.8495 26.6578 62.7078 26.2799C62.7017 26.2637 62.6799 26.2613 62.6703 26.2757ZM13.0102 32.3352C12.5112 32.3304 12.0247 32.1781 11.612 31.8973C11.1993 31.6165 10.879 31.2199 10.6913 30.7574C10.5036 30.2949 10.4569 29.7872 10.5572 29.2982C10.6575 28.8092 10.9002 28.3608 11.2548 28.0095C11.6094 27.6583 12.0599 27.4198 12.5498 27.3241C13.0396 27.2285 13.5468 27.28 14.0075 27.4721C14.4682 27.6642 14.8617 27.9883 15.1385 28.4037C15.4153 28.819 15.563 29.307 15.563 29.8062C15.5806 30.145 15.5265 30.4837 15.4041 30.8001C15.2817 31.1165 15.0938 31.4035 14.8528 31.6423C14.6118 31.8811 14.3231 32.0662 14.0055 32.1856C13.688 32.305 13.3488 32.356 13.0102 32.3352ZM35.9852 14.9453C35.4661 14.9216 34.9653 14.7458 34.5453 14.4396C34.1253 14.1334 33.8047 13.7105 33.6233 13.2234C33.4418 12.7363 33.4077 12.2066 33.5251 11.7002C33.6425 11.1939 33.9062 10.7332 34.2834 10.3757C34.6606 10.0181 35.1346 9.77938 35.6465 9.68926C36.1583 9.59915 36.6854 9.6616 37.162 9.86885C37.6386 10.0761 38.0438 10.419 38.327 10.8548C38.6102 11.2906 38.759 11.8001 38.7548 12.3199C38.7553 12.6772 38.6829 13.0308 38.5421 13.3591C38.4012 13.6875 38.1948 13.9836 37.9356 14.2293C37.6763 14.4751 37.3696 14.6654 37.0342 14.7885C36.6989 14.9116 36.3419 14.9649 35.9852 14.9453Z" fill="url(#paint1_linear_1_1383)"/>
<defs>
<linearGradient id="paint0_linear_1_1383" x1="43.3972" y1="45.9199" x2="31.2096" y2="59.2993" gradientUnits="userSpaceOnUse">
<stop stop-color="#00B7FF"/>
<stop offset="1" stop-color="#0EB05C"/>
</linearGradient>
<linearGradient id="paint1_linear_1_1383" x1="50.5857" y1="14.7167" x2="26.0658" y2="44.9683" gradientUnits="userSpaceOnUse">
<stop stop-color="#00B7FF"/>
<stop offset="1" stop-color="#0EB05C"/>
</linearGradient>
</defs>
</svg>
