<svg width="64" height="64" viewBox="0 0 64 64" fill="none" xmlns="http://www.w3.org/2000/svg">
<path d="M42.4814 51.13C41.6677 51.13 41.0081 50.4704 41.0081 49.6567V45.7575C41.0081 43.9117 40.2749 42.1416 38.97 40.8364C37.665 39.5313 35.8951 38.7981 34.0496 38.7981C32.204 38.7981 30.4341 39.5313 29.1291 40.8364C27.8242 42.1416 27.091 43.9117 27.091 45.7575V49.6794C27.091 50.4805 26.4416 51.13 25.6404 51.13C24.7387 51.13 23.8739 51.4882 23.2363 52.1259C22.5987 52.7636 22.2405 53.6285 22.2405 54.5303V58.0667C22.2405 58.3673 22.3599 58.6556 22.5724 58.8682C22.785 59.0807 23.0732 59.2001 23.3738 59.2001H44.748C45.0486 59.2001 45.3368 59.0807 45.5494 58.8682C45.7619 58.6556 45.8813 58.3673 45.8813 58.0667V54.5303C45.8813 53.6285 45.5231 52.7636 44.8855 52.1259C44.2479 51.4882 43.3831 51.13 42.4814 51.13ZM34.2082 48.1035C34.2082 48.0971 34.2035 48.0917 34.1972 48.0908C33.6268 48.0092 33.1046 47.7252 32.7259 47.2905C32.3448 46.853 32.1348 46.2924 32.1348 45.7121C32.1348 45.1319 32.3448 44.5712 32.7259 44.1337C33.107 43.6962 33.6335 43.4114 34.2082 43.3319C34.5418 43.2994 34.8785 43.337 35.1967 43.4424C35.5149 43.5478 35.8075 43.7186 36.0557 43.9438C36.3039 44.1691 36.5023 44.4438 36.638 44.7502C36.7738 45.0567 36.8439 45.3882 36.8439 45.7235C36.8439 46.0587 36.7738 46.3902 36.638 46.6967C36.5023 47.0031 36.3039 47.2778 36.0557 47.5031C35.8075 47.7283 35.5149 47.8991 35.1967 48.0045C34.8822 48.1087 34.5496 48.1467 34.2197 48.1161C34.2132 48.1155 34.2082 48.11 34.2082 48.1035Z" fill="#00B7FF"/>
<path d="M58.9835 24.73C58.974 24.7442 58.9522 24.7409 58.9473 24.7246C58.3431 22.7225 57.1139 20.9661 55.439 19.7129C53.7527 18.451 51.7045 17.7666 49.5985 17.7611C48.6425 17.7512 47.6931 17.8853 46.7816 18.1568C46.0195 18.3839 45.1709 18.2423 44.616 17.6727L41.1658 14.1304C40.7026 13.6548 40.5444 12.9719 40.6138 12.3116C40.7134 11.364 40.6131 10.4019 40.3148 9.48858C39.905 8.23442 39.1394 7.12654 38.1111 6.29997C37.0828 5.4734 35.8363 4.96384 34.5235 4.83338C33.2107 4.70292 31.8884 4.9572 30.7176 5.56524C29.9161 5.99957 29.2101 6.59063 28.6416 7.30329C28.2036 7.85238 27.8541 8.46502 27.6045 9.11891C27.4594 9.49885 27.2341 9.84766 26.9117 10.0956L13.794 20.1858C13.3971 20.4911 12.895 20.6138 12.3943 20.6017C11.1468 20.5714 9.9077 20.8636 8.79937 21.4562C7.26704 22.258 6.06101 23.5676 5.38771 25.1607C4.7144 26.7538 4.61567 28.5315 5.10843 30.1894C5.6012 31.8473 6.6548 33.2824 8.08891 34.249C9.27217 35.0466 10.6538 35.4843 12.0678 35.5201C12.6386 35.5345 13.2017 35.7263 13.5999 36.1355L23.0792 45.8748C23.3271 46.1295 23.759 45.954 23.759 45.5986C23.7551 44.097 24.0797 42.6128 24.7101 41.25C25.0546 40.5053 25.4858 39.8067 25.9932 39.1681C26.676 38.3089 26.749 37.0428 25.9774 36.2623L20.261 30.4795C19.8009 30.014 19.6339 29.3442 19.6978 28.6929C19.7396 28.2664 19.7442 27.8371 19.7114 27.41C19.655 26.6751 19.8914 25.9234 20.4696 25.4662L29.5637 18.2759C30.1652 17.8003 30.9883 17.7612 31.7136 18.01C32.1741 18.168 32.6513 18.2764 33.1372 18.3327C33.6714 18.3946 34.2098 18.3928 34.7411 18.3282C35.4281 18.2446 36.1438 18.4076 36.631 18.8992L39.9634 22.2617C40.5332 22.8367 40.6534 23.7065 40.3951 24.4737C40.0643 25.456 39.8952 26.4888 39.8974 27.5314C39.896 29.6895 40.6091 31.7873 41.9253 33.4974C43.2415 35.2075 45.0868 36.4336 47.1732 36.9844C47.4139 37.0168 47.6578 37.0168 47.8985 36.9844C48.5872 36.9824 49.2515 36.7296 49.7673 36.2733C50.2831 35.817 50.6151 35.1884 50.7012 34.5051C50.7873 33.8217 50.6216 33.1304 50.2351 32.5604C49.8486 31.9904 49.2678 31.5806 48.6012 31.4078C47.9086 31.2243 47.2761 30.8627 46.7667 30.3588C46.2573 29.8549 45.8887 29.2264 45.6976 28.5358C45.5065 27.8452 45.4996 27.1166 45.6776 26.4225C45.8555 25.7283 46.2121 25.0929 46.7119 24.5795C47.2116 24.066 47.8371 23.6924 48.5261 23.4959C49.2151 23.2993 49.9436 23.2866 50.639 23.459C51.3344 23.6315 51.9725 23.9831 52.4899 24.4788C53.0072 24.9746 53.3857 25.5971 53.5877 26.2846C53.6647 26.67 53.8211 27.0352 54.0468 27.3569C54.2725 27.6787 54.5627 27.9499 54.8989 28.1534C55.2351 28.3569 55.6099 28.4883 55.9996 28.5391C56.3893 28.5899 56.7853 28.5591 57.1624 28.4487C57.5396 28.3382 57.8896 28.1505 58.1903 27.8974C58.491 27.6444 58.7357 27.3315 58.909 26.9788C59.0823 26.626 59.1803 26.2411 59.1968 25.8484C59.2128 25.4686 59.1522 25.0896 59.0188 24.734C59.013 24.7187 58.9925 24.7165 58.9835 24.73ZM12.2446 30.4331C11.7749 30.4286 11.317 30.2852 10.9286 30.0209C10.5402 29.7567 10.2387 29.3834 10.0621 28.9481C9.8854 28.5128 9.8415 28.0349 9.93587 27.5747C10.0302 27.1145 10.2587 26.6925 10.5924 26.3619C10.9261 26.0313 11.3502 25.8068 11.8113 25.7168C12.2723 25.6268 12.7497 25.6752 13.1832 25.856C13.6168 26.0368 13.9871 26.3419 14.2477 26.7328C14.5082 27.1237 14.6472 27.583 14.6472 28.0528C14.6638 28.3717 14.6128 28.6905 14.4976 28.9883C14.3824 29.2861 14.2056 29.5562 13.9788 29.7809C13.752 30.0057 13.4802 30.1799 13.1814 30.2923C12.8825 30.4047 12.5633 30.4526 12.2446 30.4331ZM33.8681 14.0661C33.3795 14.0438 32.9082 13.8783 32.5129 13.5902C32.1176 13.302 31.8158 12.9039 31.6451 12.4455C31.4744 11.987 31.4422 11.4885 31.5527 11.0119C31.6632 10.5354 31.9114 10.1018 32.2664 9.76528C32.6214 9.42874 33.0676 9.20408 33.5493 9.11926C34.031 9.03445 34.5271 9.09323 34.9757 9.28828C35.4243 9.48334 35.8056 9.80605 36.0721 10.2162C36.3387 10.6264 36.4787 11.106 36.4748 11.5952C36.4753 11.9314 36.4072 12.2642 36.2746 12.5733C36.142 12.8823 35.9478 13.161 35.7037 13.3923C35.4597 13.6236 35.1711 13.8027 34.8554 13.9185C34.5398 14.0344 34.2039 14.0846 33.8681 14.0661Z" fill="#00B7FF"/>
</svg>
