<svg width="60" height="60" viewBox="0 0 60 60" fill="none" xmlns="http://www.w3.org/2000/svg">
<path d="M53 15C53 9.58 42.4689 5 30 5C17.5311 5 7 9.58 7 15V20C7 25.42 17.5311 30 30 30C42.4689 30 53 25.42 53 20V15ZM30 47.5C17.5311 47.5 7 42.92 7 37.5V45C7 50.42 17.5311 55 30 55C42.4689 55 53 50.42 53 45V37.5C53 42.92 42.4689 47.5 30 47.5Z" fill="url(#paint0_linear_346_676)"/>
<path d="M53 24.792C53 30.4378 42.4689 35.2087 30 35.2087C17.5311 35.2087 7 30.4378 7 24.792V32.6045C7 38.2503 17.5311 43.0212 30 43.0212C42.4689 43.0212 53 38.2503 53 32.6045V24.792Z" fill="url(#paint1_linear_346_676)"/>
<defs>
<linearGradient id="paint0_linear_346_676" x1="43.2" y1="15.8333" x2="15.2305" y2="40.2116" gradientUnits="userSpaceOnUse">
<stop stop-color="#00B7FF"/>
<stop offset="1" stop-color="#0EB05C"/>
</linearGradient>
<linearGradient id="paint1_linear_346_676" x1="43.2" y1="28.7416" x2="35.8709" y2="46.2633" gradientUnits="userSpaceOnUse">
<stop stop-color="#00B7FF"/>
<stop offset="1" stop-color="#0EB05C"/>
</linearGradient>
</defs>
</svg>
