<svg width="60" height="60" viewBox="0 0 60 60" fill="none" xmlns="http://www.w3.org/2000/svg">
<path d="M37.7146 28.0714C38.7801 28.0714 39.6431 27.2084 39.6431 26.1429V4.92857C39.6431 3.86301 38.7801 3 37.7146 3H22.286C21.2204 3 20.3574 3.86301 20.3574 4.92857V26.1429C20.3574 27.2084 21.2204 28.0714 22.286 28.0714H37.7146Z" fill="url(#paint0_linear_346_647)"/>
<path d="M18.4286 39.6428H4.92857C3.86301 39.6428 3 40.5058 3 41.5714V55.0714C3 56.137 3.86301 57 4.92857 57H20.3571V41.5714C20.3571 40.5058 19.4941 39.6428 18.4286 39.6428ZM8.79065 53.1428C7.7275 53.1428 6.85727 52.2798 6.85727 51.2143C6.85727 50.1487 7.70824 49.2857 8.76899 49.2857H8.79069C9.85143 49.2857 10.7144 50.1487 10.7144 51.2143C10.7144 52.2798 9.8514 53.1428 8.79065 53.1428ZM8.79547 47.3571C7.73232 47.3571 6.86209 46.4941 6.86209 45.4285C6.86209 44.363 7.71307 43.5 8.77381 43.5H8.79551C9.85625 43.5 10.7193 44.363 10.7193 45.4285C10.7193 46.4941 9.85622 47.3571 8.79547 47.3571ZM14.5764 53.1428C13.5132 53.1428 12.643 52.2798 12.643 51.2143C12.643 50.1487 13.494 49.2857 14.5547 49.2857H14.5764C15.6372 49.2857 16.5002 50.1487 16.5002 51.2143C16.5002 52.2798 15.6371 53.1428 14.5764 53.1428ZM14.5764 47.3571C13.5132 47.3571 12.643 46.4941 12.643 45.4285C12.643 44.363 13.494 43.5 14.5547 43.5H14.5764C15.6372 43.5 16.5002 44.363 16.5002 45.4285C16.5002 46.4941 15.6371 47.3571 14.5764 47.3571Z" fill="url(#paint1_linear_346_647)"/>
<path d="M55.0709 51.2142H22.2852V56.9999H55.0709C56.1364 56.9999 56.9994 56.1369 56.9994 55.0714V53.1428C56.9994 52.0772 56.1364 51.2142 55.0709 51.2142Z" fill="url(#paint2_linear_346_647)"/>
<path d="M12.642 22.2857H18.4277V16.5H12.642V14.5714C12.642 13.5058 11.779 12.6428 10.7134 12.6428H6.85631C5.79075 12.6428 4.92773 13.5058 4.92773 14.5714V37.7143H12.642V22.2857Z" fill="url(#paint3_linear_346_647)"/>
<path d="M30.0006 43.5C31.0661 43.5 31.9291 42.637 31.9291 41.5714V35.7857H33.8577C34.9233 35.7857 35.7863 34.9227 35.7863 33.8571V30H24.2148V33.8571C24.2148 34.9227 25.0779 35.7857 26.1434 35.7857H28.072V41.5714C28.072 42.637 28.935 43.5 30.0006 43.5Z" fill="url(#paint4_linear_346_647)"/>
<path d="M47.358 49.2857H55.0723V16.5C55.0723 15.4345 54.2093 14.5715 53.1437 14.5715C53.1437 10.3166 49.6843 6.85718 45.4294 6.85718H41.5723V10.7143H45.4294C47.5557 10.7143 49.2866 12.4452 49.2866 14.5715C48.221 14.5715 47.358 15.4345 47.358 16.5H41.5723V22.2857H47.358V49.2857Z" fill="url(#paint5_linear_346_647)"/>
<defs>
<linearGradient id="paint0_linear_346_647" x1="35.5344" y1="8.43214" x2="22.0573" y2="18.2538" gradientUnits="userSpaceOnUse">
<stop stop-color="#00B7FF"/>
<stop offset="1" stop-color="#0EB05C"/>
</linearGradient>
<linearGradient id="paint1_linear_346_647" x1="16.6593" y1="43.4035" x2="6.87236" y2="52.6756" gradientUnits="userSpaceOnUse">
<stop stop-color="#00B7FF"/>
<stop offset="1" stop-color="#0EB05C"/>
</linearGradient>
<linearGradient id="paint2_linear_346_647" x1="49.6038" y1="52.4678" x2="48.4888" y2="58.8058" gradientUnits="userSpaceOnUse">
<stop stop-color="#00B7FF"/>
<stop offset="1" stop-color="#0EB05C"/>
</linearGradient>
<linearGradient id="paint3_linear_346_647" x1="15.5516" y1="18.075" x2="4.09005" y2="23.9219" gradientUnits="userSpaceOnUse">
<stop stop-color="#00B7FF"/>
<stop offset="1" stop-color="#0EB05C"/>
</linearGradient>
<linearGradient id="paint4_linear_346_647" x1="33.3211" y1="32.925" x2="25.8601" y2="38.9836" gradientUnits="userSpaceOnUse">
<stop stop-color="#00B7FF"/>
<stop offset="1" stop-color="#0EB05C"/>
</linearGradient>
<linearGradient id="paint5_linear_346_647" x1="52.1962" y1="16.05" x2="38.955" y2="20.0415" gradientUnits="userSpaceOnUse">
<stop stop-color="#00B7FF"/>
<stop offset="1" stop-color="#0EB05C"/>
</linearGradient>
</defs>
</svg>
