<svg width="61" height="60" viewBox="0 0 61 60" fill="none" xmlns="http://www.w3.org/2000/svg">
<path d="M49.4444 5H10.5556C7.5 5 5 7.5 5 10.5556V49.4444C5 52.5 7.5 55 10.5556 55H49.4444C52.5 55 55 52.5 55 49.4444V10.5556C55 7.5 52.5 5 49.4444 5ZM21.6667 41.8889C21.6667 42.9935 20.7712 43.8889 19.6667 43.8889H18.1111C17.0065 43.8889 16.1111 42.9935 16.1111 41.8889V26.4444C16.1111 25.3399 17.0065 24.4444 18.1111 24.4444H19.6667C20.7712 24.4444 21.6667 25.3399 21.6667 26.4444V41.8889ZM32.7778 41.8889C32.7778 42.9935 31.8823 43.8889 30.7778 43.8889H29.2222C28.1177 43.8889 27.2222 42.9935 27.2222 41.8889V18.1111C27.2222 17.0065 28.1177 16.1111 29.2222 16.1111H30.7778C31.8823 16.1111 32.7778 17.0065 32.7778 18.1111V41.8889ZM43.8889 41.8889C43.8889 42.9935 42.9935 43.8889 41.8889 43.8889H40.3333C39.2288 43.8889 38.3333 42.9935 38.3333 41.8889V34.7778C38.3333 33.6732 39.2288 32.7778 40.3333 32.7778H41.8889C42.9935 32.7778 43.8889 33.6732 43.8889 34.7778V41.8889Z" fill="url(#paint0_linear_346_686)"/>
<defs>
<linearGradient id="paint0_linear_346_686" x1="44.3478" y1="15.8333" x2="16.1549" y2="42.5431" gradientUnits="userSpaceOnUse">
<stop stop-color="#00B7FF"/>
<stop offset="1" stop-color="#0EB05C"/>
</linearGradient>
</defs>
</svg>
