<svg width="61" height="60" viewBox="0 0 61 60" fill="none" xmlns="http://www.w3.org/2000/svg">
<path d="M53.6561 23.7518H39.5925C38.6452 23.7518 37.7858 23.1854 37.4244 22.3066C37.0631 21.4277 37.2584 20.4219 37.9323 19.7481L42.4932 15.1879C35.1391 9.46553 24.4938 9.98308 17.7355 16.7405C10.4107 24.0643 10.4107 35.9288 17.7355 43.2526C25.0602 50.5764 36.9263 50.5764 44.2511 43.2526C45.0519 42.4519 45.7649 41.6023 46.3899 40.704C47.3763 39.288 49.3296 38.9462 50.7457 39.9325C52.1618 40.9188 52.5037 42.8718 51.5173 44.2877C50.6871 45.4791 49.7398 46.6118 48.6752 47.6762C38.9089 57.4413 23.0777 57.4413 13.3211 47.6762C3.56452 37.9111 3.55475 22.0917 13.3211 12.3267C22.5308 3.11824 37.1217 2.60069 46.9466 10.7448L51.9958 5.68645C52.6697 5.01266 53.6756 4.81736 54.5546 5.17867C55.4336 5.53997 56 6.3993 56 7.34651V21.4082C56 22.7069 54.955 23.7518 53.6561 23.7518Z" fill="url(#paint0_linear_346_659)"/>
<defs>
<linearGradient id="paint0_linear_346_659" x1="45.3478" y1="15.8333" x2="17.1549" y2="42.5431" gradientUnits="userSpaceOnUse">
<stop stop-color="#00B7FF"/>
<stop offset="1" stop-color="#0EB05C"/>
</linearGradient>
</defs>
</svg>
