<svg width="61" height="60" viewBox="0 0 61 60" fill="none" xmlns="http://www.w3.org/2000/svg">
<path d="M26.9144 55C25.7327 55 24.7155 54.625 23.8629 53.875C23.0103 53.125 22.4956 52.2083 22.3188 51.125L21.7279 47C21.159 46.7917 20.6232 46.5417 20.1208 46.25C19.6183 45.9583 19.1255 45.6458 18.6423 45.3125L14.572 46.9375C13.4778 47.3958 12.3836 47.4375 11.2894 47.0625C10.1952 46.6875 9.34174 46.0208 8.72899 45.0625L5.64338 39.9375C5.03064 38.9792 4.85557 37.9583 5.11817 36.875C5.38078 35.7917 5.97164 34.8958 6.89076 34.1875L10.3703 31.6875C10.3265 31.3958 10.3046 31.1142 10.3046 30.8425V29.155C10.3046 28.885 10.3265 28.6042 10.3703 28.3125L6.89076 25.8125C5.97164 25.1042 5.38078 24.2083 5.11817 23.125C4.85557 22.0417 5.03064 21.0208 5.64338 20.0625L8.72899 14.9375C9.34174 13.9792 10.1952 13.3125 11.2894 12.9375C12.3836 12.5625 13.4778 12.6042 14.572 13.0625L18.6423 14.6875C19.1238 14.3542 19.6271 14.0417 20.1523 13.75C20.6775 13.4583 21.2027 13.2083 21.7279 13L22.3188 8.875C22.4939 7.79167 23.0086 6.875 23.8629 6.125C24.7173 5.375 25.7344 5 26.9144 5H33.0856C34.2673 5 35.2854 5.375 36.1397 6.125C36.994 6.875 37.5079 7.79167 37.6812 8.875L38.2721 13C38.841 13.2083 39.3776 13.4583 39.8818 13.75C40.386 14.0417 40.878 14.3542 41.3577 14.6875L45.428 13.0625C46.5222 12.6042 47.6164 12.5625 48.7106 12.9375C49.8048 13.3125 50.6583 13.9792 51.271 14.9375L54.3566 20.0625C54.9694 21.0208 55.1444 22.0417 54.8818 23.125C54.6192 24.2083 54.0284 25.1042 53.1092 25.8125L49.6297 28.3125C49.6735 28.6042 49.6954 28.8858 49.6954 29.1575V30.8425C49.6954 31.1142 49.6516 31.3958 49.5641 31.6875L53.0436 34.1875C53.9627 34.8958 54.5536 35.7917 54.8162 36.875C55.0788 37.9583 54.9037 38.9792 54.291 39.9375L51.1397 45.0625C50.527 46.0208 49.6735 46.6875 48.5793 47.0625C47.4851 47.4375 46.3909 47.3958 45.2967 46.9375L41.3577 45.3125C40.8762 45.6458 40.3729 45.9583 39.8477 46.25C39.3225 46.5417 38.7973 46.7917 38.2721 47L37.6812 51.125C37.5061 52.2083 36.9923 53.125 36.1397 53.875C35.2871 54.625 34.2691 55 33.0856 55H26.9144ZM30.1313 38.75C32.6698 38.75 34.8363 37.8958 36.6308 36.1875C38.4252 34.4792 39.3225 32.4167 39.3225 30C39.3225 27.5833 38.4252 25.5208 36.6308 23.8125C34.8363 22.1042 32.6698 21.25 30.1313 21.25C27.549 21.25 25.3711 22.1042 23.5977 23.8125C21.8242 25.5208 20.9384 27.5833 20.9401 30C20.9419 32.4167 21.8286 34.4792 23.6003 36.1875C25.372 37.8958 27.549 38.75 30.1313 38.75Z" fill="url(#paint0_linear_346_694)"/>
<defs>
<linearGradient id="paint0_linear_346_694" x1="44.3478" y1="15.8333" x2="16.1549" y2="42.5431" gradientUnits="userSpaceOnUse">
<stop stop-color="#00B7FF"/>
<stop offset="1" stop-color="#0EB05C"/>
</linearGradient>
</defs>
</svg>
